G04 #@! TF.GenerationSoftware,KiCad,Pcbnew,(6.0.0-rc1-dev-509-gcac7479)*
G04 #@! TF.CreationDate,2018-10-23T14:14:01+08:00*
G04 #@! TF.ProjectId,DI-Lambda-UNO-Panelized-v1.7,44492D4C616D6264612D554E4F2D5061,rev?*
G04 #@! TF.SameCoordinates,Original*
G04 #@! TF.FileFunction,Soldermask,Top*
G04 #@! TF.FilePolarity,Negative*
%FSLAX46Y46*%
G04 Gerber Fmt 4.6, Leading zero omitted, Abs format (unit mm)*
G04 Created by KiCad (PCBNEW (6.0.0-rc1-dev-509-gcac7479)) date Tue Oct 23 14:14:01 2018*
%MOMM*%
%LPD*%
G01*
G04 APERTURE LIST*
%ADD10C,0.300000*%
%ADD11C,0.280000*%
%ADD12C,0.100000*%
G04 APERTURE END LIST*
D10*
X253557142Y-156321428D02*
X253557142Y-157821428D01*
X253200000Y-157821428D01*
X252985714Y-157750000D01*
X252842857Y-157607142D01*
X252771428Y-157464285D01*
X252700000Y-157178571D01*
X252700000Y-156964285D01*
X252771428Y-156678571D01*
X252842857Y-156535714D01*
X252985714Y-156392857D01*
X253200000Y-156321428D01*
X253557142Y-156321428D01*
X252057142Y-156321428D02*
X252057142Y-157821428D01*
X251342857Y-156892857D02*
X250200000Y-156892857D01*
X248771428Y-156321428D02*
X249485714Y-156321428D01*
X249485714Y-157821428D01*
X247628571Y-156321428D02*
X247628571Y-157107142D01*
X247700000Y-157250000D01*
X247842857Y-157321428D01*
X248128571Y-157321428D01*
X248271428Y-157250000D01*
X247628571Y-156392857D02*
X247771428Y-156321428D01*
X248128571Y-156321428D01*
X248271428Y-156392857D01*
X248342857Y-156535714D01*
X248342857Y-156678571D01*
X248271428Y-156821428D01*
X248128571Y-156892857D01*
X247771428Y-156892857D01*
X247628571Y-156964285D01*
X246914285Y-156321428D02*
X246914285Y-157321428D01*
X246914285Y-157178571D02*
X246842857Y-157250000D01*
X246700000Y-157321428D01*
X246485714Y-157321428D01*
X246342857Y-157250000D01*
X246271428Y-157107142D01*
X246271428Y-156321428D01*
X246271428Y-157107142D02*
X246200000Y-157250000D01*
X246057142Y-157321428D01*
X245842857Y-157321428D01*
X245700000Y-157250000D01*
X245628571Y-157107142D01*
X245628571Y-156321428D01*
X244914285Y-156321428D02*
X244914285Y-157821428D01*
X244914285Y-157250000D02*
X244771428Y-157321428D01*
X244485714Y-157321428D01*
X244342857Y-157250000D01*
X244271428Y-157178571D01*
X244200000Y-157035714D01*
X244200000Y-156607142D01*
X244271428Y-156464285D01*
X244342857Y-156392857D01*
X244485714Y-156321428D01*
X244771428Y-156321428D01*
X244914285Y-156392857D01*
X242914285Y-156321428D02*
X242914285Y-157821428D01*
X242914285Y-156392857D02*
X243057142Y-156321428D01*
X243342857Y-156321428D01*
X243485714Y-156392857D01*
X243557142Y-156464285D01*
X243628571Y-156607142D01*
X243628571Y-157035714D01*
X243557142Y-157178571D01*
X243485714Y-157250000D01*
X243342857Y-157321428D01*
X243057142Y-157321428D01*
X242914285Y-157250000D01*
X241557142Y-156321428D02*
X241557142Y-157107142D01*
X241628571Y-157250000D01*
X241771428Y-157321428D01*
X242057142Y-157321428D01*
X242200000Y-157250000D01*
X241557142Y-156392857D02*
X241700000Y-156321428D01*
X242057142Y-156321428D01*
X242200000Y-156392857D01*
X242271428Y-156535714D01*
X242271428Y-156678571D01*
X242200000Y-156821428D01*
X242057142Y-156892857D01*
X241700000Y-156892857D01*
X241557142Y-156964285D01*
X239700000Y-157821428D02*
X239700000Y-156607142D01*
X239628571Y-156464285D01*
X239557142Y-156392857D01*
X239414285Y-156321428D01*
X239128571Y-156321428D01*
X238985714Y-156392857D01*
X238914285Y-156464285D01*
X238842857Y-156607142D01*
X238842857Y-157821428D01*
X238128571Y-156321428D02*
X238128571Y-157821428D01*
X237271428Y-156321428D01*
X237271428Y-157821428D01*
X236271428Y-157821428D02*
X235985714Y-157821428D01*
X235842857Y-157750000D01*
X235700000Y-157607142D01*
X235628571Y-157321428D01*
X235628571Y-156821428D01*
X235700000Y-156535714D01*
X235842857Y-156392857D01*
X235985714Y-156321428D01*
X236271428Y-156321428D01*
X236414285Y-156392857D01*
X236557142Y-156535714D01*
X236628571Y-156821428D01*
X236628571Y-157321428D01*
X236557142Y-157607142D01*
X236414285Y-157750000D01*
X236271428Y-157821428D01*
X233985714Y-157321428D02*
X233628571Y-156321428D01*
X233271428Y-157321428D01*
X231914285Y-156321428D02*
X232771428Y-156321428D01*
X232342857Y-156321428D02*
X232342857Y-157821428D01*
X232485714Y-157607142D01*
X232628571Y-157464285D01*
X232771428Y-157392857D01*
X231271428Y-156464285D02*
X231200000Y-156392857D01*
X231271428Y-156321428D01*
X231342857Y-156392857D01*
X231271428Y-156464285D01*
X231271428Y-156321428D01*
X230700000Y-157821428D02*
X229700000Y-157821428D01*
X230342857Y-156321428D01*
D11*
X68733333Y-40033333D02*
X68733333Y-38633333D01*
X69066666Y-38633333D01*
X69266666Y-38700000D01*
X69400000Y-38833333D01*
X69466666Y-38966666D01*
X69533333Y-39233333D01*
X69533333Y-39433333D01*
X69466666Y-39700000D01*
X69400000Y-39833333D01*
X69266666Y-39966666D01*
X69066666Y-40033333D01*
X68733333Y-40033333D01*
X70133333Y-40033333D02*
X70133333Y-38633333D01*
X70800000Y-39500000D02*
X71866666Y-39500000D01*
X73200000Y-40033333D02*
X72533333Y-40033333D01*
X72533333Y-38633333D01*
X74266666Y-40033333D02*
X74266666Y-39300000D01*
X74200000Y-39166666D01*
X74066666Y-39100000D01*
X73800000Y-39100000D01*
X73666666Y-39166666D01*
X74266666Y-39966666D02*
X74133333Y-40033333D01*
X73800000Y-40033333D01*
X73666666Y-39966666D01*
X73600000Y-39833333D01*
X73600000Y-39700000D01*
X73666666Y-39566666D01*
X73800000Y-39500000D01*
X74133333Y-39500000D01*
X74266666Y-39433333D01*
X74933333Y-40033333D02*
X74933333Y-39100000D01*
X74933333Y-39233333D02*
X75000000Y-39166666D01*
X75133333Y-39100000D01*
X75333333Y-39100000D01*
X75466666Y-39166666D01*
X75533333Y-39300000D01*
X75533333Y-40033333D01*
X75533333Y-39300000D02*
X75600000Y-39166666D01*
X75733333Y-39100000D01*
X75933333Y-39100000D01*
X76066666Y-39166666D01*
X76133333Y-39300000D01*
X76133333Y-40033333D01*
X76800000Y-40033333D02*
X76800000Y-38633333D01*
X76800000Y-39166666D02*
X76933333Y-39100000D01*
X77200000Y-39100000D01*
X77333333Y-39166666D01*
X77400000Y-39233333D01*
X77466666Y-39366666D01*
X77466666Y-39766666D01*
X77400000Y-39900000D01*
X77333333Y-39966666D01*
X77200000Y-40033333D01*
X76933333Y-40033333D01*
X76800000Y-39966666D01*
X78666666Y-40033333D02*
X78666666Y-38633333D01*
X78666666Y-39966666D02*
X78533333Y-40033333D01*
X78266666Y-40033333D01*
X78133333Y-39966666D01*
X78066666Y-39900000D01*
X78000000Y-39766666D01*
X78000000Y-39366666D01*
X78066666Y-39233333D01*
X78133333Y-39166666D01*
X78266666Y-39100000D01*
X78533333Y-39100000D01*
X78666666Y-39166666D01*
X79933333Y-40033333D02*
X79933333Y-39300000D01*
X79866666Y-39166666D01*
X79733333Y-39100000D01*
X79466666Y-39100000D01*
X79333333Y-39166666D01*
X79933333Y-39966666D02*
X79800000Y-40033333D01*
X79466666Y-40033333D01*
X79333333Y-39966666D01*
X79266666Y-39833333D01*
X79266666Y-39700000D01*
X79333333Y-39566666D01*
X79466666Y-39500000D01*
X79800000Y-39500000D01*
X79933333Y-39433333D01*
X81666666Y-38633333D02*
X81666666Y-39766666D01*
X81733333Y-39900000D01*
X81800000Y-39966666D01*
X81933333Y-40033333D01*
X82200000Y-40033333D01*
X82333333Y-39966666D01*
X82400000Y-39900000D01*
X82466666Y-39766666D01*
X82466666Y-38633333D01*
X83133333Y-40033333D02*
X83133333Y-38633333D01*
X83933333Y-40033333D01*
X83933333Y-38633333D01*
X84866666Y-38633333D02*
X85133333Y-38633333D01*
X85266666Y-38700000D01*
X85400000Y-38833333D01*
X85466666Y-39100000D01*
X85466666Y-39566666D01*
X85400000Y-39833333D01*
X85266666Y-39966666D01*
X85133333Y-40033333D01*
X84866666Y-40033333D01*
X84733333Y-39966666D01*
X84600000Y-39833333D01*
X84533333Y-39566666D01*
X84533333Y-39100000D01*
X84600000Y-38833333D01*
X84733333Y-38700000D01*
X84866666Y-38633333D01*
X87000000Y-39100000D02*
X87333333Y-40033333D01*
X87666666Y-39100000D01*
X88933333Y-40033333D02*
X88133333Y-40033333D01*
X88533333Y-40033333D02*
X88533333Y-38633333D01*
X88400000Y-38833333D01*
X88266666Y-38966666D01*
X88133333Y-39033333D01*
X89533333Y-39900000D02*
X89600000Y-39966666D01*
X89533333Y-40033333D01*
X89466666Y-39966666D01*
X89533333Y-39900000D01*
X89533333Y-40033333D01*
X90066666Y-38633333D02*
X91000000Y-38633333D01*
X90400000Y-40033333D01*
D10*
X127907142Y-38821428D02*
X127907142Y-40321428D01*
X127550000Y-40321428D01*
X127335714Y-40250000D01*
X127192857Y-40107142D01*
X127121428Y-39964285D01*
X127050000Y-39678571D01*
X127050000Y-39464285D01*
X127121428Y-39178571D01*
X127192857Y-39035714D01*
X127335714Y-38892857D01*
X127550000Y-38821428D01*
X127907142Y-38821428D01*
X126407142Y-38821428D02*
X126407142Y-40321428D01*
X125692857Y-39392857D02*
X124550000Y-39392857D01*
X123121428Y-38821428D02*
X123835714Y-38821428D01*
X123835714Y-40321428D01*
X121978571Y-38821428D02*
X121978571Y-39607142D01*
X122050000Y-39750000D01*
X122192857Y-39821428D01*
X122478571Y-39821428D01*
X122621428Y-39750000D01*
X121978571Y-38892857D02*
X122121428Y-38821428D01*
X122478571Y-38821428D01*
X122621428Y-38892857D01*
X122692857Y-39035714D01*
X122692857Y-39178571D01*
X122621428Y-39321428D01*
X122478571Y-39392857D01*
X122121428Y-39392857D01*
X121978571Y-39464285D01*
X121264285Y-38821428D02*
X121264285Y-39821428D01*
X121264285Y-39678571D02*
X121192857Y-39750000D01*
X121050000Y-39821428D01*
X120835714Y-39821428D01*
X120692857Y-39750000D01*
X120621428Y-39607142D01*
X120621428Y-38821428D01*
X120621428Y-39607142D02*
X120550000Y-39750000D01*
X120407142Y-39821428D01*
X120192857Y-39821428D01*
X120050000Y-39750000D01*
X119978571Y-39607142D01*
X119978571Y-38821428D01*
X119264285Y-38821428D02*
X119264285Y-40321428D01*
X119264285Y-39750000D02*
X119121428Y-39821428D01*
X118835714Y-39821428D01*
X118692857Y-39750000D01*
X118621428Y-39678571D01*
X118550000Y-39535714D01*
X118550000Y-39107142D01*
X118621428Y-38964285D01*
X118692857Y-38892857D01*
X118835714Y-38821428D01*
X119121428Y-38821428D01*
X119264285Y-38892857D01*
X117264285Y-38821428D02*
X117264285Y-40321428D01*
X117264285Y-38892857D02*
X117407142Y-38821428D01*
X117692857Y-38821428D01*
X117835714Y-38892857D01*
X117907142Y-38964285D01*
X117978571Y-39107142D01*
X117978571Y-39535714D01*
X117907142Y-39678571D01*
X117835714Y-39750000D01*
X117692857Y-39821428D01*
X117407142Y-39821428D01*
X117264285Y-39750000D01*
X115907142Y-38821428D02*
X115907142Y-39607142D01*
X115978571Y-39750000D01*
X116121428Y-39821428D01*
X116407142Y-39821428D01*
X116550000Y-39750000D01*
X115907142Y-38892857D02*
X116050000Y-38821428D01*
X116407142Y-38821428D01*
X116550000Y-38892857D01*
X116621428Y-39035714D01*
X116621428Y-39178571D01*
X116550000Y-39321428D01*
X116407142Y-39392857D01*
X116050000Y-39392857D01*
X115907142Y-39464285D01*
X114050000Y-40321428D02*
X114050000Y-39107142D01*
X113978571Y-38964285D01*
X113907142Y-38892857D01*
X113764285Y-38821428D01*
X113478571Y-38821428D01*
X113335714Y-38892857D01*
X113264285Y-38964285D01*
X113192857Y-39107142D01*
X113192857Y-40321428D01*
X112478571Y-38821428D02*
X112478571Y-40321428D01*
X111621428Y-38821428D01*
X111621428Y-40321428D01*
X110621428Y-40321428D02*
X110335714Y-40321428D01*
X110192857Y-40250000D01*
X110050000Y-40107142D01*
X109978571Y-39821428D01*
X109978571Y-39321428D01*
X110050000Y-39035714D01*
X110192857Y-38892857D01*
X110335714Y-38821428D01*
X110621428Y-38821428D01*
X110764285Y-38892857D01*
X110907142Y-39035714D01*
X110978571Y-39321428D01*
X110978571Y-39821428D01*
X110907142Y-40107142D01*
X110764285Y-40250000D01*
X110621428Y-40321428D01*
X108335714Y-39821428D02*
X107978571Y-38821428D01*
X107621428Y-39821428D01*
X106264285Y-38821428D02*
X107121428Y-38821428D01*
X106692857Y-38821428D02*
X106692857Y-40321428D01*
X106835714Y-40107142D01*
X106978571Y-39964285D01*
X107121428Y-39892857D01*
X105621428Y-38964285D02*
X105550000Y-38892857D01*
X105621428Y-38821428D01*
X105692857Y-38892857D01*
X105621428Y-38964285D01*
X105621428Y-38821428D01*
X105050000Y-40321428D02*
X104050000Y-40321428D01*
X104692857Y-38821428D01*
X155600000Y-163546428D02*
X155600000Y-165046428D01*
X155242857Y-165046428D01*
X155028571Y-164975000D01*
X154885714Y-164832142D01*
X154814285Y-164689285D01*
X154742857Y-164403571D01*
X154742857Y-164189285D01*
X154814285Y-163903571D01*
X154885714Y-163760714D01*
X155028571Y-163617857D01*
X155242857Y-163546428D01*
X155600000Y-163546428D01*
X154100000Y-163546428D02*
X154100000Y-165046428D01*
X153385714Y-164117857D02*
X152242857Y-164117857D01*
X150814285Y-163546428D02*
X151528571Y-163546428D01*
X151528571Y-165046428D01*
X149671428Y-163546428D02*
X149671428Y-164332142D01*
X149742857Y-164475000D01*
X149885714Y-164546428D01*
X150171428Y-164546428D01*
X150314285Y-164475000D01*
X149671428Y-163617857D02*
X149814285Y-163546428D01*
X150171428Y-163546428D01*
X150314285Y-163617857D01*
X150385714Y-163760714D01*
X150385714Y-163903571D01*
X150314285Y-164046428D01*
X150171428Y-164117857D01*
X149814285Y-164117857D01*
X149671428Y-164189285D01*
X148957142Y-163546428D02*
X148957142Y-164546428D01*
X148957142Y-164403571D02*
X148885714Y-164475000D01*
X148742857Y-164546428D01*
X148528571Y-164546428D01*
X148385714Y-164475000D01*
X148314285Y-164332142D01*
X148314285Y-163546428D01*
X148314285Y-164332142D02*
X148242857Y-164475000D01*
X148100000Y-164546428D01*
X147885714Y-164546428D01*
X147742857Y-164475000D01*
X147671428Y-164332142D01*
X147671428Y-163546428D01*
X146957142Y-163546428D02*
X146957142Y-165046428D01*
X146957142Y-164475000D02*
X146814285Y-164546428D01*
X146528571Y-164546428D01*
X146385714Y-164475000D01*
X146314285Y-164403571D01*
X146242857Y-164260714D01*
X146242857Y-163832142D01*
X146314285Y-163689285D01*
X146385714Y-163617857D01*
X146528571Y-163546428D01*
X146814285Y-163546428D01*
X146957142Y-163617857D01*
X144957142Y-163546428D02*
X144957142Y-165046428D01*
X144957142Y-163617857D02*
X145100000Y-163546428D01*
X145385714Y-163546428D01*
X145528571Y-163617857D01*
X145600000Y-163689285D01*
X145671428Y-163832142D01*
X145671428Y-164260714D01*
X145600000Y-164403571D01*
X145528571Y-164475000D01*
X145385714Y-164546428D01*
X145100000Y-164546428D01*
X144957142Y-164475000D01*
X143600000Y-163546428D02*
X143600000Y-164332142D01*
X143671428Y-164475000D01*
X143814285Y-164546428D01*
X144100000Y-164546428D01*
X144242857Y-164475000D01*
X143600000Y-163617857D02*
X143742857Y-163546428D01*
X144100000Y-163546428D01*
X144242857Y-163617857D01*
X144314285Y-163760714D01*
X144314285Y-163903571D01*
X144242857Y-164046428D01*
X144100000Y-164117857D01*
X143742857Y-164117857D01*
X143600000Y-164189285D01*
X154528571Y-162496428D02*
X154528571Y-161282142D01*
X154457142Y-161139285D01*
X154385714Y-161067857D01*
X154242857Y-160996428D01*
X153957142Y-160996428D01*
X153814285Y-161067857D01*
X153742857Y-161139285D01*
X153671428Y-161282142D01*
X153671428Y-162496428D01*
X152957142Y-160996428D02*
X152957142Y-162496428D01*
X152100000Y-160996428D01*
X152100000Y-162496428D01*
X151100000Y-162496428D02*
X150814285Y-162496428D01*
X150671428Y-162425000D01*
X150528571Y-162282142D01*
X150457142Y-161996428D01*
X150457142Y-161496428D01*
X150528571Y-161210714D01*
X150671428Y-161067857D01*
X150814285Y-160996428D01*
X151100000Y-160996428D01*
X151242857Y-161067857D01*
X151385714Y-161210714D01*
X151457142Y-161496428D01*
X151457142Y-161996428D01*
X151385714Y-162282142D01*
X151242857Y-162425000D01*
X151100000Y-162496428D01*
X148814285Y-161996428D02*
X148457142Y-160996428D01*
X148100000Y-161996428D01*
X146742857Y-160996428D02*
X147600000Y-160996428D01*
X147171428Y-160996428D02*
X147171428Y-162496428D01*
X147314285Y-162282142D01*
X147457142Y-162139285D01*
X147600000Y-162067857D01*
X146100000Y-161139285D02*
X146028571Y-161067857D01*
X146100000Y-160996428D01*
X146171428Y-161067857D01*
X146100000Y-161139285D01*
X146100000Y-160996428D01*
X145528571Y-162496428D02*
X144528571Y-162496428D01*
X145171428Y-160996428D01*
X230242857Y-107478571D02*
X230242857Y-105978571D01*
X230600000Y-105978571D01*
X230814285Y-106050000D01*
X230957142Y-106192857D01*
X231028571Y-106335714D01*
X231100000Y-106621428D01*
X231100000Y-106835714D01*
X231028571Y-107121428D01*
X230957142Y-107264285D01*
X230814285Y-107407142D01*
X230600000Y-107478571D01*
X230242857Y-107478571D01*
X231742857Y-107478571D02*
X231742857Y-105978571D01*
X232457142Y-106907142D02*
X233600000Y-106907142D01*
X235028571Y-107478571D02*
X234314285Y-107478571D01*
X234314285Y-105978571D01*
X236171428Y-107478571D02*
X236171428Y-106692857D01*
X236100000Y-106550000D01*
X235957142Y-106478571D01*
X235671428Y-106478571D01*
X235528571Y-106550000D01*
X236171428Y-107407142D02*
X236028571Y-107478571D01*
X235671428Y-107478571D01*
X235528571Y-107407142D01*
X235457142Y-107264285D01*
X235457142Y-107121428D01*
X235528571Y-106978571D01*
X235671428Y-106907142D01*
X236028571Y-106907142D01*
X236171428Y-106835714D01*
X236885714Y-107478571D02*
X236885714Y-106478571D01*
X236885714Y-106621428D02*
X236957142Y-106550000D01*
X237100000Y-106478571D01*
X237314285Y-106478571D01*
X237457142Y-106550000D01*
X237528571Y-106692857D01*
X237528571Y-107478571D01*
X237528571Y-106692857D02*
X237600000Y-106550000D01*
X237742857Y-106478571D01*
X237957142Y-106478571D01*
X238100000Y-106550000D01*
X238171428Y-106692857D01*
X238171428Y-107478571D01*
X238885714Y-107478571D02*
X238885714Y-105978571D01*
X238885714Y-106550000D02*
X239028571Y-106478571D01*
X239314285Y-106478571D01*
X239457142Y-106550000D01*
X239528571Y-106621428D01*
X239600000Y-106764285D01*
X239600000Y-107192857D01*
X239528571Y-107335714D01*
X239457142Y-107407142D01*
X239314285Y-107478571D01*
X239028571Y-107478571D01*
X238885714Y-107407142D01*
X240885714Y-107478571D02*
X240885714Y-105978571D01*
X240885714Y-107407142D02*
X240742857Y-107478571D01*
X240457142Y-107478571D01*
X240314285Y-107407142D01*
X240242857Y-107335714D01*
X240171428Y-107192857D01*
X240171428Y-106764285D01*
X240242857Y-106621428D01*
X240314285Y-106550000D01*
X240457142Y-106478571D01*
X240742857Y-106478571D01*
X240885714Y-106550000D01*
X242242857Y-107478571D02*
X242242857Y-106692857D01*
X242171428Y-106550000D01*
X242028571Y-106478571D01*
X241742857Y-106478571D01*
X241600000Y-106550000D01*
X242242857Y-107407142D02*
X242100000Y-107478571D01*
X241742857Y-107478571D01*
X241600000Y-107407142D01*
X241528571Y-107264285D01*
X241528571Y-107121428D01*
X241600000Y-106978571D01*
X241742857Y-106907142D01*
X242100000Y-106907142D01*
X242242857Y-106835714D01*
X244100000Y-105978571D02*
X244100000Y-107192857D01*
X244171428Y-107335714D01*
X244242857Y-107407142D01*
X244385714Y-107478571D01*
X244671428Y-107478571D01*
X244814285Y-107407142D01*
X244885714Y-107335714D01*
X244957142Y-107192857D01*
X244957142Y-105978571D01*
X245671428Y-107478571D02*
X245671428Y-105978571D01*
X246528571Y-107478571D01*
X246528571Y-105978571D01*
X247528571Y-105978571D02*
X247814285Y-105978571D01*
X247957142Y-106050000D01*
X248100000Y-106192857D01*
X248171428Y-106478571D01*
X248171428Y-106978571D01*
X248100000Y-107264285D01*
X247957142Y-107407142D01*
X247814285Y-107478571D01*
X247528571Y-107478571D01*
X247385714Y-107407142D01*
X247242857Y-107264285D01*
X247171428Y-106978571D01*
X247171428Y-106478571D01*
X247242857Y-106192857D01*
X247385714Y-106050000D01*
X247528571Y-105978571D01*
X249814285Y-106478571D02*
X250171428Y-107478571D01*
X250528571Y-106478571D01*
X251885714Y-107478571D02*
X251028571Y-107478571D01*
X251457142Y-107478571D02*
X251457142Y-105978571D01*
X251314285Y-106192857D01*
X251171428Y-106335714D01*
X251028571Y-106407142D01*
X252528571Y-107335714D02*
X252600000Y-107407142D01*
X252528571Y-107478571D01*
X252457142Y-107407142D01*
X252528571Y-107335714D01*
X252528571Y-107478571D01*
X253100000Y-105978571D02*
X254100000Y-105978571D01*
X253457142Y-107478571D01*
D12*
G36*
X261975770Y-170115372D02*
X262091689Y-170138429D01*
X262273678Y-170213811D01*
X262437463Y-170323249D01*
X262576751Y-170462537D01*
X262686189Y-170626322D01*
X262761571Y-170808311D01*
X262800000Y-171001509D01*
X262800000Y-171198491D01*
X262761571Y-171391689D01*
X262686189Y-171573678D01*
X262576751Y-171737463D01*
X262437463Y-171876751D01*
X262273678Y-171986189D01*
X262091689Y-172061571D01*
X261975770Y-172084628D01*
X261898493Y-172100000D01*
X261701507Y-172100000D01*
X261624230Y-172084628D01*
X261508311Y-172061571D01*
X261326322Y-171986189D01*
X261162537Y-171876751D01*
X261023249Y-171737463D01*
X260913811Y-171573678D01*
X260838429Y-171391689D01*
X260800000Y-171198491D01*
X260800000Y-171001509D01*
X260838429Y-170808311D01*
X260913811Y-170626322D01*
X261023249Y-170462537D01*
X261162537Y-170323249D01*
X261326322Y-170213811D01*
X261508311Y-170138429D01*
X261624230Y-170115372D01*
X261701507Y-170100000D01*
X261898493Y-170100000D01*
X261975770Y-170115372D01*
X261975770Y-170115372D01*
G37*
G36*
X129281260Y-165817293D02*
X129363155Y-165851215D01*
X129437153Y-165900659D01*
X129455554Y-165915761D01*
X129477165Y-165927312D01*
X129500614Y-165934425D01*
X129525000Y-165936827D01*
X129549386Y-165934425D01*
X129572835Y-165927312D01*
X129594446Y-165915761D01*
X129612847Y-165900659D01*
X129686845Y-165851215D01*
X129768740Y-165817293D01*
X129855678Y-165800000D01*
X129944322Y-165800000D01*
X130031260Y-165817293D01*
X130113155Y-165851215D01*
X130187153Y-165900659D01*
X130205554Y-165915761D01*
X130227165Y-165927312D01*
X130250614Y-165934425D01*
X130275000Y-165936827D01*
X130299386Y-165934425D01*
X130322835Y-165927312D01*
X130344446Y-165915761D01*
X130362847Y-165900659D01*
X130436845Y-165851215D01*
X130518740Y-165817293D01*
X130605678Y-165800000D01*
X130694322Y-165800000D01*
X130781260Y-165817293D01*
X130863155Y-165851215D01*
X130936861Y-165900464D01*
X130999536Y-165963139D01*
X131048785Y-166036845D01*
X131082707Y-166118740D01*
X131100000Y-166205678D01*
X131100000Y-166294322D01*
X131082707Y-166381260D01*
X131048785Y-166463155D01*
X130999536Y-166536861D01*
X130936861Y-166599536D01*
X130863155Y-166648785D01*
X130781260Y-166682707D01*
X130694322Y-166700000D01*
X130605678Y-166700000D01*
X130518740Y-166682707D01*
X130436845Y-166648785D01*
X130362847Y-166599341D01*
X130344446Y-166584239D01*
X130322835Y-166572688D01*
X130299386Y-166565575D01*
X130275000Y-166563173D01*
X130250614Y-166565575D01*
X130227165Y-166572688D01*
X130205554Y-166584239D01*
X130187153Y-166599341D01*
X130113155Y-166648785D01*
X130031260Y-166682707D01*
X129944322Y-166700000D01*
X129855678Y-166700000D01*
X129768740Y-166682707D01*
X129686845Y-166648785D01*
X129612847Y-166599341D01*
X129594446Y-166584239D01*
X129572835Y-166572688D01*
X129549386Y-166565575D01*
X129525000Y-166563173D01*
X129500614Y-166565575D01*
X129477165Y-166572688D01*
X129455554Y-166584239D01*
X129437153Y-166599341D01*
X129363155Y-166648785D01*
X129281260Y-166682707D01*
X129194322Y-166700000D01*
X129105678Y-166700000D01*
X129018740Y-166682707D01*
X128936845Y-166648785D01*
X128863139Y-166599536D01*
X128800464Y-166536861D01*
X128751215Y-166463155D01*
X128717293Y-166381260D01*
X128700000Y-166294322D01*
X128700000Y-166205678D01*
X128717293Y-166118740D01*
X128751215Y-166036845D01*
X128800464Y-165963139D01*
X128863139Y-165900464D01*
X128936845Y-165851215D01*
X129018740Y-165817293D01*
X129105678Y-165800000D01*
X129194322Y-165800000D01*
X129281260Y-165817293D01*
X129281260Y-165817293D01*
G37*
G36*
X142681260Y-165817293D02*
X142763155Y-165851215D01*
X142837153Y-165900659D01*
X142855554Y-165915761D01*
X142877165Y-165927312D01*
X142900614Y-165934425D01*
X142925000Y-165936827D01*
X142949386Y-165934425D01*
X142972835Y-165927312D01*
X142994446Y-165915761D01*
X143012847Y-165900659D01*
X143086845Y-165851215D01*
X143168740Y-165817293D01*
X143255678Y-165800000D01*
X143344322Y-165800000D01*
X143431260Y-165817293D01*
X143513155Y-165851215D01*
X143587153Y-165900659D01*
X143605554Y-165915761D01*
X143627165Y-165927312D01*
X143650614Y-165934425D01*
X143675000Y-165936827D01*
X143699386Y-165934425D01*
X143722835Y-165927312D01*
X143744446Y-165915761D01*
X143762847Y-165900659D01*
X143836845Y-165851215D01*
X143918740Y-165817293D01*
X144005678Y-165800000D01*
X144094322Y-165800000D01*
X144181260Y-165817293D01*
X144263155Y-165851215D01*
X144336861Y-165900464D01*
X144399536Y-165963139D01*
X144448785Y-166036845D01*
X144482707Y-166118740D01*
X144500000Y-166205678D01*
X144500000Y-166294322D01*
X144482707Y-166381260D01*
X144448785Y-166463155D01*
X144399536Y-166536861D01*
X144336861Y-166599536D01*
X144263155Y-166648785D01*
X144181260Y-166682707D01*
X144094322Y-166700000D01*
X144005678Y-166700000D01*
X143918740Y-166682707D01*
X143836845Y-166648785D01*
X143762847Y-166599341D01*
X143744446Y-166584239D01*
X143722835Y-166572688D01*
X143699386Y-166565575D01*
X143675000Y-166563173D01*
X143650614Y-166565575D01*
X143627165Y-166572688D01*
X143605554Y-166584239D01*
X143587153Y-166599341D01*
X143513155Y-166648785D01*
X143431260Y-166682707D01*
X143344322Y-166700000D01*
X143255678Y-166700000D01*
X143168740Y-166682707D01*
X143086845Y-166648785D01*
X143012847Y-166599341D01*
X142994446Y-166584239D01*
X142972835Y-166572688D01*
X142949386Y-166565575D01*
X142925000Y-166563173D01*
X142900614Y-166565575D01*
X142877165Y-166572688D01*
X142855554Y-166584239D01*
X142837153Y-166599341D01*
X142763155Y-166648785D01*
X142681260Y-166682707D01*
X142594322Y-166700000D01*
X142505678Y-166700000D01*
X142418740Y-166682707D01*
X142336845Y-166648785D01*
X142263139Y-166599536D01*
X142200464Y-166536861D01*
X142151215Y-166463155D01*
X142117293Y-166381260D01*
X142100000Y-166294322D01*
X142100000Y-166205678D01*
X142117293Y-166118740D01*
X142151215Y-166036845D01*
X142200464Y-165963139D01*
X142263139Y-165900464D01*
X142336845Y-165851215D01*
X142418740Y-165817293D01*
X142505678Y-165800000D01*
X142594322Y-165800000D01*
X142681260Y-165817293D01*
X142681260Y-165817293D01*
G37*
G36*
X170281260Y-165817293D02*
X170363155Y-165851215D01*
X170437153Y-165900659D01*
X170455554Y-165915761D01*
X170477165Y-165927312D01*
X170500614Y-165934425D01*
X170525000Y-165936827D01*
X170549386Y-165934425D01*
X170572835Y-165927312D01*
X170594446Y-165915761D01*
X170612847Y-165900659D01*
X170686845Y-165851215D01*
X170768740Y-165817293D01*
X170855678Y-165800000D01*
X170944322Y-165800000D01*
X171031260Y-165817293D01*
X171113155Y-165851215D01*
X171187153Y-165900659D01*
X171205554Y-165915761D01*
X171227165Y-165927312D01*
X171250614Y-165934425D01*
X171275000Y-165936827D01*
X171299386Y-165934425D01*
X171322835Y-165927312D01*
X171344446Y-165915761D01*
X171362847Y-165900659D01*
X171436845Y-165851215D01*
X171518740Y-165817293D01*
X171605678Y-165800000D01*
X171694322Y-165800000D01*
X171781260Y-165817293D01*
X171863155Y-165851215D01*
X171936861Y-165900464D01*
X171999536Y-165963139D01*
X172048785Y-166036845D01*
X172082707Y-166118740D01*
X172100000Y-166205678D01*
X172100000Y-166294322D01*
X172082707Y-166381260D01*
X172048785Y-166463155D01*
X171999536Y-166536861D01*
X171936861Y-166599536D01*
X171863155Y-166648785D01*
X171781260Y-166682707D01*
X171694322Y-166700000D01*
X171605678Y-166700000D01*
X171518740Y-166682707D01*
X171436845Y-166648785D01*
X171362847Y-166599341D01*
X171344446Y-166584239D01*
X171322835Y-166572688D01*
X171299386Y-166565575D01*
X171275000Y-166563173D01*
X171250614Y-166565575D01*
X171227165Y-166572688D01*
X171205554Y-166584239D01*
X171187153Y-166599341D01*
X171113155Y-166648785D01*
X171031260Y-166682707D01*
X170944322Y-166700000D01*
X170855678Y-166700000D01*
X170768740Y-166682707D01*
X170686845Y-166648785D01*
X170612847Y-166599341D01*
X170594446Y-166584239D01*
X170572835Y-166572688D01*
X170549386Y-166565575D01*
X170525000Y-166563173D01*
X170500614Y-166565575D01*
X170477165Y-166572688D01*
X170455554Y-166584239D01*
X170437153Y-166599341D01*
X170363155Y-166648785D01*
X170281260Y-166682707D01*
X170194322Y-166700000D01*
X170105678Y-166700000D01*
X170018740Y-166682707D01*
X169936845Y-166648785D01*
X169863139Y-166599536D01*
X169800464Y-166536861D01*
X169751215Y-166463155D01*
X169717293Y-166381260D01*
X169700000Y-166294322D01*
X169700000Y-166205678D01*
X169717293Y-166118740D01*
X169751215Y-166036845D01*
X169800464Y-165963139D01*
X169863139Y-165900464D01*
X169936845Y-165851215D01*
X170018740Y-165817293D01*
X170105678Y-165800000D01*
X170194322Y-165800000D01*
X170281260Y-165817293D01*
X170281260Y-165817293D01*
G37*
G36*
X45881260Y-165817293D02*
X45963155Y-165851215D01*
X46037153Y-165900659D01*
X46055554Y-165915761D01*
X46077165Y-165927312D01*
X46100614Y-165934425D01*
X46125000Y-165936827D01*
X46149386Y-165934425D01*
X46172835Y-165927312D01*
X46194446Y-165915761D01*
X46212847Y-165900659D01*
X46286845Y-165851215D01*
X46368740Y-165817293D01*
X46455678Y-165800000D01*
X46544322Y-165800000D01*
X46631260Y-165817293D01*
X46713155Y-165851215D01*
X46787153Y-165900659D01*
X46805554Y-165915761D01*
X46827165Y-165927312D01*
X46850614Y-165934425D01*
X46875000Y-165936827D01*
X46899386Y-165934425D01*
X46922835Y-165927312D01*
X46944446Y-165915761D01*
X46962847Y-165900659D01*
X47036845Y-165851215D01*
X47118740Y-165817293D01*
X47205678Y-165800000D01*
X47294322Y-165800000D01*
X47381260Y-165817293D01*
X47463155Y-165851215D01*
X47536861Y-165900464D01*
X47599536Y-165963139D01*
X47648785Y-166036845D01*
X47682707Y-166118740D01*
X47700000Y-166205678D01*
X47700000Y-166294322D01*
X47682707Y-166381260D01*
X47648785Y-166463155D01*
X47599536Y-166536861D01*
X47536861Y-166599536D01*
X47463155Y-166648785D01*
X47381260Y-166682707D01*
X47294322Y-166700000D01*
X47205678Y-166700000D01*
X47118740Y-166682707D01*
X47036845Y-166648785D01*
X46962847Y-166599341D01*
X46944446Y-166584239D01*
X46922835Y-166572688D01*
X46899386Y-166565575D01*
X46875000Y-166563173D01*
X46850614Y-166565575D01*
X46827165Y-166572688D01*
X46805554Y-166584239D01*
X46787153Y-166599341D01*
X46713155Y-166648785D01*
X46631260Y-166682707D01*
X46544322Y-166700000D01*
X46455678Y-166700000D01*
X46368740Y-166682707D01*
X46286845Y-166648785D01*
X46212847Y-166599341D01*
X46194446Y-166584239D01*
X46172835Y-166572688D01*
X46149386Y-166565575D01*
X46125000Y-166563173D01*
X46100614Y-166565575D01*
X46077165Y-166572688D01*
X46055554Y-166584239D01*
X46037153Y-166599341D01*
X45963155Y-166648785D01*
X45881260Y-166682707D01*
X45794322Y-166700000D01*
X45705678Y-166700000D01*
X45618740Y-166682707D01*
X45536845Y-166648785D01*
X45463139Y-166599536D01*
X45400464Y-166536861D01*
X45351215Y-166463155D01*
X45317293Y-166381260D01*
X45300000Y-166294322D01*
X45300000Y-166205678D01*
X45317293Y-166118740D01*
X45351215Y-166036845D01*
X45400464Y-165963139D01*
X45463139Y-165900464D01*
X45536845Y-165851215D01*
X45618740Y-165817293D01*
X45705678Y-165800000D01*
X45794322Y-165800000D01*
X45881260Y-165817293D01*
X45881260Y-165817293D01*
G37*
G36*
X79381260Y-165817293D02*
X79463155Y-165851215D01*
X79537153Y-165900659D01*
X79555554Y-165915761D01*
X79577165Y-165927312D01*
X79600614Y-165934425D01*
X79625000Y-165936827D01*
X79649386Y-165934425D01*
X79672835Y-165927312D01*
X79694446Y-165915761D01*
X79712847Y-165900659D01*
X79786845Y-165851215D01*
X79868740Y-165817293D01*
X79955678Y-165800000D01*
X80044322Y-165800000D01*
X80131260Y-165817293D01*
X80213155Y-165851215D01*
X80287153Y-165900659D01*
X80305554Y-165915761D01*
X80327165Y-165927312D01*
X80350614Y-165934425D01*
X80375000Y-165936827D01*
X80399386Y-165934425D01*
X80422835Y-165927312D01*
X80444446Y-165915761D01*
X80462847Y-165900659D01*
X80536845Y-165851215D01*
X80618740Y-165817293D01*
X80705678Y-165800000D01*
X80794322Y-165800000D01*
X80881260Y-165817293D01*
X80963155Y-165851215D01*
X81036861Y-165900464D01*
X81099536Y-165963139D01*
X81148785Y-166036845D01*
X81182707Y-166118740D01*
X81200000Y-166205678D01*
X81200000Y-166294322D01*
X81182707Y-166381260D01*
X81148785Y-166463155D01*
X81099536Y-166536861D01*
X81036861Y-166599536D01*
X80963155Y-166648785D01*
X80881260Y-166682707D01*
X80794322Y-166700000D01*
X80705678Y-166700000D01*
X80618740Y-166682707D01*
X80536845Y-166648785D01*
X80462847Y-166599341D01*
X80444446Y-166584239D01*
X80422835Y-166572688D01*
X80399386Y-166565575D01*
X80375000Y-166563173D01*
X80350614Y-166565575D01*
X80327165Y-166572688D01*
X80305554Y-166584239D01*
X80287153Y-166599341D01*
X80213155Y-166648785D01*
X80131260Y-166682707D01*
X80044322Y-166700000D01*
X79955678Y-166700000D01*
X79868740Y-166682707D01*
X79786845Y-166648785D01*
X79712847Y-166599341D01*
X79694446Y-166584239D01*
X79672835Y-166572688D01*
X79649386Y-166565575D01*
X79625000Y-166563173D01*
X79600614Y-166565575D01*
X79577165Y-166572688D01*
X79555554Y-166584239D01*
X79537153Y-166599341D01*
X79463155Y-166648785D01*
X79381260Y-166682707D01*
X79294322Y-166700000D01*
X79205678Y-166700000D01*
X79118740Y-166682707D01*
X79036845Y-166648785D01*
X78963139Y-166599536D01*
X78900464Y-166536861D01*
X78851215Y-166463155D01*
X78817293Y-166381260D01*
X78800000Y-166294322D01*
X78800000Y-166205678D01*
X78817293Y-166118740D01*
X78851215Y-166036845D01*
X78900464Y-165963139D01*
X78963139Y-165900464D01*
X79036845Y-165851215D01*
X79118740Y-165817293D01*
X79205678Y-165800000D01*
X79294322Y-165800000D01*
X79381260Y-165817293D01*
X79381260Y-165817293D01*
G37*
G36*
X101681260Y-165817293D02*
X101763155Y-165851215D01*
X101837153Y-165900659D01*
X101855554Y-165915761D01*
X101877165Y-165927312D01*
X101900614Y-165934425D01*
X101925000Y-165936827D01*
X101949386Y-165934425D01*
X101972835Y-165927312D01*
X101994446Y-165915761D01*
X102012847Y-165900659D01*
X102086845Y-165851215D01*
X102168740Y-165817293D01*
X102255678Y-165800000D01*
X102344322Y-165800000D01*
X102431260Y-165817293D01*
X102513155Y-165851215D01*
X102587153Y-165900659D01*
X102605554Y-165915761D01*
X102627165Y-165927312D01*
X102650614Y-165934425D01*
X102675000Y-165936827D01*
X102699386Y-165934425D01*
X102722835Y-165927312D01*
X102744446Y-165915761D01*
X102762847Y-165900659D01*
X102836845Y-165851215D01*
X102918740Y-165817293D01*
X103005678Y-165800000D01*
X103094322Y-165800000D01*
X103181260Y-165817293D01*
X103263155Y-165851215D01*
X103336861Y-165900464D01*
X103399536Y-165963139D01*
X103448785Y-166036845D01*
X103482707Y-166118740D01*
X103500000Y-166205678D01*
X103500000Y-166294322D01*
X103482707Y-166381260D01*
X103448785Y-166463155D01*
X103399536Y-166536861D01*
X103336861Y-166599536D01*
X103263155Y-166648785D01*
X103181260Y-166682707D01*
X103094322Y-166700000D01*
X103005678Y-166700000D01*
X102918740Y-166682707D01*
X102836845Y-166648785D01*
X102762847Y-166599341D01*
X102744446Y-166584239D01*
X102722835Y-166572688D01*
X102699386Y-166565575D01*
X102675000Y-166563173D01*
X102650614Y-166565575D01*
X102627165Y-166572688D01*
X102605554Y-166584239D01*
X102587153Y-166599341D01*
X102513155Y-166648785D01*
X102431260Y-166682707D01*
X102344322Y-166700000D01*
X102255678Y-166700000D01*
X102168740Y-166682707D01*
X102086845Y-166648785D01*
X102012847Y-166599341D01*
X101994446Y-166584239D01*
X101972835Y-166572688D01*
X101949386Y-166565575D01*
X101925000Y-166563173D01*
X101900614Y-166565575D01*
X101877165Y-166572688D01*
X101855554Y-166584239D01*
X101837153Y-166599341D01*
X101763155Y-166648785D01*
X101681260Y-166682707D01*
X101594322Y-166700000D01*
X101505678Y-166700000D01*
X101418740Y-166682707D01*
X101336845Y-166648785D01*
X101263139Y-166599536D01*
X101200464Y-166536861D01*
X101151215Y-166463155D01*
X101117293Y-166381260D01*
X101100000Y-166294322D01*
X101100000Y-166205678D01*
X101117293Y-166118740D01*
X101151215Y-166036845D01*
X101200464Y-165963139D01*
X101263139Y-165900464D01*
X101336845Y-165851215D01*
X101418740Y-165817293D01*
X101505678Y-165800000D01*
X101594322Y-165800000D01*
X101681260Y-165817293D01*
X101681260Y-165817293D01*
G37*
G36*
X108183183Y-163386898D02*
X108195435Y-163387500D01*
X115104565Y-163387500D01*
X115116817Y-163386898D01*
X115149999Y-163383630D01*
X115150000Y-163383630D01*
X115173505Y-163385945D01*
X115183181Y-163386898D01*
X115195434Y-163387500D01*
X115370311Y-163387500D01*
X115371066Y-163388912D01*
X115386612Y-163407854D01*
X115405554Y-163423400D01*
X115438714Y-163439083D01*
X115457625Y-163444820D01*
X115596604Y-163519106D01*
X115596606Y-163519107D01*
X115596605Y-163519107D01*
X115718422Y-163619078D01*
X115718423Y-163619080D01*
X115718425Y-163619081D01*
X115818392Y-163740892D01*
X115892679Y-163879871D01*
X115938424Y-164030674D01*
X115950000Y-164148205D01*
X115950000Y-164926795D01*
X115938424Y-165044326D01*
X115892679Y-165195129D01*
X115818392Y-165334108D01*
X115718422Y-165455922D01*
X115596608Y-165555892D01*
X115457629Y-165630179D01*
X115446183Y-165633651D01*
X115438713Y-165635917D01*
X115416076Y-165645293D01*
X115395701Y-165658907D01*
X115378374Y-165676234D01*
X115370846Y-165687500D01*
X115195435Y-165687500D01*
X115183183Y-165688102D01*
X115150001Y-165691370D01*
X115150000Y-165691370D01*
X115116820Y-165688102D01*
X115104566Y-165687500D01*
X108195434Y-165687500D01*
X108183180Y-165688102D01*
X108150000Y-165691370D01*
X108149999Y-165691370D01*
X108116817Y-165688102D01*
X108104565Y-165687500D01*
X107929689Y-165687500D01*
X107928934Y-165686088D01*
X107913388Y-165667146D01*
X107894446Y-165651600D01*
X107872835Y-165640049D01*
X107861289Y-165635917D01*
X107853817Y-165633651D01*
X107842371Y-165630179D01*
X107703392Y-165555892D01*
X107581581Y-165455925D01*
X107581580Y-165455923D01*
X107581578Y-165455922D01*
X107481607Y-165334105D01*
X107407322Y-165195129D01*
X107407321Y-165195128D01*
X107384448Y-165119726D01*
X107361576Y-165044326D01*
X107350000Y-164926792D01*
X107350000Y-164148207D01*
X107361576Y-164030673D01*
X107361576Y-164030671D01*
X107407321Y-163879874D01*
X107481609Y-163740892D01*
X107581579Y-163619078D01*
X107703393Y-163519108D01*
X107842375Y-163444820D01*
X107861286Y-163439083D01*
X107883925Y-163429706D01*
X107904299Y-163416092D01*
X107921626Y-163398765D01*
X107929153Y-163387500D01*
X108104566Y-163387500D01*
X108116819Y-163386898D01*
X108126495Y-163385945D01*
X108150000Y-163383630D01*
X108150001Y-163383630D01*
X108183183Y-163386898D01*
X108183183Y-163386898D01*
G37*
G36*
X163600000Y-164930000D02*
X161500000Y-164930000D01*
X161500000Y-162330000D01*
X163600000Y-162330000D01*
X163600000Y-164930000D01*
X163600000Y-164930000D01*
G37*
G36*
X166140000Y-164930000D02*
X164040000Y-164930000D01*
X164040000Y-162330000D01*
X166140000Y-162330000D01*
X166140000Y-164930000D01*
X166140000Y-164930000D01*
G37*
G36*
X168680000Y-164930000D02*
X166580000Y-164930000D01*
X166580000Y-162330000D01*
X168680000Y-162330000D01*
X168680000Y-164930000D01*
X168680000Y-164930000D01*
G37*
G36*
X171220000Y-164930000D02*
X169120000Y-164930000D01*
X169120000Y-162330000D01*
X171220000Y-162330000D01*
X171220000Y-164930000D01*
X171220000Y-164930000D01*
G37*
G36*
X161060000Y-164930000D02*
X158960000Y-164930000D01*
X158960000Y-162330000D01*
X161060000Y-162330000D01*
X161060000Y-164930000D01*
X161060000Y-164930000D01*
G37*
G36*
X109419811Y-160948046D02*
X109419814Y-160948047D01*
X109419813Y-160948047D01*
X109588152Y-161017775D01*
X109706752Y-161097021D01*
X109743233Y-161121397D01*
X109755554Y-161131509D01*
X109777165Y-161143060D01*
X109800614Y-161150173D01*
X109825000Y-161152575D01*
X109849386Y-161150173D01*
X109872835Y-161143060D01*
X109894446Y-161131509D01*
X109913388Y-161115963D01*
X109928934Y-161097021D01*
X109940485Y-161075410D01*
X109947598Y-161051961D01*
X109950000Y-161027575D01*
X109950000Y-160962500D01*
X113350000Y-160962500D01*
X113350000Y-161027575D01*
X113352402Y-161051961D01*
X113359515Y-161075410D01*
X113371066Y-161097021D01*
X113386612Y-161115963D01*
X113405554Y-161131509D01*
X113427165Y-161143060D01*
X113450614Y-161150173D01*
X113475000Y-161152575D01*
X113499386Y-161150173D01*
X113522835Y-161143060D01*
X113544446Y-161131509D01*
X113556767Y-161121397D01*
X113593248Y-161097021D01*
X113711848Y-161017775D01*
X113880187Y-160948047D01*
X113880186Y-160948047D01*
X113880189Y-160948046D01*
X114058894Y-160912500D01*
X114241106Y-160912500D01*
X114419811Y-160948046D01*
X114419814Y-160948047D01*
X114419813Y-160948047D01*
X114588152Y-161017775D01*
X114706752Y-161097021D01*
X114739656Y-161119007D01*
X114868493Y-161247844D01*
X114868495Y-161247847D01*
X114969725Y-161399348D01*
X115023657Y-161529552D01*
X115039454Y-161567689D01*
X115075000Y-161746394D01*
X115075000Y-161928606D01*
X115039454Y-162107311D01*
X115039453Y-162107313D01*
X114969725Y-162275652D01*
X114969724Y-162275653D01*
X114868493Y-162427156D01*
X114739656Y-162555993D01*
X114739653Y-162555995D01*
X114588152Y-162657225D01*
X114457948Y-162711157D01*
X114419811Y-162726954D01*
X114241106Y-162762500D01*
X114058894Y-162762500D01*
X113880189Y-162726954D01*
X113842052Y-162711157D01*
X113711848Y-162657225D01*
X113560347Y-162555995D01*
X113556767Y-162553603D01*
X113544446Y-162543491D01*
X113522835Y-162531940D01*
X113499386Y-162524827D01*
X113475000Y-162522425D01*
X113450614Y-162524827D01*
X113427165Y-162531940D01*
X113405554Y-162543491D01*
X113386612Y-162559037D01*
X113371066Y-162577979D01*
X113359515Y-162599590D01*
X113352402Y-162623039D01*
X113350000Y-162647425D01*
X113350000Y-162712500D01*
X109950000Y-162712500D01*
X109950000Y-162647425D01*
X109947598Y-162623039D01*
X109940485Y-162599590D01*
X109928934Y-162577979D01*
X109913388Y-162559037D01*
X109894446Y-162543491D01*
X109872835Y-162531940D01*
X109849386Y-162524827D01*
X109825000Y-162522425D01*
X109800614Y-162524827D01*
X109777165Y-162531940D01*
X109755554Y-162543491D01*
X109743233Y-162553603D01*
X109739653Y-162555995D01*
X109588152Y-162657225D01*
X109457948Y-162711157D01*
X109419811Y-162726954D01*
X109241106Y-162762500D01*
X109058894Y-162762500D01*
X108880189Y-162726954D01*
X108842052Y-162711157D01*
X108711848Y-162657225D01*
X108560347Y-162555995D01*
X108560344Y-162555993D01*
X108431507Y-162427156D01*
X108330276Y-162275653D01*
X108330275Y-162275652D01*
X108260547Y-162107313D01*
X108260546Y-162107311D01*
X108225000Y-161928606D01*
X108225000Y-161746394D01*
X108260546Y-161567689D01*
X108276343Y-161529552D01*
X108330275Y-161399348D01*
X108431505Y-161247847D01*
X108431507Y-161247844D01*
X108560344Y-161119007D01*
X108593248Y-161097021D01*
X108711848Y-161017775D01*
X108880187Y-160948047D01*
X108880186Y-160948047D01*
X108880189Y-160948046D01*
X109058894Y-160912500D01*
X109241106Y-160912500D01*
X109419811Y-160948046D01*
X109419811Y-160948046D01*
G37*
G36*
X258931260Y-156167293D02*
X259013155Y-156201215D01*
X259086861Y-156250464D01*
X259149536Y-156313139D01*
X259198785Y-156386845D01*
X259232707Y-156468740D01*
X259250000Y-156555678D01*
X259250000Y-156644322D01*
X259232707Y-156731260D01*
X259198785Y-156813155D01*
X259149536Y-156886861D01*
X259124785Y-156911612D01*
X259109239Y-156930554D01*
X259097688Y-156952165D01*
X259090575Y-156975614D01*
X259088173Y-157000000D01*
X259090575Y-157024386D01*
X259097688Y-157047835D01*
X259109239Y-157069446D01*
X259124785Y-157088388D01*
X259149536Y-157113139D01*
X259198785Y-157186845D01*
X259232707Y-157268740D01*
X259250000Y-157355678D01*
X259250000Y-157444322D01*
X259232707Y-157531260D01*
X259198785Y-157613155D01*
X259149536Y-157686861D01*
X259086861Y-157749536D01*
X259013155Y-157798785D01*
X258931260Y-157832707D01*
X258844322Y-157850000D01*
X258755678Y-157850000D01*
X258668740Y-157832707D01*
X258586845Y-157798785D01*
X258513139Y-157749536D01*
X258450464Y-157686861D01*
X258401215Y-157613155D01*
X258367293Y-157531260D01*
X258350000Y-157444322D01*
X258350000Y-157355678D01*
X258367293Y-157268740D01*
X258401215Y-157186845D01*
X258450464Y-157113139D01*
X258475215Y-157088388D01*
X258490761Y-157069446D01*
X258502312Y-157047835D01*
X258509425Y-157024386D01*
X258511827Y-157000000D01*
X258509425Y-156975614D01*
X258502312Y-156952165D01*
X258490761Y-156930554D01*
X258475215Y-156911612D01*
X258450464Y-156886861D01*
X258401215Y-156813155D01*
X258367293Y-156731260D01*
X258350000Y-156644322D01*
X258350000Y-156555678D01*
X258367293Y-156468740D01*
X258401215Y-156386845D01*
X258450464Y-156313139D01*
X258513139Y-156250464D01*
X258586845Y-156201215D01*
X258668740Y-156167293D01*
X258755678Y-156150000D01*
X258844322Y-156150000D01*
X258931260Y-156167293D01*
X258931260Y-156167293D01*
G37*
G36*
X225031260Y-156167293D02*
X225113155Y-156201215D01*
X225186861Y-156250464D01*
X225249536Y-156313139D01*
X225298785Y-156386845D01*
X225332707Y-156468740D01*
X225350000Y-156555678D01*
X225350000Y-156644322D01*
X225332707Y-156731260D01*
X225298785Y-156813155D01*
X225249536Y-156886861D01*
X225224785Y-156911612D01*
X225209239Y-156930554D01*
X225197688Y-156952165D01*
X225190575Y-156975614D01*
X225188173Y-157000000D01*
X225190575Y-157024386D01*
X225197688Y-157047835D01*
X225209239Y-157069446D01*
X225224785Y-157088388D01*
X225249536Y-157113139D01*
X225298785Y-157186845D01*
X225332707Y-157268740D01*
X225350000Y-157355678D01*
X225350000Y-157444322D01*
X225332707Y-157531260D01*
X225298785Y-157613155D01*
X225249536Y-157686861D01*
X225186861Y-157749536D01*
X225113155Y-157798785D01*
X225031260Y-157832707D01*
X224944322Y-157850000D01*
X224855678Y-157850000D01*
X224768740Y-157832707D01*
X224686845Y-157798785D01*
X224613139Y-157749536D01*
X224550464Y-157686861D01*
X224501215Y-157613155D01*
X224467293Y-157531260D01*
X224450000Y-157444322D01*
X224450000Y-157355678D01*
X224467293Y-157268740D01*
X224501215Y-157186845D01*
X224550464Y-157113139D01*
X224575215Y-157088388D01*
X224590761Y-157069446D01*
X224602312Y-157047835D01*
X224609425Y-157024386D01*
X224611827Y-157000000D01*
X224609425Y-156975614D01*
X224602312Y-156952165D01*
X224590761Y-156930554D01*
X224575215Y-156911612D01*
X224550464Y-156886861D01*
X224501215Y-156813155D01*
X224467293Y-156731260D01*
X224450000Y-156644322D01*
X224450000Y-156555678D01*
X224467293Y-156468740D01*
X224501215Y-156386845D01*
X224550464Y-156313139D01*
X224613139Y-156250464D01*
X224686845Y-156201215D01*
X224768740Y-156167293D01*
X224855678Y-156150000D01*
X224944322Y-156150000D01*
X225031260Y-156167293D01*
X225031260Y-156167293D01*
G37*
G36*
X184031260Y-152767293D02*
X184113155Y-152801215D01*
X184186861Y-152850464D01*
X184249536Y-152913139D01*
X184298785Y-152986845D01*
X184332707Y-153068740D01*
X184350000Y-153155678D01*
X184350000Y-153244322D01*
X184332707Y-153331260D01*
X184298785Y-153413155D01*
X184249536Y-153486861D01*
X184224785Y-153511612D01*
X184209239Y-153530554D01*
X184197688Y-153552165D01*
X184190575Y-153575614D01*
X184188173Y-153600000D01*
X184190575Y-153624386D01*
X184197688Y-153647835D01*
X184209239Y-153669446D01*
X184224785Y-153688388D01*
X184249536Y-153713139D01*
X184298785Y-153786845D01*
X184332707Y-153868740D01*
X184350000Y-153955678D01*
X184350000Y-154044322D01*
X184332707Y-154131260D01*
X184298785Y-154213155D01*
X184249536Y-154286861D01*
X184186861Y-154349536D01*
X184113155Y-154398785D01*
X184031260Y-154432707D01*
X183944322Y-154450000D01*
X183855678Y-154450000D01*
X183768740Y-154432707D01*
X183686845Y-154398785D01*
X183613139Y-154349536D01*
X183550464Y-154286861D01*
X183501215Y-154213155D01*
X183467293Y-154131260D01*
X183450000Y-154044322D01*
X183450000Y-153955678D01*
X183467293Y-153868740D01*
X183501215Y-153786845D01*
X183550464Y-153713139D01*
X183575215Y-153688388D01*
X183590761Y-153669446D01*
X183602312Y-153647835D01*
X183609425Y-153624386D01*
X183611827Y-153600000D01*
X183609425Y-153575614D01*
X183602312Y-153552165D01*
X183590761Y-153530554D01*
X183575215Y-153511612D01*
X183550464Y-153486861D01*
X183501215Y-153413155D01*
X183467293Y-153331260D01*
X183450000Y-153244322D01*
X183450000Y-153155678D01*
X183467293Y-153068740D01*
X183501215Y-152986845D01*
X183550464Y-152913139D01*
X183613139Y-152850464D01*
X183686845Y-152801215D01*
X183768740Y-152767293D01*
X183855678Y-152750000D01*
X183944322Y-152750000D01*
X184031260Y-152767293D01*
X184031260Y-152767293D01*
G37*
G36*
X217831260Y-152767293D02*
X217913155Y-152801215D01*
X217986861Y-152850464D01*
X218049536Y-152913139D01*
X218098785Y-152986845D01*
X218132707Y-153068740D01*
X218150000Y-153155678D01*
X218150000Y-153244322D01*
X218132707Y-153331260D01*
X218098785Y-153413155D01*
X218049536Y-153486861D01*
X218024785Y-153511612D01*
X218009239Y-153530554D01*
X217997688Y-153552165D01*
X217990575Y-153575614D01*
X217988173Y-153600000D01*
X217990575Y-153624386D01*
X217997688Y-153647835D01*
X218009239Y-153669446D01*
X218024785Y-153688388D01*
X218049536Y-153713139D01*
X218098785Y-153786845D01*
X218132707Y-153868740D01*
X218150000Y-153955678D01*
X218150000Y-154044322D01*
X218132707Y-154131260D01*
X218098785Y-154213155D01*
X218049536Y-154286861D01*
X217986861Y-154349536D01*
X217913155Y-154398785D01*
X217831260Y-154432707D01*
X217744322Y-154450000D01*
X217655678Y-154450000D01*
X217568740Y-154432707D01*
X217486845Y-154398785D01*
X217413139Y-154349536D01*
X217350464Y-154286861D01*
X217301215Y-154213155D01*
X217267293Y-154131260D01*
X217250000Y-154044322D01*
X217250000Y-153955678D01*
X217267293Y-153868740D01*
X217301215Y-153786845D01*
X217350464Y-153713139D01*
X217375215Y-153688388D01*
X217390761Y-153669446D01*
X217402312Y-153647835D01*
X217409425Y-153624386D01*
X217411827Y-153600000D01*
X217409425Y-153575614D01*
X217402312Y-153552165D01*
X217390761Y-153530554D01*
X217375215Y-153511612D01*
X217350464Y-153486861D01*
X217301215Y-153413155D01*
X217267293Y-153331260D01*
X217250000Y-153244322D01*
X217250000Y-153155678D01*
X217267293Y-153068740D01*
X217301215Y-152986845D01*
X217350464Y-152913139D01*
X217413139Y-152850464D01*
X217486845Y-152801215D01*
X217568740Y-152767293D01*
X217655678Y-152750000D01*
X217744322Y-152750000D01*
X217831260Y-152767293D01*
X217831260Y-152767293D01*
G37*
G36*
X108550000Y-151933000D02*
X106150000Y-151933000D01*
X106150000Y-149533000D01*
X108550000Y-149533000D01*
X108550000Y-151933000D01*
X108550000Y-151933000D01*
G37*
G36*
X126050000Y-151933000D02*
X123650000Y-151933000D01*
X123650000Y-149533000D01*
X126050000Y-149533000D01*
X126050000Y-151933000D01*
X126050000Y-151933000D01*
G37*
G36*
X121304183Y-149726900D02*
X121431574Y-149779668D01*
X121546225Y-149856275D01*
X121643725Y-149953775D01*
X121720332Y-150068426D01*
X121773100Y-150195817D01*
X121800000Y-150331055D01*
X121800000Y-150468945D01*
X121773100Y-150604183D01*
X121720332Y-150731574D01*
X121674612Y-150800000D01*
X121643725Y-150846225D01*
X121546225Y-150943725D01*
X121431574Y-151020332D01*
X121304183Y-151073100D01*
X121168945Y-151100000D01*
X121031055Y-151100000D01*
X120895817Y-151073100D01*
X120768426Y-151020332D01*
X120653775Y-150943725D01*
X120556275Y-150846225D01*
X120525389Y-150800000D01*
X120479668Y-150731574D01*
X120426900Y-150604183D01*
X120400000Y-150468945D01*
X120400000Y-150331055D01*
X120426900Y-150195817D01*
X120479668Y-150068426D01*
X120556275Y-149953775D01*
X120653775Y-149856275D01*
X120768426Y-149779668D01*
X120895817Y-149726900D01*
X121031055Y-149700000D01*
X121168945Y-149700000D01*
X121304183Y-149726900D01*
X121304183Y-149726900D01*
G37*
G36*
X111304183Y-149726900D02*
X111431574Y-149779668D01*
X111546225Y-149856275D01*
X111643725Y-149953775D01*
X111720332Y-150068426D01*
X111773100Y-150195817D01*
X111800000Y-150331055D01*
X111800000Y-150468945D01*
X111773100Y-150604183D01*
X111720332Y-150731574D01*
X111674612Y-150800000D01*
X111643725Y-150846225D01*
X111546225Y-150943725D01*
X111431574Y-151020332D01*
X111304183Y-151073100D01*
X111168945Y-151100000D01*
X111031055Y-151100000D01*
X110895817Y-151073100D01*
X110768426Y-151020332D01*
X110653775Y-150943725D01*
X110556275Y-150846225D01*
X110525389Y-150800000D01*
X110479668Y-150731574D01*
X110426900Y-150604183D01*
X110400000Y-150468945D01*
X110400000Y-150331055D01*
X110426900Y-150195817D01*
X110479668Y-150068426D01*
X110556275Y-149953775D01*
X110653775Y-149856275D01*
X110768426Y-149779668D01*
X110895817Y-149726900D01*
X111031055Y-149700000D01*
X111168945Y-149700000D01*
X111304183Y-149726900D01*
X111304183Y-149726900D01*
G37*
G36*
X62100000Y-150800000D02*
X58200000Y-150800000D01*
X58200000Y-148700000D01*
X62100000Y-148700000D01*
X62100000Y-150800000D01*
X62100000Y-150800000D01*
G37*
G36*
X68300000Y-150800000D02*
X64400000Y-150800000D01*
X64400000Y-148700000D01*
X68300000Y-148700000D01*
X68300000Y-150800000D01*
X68300000Y-150800000D01*
G37*
G36*
X110550000Y-148600000D02*
X109150000Y-148600000D01*
X109150000Y-147200000D01*
X110550000Y-147200000D01*
X110550000Y-148600000D01*
X110550000Y-148600000D01*
G37*
G36*
X113050000Y-148600000D02*
X111650000Y-148600000D01*
X111650000Y-147200000D01*
X113050000Y-147200000D01*
X113050000Y-148600000D01*
X113050000Y-148600000D01*
G37*
G36*
X115550000Y-148600000D02*
X114150000Y-148600000D01*
X114150000Y-147200000D01*
X115550000Y-147200000D01*
X115550000Y-148600000D01*
X115550000Y-148600000D01*
G37*
G36*
X120550000Y-148600000D02*
X119150000Y-148600000D01*
X119150000Y-147200000D01*
X120550000Y-147200000D01*
X120550000Y-148600000D01*
X120550000Y-148600000D01*
G37*
G36*
X118050000Y-148600000D02*
X116650000Y-148600000D01*
X116650000Y-147200000D01*
X118050000Y-147200000D01*
X118050000Y-148600000D01*
X118050000Y-148600000D01*
G37*
G36*
X123050000Y-148600000D02*
X121650000Y-148600000D01*
X121650000Y-147200000D01*
X123050000Y-147200000D01*
X123050000Y-148600000D01*
X123050000Y-148600000D01*
G37*
G36*
X68300000Y-148300000D02*
X64400000Y-148300000D01*
X64400000Y-146200000D01*
X68300000Y-146200000D01*
X68300000Y-148300000D01*
X68300000Y-148300000D01*
G37*
G36*
X62100000Y-148300000D02*
X58200000Y-148300000D01*
X58200000Y-146200000D01*
X62100000Y-146200000D01*
X62100000Y-148300000D01*
X62100000Y-148300000D01*
G37*
G36*
X126150000Y-146160000D02*
X124750000Y-146160000D01*
X124750000Y-145090000D01*
X126150000Y-145090000D01*
X126150000Y-146160000D01*
X126150000Y-146160000D01*
G37*
G36*
X127850000Y-146160000D02*
X126450000Y-146160000D01*
X126450000Y-145090000D01*
X127850000Y-145090000D01*
X127850000Y-146160000D01*
X127850000Y-146160000D01*
G37*
G36*
X68300000Y-145800000D02*
X64400000Y-145800000D01*
X64400000Y-143700000D01*
X68300000Y-143700000D01*
X68300000Y-145800000D01*
X68300000Y-145800000D01*
G37*
G36*
X62100000Y-145800000D02*
X58200000Y-145800000D01*
X58200000Y-143700000D01*
X62100000Y-143700000D01*
X62100000Y-145800000D01*
X62100000Y-145800000D01*
G37*
G36*
X194675000Y-145230000D02*
X191725000Y-145230000D01*
X191725000Y-143770000D01*
X194675000Y-143770000D01*
X194675000Y-145230000D01*
X194675000Y-145230000D01*
G37*
G36*
X211125000Y-145230000D02*
X208175000Y-145230000D01*
X208175000Y-143770000D01*
X211125000Y-143770000D01*
X211125000Y-145230000D01*
X211125000Y-145230000D01*
G37*
G36*
X191300000Y-144810000D02*
X189900000Y-144810000D01*
X189900000Y-143740000D01*
X191300000Y-143740000D01*
X191300000Y-144810000D01*
X191300000Y-144810000D01*
G37*
G36*
X198200000Y-144810000D02*
X196800000Y-144810000D01*
X196800000Y-143740000D01*
X198200000Y-143740000D01*
X198200000Y-144810000D01*
X198200000Y-144810000D01*
G37*
G36*
X196500000Y-144760000D02*
X195100000Y-144760000D01*
X195100000Y-143690000D01*
X196500000Y-143690000D01*
X196500000Y-144760000D01*
X196500000Y-144760000D01*
G37*
G36*
X127850000Y-144410000D02*
X126450000Y-144410000D01*
X126450000Y-143340000D01*
X127850000Y-143340000D01*
X127850000Y-144410000D01*
X127850000Y-144410000D01*
G37*
G36*
X126150000Y-144410000D02*
X124750000Y-144410000D01*
X124750000Y-143340000D01*
X126150000Y-143340000D01*
X126150000Y-144410000D01*
X126150000Y-144410000D01*
G37*
G36*
X113300000Y-143860000D02*
X111900000Y-143860000D01*
X111900000Y-142790000D01*
X113300000Y-142790000D01*
X113300000Y-143860000D01*
X113300000Y-143860000D01*
G37*
G36*
X111400000Y-143860000D02*
X110000000Y-143860000D01*
X110000000Y-142790000D01*
X111400000Y-142790000D01*
X111400000Y-143860000D01*
X111400000Y-143860000D01*
G37*
G36*
X107450000Y-143860000D02*
X106050000Y-143860000D01*
X106050000Y-142790000D01*
X107450000Y-142790000D01*
X107450000Y-143860000D01*
X107450000Y-143860000D01*
G37*
G36*
X62100000Y-143300000D02*
X58200000Y-143300000D01*
X58200000Y-141200000D01*
X62100000Y-141200000D01*
X62100000Y-143300000D01*
X62100000Y-143300000D01*
G37*
G36*
X68300000Y-143300000D02*
X64400000Y-143300000D01*
X64400000Y-141200000D01*
X68300000Y-141200000D01*
X68300000Y-143300000D01*
X68300000Y-143300000D01*
G37*
G36*
X242104183Y-141726900D02*
X242231574Y-141779668D01*
X242339964Y-141852091D01*
X242346225Y-141856275D01*
X242443725Y-141953775D01*
X242520332Y-142068426D01*
X242573100Y-142195817D01*
X242600000Y-142331055D01*
X242600000Y-142468945D01*
X242573100Y-142604183D01*
X242520332Y-142731574D01*
X242443725Y-142846225D01*
X242346225Y-142943725D01*
X242231574Y-143020332D01*
X242104183Y-143073100D01*
X241968945Y-143100000D01*
X241831055Y-143100000D01*
X241695817Y-143073100D01*
X241568426Y-143020332D01*
X241453775Y-142943725D01*
X241356275Y-142846225D01*
X241279668Y-142731574D01*
X241226900Y-142604183D01*
X241200000Y-142468945D01*
X241200000Y-142331055D01*
X241226900Y-142195817D01*
X241279668Y-142068426D01*
X241356275Y-141953775D01*
X241453775Y-141856275D01*
X241460037Y-141852091D01*
X241568426Y-141779668D01*
X241695817Y-141726900D01*
X241831055Y-141700000D01*
X241968945Y-141700000D01*
X242104183Y-141726900D01*
X242104183Y-141726900D01*
G37*
G36*
X191300000Y-143060000D02*
X189900000Y-143060000D01*
X189900000Y-141990000D01*
X191300000Y-141990000D01*
X191300000Y-143060000D01*
X191300000Y-143060000D01*
G37*
G36*
X198200000Y-143060000D02*
X196800000Y-143060000D01*
X196800000Y-141990000D01*
X198200000Y-141990000D01*
X198200000Y-143060000D01*
X198200000Y-143060000D01*
G37*
G36*
X194675000Y-143030000D02*
X193625000Y-143030000D01*
X193625000Y-141570000D01*
X194675000Y-141570000D01*
X194675000Y-143030000D01*
X194675000Y-143030000D01*
G37*
G36*
X211125000Y-143030000D02*
X208175000Y-143030000D01*
X208175000Y-141570000D01*
X211125000Y-141570000D01*
X211125000Y-143030000D01*
X211125000Y-143030000D01*
G37*
G36*
X192775000Y-143030000D02*
X191725000Y-143030000D01*
X191725000Y-141570000D01*
X192775000Y-141570000D01*
X192775000Y-143030000D01*
X192775000Y-143030000D01*
G37*
G36*
X196500000Y-143010000D02*
X195100000Y-143010000D01*
X195100000Y-141940000D01*
X196500000Y-141940000D01*
X196500000Y-143010000D01*
X196500000Y-143010000D01*
G37*
G36*
X113125000Y-140915000D02*
X113127402Y-140939386D01*
X113134515Y-140962835D01*
X113146066Y-140984446D01*
X113161612Y-141003388D01*
X113180554Y-141018934D01*
X113202165Y-141030485D01*
X113225614Y-141037598D01*
X113250000Y-141040000D01*
X113300000Y-141040000D01*
X113300000Y-142110000D01*
X111900000Y-142110000D01*
X111900000Y-141005000D01*
X111897598Y-140980614D01*
X111890485Y-140957165D01*
X111878934Y-140935554D01*
X111863388Y-140916612D01*
X111844446Y-140901066D01*
X111822835Y-140889515D01*
X111799386Y-140882402D01*
X111775000Y-140880000D01*
X111525000Y-140880000D01*
X111500614Y-140882402D01*
X111477165Y-140889515D01*
X111455554Y-140901066D01*
X111436612Y-140916612D01*
X111421066Y-140935554D01*
X111409515Y-140957165D01*
X111402402Y-140980614D01*
X111400000Y-141005000D01*
X111400000Y-142110000D01*
X110000000Y-142110000D01*
X110000000Y-141040000D01*
X110050000Y-141040000D01*
X110074386Y-141037598D01*
X110097835Y-141030485D01*
X110119446Y-141018934D01*
X110138388Y-141003388D01*
X110153934Y-140984446D01*
X110165485Y-140962835D01*
X110172598Y-140939386D01*
X110175000Y-140915000D01*
X110175000Y-139420000D01*
X113125000Y-139420000D01*
X113125000Y-140915000D01*
X113125000Y-140915000D01*
G37*
G36*
X107450000Y-142110000D02*
X106050000Y-142110000D01*
X106050000Y-141040000D01*
X107450000Y-141040000D01*
X107450000Y-142110000D01*
X107450000Y-142110000D01*
G37*
G36*
X208810000Y-141100000D02*
X207740000Y-141100000D01*
X207740000Y-139700000D01*
X208810000Y-139700000D01*
X208810000Y-141100000D01*
X208810000Y-141100000D01*
G37*
G36*
X210560000Y-141100000D02*
X209490000Y-141100000D01*
X209490000Y-139700000D01*
X210560000Y-139700000D01*
X210560000Y-141100000D01*
X210560000Y-141100000D01*
G37*
G36*
X107850000Y-140340000D02*
X105650000Y-140340000D01*
X105650000Y-138870000D01*
X107850000Y-138870000D01*
X107850000Y-140340000D01*
X107850000Y-140340000D01*
G37*
G36*
X170470000Y-140300000D02*
X169270000Y-140300000D01*
X169270000Y-136750000D01*
X170470000Y-136750000D01*
X170470000Y-140300000D01*
X170470000Y-140300000D01*
G37*
G36*
X167930000Y-140300000D02*
X166730000Y-140300000D01*
X166730000Y-136750000D01*
X167930000Y-136750000D01*
X167930000Y-140300000D01*
X167930000Y-140300000D01*
G37*
G36*
X144930000Y-140300000D02*
X143730000Y-140300000D01*
X143730000Y-136750000D01*
X144930000Y-136750000D01*
X144930000Y-140300000D01*
X144930000Y-140300000D01*
G37*
G36*
X147470000Y-140300000D02*
X146270000Y-140300000D01*
X146270000Y-136750000D01*
X147470000Y-136750000D01*
X147470000Y-140300000D01*
X147470000Y-140300000D01*
G37*
G36*
X205475000Y-140100000D02*
X203325000Y-140100000D01*
X203325000Y-137900000D01*
X205475000Y-137900000D01*
X205475000Y-140100000D01*
X205475000Y-140100000D01*
G37*
G36*
X198275000Y-140100000D02*
X196125000Y-140100000D01*
X196125000Y-137900000D01*
X198275000Y-137900000D01*
X198275000Y-140100000D01*
X198275000Y-140100000D01*
G37*
G36*
X113125000Y-138680000D02*
X110175000Y-138680000D01*
X110175000Y-137220000D01*
X113125000Y-137220000D01*
X113125000Y-138680000D01*
X113125000Y-138680000D01*
G37*
G36*
X39128000Y-138220000D02*
X35728000Y-138220000D01*
X35728000Y-136320000D01*
X39128000Y-136320000D01*
X39128000Y-138220000D01*
X39128000Y-138220000D01*
G37*
G36*
X48272000Y-138220000D02*
X44872000Y-138220000D01*
X44872000Y-136320000D01*
X48272000Y-136320000D01*
X48272000Y-138220000D01*
X48272000Y-138220000D01*
G37*
G36*
X81628000Y-138220000D02*
X78228000Y-138220000D01*
X78228000Y-136320000D01*
X81628000Y-136320000D01*
X81628000Y-138220000D01*
X81628000Y-138220000D01*
G37*
G36*
X90772000Y-138220000D02*
X87372000Y-138220000D01*
X87372000Y-136320000D01*
X90772000Y-136320000D01*
X90772000Y-138220000D01*
X90772000Y-138220000D01*
G37*
G36*
X107850000Y-137330000D02*
X105650000Y-137330000D01*
X105650000Y-135860000D01*
X107850000Y-135860000D01*
X107850000Y-137330000D01*
X107850000Y-137330000D01*
G37*
G36*
X112110000Y-136900000D02*
X111040000Y-136900000D01*
X111040000Y-135500000D01*
X112110000Y-135500000D01*
X112110000Y-136900000D01*
X112110000Y-136900000D01*
G37*
G36*
X110360000Y-136900000D02*
X109290000Y-136900000D01*
X109290000Y-135500000D01*
X110360000Y-135500000D01*
X110360000Y-136900000D01*
X110360000Y-136900000D01*
G37*
G36*
X84704183Y-135326900D02*
X84831574Y-135379668D01*
X84946224Y-135456274D01*
X85043726Y-135553776D01*
X85120332Y-135668426D01*
X85173100Y-135795817D01*
X85200000Y-135931055D01*
X85200000Y-136068945D01*
X85173100Y-136204183D01*
X85125126Y-136320000D01*
X85120332Y-136331574D01*
X85069123Y-136408215D01*
X85043725Y-136446225D01*
X84946225Y-136543725D01*
X84831574Y-136620332D01*
X84704183Y-136673100D01*
X84568945Y-136700000D01*
X84431055Y-136700000D01*
X84295817Y-136673100D01*
X84168426Y-136620332D01*
X84053775Y-136543725D01*
X83956275Y-136446225D01*
X83930878Y-136408215D01*
X83879668Y-136331574D01*
X83874874Y-136320000D01*
X83826900Y-136204183D01*
X83800000Y-136068945D01*
X83800000Y-135931055D01*
X83826900Y-135795817D01*
X83879668Y-135668426D01*
X83956274Y-135553776D01*
X84053776Y-135456274D01*
X84168426Y-135379668D01*
X84295817Y-135326900D01*
X84431055Y-135300000D01*
X84568945Y-135300000D01*
X84704183Y-135326900D01*
X84704183Y-135326900D01*
G37*
G36*
X42204183Y-135326900D02*
X42331574Y-135379668D01*
X42446224Y-135456274D01*
X42543726Y-135553776D01*
X42620332Y-135668426D01*
X42673100Y-135795817D01*
X42700000Y-135931055D01*
X42700000Y-136068945D01*
X42673100Y-136204183D01*
X42625126Y-136320000D01*
X42620332Y-136331574D01*
X42569123Y-136408215D01*
X42543725Y-136446225D01*
X42446225Y-136543725D01*
X42331574Y-136620332D01*
X42204183Y-136673100D01*
X42068945Y-136700000D01*
X41931055Y-136700000D01*
X41795817Y-136673100D01*
X41668426Y-136620332D01*
X41553775Y-136543725D01*
X41456275Y-136446225D01*
X41430878Y-136408215D01*
X41379668Y-136331574D01*
X41374874Y-136320000D01*
X41326900Y-136204183D01*
X41300000Y-136068945D01*
X41300000Y-135931055D01*
X41326900Y-135795817D01*
X41379668Y-135668426D01*
X41456274Y-135553776D01*
X41553776Y-135456274D01*
X41668426Y-135379668D01*
X41795817Y-135326900D01*
X41931055Y-135300000D01*
X42068945Y-135300000D01*
X42204183Y-135326900D01*
X42204183Y-135326900D01*
G37*
G36*
X39128000Y-135680000D02*
X35728000Y-135680000D01*
X35728000Y-133780000D01*
X39128000Y-133780000D01*
X39128000Y-135680000D01*
X39128000Y-135680000D01*
G37*
G36*
X90772000Y-135680000D02*
X87372000Y-135680000D01*
X87372000Y-133780000D01*
X90772000Y-133780000D01*
X90772000Y-135680000D01*
X90772000Y-135680000D01*
G37*
G36*
X81628000Y-135680000D02*
X78228000Y-135680000D01*
X78228000Y-133780000D01*
X81628000Y-133780000D01*
X81628000Y-135680000D01*
X81628000Y-135680000D01*
G37*
G36*
X48272000Y-135680000D02*
X44872000Y-135680000D01*
X44872000Y-133780000D01*
X48272000Y-133780000D01*
X48272000Y-135680000D01*
X48272000Y-135680000D01*
G37*
G36*
X208250000Y-135500000D02*
X193350000Y-135500000D01*
X193350000Y-131100000D01*
X208250000Y-131100000D01*
X208250000Y-135500000D01*
X208250000Y-135500000D01*
G37*
G36*
X170470000Y-135250000D02*
X169270000Y-135250000D01*
X169270000Y-131700000D01*
X170470000Y-131700000D01*
X170470000Y-135250000D01*
X170470000Y-135250000D01*
G37*
G36*
X147470000Y-135250000D02*
X146270000Y-135250000D01*
X146270000Y-131700000D01*
X147470000Y-131700000D01*
X147470000Y-135250000D01*
X147470000Y-135250000D01*
G37*
G36*
X144930000Y-135250000D02*
X143730000Y-135250000D01*
X143730000Y-131700000D01*
X144930000Y-131700000D01*
X144930000Y-135250000D01*
X144930000Y-135250000D01*
G37*
G36*
X167930000Y-135250000D02*
X166730000Y-135250000D01*
X166730000Y-131700000D01*
X167930000Y-131700000D01*
X167930000Y-135250000D01*
X167930000Y-135250000D01*
G37*
G36*
X241281260Y-132217293D02*
X241363155Y-132251215D01*
X241437153Y-132300659D01*
X241455554Y-132315761D01*
X241477165Y-132327312D01*
X241500614Y-132334425D01*
X241525000Y-132336827D01*
X241549386Y-132334425D01*
X241572835Y-132327312D01*
X241594446Y-132315761D01*
X241612847Y-132300659D01*
X241686845Y-132251215D01*
X241768740Y-132217293D01*
X241855678Y-132200000D01*
X241944322Y-132200000D01*
X242031260Y-132217293D01*
X242113155Y-132251215D01*
X242187153Y-132300659D01*
X242205554Y-132315761D01*
X242227165Y-132327312D01*
X242250614Y-132334425D01*
X242275000Y-132336827D01*
X242299386Y-132334425D01*
X242322835Y-132327312D01*
X242344446Y-132315761D01*
X242362847Y-132300659D01*
X242436845Y-132251215D01*
X242518740Y-132217293D01*
X242605678Y-132200000D01*
X242694322Y-132200000D01*
X242781260Y-132217293D01*
X242863155Y-132251215D01*
X242936861Y-132300464D01*
X242999536Y-132363139D01*
X243048785Y-132436845D01*
X243082707Y-132518740D01*
X243100000Y-132605678D01*
X243100000Y-132694322D01*
X243082707Y-132781260D01*
X243048785Y-132863155D01*
X242999536Y-132936861D01*
X242936861Y-132999536D01*
X242863155Y-133048785D01*
X242781260Y-133082707D01*
X242694322Y-133100000D01*
X242605678Y-133100000D01*
X242518740Y-133082707D01*
X242436845Y-133048785D01*
X242362847Y-132999341D01*
X242344446Y-132984239D01*
X242322835Y-132972688D01*
X242299386Y-132965575D01*
X242275000Y-132963173D01*
X242250614Y-132965575D01*
X242227165Y-132972688D01*
X242205554Y-132984239D01*
X242187153Y-132999341D01*
X242113155Y-133048785D01*
X242031260Y-133082707D01*
X241944322Y-133100000D01*
X241855678Y-133100000D01*
X241768740Y-133082707D01*
X241686845Y-133048785D01*
X241612847Y-132999341D01*
X241594446Y-132984239D01*
X241572835Y-132972688D01*
X241549386Y-132965575D01*
X241525000Y-132963173D01*
X241500614Y-132965575D01*
X241477165Y-132972688D01*
X241455554Y-132984239D01*
X241437153Y-132999341D01*
X241363155Y-133048785D01*
X241281260Y-133082707D01*
X241194322Y-133100000D01*
X241105678Y-133100000D01*
X241018740Y-133082707D01*
X240936845Y-133048785D01*
X240863139Y-132999536D01*
X240800464Y-132936861D01*
X240751215Y-132863155D01*
X240717293Y-132781260D01*
X240700000Y-132694322D01*
X240700000Y-132605678D01*
X240717293Y-132518740D01*
X240751215Y-132436845D01*
X240800464Y-132363139D01*
X240863139Y-132300464D01*
X240936845Y-132251215D01*
X241018740Y-132217293D01*
X241105678Y-132200000D01*
X241194322Y-132200000D01*
X241281260Y-132217293D01*
X241281260Y-132217293D01*
G37*
G36*
X241281260Y-130717293D02*
X241363155Y-130751215D01*
X241437153Y-130800659D01*
X241455554Y-130815761D01*
X241477165Y-130827312D01*
X241500614Y-130834425D01*
X241525000Y-130836827D01*
X241549386Y-130834425D01*
X241572835Y-130827312D01*
X241594446Y-130815761D01*
X241612847Y-130800659D01*
X241686845Y-130751215D01*
X241768740Y-130717293D01*
X241855678Y-130700000D01*
X241944322Y-130700000D01*
X242031260Y-130717293D01*
X242113155Y-130751215D01*
X242187153Y-130800659D01*
X242205554Y-130815761D01*
X242227165Y-130827312D01*
X242250614Y-130834425D01*
X242275000Y-130836827D01*
X242299386Y-130834425D01*
X242322835Y-130827312D01*
X242344446Y-130815761D01*
X242362847Y-130800659D01*
X242436845Y-130751215D01*
X242518740Y-130717293D01*
X242605678Y-130700000D01*
X242694322Y-130700000D01*
X242781260Y-130717293D01*
X242863155Y-130751215D01*
X242936861Y-130800464D01*
X242999536Y-130863139D01*
X243048785Y-130936845D01*
X243082707Y-131018740D01*
X243100000Y-131105678D01*
X243100000Y-131194322D01*
X243082707Y-131281260D01*
X243048785Y-131363155D01*
X242999536Y-131436861D01*
X242936861Y-131499536D01*
X242863155Y-131548785D01*
X242781260Y-131582707D01*
X242694322Y-131600000D01*
X242605678Y-131600000D01*
X242518740Y-131582707D01*
X242436845Y-131548785D01*
X242362847Y-131499341D01*
X242344446Y-131484239D01*
X242322835Y-131472688D01*
X242299386Y-131465575D01*
X242275000Y-131463173D01*
X242250614Y-131465575D01*
X242227165Y-131472688D01*
X242205554Y-131484239D01*
X242187153Y-131499341D01*
X242113155Y-131548785D01*
X242031260Y-131582707D01*
X241944322Y-131600000D01*
X241855678Y-131600000D01*
X241768740Y-131582707D01*
X241686845Y-131548785D01*
X241612847Y-131499341D01*
X241594446Y-131484239D01*
X241572835Y-131472688D01*
X241549386Y-131465575D01*
X241525000Y-131463173D01*
X241500614Y-131465575D01*
X241477165Y-131472688D01*
X241455554Y-131484239D01*
X241437153Y-131499341D01*
X241363155Y-131548785D01*
X241281260Y-131582707D01*
X241194322Y-131600000D01*
X241105678Y-131600000D01*
X241018740Y-131582707D01*
X240936845Y-131548785D01*
X240863139Y-131499536D01*
X240800464Y-131436861D01*
X240751215Y-131363155D01*
X240717293Y-131281260D01*
X240700000Y-131194322D01*
X240700000Y-131105678D01*
X240717293Y-131018740D01*
X240751215Y-130936845D01*
X240800464Y-130863139D01*
X240863139Y-130800464D01*
X240936845Y-130751215D01*
X241018740Y-130717293D01*
X241105678Y-130700000D01*
X241194322Y-130700000D01*
X241281260Y-130717293D01*
X241281260Y-130717293D01*
G37*
G36*
X192681260Y-128817293D02*
X192763155Y-128851215D01*
X192837153Y-128900659D01*
X192855554Y-128915761D01*
X192877165Y-128927312D01*
X192900614Y-128934425D01*
X192925000Y-128936827D01*
X192949386Y-128934425D01*
X192972835Y-128927312D01*
X192994446Y-128915761D01*
X193012847Y-128900659D01*
X193086845Y-128851215D01*
X193168740Y-128817293D01*
X193255678Y-128800000D01*
X193344322Y-128800000D01*
X193431260Y-128817293D01*
X193513155Y-128851215D01*
X193587153Y-128900659D01*
X193605554Y-128915761D01*
X193627165Y-128927312D01*
X193650614Y-128934425D01*
X193675000Y-128936827D01*
X193699386Y-128934425D01*
X193722835Y-128927312D01*
X193744446Y-128915761D01*
X193762847Y-128900659D01*
X193836845Y-128851215D01*
X193918740Y-128817293D01*
X194005678Y-128800000D01*
X194094322Y-128800000D01*
X194181260Y-128817293D01*
X194263155Y-128851215D01*
X194336861Y-128900464D01*
X194399536Y-128963139D01*
X194448785Y-129036845D01*
X194482707Y-129118740D01*
X194500000Y-129205678D01*
X194500000Y-129294322D01*
X194482707Y-129381260D01*
X194448785Y-129463155D01*
X194399536Y-129536861D01*
X194336861Y-129599536D01*
X194263155Y-129648785D01*
X194181260Y-129682707D01*
X194094322Y-129700000D01*
X194005678Y-129700000D01*
X193918740Y-129682707D01*
X193836845Y-129648785D01*
X193762847Y-129599341D01*
X193744446Y-129584239D01*
X193722835Y-129572688D01*
X193699386Y-129565575D01*
X193675000Y-129563173D01*
X193650614Y-129565575D01*
X193627165Y-129572688D01*
X193605554Y-129584239D01*
X193587153Y-129599341D01*
X193513155Y-129648785D01*
X193431260Y-129682707D01*
X193344322Y-129700000D01*
X193255678Y-129700000D01*
X193168740Y-129682707D01*
X193086845Y-129648785D01*
X193012847Y-129599341D01*
X192994446Y-129584239D01*
X192972835Y-129572688D01*
X192949386Y-129565575D01*
X192925000Y-129563173D01*
X192900614Y-129565575D01*
X192877165Y-129572688D01*
X192855554Y-129584239D01*
X192837153Y-129599341D01*
X192763155Y-129648785D01*
X192681260Y-129682707D01*
X192594322Y-129700000D01*
X192505678Y-129700000D01*
X192418740Y-129682707D01*
X192336845Y-129648785D01*
X192263139Y-129599536D01*
X192200464Y-129536861D01*
X192151215Y-129463155D01*
X192117293Y-129381260D01*
X192100000Y-129294322D01*
X192100000Y-129205678D01*
X192117293Y-129118740D01*
X192151215Y-129036845D01*
X192200464Y-128963139D01*
X192263139Y-128900464D01*
X192336845Y-128851215D01*
X192418740Y-128817293D01*
X192505678Y-128800000D01*
X192594322Y-128800000D01*
X192681260Y-128817293D01*
X192681260Y-128817293D01*
G37*
G36*
X207681260Y-128817293D02*
X207763155Y-128851215D01*
X207837153Y-128900659D01*
X207855554Y-128915761D01*
X207877165Y-128927312D01*
X207900614Y-128934425D01*
X207925000Y-128936827D01*
X207949386Y-128934425D01*
X207972835Y-128927312D01*
X207994446Y-128915761D01*
X208012847Y-128900659D01*
X208086845Y-128851215D01*
X208168740Y-128817293D01*
X208255678Y-128800000D01*
X208344322Y-128800000D01*
X208431260Y-128817293D01*
X208513155Y-128851215D01*
X208587153Y-128900659D01*
X208605554Y-128915761D01*
X208627165Y-128927312D01*
X208650614Y-128934425D01*
X208675000Y-128936827D01*
X208699386Y-128934425D01*
X208722835Y-128927312D01*
X208744446Y-128915761D01*
X208762847Y-128900659D01*
X208836845Y-128851215D01*
X208918740Y-128817293D01*
X209005678Y-128800000D01*
X209094322Y-128800000D01*
X209181260Y-128817293D01*
X209263155Y-128851215D01*
X209336861Y-128900464D01*
X209399536Y-128963139D01*
X209448785Y-129036845D01*
X209482707Y-129118740D01*
X209500000Y-129205678D01*
X209500000Y-129294322D01*
X209482707Y-129381260D01*
X209448785Y-129463155D01*
X209399536Y-129536861D01*
X209336861Y-129599536D01*
X209263155Y-129648785D01*
X209181260Y-129682707D01*
X209094322Y-129700000D01*
X209005678Y-129700000D01*
X208918740Y-129682707D01*
X208836845Y-129648785D01*
X208762847Y-129599341D01*
X208744446Y-129584239D01*
X208722835Y-129572688D01*
X208699386Y-129565575D01*
X208675000Y-129563173D01*
X208650614Y-129565575D01*
X208627165Y-129572688D01*
X208605554Y-129584239D01*
X208587153Y-129599341D01*
X208513155Y-129648785D01*
X208431260Y-129682707D01*
X208344322Y-129700000D01*
X208255678Y-129700000D01*
X208168740Y-129682707D01*
X208086845Y-129648785D01*
X208012847Y-129599341D01*
X207994446Y-129584239D01*
X207972835Y-129572688D01*
X207949386Y-129565575D01*
X207925000Y-129563173D01*
X207900614Y-129565575D01*
X207877165Y-129572688D01*
X207855554Y-129584239D01*
X207837153Y-129599341D01*
X207763155Y-129648785D01*
X207681260Y-129682707D01*
X207594322Y-129700000D01*
X207505678Y-129700000D01*
X207418740Y-129682707D01*
X207336845Y-129648785D01*
X207263139Y-129599536D01*
X207200464Y-129536861D01*
X207151215Y-129463155D01*
X207117293Y-129381260D01*
X207100000Y-129294322D01*
X207100000Y-129205678D01*
X207117293Y-129118740D01*
X207151215Y-129036845D01*
X207200464Y-128963139D01*
X207263139Y-128900464D01*
X207336845Y-128851215D01*
X207418740Y-128817293D01*
X207505678Y-128800000D01*
X207594322Y-128800000D01*
X207681260Y-128817293D01*
X207681260Y-128817293D01*
G37*
G36*
X195181260Y-121317293D02*
X195263155Y-121351215D01*
X195337153Y-121400659D01*
X195355554Y-121415761D01*
X195377165Y-121427312D01*
X195400614Y-121434425D01*
X195425000Y-121436827D01*
X195449386Y-121434425D01*
X195472835Y-121427312D01*
X195494446Y-121415761D01*
X195512847Y-121400659D01*
X195586845Y-121351215D01*
X195668740Y-121317293D01*
X195755678Y-121300000D01*
X195844322Y-121300000D01*
X195931260Y-121317293D01*
X196013155Y-121351215D01*
X196087153Y-121400659D01*
X196105554Y-121415761D01*
X196127165Y-121427312D01*
X196150614Y-121434425D01*
X196175000Y-121436827D01*
X196199386Y-121434425D01*
X196222835Y-121427312D01*
X196244446Y-121415761D01*
X196262847Y-121400659D01*
X196336845Y-121351215D01*
X196418740Y-121317293D01*
X196505678Y-121300000D01*
X196594322Y-121300000D01*
X196681260Y-121317293D01*
X196763155Y-121351215D01*
X196836861Y-121400464D01*
X196899536Y-121463139D01*
X196948785Y-121536845D01*
X196982707Y-121618740D01*
X197000000Y-121705678D01*
X197000000Y-121794322D01*
X196982707Y-121881260D01*
X196948785Y-121963155D01*
X196899536Y-122036861D01*
X196836861Y-122099536D01*
X196763155Y-122148785D01*
X196681260Y-122182707D01*
X196594322Y-122200000D01*
X196505678Y-122200000D01*
X196418740Y-122182707D01*
X196336845Y-122148785D01*
X196262847Y-122099341D01*
X196244446Y-122084239D01*
X196222835Y-122072688D01*
X196199386Y-122065575D01*
X196175000Y-122063173D01*
X196150614Y-122065575D01*
X196127165Y-122072688D01*
X196105554Y-122084239D01*
X196087153Y-122099341D01*
X196013155Y-122148785D01*
X195931260Y-122182707D01*
X195844322Y-122200000D01*
X195755678Y-122200000D01*
X195668740Y-122182707D01*
X195586845Y-122148785D01*
X195512847Y-122099341D01*
X195494446Y-122084239D01*
X195472835Y-122072688D01*
X195449386Y-122065575D01*
X195425000Y-122063173D01*
X195400614Y-122065575D01*
X195377165Y-122072688D01*
X195355554Y-122084239D01*
X195337153Y-122099341D01*
X195263155Y-122148785D01*
X195181260Y-122182707D01*
X195094322Y-122200000D01*
X195005678Y-122200000D01*
X194918740Y-122182707D01*
X194836845Y-122148785D01*
X194763139Y-122099536D01*
X194700464Y-122036861D01*
X194651215Y-121963155D01*
X194617293Y-121881260D01*
X194600000Y-121794322D01*
X194600000Y-121705678D01*
X194617293Y-121618740D01*
X194651215Y-121536845D01*
X194700464Y-121463139D01*
X194763139Y-121400464D01*
X194836845Y-121351215D01*
X194918740Y-121317293D01*
X195005678Y-121300000D01*
X195094322Y-121300000D01*
X195181260Y-121317293D01*
X195181260Y-121317293D01*
G37*
G36*
X205181260Y-121317293D02*
X205263155Y-121351215D01*
X205337153Y-121400659D01*
X205355554Y-121415761D01*
X205377165Y-121427312D01*
X205400614Y-121434425D01*
X205425000Y-121436827D01*
X205449386Y-121434425D01*
X205472835Y-121427312D01*
X205494446Y-121415761D01*
X205512847Y-121400659D01*
X205586845Y-121351215D01*
X205668740Y-121317293D01*
X205755678Y-121300000D01*
X205844322Y-121300000D01*
X205931260Y-121317293D01*
X206013155Y-121351215D01*
X206087153Y-121400659D01*
X206105554Y-121415761D01*
X206127165Y-121427312D01*
X206150614Y-121434425D01*
X206175000Y-121436827D01*
X206199386Y-121434425D01*
X206222835Y-121427312D01*
X206244446Y-121415761D01*
X206262847Y-121400659D01*
X206336845Y-121351215D01*
X206418740Y-121317293D01*
X206505678Y-121300000D01*
X206594322Y-121300000D01*
X206681260Y-121317293D01*
X206763155Y-121351215D01*
X206836861Y-121400464D01*
X206899536Y-121463139D01*
X206948785Y-121536845D01*
X206982707Y-121618740D01*
X207000000Y-121705678D01*
X207000000Y-121794322D01*
X206982707Y-121881260D01*
X206948785Y-121963155D01*
X206899536Y-122036861D01*
X206836861Y-122099536D01*
X206763155Y-122148785D01*
X206681260Y-122182707D01*
X206594322Y-122200000D01*
X206505678Y-122200000D01*
X206418740Y-122182707D01*
X206336845Y-122148785D01*
X206262847Y-122099341D01*
X206244446Y-122084239D01*
X206222835Y-122072688D01*
X206199386Y-122065575D01*
X206175000Y-122063173D01*
X206150614Y-122065575D01*
X206127165Y-122072688D01*
X206105554Y-122084239D01*
X206087153Y-122099341D01*
X206013155Y-122148785D01*
X205931260Y-122182707D01*
X205844322Y-122200000D01*
X205755678Y-122200000D01*
X205668740Y-122182707D01*
X205586845Y-122148785D01*
X205512847Y-122099341D01*
X205494446Y-122084239D01*
X205472835Y-122072688D01*
X205449386Y-122065575D01*
X205425000Y-122063173D01*
X205400614Y-122065575D01*
X205377165Y-122072688D01*
X205355554Y-122084239D01*
X205337153Y-122099341D01*
X205263155Y-122148785D01*
X205181260Y-122182707D01*
X205094322Y-122200000D01*
X205005678Y-122200000D01*
X204918740Y-122182707D01*
X204836845Y-122148785D01*
X204763139Y-122099536D01*
X204700464Y-122036861D01*
X204651215Y-121963155D01*
X204617293Y-121881260D01*
X204600000Y-121794322D01*
X204600000Y-121705678D01*
X204617293Y-121618740D01*
X204651215Y-121536845D01*
X204700464Y-121463139D01*
X204763139Y-121400464D01*
X204836845Y-121351215D01*
X204918740Y-121317293D01*
X205005678Y-121300000D01*
X205094322Y-121300000D01*
X205181260Y-121317293D01*
X205181260Y-121317293D01*
G37*
G36*
X242104183Y-120726900D02*
X242231574Y-120779668D01*
X242346225Y-120856275D01*
X242443725Y-120953775D01*
X242520332Y-121068426D01*
X242573100Y-121195817D01*
X242600000Y-121331055D01*
X242600000Y-121468945D01*
X242573100Y-121604183D01*
X242520332Y-121731574D01*
X242443725Y-121846225D01*
X242346225Y-121943725D01*
X242231574Y-122020332D01*
X242104183Y-122073100D01*
X241968945Y-122100000D01*
X241831055Y-122100000D01*
X241695817Y-122073100D01*
X241568426Y-122020332D01*
X241453775Y-121943725D01*
X241356275Y-121846225D01*
X241279668Y-121731574D01*
X241226900Y-121604183D01*
X241200000Y-121468945D01*
X241200000Y-121331055D01*
X241226900Y-121195817D01*
X241279668Y-121068426D01*
X241356275Y-120953775D01*
X241453775Y-120856275D01*
X241568426Y-120779668D01*
X241695817Y-120726900D01*
X241831055Y-120700000D01*
X241968945Y-120700000D01*
X242104183Y-120726900D01*
X242104183Y-120726900D01*
G37*
G36*
X208250000Y-119900000D02*
X193350000Y-119900000D01*
X193350000Y-115500000D01*
X208250000Y-115500000D01*
X208250000Y-119900000D01*
X208250000Y-119900000D01*
G37*
G36*
X116741716Y-113184544D02*
X117142090Y-113350384D01*
X117502421Y-113591150D01*
X117808850Y-113897579D01*
X118049616Y-114257910D01*
X118215456Y-114658284D01*
X118300000Y-115083317D01*
X118300000Y-115516683D01*
X118215456Y-115941716D01*
X118049616Y-116342090D01*
X117808850Y-116702421D01*
X117502421Y-117008850D01*
X117142090Y-117249616D01*
X116741716Y-117415456D01*
X116316683Y-117500000D01*
X115883317Y-117500000D01*
X115458284Y-117415456D01*
X115057910Y-117249616D01*
X114697579Y-117008850D01*
X114391150Y-116702421D01*
X114150384Y-116342090D01*
X113984544Y-115941716D01*
X113900000Y-115516683D01*
X113900000Y-115083317D01*
X113984544Y-114658284D01*
X114150384Y-114257910D01*
X114391150Y-113897579D01*
X114697579Y-113591150D01*
X115057910Y-113350384D01*
X115458284Y-113184544D01*
X115883317Y-113100000D01*
X116316683Y-113100000D01*
X116741716Y-113184544D01*
X116741716Y-113184544D01*
G37*
G36*
X127134122Y-113546115D02*
X127250041Y-113569173D01*
X127577620Y-113704861D01*
X127866047Y-113897582D01*
X127872436Y-113901851D01*
X128123149Y-114152564D01*
X128123151Y-114152567D01*
X128320139Y-114447380D01*
X128407499Y-114658284D01*
X128455827Y-114774960D01*
X128525000Y-115122714D01*
X128525000Y-115477286D01*
X128517163Y-115516683D01*
X128455827Y-115825041D01*
X128359881Y-116056674D01*
X128320140Y-116152618D01*
X128123149Y-116447436D01*
X127872436Y-116698149D01*
X127872433Y-116698151D01*
X127577620Y-116895139D01*
X127250041Y-117030827D01*
X127134122Y-117053885D01*
X126902286Y-117100000D01*
X126547714Y-117100000D01*
X126315878Y-117053885D01*
X126199959Y-117030827D01*
X125872380Y-116895139D01*
X125577567Y-116698151D01*
X125577564Y-116698149D01*
X125326851Y-116447436D01*
X125129860Y-116152618D01*
X125090119Y-116056674D01*
X124994173Y-115825041D01*
X124932837Y-115516683D01*
X124925000Y-115477286D01*
X124925000Y-115122714D01*
X124994173Y-114774960D01*
X125042502Y-114658284D01*
X125129861Y-114447380D01*
X125326849Y-114152567D01*
X125326851Y-114152564D01*
X125577564Y-113901851D01*
X125583953Y-113897582D01*
X125872380Y-113704861D01*
X126199959Y-113569173D01*
X126315878Y-113546115D01*
X126547714Y-113500000D01*
X126902286Y-113500000D01*
X127134122Y-113546115D01*
X127134122Y-113546115D01*
G37*
G36*
X105884122Y-113546115D02*
X106000041Y-113569173D01*
X106327620Y-113704861D01*
X106616047Y-113897582D01*
X106622436Y-113901851D01*
X106873149Y-114152564D01*
X106873151Y-114152567D01*
X107070139Y-114447380D01*
X107157499Y-114658284D01*
X107205827Y-114774960D01*
X107275000Y-115122714D01*
X107275000Y-115477286D01*
X107267163Y-115516683D01*
X107205827Y-115825041D01*
X107109881Y-116056674D01*
X107070140Y-116152618D01*
X106873149Y-116447436D01*
X106622436Y-116698149D01*
X106622433Y-116698151D01*
X106327620Y-116895139D01*
X106000041Y-117030827D01*
X105884122Y-117053885D01*
X105652286Y-117100000D01*
X105297714Y-117100000D01*
X105065878Y-117053885D01*
X104949959Y-117030827D01*
X104622380Y-116895139D01*
X104327567Y-116698151D01*
X104327564Y-116698149D01*
X104076851Y-116447436D01*
X103879860Y-116152618D01*
X103840119Y-116056674D01*
X103744173Y-115825041D01*
X103682837Y-115516683D01*
X103675000Y-115477286D01*
X103675000Y-115122714D01*
X103744173Y-114774960D01*
X103792502Y-114658284D01*
X103879861Y-114447380D01*
X104076849Y-114152567D01*
X104076851Y-114152564D01*
X104327564Y-113901851D01*
X104333953Y-113897582D01*
X104622380Y-113704861D01*
X104949959Y-113569173D01*
X105065878Y-113546115D01*
X105297714Y-113500000D01*
X105652286Y-113500000D01*
X105884122Y-113546115D01*
X105884122Y-113546115D01*
G37*
G36*
X206350000Y-113500000D02*
X204650000Y-113500000D01*
X204650000Y-112400000D01*
X206350000Y-112400000D01*
X206350000Y-113500000D01*
X206350000Y-113500000D01*
G37*
G36*
X201400000Y-113400000D02*
X200200000Y-113400000D01*
X200200000Y-112200000D01*
X201400000Y-112200000D01*
X201400000Y-113400000D01*
X201400000Y-113400000D01*
G37*
G36*
X195875000Y-112305000D02*
X193925000Y-112305000D01*
X193925000Y-111305000D01*
X195875000Y-111305000D01*
X195875000Y-112305000D01*
X195875000Y-112305000D01*
G37*
G36*
X190475000Y-112305000D02*
X188525000Y-112305000D01*
X188525000Y-111305000D01*
X190475000Y-111305000D01*
X190475000Y-112305000D01*
X190475000Y-112305000D01*
G37*
G36*
X201400000Y-111800000D02*
X200200000Y-111800000D01*
X200200000Y-110600000D01*
X201400000Y-110600000D01*
X201400000Y-111800000D01*
X201400000Y-111800000D01*
G37*
G36*
X206350000Y-111600000D02*
X204650000Y-111600000D01*
X204650000Y-110500000D01*
X206350000Y-110500000D01*
X206350000Y-111600000D01*
X206350000Y-111600000D01*
G37*
G36*
X190475000Y-111035000D02*
X188525000Y-111035000D01*
X188525000Y-110035000D01*
X190475000Y-110035000D01*
X190475000Y-111035000D01*
X190475000Y-111035000D01*
G37*
G36*
X195875000Y-111035000D02*
X193925000Y-111035000D01*
X193925000Y-110035000D01*
X195875000Y-110035000D01*
X195875000Y-111035000D01*
X195875000Y-111035000D01*
G37*
G36*
X190475000Y-109765000D02*
X188525000Y-109765000D01*
X188525000Y-108765000D01*
X190475000Y-108765000D01*
X190475000Y-109765000D01*
X190475000Y-109765000D01*
G37*
G36*
X195875000Y-109765000D02*
X193925000Y-109765000D01*
X193925000Y-108765000D01*
X195875000Y-108765000D01*
X195875000Y-109765000D01*
X195875000Y-109765000D01*
G37*
G36*
X190475000Y-108495000D02*
X188525000Y-108495000D01*
X188525000Y-107495000D01*
X190475000Y-107495000D01*
X190475000Y-108495000D01*
X190475000Y-108495000D01*
G37*
G36*
X195875000Y-108495000D02*
X193925000Y-108495000D01*
X193925000Y-107495000D01*
X195875000Y-107495000D01*
X195875000Y-108495000D01*
X195875000Y-108495000D01*
G37*
G36*
X223731260Y-105967293D02*
X223813155Y-106001215D01*
X223886861Y-106050464D01*
X223949536Y-106113139D01*
X223998785Y-106186845D01*
X224032707Y-106268740D01*
X224050000Y-106355678D01*
X224050000Y-106444322D01*
X224032707Y-106531260D01*
X223998785Y-106613155D01*
X223949536Y-106686861D01*
X223924785Y-106711612D01*
X223909239Y-106730554D01*
X223897688Y-106752165D01*
X223890575Y-106775614D01*
X223888173Y-106800000D01*
X223890575Y-106824386D01*
X223897688Y-106847835D01*
X223909239Y-106869446D01*
X223924785Y-106888388D01*
X223949536Y-106913139D01*
X223998785Y-106986845D01*
X224032707Y-107068740D01*
X224050000Y-107155678D01*
X224050000Y-107244322D01*
X224032707Y-107331260D01*
X223998785Y-107413155D01*
X223949536Y-107486861D01*
X223886861Y-107549536D01*
X223813155Y-107598785D01*
X223731260Y-107632707D01*
X223644322Y-107650000D01*
X223555678Y-107650000D01*
X223468740Y-107632707D01*
X223386845Y-107598785D01*
X223313139Y-107549536D01*
X223250464Y-107486861D01*
X223201215Y-107413155D01*
X223167293Y-107331260D01*
X223150000Y-107244322D01*
X223150000Y-107155678D01*
X223167293Y-107068740D01*
X223201215Y-106986845D01*
X223250464Y-106913139D01*
X223275215Y-106888388D01*
X223290761Y-106869446D01*
X223302312Y-106847835D01*
X223309425Y-106824386D01*
X223311827Y-106800000D01*
X223309425Y-106775614D01*
X223302312Y-106752165D01*
X223290761Y-106730554D01*
X223275215Y-106711612D01*
X223250464Y-106686861D01*
X223201215Y-106613155D01*
X223167293Y-106531260D01*
X223150000Y-106444322D01*
X223150000Y-106355678D01*
X223167293Y-106268740D01*
X223201215Y-106186845D01*
X223250464Y-106113139D01*
X223313139Y-106050464D01*
X223386845Y-106001215D01*
X223468740Y-105967293D01*
X223555678Y-105950000D01*
X223644322Y-105950000D01*
X223731260Y-105967293D01*
X223731260Y-105967293D01*
G37*
G36*
X225131260Y-105967293D02*
X225213155Y-106001215D01*
X225286861Y-106050464D01*
X225349536Y-106113139D01*
X225398785Y-106186845D01*
X225432707Y-106268740D01*
X225450000Y-106355678D01*
X225450000Y-106444322D01*
X225432707Y-106531260D01*
X225398785Y-106613155D01*
X225349536Y-106686861D01*
X225324785Y-106711612D01*
X225309239Y-106730554D01*
X225297688Y-106752165D01*
X225290575Y-106775614D01*
X225288173Y-106800000D01*
X225290575Y-106824386D01*
X225297688Y-106847835D01*
X225309239Y-106869446D01*
X225324785Y-106888388D01*
X225349536Y-106913139D01*
X225398785Y-106986845D01*
X225432707Y-107068740D01*
X225450000Y-107155678D01*
X225450000Y-107244322D01*
X225432707Y-107331260D01*
X225398785Y-107413155D01*
X225349536Y-107486861D01*
X225286861Y-107549536D01*
X225213155Y-107598785D01*
X225131260Y-107632707D01*
X225044322Y-107650000D01*
X224955678Y-107650000D01*
X224868740Y-107632707D01*
X224786845Y-107598785D01*
X224713139Y-107549536D01*
X224650464Y-107486861D01*
X224601215Y-107413155D01*
X224567293Y-107331260D01*
X224550000Y-107244322D01*
X224550000Y-107155678D01*
X224567293Y-107068740D01*
X224601215Y-106986845D01*
X224650464Y-106913139D01*
X224675215Y-106888388D01*
X224690761Y-106869446D01*
X224702312Y-106847835D01*
X224709425Y-106824386D01*
X224711827Y-106800000D01*
X224709425Y-106775614D01*
X224702312Y-106752165D01*
X224690761Y-106730554D01*
X224675215Y-106711612D01*
X224650464Y-106686861D01*
X224601215Y-106613155D01*
X224567293Y-106531260D01*
X224550000Y-106444322D01*
X224550000Y-106355678D01*
X224567293Y-106268740D01*
X224601215Y-106186845D01*
X224650464Y-106113139D01*
X224713139Y-106050464D01*
X224786845Y-106001215D01*
X224868740Y-105967293D01*
X224955678Y-105950000D01*
X225044322Y-105950000D01*
X225131260Y-105967293D01*
X225131260Y-105967293D01*
G37*
G36*
X258931260Y-105967293D02*
X259013155Y-106001215D01*
X259086861Y-106050464D01*
X259149536Y-106113139D01*
X259198785Y-106186845D01*
X259232707Y-106268740D01*
X259250000Y-106355678D01*
X259250000Y-106444322D01*
X259232707Y-106531260D01*
X259198785Y-106613155D01*
X259149536Y-106686861D01*
X259124785Y-106711612D01*
X259109239Y-106730554D01*
X259097688Y-106752165D01*
X259090575Y-106775614D01*
X259088173Y-106800000D01*
X259090575Y-106824386D01*
X259097688Y-106847835D01*
X259109239Y-106869446D01*
X259124785Y-106888388D01*
X259149536Y-106913139D01*
X259198785Y-106986845D01*
X259232707Y-107068740D01*
X259250000Y-107155678D01*
X259250000Y-107244322D01*
X259232707Y-107331260D01*
X259198785Y-107413155D01*
X259149536Y-107486861D01*
X259086861Y-107549536D01*
X259013155Y-107598785D01*
X258931260Y-107632707D01*
X258844322Y-107650000D01*
X258755678Y-107650000D01*
X258668740Y-107632707D01*
X258586845Y-107598785D01*
X258513139Y-107549536D01*
X258450464Y-107486861D01*
X258401215Y-107413155D01*
X258367293Y-107331260D01*
X258350000Y-107244322D01*
X258350000Y-107155678D01*
X258367293Y-107068740D01*
X258401215Y-106986845D01*
X258450464Y-106913139D01*
X258475215Y-106888388D01*
X258490761Y-106869446D01*
X258502312Y-106847835D01*
X258509425Y-106824386D01*
X258511827Y-106800000D01*
X258509425Y-106775614D01*
X258502312Y-106752165D01*
X258490761Y-106730554D01*
X258475215Y-106711612D01*
X258450464Y-106686861D01*
X258401215Y-106613155D01*
X258367293Y-106531260D01*
X258350000Y-106444322D01*
X258350000Y-106355678D01*
X258367293Y-106268740D01*
X258401215Y-106186845D01*
X258450464Y-106113139D01*
X258513139Y-106050464D01*
X258586845Y-106001215D01*
X258668740Y-105967293D01*
X258755678Y-105950000D01*
X258844322Y-105950000D01*
X258931260Y-105967293D01*
X258931260Y-105967293D01*
G37*
G36*
X197185000Y-106900000D02*
X196115000Y-106900000D01*
X196115000Y-105500000D01*
X197185000Y-105500000D01*
X197185000Y-106900000D01*
X197185000Y-106900000D01*
G37*
G36*
X195435000Y-106900000D02*
X194365000Y-106900000D01*
X194365000Y-105500000D01*
X195435000Y-105500000D01*
X195435000Y-106900000D01*
X195435000Y-106900000D01*
G37*
G36*
X193450000Y-106775000D02*
X192250000Y-106775000D01*
X192250000Y-105625000D01*
X193450000Y-105625000D01*
X193450000Y-106775000D01*
X193450000Y-106775000D01*
G37*
G36*
X191950000Y-106775000D02*
X190750000Y-106775000D01*
X190750000Y-105625000D01*
X191950000Y-105625000D01*
X191950000Y-106775000D01*
X191950000Y-106775000D01*
G37*
G36*
X192522947Y-100455722D02*
X192786833Y-100565027D01*
X193024324Y-100723713D01*
X193226287Y-100925676D01*
X193384973Y-101163167D01*
X193494278Y-101427053D01*
X193550000Y-101707186D01*
X193550000Y-101992814D01*
X193494278Y-102272947D01*
X193384973Y-102536833D01*
X193226287Y-102774324D01*
X193024324Y-102976287D01*
X192786833Y-103134973D01*
X192522947Y-103244278D01*
X192242814Y-103300000D01*
X191957186Y-103300000D01*
X191677053Y-103244278D01*
X191413167Y-103134973D01*
X191175676Y-102976287D01*
X190973713Y-102774324D01*
X190815027Y-102536833D01*
X190705722Y-102272947D01*
X190650000Y-101992814D01*
X190650000Y-101707186D01*
X190705722Y-101427053D01*
X190815027Y-101163167D01*
X190973713Y-100925676D01*
X191175676Y-100723713D01*
X191413167Y-100565027D01*
X191677053Y-100455722D01*
X191957186Y-100400000D01*
X192242814Y-100400000D01*
X192522947Y-100455722D01*
X192522947Y-100455722D01*
G37*
G36*
X184031260Y-96567293D02*
X184113155Y-96601215D01*
X184186861Y-96650464D01*
X184249536Y-96713139D01*
X184298785Y-96786845D01*
X184332707Y-96868740D01*
X184350000Y-96955678D01*
X184350000Y-97044322D01*
X184332707Y-97131260D01*
X184298785Y-97213155D01*
X184249536Y-97286861D01*
X184224785Y-97311612D01*
X184209239Y-97330554D01*
X184197688Y-97352165D01*
X184190575Y-97375614D01*
X184188173Y-97400000D01*
X184190575Y-97424386D01*
X184197688Y-97447835D01*
X184209239Y-97469446D01*
X184224785Y-97488388D01*
X184249536Y-97513139D01*
X184298785Y-97586845D01*
X184332707Y-97668740D01*
X184350000Y-97755678D01*
X184350000Y-97844322D01*
X184332707Y-97931260D01*
X184298785Y-98013155D01*
X184249536Y-98086861D01*
X184186861Y-98149536D01*
X184113155Y-98198785D01*
X184031260Y-98232707D01*
X183944322Y-98250000D01*
X183855678Y-98250000D01*
X183768740Y-98232707D01*
X183686845Y-98198785D01*
X183613139Y-98149536D01*
X183550464Y-98086861D01*
X183501215Y-98013155D01*
X183467293Y-97931260D01*
X183450000Y-97844322D01*
X183450000Y-97755678D01*
X183467293Y-97668740D01*
X183501215Y-97586845D01*
X183550464Y-97513139D01*
X183575215Y-97488388D01*
X183590761Y-97469446D01*
X183602312Y-97447835D01*
X183609425Y-97424386D01*
X183611827Y-97400000D01*
X183609425Y-97375614D01*
X183602312Y-97352165D01*
X183590761Y-97330554D01*
X183575215Y-97311612D01*
X183550464Y-97286861D01*
X183501215Y-97213155D01*
X183467293Y-97131260D01*
X183450000Y-97044322D01*
X183450000Y-96955678D01*
X183467293Y-96868740D01*
X183501215Y-96786845D01*
X183550464Y-96713139D01*
X183613139Y-96650464D01*
X183686845Y-96601215D01*
X183768740Y-96567293D01*
X183855678Y-96550000D01*
X183944322Y-96550000D01*
X184031260Y-96567293D01*
X184031260Y-96567293D01*
G37*
G36*
X217831260Y-96167293D02*
X217913155Y-96201215D01*
X217986861Y-96250464D01*
X218049536Y-96313139D01*
X218098785Y-96386845D01*
X218132707Y-96468740D01*
X218150000Y-96555678D01*
X218150000Y-96644322D01*
X218132707Y-96731260D01*
X218098785Y-96813155D01*
X218049536Y-96886861D01*
X218024785Y-96911612D01*
X218009239Y-96930554D01*
X217997688Y-96952165D01*
X217990575Y-96975614D01*
X217988173Y-97000000D01*
X217990575Y-97024386D01*
X217997688Y-97047835D01*
X218009239Y-97069446D01*
X218024785Y-97088388D01*
X218049536Y-97113139D01*
X218098785Y-97186845D01*
X218132707Y-97268740D01*
X218150000Y-97355678D01*
X218150000Y-97444322D01*
X218132707Y-97531260D01*
X218098785Y-97613155D01*
X218049536Y-97686861D01*
X217986861Y-97749536D01*
X217913155Y-97798785D01*
X217831260Y-97832707D01*
X217744322Y-97850000D01*
X217655678Y-97850000D01*
X217568740Y-97832707D01*
X217486845Y-97798785D01*
X217413139Y-97749536D01*
X217350464Y-97686861D01*
X217301215Y-97613155D01*
X217267293Y-97531260D01*
X217250000Y-97444322D01*
X217250000Y-97355678D01*
X217267293Y-97268740D01*
X217301215Y-97186845D01*
X217350464Y-97113139D01*
X217375215Y-97088388D01*
X217390761Y-97069446D01*
X217402312Y-97047835D01*
X217409425Y-97024386D01*
X217411827Y-97000000D01*
X217409425Y-96975614D01*
X217402312Y-96952165D01*
X217390761Y-96930554D01*
X217375215Y-96911612D01*
X217350464Y-96886861D01*
X217301215Y-96813155D01*
X217267293Y-96731260D01*
X217250000Y-96644322D01*
X217250000Y-96555678D01*
X217267293Y-96468740D01*
X217301215Y-96386845D01*
X217350464Y-96313139D01*
X217413139Y-96250464D01*
X217486845Y-96201215D01*
X217568740Y-96167293D01*
X217655678Y-96150000D01*
X217744322Y-96150000D01*
X217831260Y-96167293D01*
X217831260Y-96167293D01*
G37*
G36*
X230281260Y-96217293D02*
X230363155Y-96251215D01*
X230437153Y-96300659D01*
X230455554Y-96315761D01*
X230477165Y-96327312D01*
X230500614Y-96334425D01*
X230525000Y-96336827D01*
X230549386Y-96334425D01*
X230572835Y-96327312D01*
X230594446Y-96315761D01*
X230612847Y-96300659D01*
X230686845Y-96251215D01*
X230768740Y-96217293D01*
X230855678Y-96200000D01*
X230944322Y-96200000D01*
X231031260Y-96217293D01*
X231113155Y-96251215D01*
X231187153Y-96300659D01*
X231205554Y-96315761D01*
X231227165Y-96327312D01*
X231250614Y-96334425D01*
X231275000Y-96336827D01*
X231299386Y-96334425D01*
X231322835Y-96327312D01*
X231344446Y-96315761D01*
X231362847Y-96300659D01*
X231436845Y-96251215D01*
X231518740Y-96217293D01*
X231605678Y-96200000D01*
X231694322Y-96200000D01*
X231781260Y-96217293D01*
X231863155Y-96251215D01*
X231936861Y-96300464D01*
X231999536Y-96363139D01*
X232048785Y-96436845D01*
X232082707Y-96518740D01*
X232100000Y-96605678D01*
X232100000Y-96694322D01*
X232082707Y-96781260D01*
X232048785Y-96863155D01*
X231999536Y-96936861D01*
X231936861Y-96999536D01*
X231863155Y-97048785D01*
X231781260Y-97082707D01*
X231694322Y-97100000D01*
X231605678Y-97100000D01*
X231518740Y-97082707D01*
X231436845Y-97048785D01*
X231362847Y-96999341D01*
X231344446Y-96984239D01*
X231322835Y-96972688D01*
X231299386Y-96965575D01*
X231275000Y-96963173D01*
X231250614Y-96965575D01*
X231227165Y-96972688D01*
X231205554Y-96984239D01*
X231187153Y-96999341D01*
X231113155Y-97048785D01*
X231031260Y-97082707D01*
X230944322Y-97100000D01*
X230855678Y-97100000D01*
X230768740Y-97082707D01*
X230686845Y-97048785D01*
X230612847Y-96999341D01*
X230594446Y-96984239D01*
X230572835Y-96972688D01*
X230549386Y-96965575D01*
X230525000Y-96963173D01*
X230500614Y-96965575D01*
X230477165Y-96972688D01*
X230455554Y-96984239D01*
X230437153Y-96999341D01*
X230363155Y-97048785D01*
X230281260Y-97082707D01*
X230194322Y-97100000D01*
X230105678Y-97100000D01*
X230018740Y-97082707D01*
X229936845Y-97048785D01*
X229863139Y-96999536D01*
X229800464Y-96936861D01*
X229751215Y-96863155D01*
X229717293Y-96781260D01*
X229700000Y-96694322D01*
X229700000Y-96605678D01*
X229717293Y-96518740D01*
X229751215Y-96436845D01*
X229800464Y-96363139D01*
X229863139Y-96300464D01*
X229936845Y-96251215D01*
X230018740Y-96217293D01*
X230105678Y-96200000D01*
X230194322Y-96200000D01*
X230281260Y-96217293D01*
X230281260Y-96217293D01*
G37*
G36*
X257881260Y-96217293D02*
X257963155Y-96251215D01*
X258037153Y-96300659D01*
X258055554Y-96315761D01*
X258077165Y-96327312D01*
X258100614Y-96334425D01*
X258125000Y-96336827D01*
X258149386Y-96334425D01*
X258172835Y-96327312D01*
X258194446Y-96315761D01*
X258212847Y-96300659D01*
X258286845Y-96251215D01*
X258368740Y-96217293D01*
X258455678Y-96200000D01*
X258544322Y-96200000D01*
X258631260Y-96217293D01*
X258713155Y-96251215D01*
X258787153Y-96300659D01*
X258805554Y-96315761D01*
X258827165Y-96327312D01*
X258850614Y-96334425D01*
X258875000Y-96336827D01*
X258899386Y-96334425D01*
X258922835Y-96327312D01*
X258944446Y-96315761D01*
X258962847Y-96300659D01*
X259036845Y-96251215D01*
X259118740Y-96217293D01*
X259205678Y-96200000D01*
X259294322Y-96200000D01*
X259381260Y-96217293D01*
X259463155Y-96251215D01*
X259536861Y-96300464D01*
X259599536Y-96363139D01*
X259648785Y-96436845D01*
X259682707Y-96518740D01*
X259700000Y-96605678D01*
X259700000Y-96694322D01*
X259682707Y-96781260D01*
X259648785Y-96863155D01*
X259599536Y-96936861D01*
X259536861Y-96999536D01*
X259463155Y-97048785D01*
X259381260Y-97082707D01*
X259294322Y-97100000D01*
X259205678Y-97100000D01*
X259118740Y-97082707D01*
X259036845Y-97048785D01*
X258962847Y-96999341D01*
X258944446Y-96984239D01*
X258922835Y-96972688D01*
X258899386Y-96965575D01*
X258875000Y-96963173D01*
X258850614Y-96965575D01*
X258827165Y-96972688D01*
X258805554Y-96984239D01*
X258787153Y-96999341D01*
X258713155Y-97048785D01*
X258631260Y-97082707D01*
X258544322Y-97100000D01*
X258455678Y-97100000D01*
X258368740Y-97082707D01*
X258286845Y-97048785D01*
X258212847Y-96999341D01*
X258194446Y-96984239D01*
X258172835Y-96972688D01*
X258149386Y-96965575D01*
X258125000Y-96963173D01*
X258100614Y-96965575D01*
X258077165Y-96972688D01*
X258055554Y-96984239D01*
X258037153Y-96999341D01*
X257963155Y-97048785D01*
X257881260Y-97082707D01*
X257794322Y-97100000D01*
X257705678Y-97100000D01*
X257618740Y-97082707D01*
X257536845Y-97048785D01*
X257463139Y-96999536D01*
X257400464Y-96936861D01*
X257351215Y-96863155D01*
X257317293Y-96781260D01*
X257300000Y-96694322D01*
X257300000Y-96605678D01*
X257317293Y-96518740D01*
X257351215Y-96436845D01*
X257400464Y-96363139D01*
X257463139Y-96300464D01*
X257536845Y-96251215D01*
X257618740Y-96217293D01*
X257705678Y-96200000D01*
X257794322Y-96200000D01*
X257881260Y-96217293D01*
X257881260Y-96217293D01*
G37*
G36*
X68300000Y-96550000D02*
X64400000Y-96550000D01*
X64400000Y-94450000D01*
X68300000Y-94450000D01*
X68300000Y-96550000D01*
X68300000Y-96550000D01*
G37*
G36*
X62100000Y-96550000D02*
X58200000Y-96550000D01*
X58200000Y-94450000D01*
X62100000Y-94450000D01*
X62100000Y-96550000D01*
X62100000Y-96550000D01*
G37*
G36*
X168818398Y-90567294D02*
X169185470Y-90640309D01*
X169613143Y-90817457D01*
X169998038Y-91074636D01*
X170325364Y-91401962D01*
X170582543Y-91786857D01*
X170759691Y-92214530D01*
X170783497Y-92334213D01*
X170849452Y-92665787D01*
X170850000Y-92668545D01*
X170850000Y-93131455D01*
X170759691Y-93585470D01*
X170582543Y-94013143D01*
X170325364Y-94398038D01*
X169998038Y-94725364D01*
X169613143Y-94982543D01*
X169185470Y-95159691D01*
X168866630Y-95223112D01*
X168731456Y-95250000D01*
X168268544Y-95250000D01*
X168133370Y-95223112D01*
X167814530Y-95159691D01*
X167386857Y-94982543D01*
X167001962Y-94725364D01*
X166674636Y-94398038D01*
X166417457Y-94013143D01*
X166240309Y-93585470D01*
X166150000Y-93131455D01*
X166150000Y-92668545D01*
X166150549Y-92665787D01*
X166216503Y-92334213D01*
X166240309Y-92214530D01*
X166417457Y-91786857D01*
X166674636Y-91401962D01*
X167001962Y-91074636D01*
X167386857Y-90817457D01*
X167814530Y-90640309D01*
X168181602Y-90567294D01*
X168268544Y-90550000D01*
X168731456Y-90550000D01*
X168818398Y-90567294D01*
X168818398Y-90567294D01*
G37*
G36*
X146018398Y-90567294D02*
X146385470Y-90640309D01*
X146813143Y-90817457D01*
X147198038Y-91074636D01*
X147525364Y-91401962D01*
X147782543Y-91786857D01*
X147959691Y-92214530D01*
X147983497Y-92334213D01*
X148049452Y-92665787D01*
X148050000Y-92668545D01*
X148050000Y-93131455D01*
X147959691Y-93585470D01*
X147782543Y-94013143D01*
X147525364Y-94398038D01*
X147198038Y-94725364D01*
X146813143Y-94982543D01*
X146385470Y-95159691D01*
X146066630Y-95223112D01*
X145931456Y-95250000D01*
X145468544Y-95250000D01*
X145333370Y-95223112D01*
X145014530Y-95159691D01*
X144586857Y-94982543D01*
X144201962Y-94725364D01*
X143874636Y-94398038D01*
X143617457Y-94013143D01*
X143440309Y-93585470D01*
X143350000Y-93131455D01*
X143350000Y-92668545D01*
X143350549Y-92665787D01*
X143416503Y-92334213D01*
X143440309Y-92214530D01*
X143617457Y-91786857D01*
X143874636Y-91401962D01*
X144201962Y-91074636D01*
X144586857Y-90817457D01*
X145014530Y-90640309D01*
X145381602Y-90567294D01*
X145468544Y-90550000D01*
X145931456Y-90550000D01*
X146018398Y-90567294D01*
X146018398Y-90567294D01*
G37*
G36*
X256509122Y-91146115D02*
X256625041Y-91169173D01*
X256952620Y-91304861D01*
X257243511Y-91499228D01*
X257247436Y-91501851D01*
X257498149Y-91752564D01*
X257498151Y-91752567D01*
X257695139Y-92047380D01*
X257790205Y-92276888D01*
X257830827Y-92374960D01*
X257900000Y-92722714D01*
X257900000Y-93077286D01*
X257869994Y-93228137D01*
X257830827Y-93425041D01*
X257785499Y-93534472D01*
X257731107Y-93665787D01*
X257695139Y-93752620D01*
X257521063Y-94013143D01*
X257498149Y-94047436D01*
X257247436Y-94298149D01*
X257247433Y-94298151D01*
X256952620Y-94495139D01*
X256625041Y-94630827D01*
X256509122Y-94653885D01*
X256277286Y-94700000D01*
X255922714Y-94700000D01*
X255690878Y-94653885D01*
X255574959Y-94630827D01*
X255247380Y-94495139D01*
X254952567Y-94298151D01*
X254952564Y-94298149D01*
X254701851Y-94047436D01*
X254678937Y-94013143D01*
X254504861Y-93752620D01*
X254468894Y-93665787D01*
X254414501Y-93534472D01*
X254369173Y-93425041D01*
X254330006Y-93228137D01*
X254300000Y-93077286D01*
X254300000Y-92722714D01*
X254369173Y-92374960D01*
X254409796Y-92276888D01*
X254504861Y-92047380D01*
X254701849Y-91752567D01*
X254701851Y-91752564D01*
X254952564Y-91501851D01*
X254956489Y-91499228D01*
X255247380Y-91304861D01*
X255574959Y-91169173D01*
X255690878Y-91146115D01*
X255922714Y-91100000D01*
X256277286Y-91100000D01*
X256509122Y-91146115D01*
X256509122Y-91146115D01*
G37*
G36*
X233709122Y-91146115D02*
X233825041Y-91169173D01*
X234152620Y-91304861D01*
X234443511Y-91499228D01*
X234447436Y-91501851D01*
X234698149Y-91752564D01*
X234698151Y-91752567D01*
X234895139Y-92047380D01*
X234990205Y-92276888D01*
X235030827Y-92374960D01*
X235100000Y-92722714D01*
X235100000Y-93077286D01*
X235069994Y-93228137D01*
X235030827Y-93425041D01*
X234985499Y-93534472D01*
X234931107Y-93665787D01*
X234895139Y-93752620D01*
X234721063Y-94013143D01*
X234698149Y-94047436D01*
X234447436Y-94298149D01*
X234447433Y-94298151D01*
X234152620Y-94495139D01*
X233825041Y-94630827D01*
X233709122Y-94653885D01*
X233477286Y-94700000D01*
X233122714Y-94700000D01*
X232890878Y-94653885D01*
X232774959Y-94630827D01*
X232447380Y-94495139D01*
X232152567Y-94298151D01*
X232152564Y-94298149D01*
X231901851Y-94047436D01*
X231878937Y-94013143D01*
X231704861Y-93752620D01*
X231668894Y-93665787D01*
X231614501Y-93534472D01*
X231569173Y-93425041D01*
X231530006Y-93228137D01*
X231500000Y-93077286D01*
X231500000Y-92722714D01*
X231569173Y-92374960D01*
X231609796Y-92276888D01*
X231704861Y-92047380D01*
X231901849Y-91752567D01*
X231901851Y-91752564D01*
X232152564Y-91501851D01*
X232156489Y-91499228D01*
X232447380Y-91304861D01*
X232774959Y-91169173D01*
X232890878Y-91146115D01*
X233122714Y-91100000D01*
X233477286Y-91100000D01*
X233709122Y-91146115D01*
X233709122Y-91146115D01*
G37*
G36*
X68300000Y-94050000D02*
X64400000Y-94050000D01*
X64400000Y-91950000D01*
X68300000Y-91950000D01*
X68300000Y-94050000D01*
X68300000Y-94050000D01*
G37*
G36*
X62100000Y-94050000D02*
X58200000Y-94050000D01*
X58200000Y-91950000D01*
X62100000Y-91950000D01*
X62100000Y-94050000D01*
X62100000Y-94050000D01*
G37*
G36*
X184031260Y-90167293D02*
X184113155Y-90201215D01*
X184186861Y-90250464D01*
X184249536Y-90313139D01*
X184298785Y-90386845D01*
X184332707Y-90468740D01*
X184350000Y-90555678D01*
X184350000Y-90644322D01*
X184332707Y-90731260D01*
X184298785Y-90813155D01*
X184249536Y-90886861D01*
X184224785Y-90911612D01*
X184209239Y-90930554D01*
X184197688Y-90952165D01*
X184190575Y-90975614D01*
X184188173Y-91000000D01*
X184190575Y-91024386D01*
X184197688Y-91047835D01*
X184209239Y-91069446D01*
X184224785Y-91088388D01*
X184249536Y-91113139D01*
X184298785Y-91186845D01*
X184332707Y-91268740D01*
X184350000Y-91355678D01*
X184350000Y-91444322D01*
X184332707Y-91531260D01*
X184298785Y-91613155D01*
X184249536Y-91686861D01*
X184186861Y-91749536D01*
X184113155Y-91798785D01*
X184031260Y-91832707D01*
X183944322Y-91850000D01*
X183855678Y-91850000D01*
X183768740Y-91832707D01*
X183686845Y-91798785D01*
X183613139Y-91749536D01*
X183550464Y-91686861D01*
X183501215Y-91613155D01*
X183467293Y-91531260D01*
X183450000Y-91444322D01*
X183450000Y-91355678D01*
X183467293Y-91268740D01*
X183501215Y-91186845D01*
X183550464Y-91113139D01*
X183575215Y-91088388D01*
X183590761Y-91069446D01*
X183602312Y-91047835D01*
X183609425Y-91024386D01*
X183611827Y-91000000D01*
X183609425Y-90975614D01*
X183602312Y-90952165D01*
X183590761Y-90930554D01*
X183575215Y-90911612D01*
X183550464Y-90886861D01*
X183501215Y-90813155D01*
X183467293Y-90731260D01*
X183450000Y-90644322D01*
X183450000Y-90555678D01*
X183467293Y-90468740D01*
X183501215Y-90386845D01*
X183550464Y-90313139D01*
X183613139Y-90250464D01*
X183686845Y-90201215D01*
X183768740Y-90167293D01*
X183855678Y-90150000D01*
X183944322Y-90150000D01*
X184031260Y-90167293D01*
X184031260Y-90167293D01*
G37*
G36*
X62100000Y-91550000D02*
X58200000Y-91550000D01*
X58200000Y-89450000D01*
X62100000Y-89450000D01*
X62100000Y-91550000D01*
X62100000Y-91550000D01*
G37*
G36*
X68300000Y-91550000D02*
X64400000Y-91550000D01*
X64400000Y-89450000D01*
X68300000Y-89450000D01*
X68300000Y-91550000D01*
X68300000Y-91550000D01*
G37*
G36*
X217831260Y-89767293D02*
X217913155Y-89801215D01*
X217986861Y-89850464D01*
X218049536Y-89913139D01*
X218098785Y-89986845D01*
X218132707Y-90068740D01*
X218150000Y-90155678D01*
X218150000Y-90244322D01*
X218132707Y-90331260D01*
X218098785Y-90413155D01*
X218049536Y-90486861D01*
X218024785Y-90511612D01*
X218009239Y-90530554D01*
X217997688Y-90552165D01*
X217990575Y-90575614D01*
X217988173Y-90600000D01*
X217990575Y-90624386D01*
X217997688Y-90647835D01*
X218009239Y-90669446D01*
X218024785Y-90688388D01*
X218049536Y-90713139D01*
X218098785Y-90786845D01*
X218132707Y-90868740D01*
X218150000Y-90955678D01*
X218150000Y-91044322D01*
X218132707Y-91131260D01*
X218098785Y-91213155D01*
X218049536Y-91286861D01*
X217986861Y-91349536D01*
X217913155Y-91398785D01*
X217831260Y-91432707D01*
X217744322Y-91450000D01*
X217655678Y-91450000D01*
X217568740Y-91432707D01*
X217486845Y-91398785D01*
X217413139Y-91349536D01*
X217350464Y-91286861D01*
X217301215Y-91213155D01*
X217267293Y-91131260D01*
X217250000Y-91044322D01*
X217250000Y-90955678D01*
X217267293Y-90868740D01*
X217301215Y-90786845D01*
X217350464Y-90713139D01*
X217375215Y-90688388D01*
X217390761Y-90669446D01*
X217402312Y-90647835D01*
X217409425Y-90624386D01*
X217411827Y-90600000D01*
X217409425Y-90575614D01*
X217402312Y-90552165D01*
X217390761Y-90530554D01*
X217375215Y-90511612D01*
X217350464Y-90486861D01*
X217301215Y-90413155D01*
X217267293Y-90331260D01*
X217250000Y-90244322D01*
X217250000Y-90155678D01*
X217267293Y-90068740D01*
X217301215Y-89986845D01*
X217350464Y-89913139D01*
X217413139Y-89850464D01*
X217486845Y-89801215D01*
X217568740Y-89767293D01*
X217655678Y-89750000D01*
X217744322Y-89750000D01*
X217831260Y-89767293D01*
X217831260Y-89767293D01*
G37*
G36*
X209922947Y-84755722D02*
X210186833Y-84865027D01*
X210424324Y-85023713D01*
X210626287Y-85225676D01*
X210784973Y-85463167D01*
X210894278Y-85727053D01*
X210950000Y-86007186D01*
X210950000Y-86292814D01*
X210894278Y-86572947D01*
X210784973Y-86836833D01*
X210626287Y-87074324D01*
X210424324Y-87276287D01*
X210186833Y-87434973D01*
X209922947Y-87544278D01*
X209642814Y-87600000D01*
X209357186Y-87600000D01*
X209077053Y-87544278D01*
X208813167Y-87434973D01*
X208575676Y-87276287D01*
X208373713Y-87074324D01*
X208215027Y-86836833D01*
X208105722Y-86572947D01*
X208050000Y-86292814D01*
X208050000Y-86007186D01*
X208105722Y-85727053D01*
X208215027Y-85463167D01*
X208373713Y-85225676D01*
X208575676Y-85023713D01*
X208813167Y-84865027D01*
X209077053Y-84755722D01*
X209357186Y-84700000D01*
X209642814Y-84700000D01*
X209922947Y-84755722D01*
X209922947Y-84755722D01*
G37*
G36*
X152830000Y-87360000D02*
X151760000Y-87360000D01*
X151760000Y-85960000D01*
X152830000Y-85960000D01*
X152830000Y-87360000D01*
X152830000Y-87360000D01*
G37*
G36*
X154580000Y-87360000D02*
X153510000Y-87360000D01*
X153510000Y-85960000D01*
X154580000Y-85960000D01*
X154580000Y-87360000D01*
X154580000Y-87360000D01*
G37*
G36*
X159725000Y-83685000D02*
X159727402Y-83709386D01*
X159734515Y-83732835D01*
X159746066Y-83754446D01*
X159761612Y-83773388D01*
X159780554Y-83788934D01*
X159802165Y-83800485D01*
X159825614Y-83807598D01*
X159850000Y-83810000D01*
X160560000Y-83810000D01*
X160560000Y-86750000D01*
X159490000Y-86750000D01*
X159490000Y-83775000D01*
X159487598Y-83750614D01*
X159480485Y-83727165D01*
X159468934Y-83705554D01*
X159453388Y-83686612D01*
X159434446Y-83671066D01*
X159412835Y-83659515D01*
X159389386Y-83652402D01*
X159365000Y-83650000D01*
X158935000Y-83650000D01*
X158910614Y-83652402D01*
X158887165Y-83659515D01*
X158865554Y-83671066D01*
X158846612Y-83686612D01*
X158831066Y-83705554D01*
X158819515Y-83727165D01*
X158812402Y-83750614D01*
X158810000Y-83775000D01*
X158810000Y-86750000D01*
X157740000Y-86750000D01*
X157740000Y-83775000D01*
X157737598Y-83750614D01*
X157730485Y-83727165D01*
X157718934Y-83705554D01*
X157703388Y-83686612D01*
X157684446Y-83671066D01*
X157662835Y-83659515D01*
X157639386Y-83652402D01*
X157615000Y-83650000D01*
X153575000Y-83650000D01*
X153575000Y-81950000D01*
X159725000Y-81950000D01*
X159725000Y-83685000D01*
X159725000Y-83685000D01*
G37*
G36*
X148300000Y-84885000D02*
X148302402Y-84909386D01*
X148309515Y-84932835D01*
X148321066Y-84954446D01*
X148336612Y-84973388D01*
X148355554Y-84988934D01*
X148377165Y-85000485D01*
X148400614Y-85007598D01*
X148425000Y-85010000D01*
X149385000Y-85010000D01*
X149385000Y-86410000D01*
X148315000Y-86410000D01*
X148315000Y-85025000D01*
X148312598Y-85000614D01*
X148305485Y-84977165D01*
X148293934Y-84955554D01*
X148278388Y-84936612D01*
X148259446Y-84921066D01*
X148237835Y-84909515D01*
X148214386Y-84902402D01*
X148190000Y-84900000D01*
X147760000Y-84900000D01*
X147735614Y-84902402D01*
X147712165Y-84909515D01*
X147690554Y-84921066D01*
X147671612Y-84936612D01*
X147656066Y-84955554D01*
X147644515Y-84977165D01*
X147637402Y-85000614D01*
X147635000Y-85025000D01*
X147635000Y-86410000D01*
X146565000Y-86410000D01*
X146565000Y-85025000D01*
X146562598Y-85000614D01*
X146555485Y-84977165D01*
X146543934Y-84955554D01*
X146528388Y-84936612D01*
X146509446Y-84921066D01*
X146487835Y-84909515D01*
X146464386Y-84902402D01*
X146440000Y-84900000D01*
X145900000Y-84900000D01*
X145900000Y-80000000D01*
X148300000Y-80000000D01*
X148300000Y-84885000D01*
X148300000Y-84885000D01*
G37*
G36*
X144370000Y-82980000D02*
X142970000Y-82980000D01*
X142970000Y-81910000D01*
X144370000Y-81910000D01*
X144370000Y-82980000D01*
X144370000Y-82980000D01*
G37*
G36*
X207235000Y-82500000D02*
X206165000Y-82500000D01*
X206165000Y-81100000D01*
X207235000Y-81100000D01*
X207235000Y-82500000D01*
X207235000Y-82500000D01*
G37*
G36*
X205485000Y-82500000D02*
X204415000Y-82500000D01*
X204415000Y-81100000D01*
X205485000Y-81100000D01*
X205485000Y-82500000D01*
X205485000Y-82500000D01*
G37*
G36*
X210850000Y-82375000D02*
X209650000Y-82375000D01*
X209650000Y-81225000D01*
X210850000Y-81225000D01*
X210850000Y-82375000D01*
X210850000Y-82375000D01*
G37*
G36*
X209350000Y-82375000D02*
X208150000Y-82375000D01*
X208150000Y-81225000D01*
X209350000Y-81225000D01*
X209350000Y-82375000D01*
X209350000Y-82375000D01*
G37*
G36*
X151260000Y-75250000D02*
X151262402Y-75274386D01*
X151269515Y-75297835D01*
X151281066Y-75319446D01*
X151296612Y-75338388D01*
X151315554Y-75353934D01*
X151337165Y-75365485D01*
X151360614Y-75372598D01*
X151385000Y-75375000D01*
X153150000Y-75375000D01*
X153150000Y-81525000D01*
X151450000Y-81525000D01*
X151450000Y-81480000D01*
X151447598Y-81455614D01*
X151440485Y-81432165D01*
X151428934Y-81410554D01*
X151413388Y-81391612D01*
X151394446Y-81376066D01*
X151372835Y-81364515D01*
X151349386Y-81357402D01*
X151325000Y-81355000D01*
X149870000Y-81355000D01*
X149870000Y-80285000D01*
X151325000Y-80285000D01*
X151349386Y-80282598D01*
X151372835Y-80275485D01*
X151394446Y-80263934D01*
X151413388Y-80248388D01*
X151428934Y-80229446D01*
X151440485Y-80207835D01*
X151447598Y-80184386D01*
X151450000Y-80160000D01*
X151450000Y-79730000D01*
X151447598Y-79705614D01*
X151440485Y-79682165D01*
X151428934Y-79660554D01*
X151413388Y-79641612D01*
X151394446Y-79626066D01*
X151372835Y-79614515D01*
X151349386Y-79607402D01*
X151325000Y-79605000D01*
X149870000Y-79605000D01*
X149870000Y-78535000D01*
X151325000Y-78535000D01*
X151349386Y-78532598D01*
X151372835Y-78525485D01*
X151394446Y-78513934D01*
X151413388Y-78498388D01*
X151428934Y-78479446D01*
X151440485Y-78457835D01*
X151447598Y-78434386D01*
X151450000Y-78410000D01*
X151450000Y-76360000D01*
X151447598Y-76335614D01*
X151440485Y-76312165D01*
X151428934Y-76290554D01*
X151413388Y-76271612D01*
X151394446Y-76256066D01*
X151372835Y-76244515D01*
X151349386Y-76237402D01*
X151325000Y-76235000D01*
X149860000Y-76235000D01*
X149860000Y-75165000D01*
X151260000Y-75165000D01*
X151260000Y-75250000D01*
X151260000Y-75250000D01*
G37*
G36*
X163860000Y-74300000D02*
X163555000Y-74300000D01*
X163530614Y-74302402D01*
X163507165Y-74309515D01*
X163485554Y-74321066D01*
X163466612Y-74336612D01*
X163451066Y-74355554D01*
X163439515Y-74377165D01*
X163432402Y-74400614D01*
X163430000Y-74425000D01*
X163430000Y-75610000D01*
X161975000Y-75610000D01*
X161950614Y-75612402D01*
X161927165Y-75619515D01*
X161905554Y-75631066D01*
X161886612Y-75646612D01*
X161871066Y-75665554D01*
X161859515Y-75687165D01*
X161852402Y-75710614D01*
X161850000Y-75735000D01*
X161850000Y-76165000D01*
X161852402Y-76189386D01*
X161859515Y-76212835D01*
X161871066Y-76234446D01*
X161886612Y-76253388D01*
X161905554Y-76268934D01*
X161927165Y-76280485D01*
X161950614Y-76287598D01*
X161975000Y-76290000D01*
X163430000Y-76290000D01*
X163430000Y-77360000D01*
X161975000Y-77360000D01*
X161950614Y-77362402D01*
X161927165Y-77369515D01*
X161905554Y-77381066D01*
X161886612Y-77396612D01*
X161871066Y-77415554D01*
X161859515Y-77437165D01*
X161852402Y-77460614D01*
X161850000Y-77485000D01*
X161850000Y-81525000D01*
X160150000Y-81525000D01*
X160150000Y-75375000D01*
X161905000Y-75375000D01*
X161929386Y-75372598D01*
X161952835Y-75365485D01*
X161974446Y-75353934D01*
X161993388Y-75338388D01*
X162008934Y-75319446D01*
X162020485Y-75297835D01*
X162027598Y-75274386D01*
X162030000Y-75250000D01*
X162030000Y-74540000D01*
X162665000Y-74540000D01*
X162689386Y-74537598D01*
X162712835Y-74530485D01*
X162734446Y-74518934D01*
X162753388Y-74503388D01*
X162768934Y-74484446D01*
X162780485Y-74462835D01*
X162787598Y-74439386D01*
X162790000Y-74415000D01*
X162790000Y-71300000D01*
X163860000Y-71300000D01*
X163860000Y-74300000D01*
X163860000Y-74300000D01*
G37*
G36*
X144370000Y-81230000D02*
X142970000Y-81230000D01*
X142970000Y-80160000D01*
X144370000Y-80160000D01*
X144370000Y-81230000D01*
X144370000Y-81230000D01*
G37*
G36*
X207675000Y-80505000D02*
X205725000Y-80505000D01*
X205725000Y-79505000D01*
X207675000Y-79505000D01*
X207675000Y-80505000D01*
X207675000Y-80505000D01*
G37*
G36*
X213075000Y-80505000D02*
X211125000Y-80505000D01*
X211125000Y-79505000D01*
X213075000Y-79505000D01*
X213075000Y-80505000D01*
X213075000Y-80505000D01*
G37*
G36*
X207675000Y-79235000D02*
X205725000Y-79235000D01*
X205725000Y-78235000D01*
X207675000Y-78235000D01*
X207675000Y-79235000D01*
X207675000Y-79235000D01*
G37*
G36*
X213075000Y-79235000D02*
X211125000Y-79235000D01*
X211125000Y-78235000D01*
X213075000Y-78235000D01*
X213075000Y-79235000D01*
X213075000Y-79235000D01*
G37*
G36*
X119410000Y-78200000D02*
X118340000Y-78200000D01*
X118340000Y-76800000D01*
X119410000Y-76800000D01*
X119410000Y-78200000D01*
X119410000Y-78200000D01*
G37*
G36*
X117660000Y-78200000D02*
X116590000Y-78200000D01*
X116590000Y-76800000D01*
X117660000Y-76800000D01*
X117660000Y-78200000D01*
X117660000Y-78200000D01*
G37*
G36*
X213075000Y-77965000D02*
X211125000Y-77965000D01*
X211125000Y-76965000D01*
X213075000Y-76965000D01*
X213075000Y-77965000D01*
X213075000Y-77965000D01*
G37*
G36*
X207675000Y-77965000D02*
X205725000Y-77965000D01*
X205725000Y-76965000D01*
X207675000Y-76965000D01*
X207675000Y-77965000D01*
X207675000Y-77965000D01*
G37*
G36*
X196950000Y-77500000D02*
X195250000Y-77500000D01*
X195250000Y-76400000D01*
X196950000Y-76400000D01*
X196950000Y-77500000D01*
X196950000Y-77500000D01*
G37*
G36*
X201400000Y-77400000D02*
X200200000Y-77400000D01*
X200200000Y-76200000D01*
X201400000Y-76200000D01*
X201400000Y-77400000D01*
X201400000Y-77400000D01*
G37*
G36*
X106570000Y-77220000D02*
X105170000Y-77220000D01*
X105170000Y-73820000D01*
X106570000Y-73820000D01*
X106570000Y-77220000D01*
X106570000Y-77220000D01*
G37*
G36*
X127030000Y-77220000D02*
X125630000Y-77220000D01*
X125630000Y-73820000D01*
X127030000Y-73820000D01*
X127030000Y-77220000D01*
X127030000Y-77220000D01*
G37*
G36*
X129570000Y-77220000D02*
X128170000Y-77220000D01*
X128170000Y-73820000D01*
X129570000Y-73820000D01*
X129570000Y-77220000D01*
X129570000Y-77220000D01*
G37*
G36*
X104030000Y-77220000D02*
X102630000Y-77220000D01*
X102630000Y-73820000D01*
X104030000Y-73820000D01*
X104030000Y-77220000D01*
X104030000Y-77220000D01*
G37*
G36*
X213075000Y-76695000D02*
X211125000Y-76695000D01*
X211125000Y-75695000D01*
X213075000Y-75695000D01*
X213075000Y-76695000D01*
X213075000Y-76695000D01*
G37*
G36*
X207675000Y-76695000D02*
X205725000Y-76695000D01*
X205725000Y-75695000D01*
X207675000Y-75695000D01*
X207675000Y-76695000D01*
X207675000Y-76695000D01*
G37*
G36*
X148300000Y-76400000D02*
X145900000Y-76400000D01*
X145900000Y-71500000D01*
X148300000Y-71500000D01*
X148300000Y-76400000D01*
X148300000Y-76400000D01*
G37*
G36*
X120450000Y-76250000D02*
X118050000Y-76250000D01*
X118050000Y-74350000D01*
X120450000Y-74350000D01*
X120450000Y-76250000D01*
X120450000Y-76250000D01*
G37*
G36*
X144360000Y-76230000D02*
X142960000Y-76230000D01*
X142960000Y-75160000D01*
X144360000Y-75160000D01*
X144360000Y-76230000D01*
X144360000Y-76230000D01*
G37*
G36*
X201400000Y-75800000D02*
X200200000Y-75800000D01*
X200200000Y-74600000D01*
X201400000Y-74600000D01*
X201400000Y-75800000D01*
X201400000Y-75800000D01*
G37*
G36*
X196950000Y-75600000D02*
X195250000Y-75600000D01*
X195250000Y-74500000D01*
X196950000Y-74500000D01*
X196950000Y-75600000D01*
X196950000Y-75600000D01*
G37*
G36*
X81772000Y-75220000D02*
X78372000Y-75220000D01*
X78372000Y-73320000D01*
X81772000Y-73320000D01*
X81772000Y-75220000D01*
X81772000Y-75220000D01*
G37*
G36*
X72628000Y-75220000D02*
X69228000Y-75220000D01*
X69228000Y-73320000D01*
X72628000Y-73320000D01*
X72628000Y-75220000D01*
X72628000Y-75220000D01*
G37*
G36*
X57272000Y-75220000D02*
X53872000Y-75220000D01*
X53872000Y-73320000D01*
X57272000Y-73320000D01*
X57272000Y-75220000D01*
X57272000Y-75220000D01*
G37*
G36*
X48128000Y-75220000D02*
X44728000Y-75220000D01*
X44728000Y-73320000D01*
X48128000Y-73320000D01*
X48128000Y-75220000D01*
X48128000Y-75220000D01*
G37*
G36*
X114150000Y-75100000D02*
X111750000Y-75100000D01*
X111750000Y-70900000D01*
X114150000Y-70900000D01*
X114150000Y-75100000D01*
X114150000Y-75100000D01*
G37*
G36*
X153810000Y-73125000D02*
X153812402Y-73149386D01*
X153819515Y-73172835D01*
X153831066Y-73194446D01*
X153846612Y-73213388D01*
X153865554Y-73228934D01*
X153887165Y-73240485D01*
X153910614Y-73247598D01*
X153935000Y-73250000D01*
X154365000Y-73250000D01*
X154389386Y-73247598D01*
X154412835Y-73240485D01*
X154434446Y-73228934D01*
X154453388Y-73213388D01*
X154468934Y-73194446D01*
X154480485Y-73172835D01*
X154487598Y-73149386D01*
X154490000Y-73125000D01*
X154490000Y-70200000D01*
X155560000Y-70200000D01*
X155560000Y-73125000D01*
X155562402Y-73149386D01*
X155569515Y-73172835D01*
X155581066Y-73194446D01*
X155596612Y-73213388D01*
X155615554Y-73228934D01*
X155637165Y-73240485D01*
X155660614Y-73247598D01*
X155685000Y-73250000D01*
X159725000Y-73250000D01*
X159725000Y-74950000D01*
X153575000Y-74950000D01*
X153575000Y-73225000D01*
X153572598Y-73200614D01*
X153565485Y-73177165D01*
X153553934Y-73155554D01*
X153538388Y-73136612D01*
X153519446Y-73121066D01*
X153497835Y-73109515D01*
X153474386Y-73102402D01*
X153450000Y-73100000D01*
X152740000Y-73100000D01*
X152740000Y-70200000D01*
X153810000Y-70200000D01*
X153810000Y-73125000D01*
X153810000Y-73125000D01*
G37*
G36*
X151260000Y-74485000D02*
X149860000Y-74485000D01*
X149860000Y-73415000D01*
X151260000Y-73415000D01*
X151260000Y-74485000D01*
X151260000Y-74485000D01*
G37*
G36*
X144360000Y-74480000D02*
X142960000Y-74480000D01*
X142960000Y-73410000D01*
X144360000Y-73410000D01*
X144360000Y-74480000D01*
X144360000Y-74480000D01*
G37*
G36*
X122150000Y-74410000D02*
X120750000Y-74410000D01*
X120750000Y-73340000D01*
X122150000Y-73340000D01*
X122150000Y-74410000D01*
X122150000Y-74410000D01*
G37*
G36*
X165610000Y-74300000D02*
X164540000Y-74300000D01*
X164540000Y-71300000D01*
X165610000Y-71300000D01*
X165610000Y-74300000D01*
X165610000Y-74300000D01*
G37*
G36*
X120450000Y-73950000D02*
X118050000Y-73950000D01*
X118050000Y-72050000D01*
X120450000Y-72050000D01*
X120450000Y-73950000D01*
X120450000Y-73950000D01*
G37*
G36*
X75704183Y-72326900D02*
X75831574Y-72379668D01*
X75946224Y-72456274D01*
X76043726Y-72553776D01*
X76114702Y-72660000D01*
X76120332Y-72668426D01*
X76173100Y-72795817D01*
X76200000Y-72931055D01*
X76200000Y-73068945D01*
X76173100Y-73204183D01*
X76125126Y-73320000D01*
X76120332Y-73331574D01*
X76069123Y-73408215D01*
X76043725Y-73446225D01*
X75946225Y-73543725D01*
X75831574Y-73620332D01*
X75704183Y-73673100D01*
X75568945Y-73700000D01*
X75431055Y-73700000D01*
X75295817Y-73673100D01*
X75168426Y-73620332D01*
X75053775Y-73543725D01*
X74956275Y-73446225D01*
X74930878Y-73408215D01*
X74879668Y-73331574D01*
X74874874Y-73320000D01*
X74826900Y-73204183D01*
X74800000Y-73068945D01*
X74800000Y-72931055D01*
X74826900Y-72795817D01*
X74879668Y-72668426D01*
X74885298Y-72660000D01*
X74956274Y-72553776D01*
X75053776Y-72456274D01*
X75168426Y-72379668D01*
X75295817Y-72326900D01*
X75431055Y-72300000D01*
X75568945Y-72300000D01*
X75704183Y-72326900D01*
X75704183Y-72326900D01*
G37*
G36*
X51204183Y-72326900D02*
X51331574Y-72379668D01*
X51446224Y-72456274D01*
X51543726Y-72553776D01*
X51614702Y-72660000D01*
X51620332Y-72668426D01*
X51673100Y-72795817D01*
X51700000Y-72931055D01*
X51700000Y-73068945D01*
X51673100Y-73204183D01*
X51625126Y-73320000D01*
X51620332Y-73331574D01*
X51569123Y-73408215D01*
X51543725Y-73446225D01*
X51446225Y-73543725D01*
X51331574Y-73620332D01*
X51204183Y-73673100D01*
X51068945Y-73700000D01*
X50931055Y-73700000D01*
X50795817Y-73673100D01*
X50668426Y-73620332D01*
X50553775Y-73543725D01*
X50456275Y-73446225D01*
X50430878Y-73408215D01*
X50379668Y-73331574D01*
X50374874Y-73320000D01*
X50326900Y-73204183D01*
X50300000Y-73068945D01*
X50300000Y-72931055D01*
X50326900Y-72795817D01*
X50379668Y-72668426D01*
X50385298Y-72660000D01*
X50456274Y-72553776D01*
X50553776Y-72456274D01*
X50668426Y-72379668D01*
X50795817Y-72326900D01*
X50931055Y-72300000D01*
X51068945Y-72300000D01*
X51204183Y-72326900D01*
X51204183Y-72326900D01*
G37*
G36*
X48128000Y-72680000D02*
X44728000Y-72680000D01*
X44728000Y-70780000D01*
X48128000Y-70780000D01*
X48128000Y-72680000D01*
X48128000Y-72680000D01*
G37*
G36*
X72628000Y-72680000D02*
X69228000Y-72680000D01*
X69228000Y-70780000D01*
X72628000Y-70780000D01*
X72628000Y-72680000D01*
X72628000Y-72680000D01*
G37*
G36*
X81772000Y-72680000D02*
X78372000Y-72680000D01*
X78372000Y-70780000D01*
X81772000Y-70780000D01*
X81772000Y-72680000D01*
X81772000Y-72680000D01*
G37*
G36*
X57272000Y-72680000D02*
X53872000Y-72680000D01*
X53872000Y-70780000D01*
X57272000Y-70780000D01*
X57272000Y-72680000D01*
X57272000Y-72680000D01*
G37*
G36*
X122150000Y-72660000D02*
X120750000Y-72660000D01*
X120750000Y-71590000D01*
X122150000Y-71590000D01*
X122150000Y-72660000D01*
X122150000Y-72660000D01*
G37*
G36*
X208250000Y-72500000D02*
X193350000Y-72500000D01*
X193350000Y-68100000D01*
X208250000Y-68100000D01*
X208250000Y-72500000D01*
X208250000Y-72500000D01*
G37*
G36*
X104030000Y-72180000D02*
X102630000Y-72180000D01*
X102630000Y-68780000D01*
X104030000Y-68780000D01*
X104030000Y-72180000D01*
X104030000Y-72180000D01*
G37*
G36*
X106570000Y-72180000D02*
X105170000Y-72180000D01*
X105170000Y-68780000D01*
X106570000Y-68780000D01*
X106570000Y-72180000D01*
X106570000Y-72180000D01*
G37*
G36*
X129570000Y-72180000D02*
X128170000Y-72180000D01*
X128170000Y-68780000D01*
X129570000Y-68780000D01*
X129570000Y-72180000D01*
X129570000Y-72180000D01*
G37*
G36*
X127030000Y-72180000D02*
X125630000Y-72180000D01*
X125630000Y-68780000D01*
X127030000Y-68780000D01*
X127030000Y-72180000D01*
X127030000Y-72180000D01*
G37*
G36*
X120450000Y-71650000D02*
X118050000Y-71650000D01*
X118050000Y-69750000D01*
X120450000Y-69750000D01*
X120450000Y-71650000D01*
X120450000Y-71650000D01*
G37*
G36*
X145360000Y-69200000D02*
X144290000Y-69200000D01*
X144290000Y-67800000D01*
X145360000Y-67800000D01*
X145360000Y-69200000D01*
X145360000Y-69200000D01*
G37*
G36*
X147110000Y-69200000D02*
X146040000Y-69200000D01*
X146040000Y-67800000D01*
X147110000Y-67800000D01*
X147110000Y-69200000D01*
X147110000Y-69200000D01*
G37*
G36*
X126550000Y-67950000D02*
X122250000Y-67950000D01*
X122250000Y-66350000D01*
X126550000Y-66350000D01*
X126550000Y-67950000D01*
X126550000Y-67950000D01*
G37*
G36*
X119820000Y-67330000D02*
X118770000Y-67330000D01*
X118770000Y-65870000D01*
X119820000Y-65870000D01*
X119820000Y-67330000D01*
X119820000Y-67330000D01*
G37*
G36*
X121720000Y-67330000D02*
X120670000Y-67330000D01*
X120670000Y-65870000D01*
X121720000Y-65870000D01*
X121720000Y-67330000D01*
X121720000Y-67330000D01*
G37*
G36*
X144930000Y-67300000D02*
X143730000Y-67300000D01*
X143730000Y-63750000D01*
X144930000Y-63750000D01*
X144930000Y-67300000D01*
X144930000Y-67300000D01*
G37*
G36*
X147470000Y-67300000D02*
X146270000Y-67300000D01*
X146270000Y-63750000D01*
X147470000Y-63750000D01*
X147470000Y-67300000D01*
X147470000Y-67300000D01*
G37*
G36*
X167930000Y-67300000D02*
X166730000Y-67300000D01*
X166730000Y-63750000D01*
X167930000Y-63750000D01*
X167930000Y-67300000D01*
X167930000Y-67300000D01*
G37*
G36*
X170470000Y-67300000D02*
X169270000Y-67300000D01*
X169270000Y-63750000D01*
X170470000Y-63750000D01*
X170470000Y-67300000D01*
X170470000Y-67300000D01*
G37*
G36*
X118300000Y-66910000D02*
X116900000Y-66910000D01*
X116900000Y-65840000D01*
X118300000Y-65840000D01*
X118300000Y-66910000D01*
X118300000Y-66910000D01*
G37*
G36*
X195181260Y-65817293D02*
X195263155Y-65851215D01*
X195337153Y-65900659D01*
X195355554Y-65915761D01*
X195377165Y-65927312D01*
X195400614Y-65934425D01*
X195425000Y-65936827D01*
X195449386Y-65934425D01*
X195472835Y-65927312D01*
X195494446Y-65915761D01*
X195512847Y-65900659D01*
X195586845Y-65851215D01*
X195668740Y-65817293D01*
X195755678Y-65800000D01*
X195844322Y-65800000D01*
X195931260Y-65817293D01*
X196013155Y-65851215D01*
X196087153Y-65900659D01*
X196105554Y-65915761D01*
X196127165Y-65927312D01*
X196150614Y-65934425D01*
X196175000Y-65936827D01*
X196199386Y-65934425D01*
X196222835Y-65927312D01*
X196244446Y-65915761D01*
X196262847Y-65900659D01*
X196336845Y-65851215D01*
X196418740Y-65817293D01*
X196505678Y-65800000D01*
X196594322Y-65800000D01*
X196681260Y-65817293D01*
X196763155Y-65851215D01*
X196836861Y-65900464D01*
X196899536Y-65963139D01*
X196948785Y-66036845D01*
X196982707Y-66118740D01*
X197000000Y-66205678D01*
X197000000Y-66294322D01*
X196982707Y-66381260D01*
X196948785Y-66463155D01*
X196899536Y-66536861D01*
X196836861Y-66599536D01*
X196763155Y-66648785D01*
X196681260Y-66682707D01*
X196594322Y-66700000D01*
X196505678Y-66700000D01*
X196418740Y-66682707D01*
X196336845Y-66648785D01*
X196262847Y-66599341D01*
X196244446Y-66584239D01*
X196222835Y-66572688D01*
X196199386Y-66565575D01*
X196175000Y-66563173D01*
X196150614Y-66565575D01*
X196127165Y-66572688D01*
X196105554Y-66584239D01*
X196087153Y-66599341D01*
X196013155Y-66648785D01*
X195931260Y-66682707D01*
X195844322Y-66700000D01*
X195755678Y-66700000D01*
X195668740Y-66682707D01*
X195586845Y-66648785D01*
X195512847Y-66599341D01*
X195494446Y-66584239D01*
X195472835Y-66572688D01*
X195449386Y-66565575D01*
X195425000Y-66563173D01*
X195400614Y-66565575D01*
X195377165Y-66572688D01*
X195355554Y-66584239D01*
X195337153Y-66599341D01*
X195263155Y-66648785D01*
X195181260Y-66682707D01*
X195094322Y-66700000D01*
X195005678Y-66700000D01*
X194918740Y-66682707D01*
X194836845Y-66648785D01*
X194763139Y-66599536D01*
X194700464Y-66536861D01*
X194651215Y-66463155D01*
X194617293Y-66381260D01*
X194600000Y-66294322D01*
X194600000Y-66205678D01*
X194617293Y-66118740D01*
X194651215Y-66036845D01*
X194700464Y-65963139D01*
X194763139Y-65900464D01*
X194836845Y-65851215D01*
X194918740Y-65817293D01*
X195005678Y-65800000D01*
X195094322Y-65800000D01*
X195181260Y-65817293D01*
X195181260Y-65817293D01*
G37*
G36*
X205181260Y-65817293D02*
X205263155Y-65851215D01*
X205337153Y-65900659D01*
X205355554Y-65915761D01*
X205377165Y-65927312D01*
X205400614Y-65934425D01*
X205425000Y-65936827D01*
X205449386Y-65934425D01*
X205472835Y-65927312D01*
X205494446Y-65915761D01*
X205512847Y-65900659D01*
X205586845Y-65851215D01*
X205668740Y-65817293D01*
X205755678Y-65800000D01*
X205844322Y-65800000D01*
X205931260Y-65817293D01*
X206013155Y-65851215D01*
X206087153Y-65900659D01*
X206105554Y-65915761D01*
X206127165Y-65927312D01*
X206150614Y-65934425D01*
X206175000Y-65936827D01*
X206199386Y-65934425D01*
X206222835Y-65927312D01*
X206244446Y-65915761D01*
X206262847Y-65900659D01*
X206336845Y-65851215D01*
X206418740Y-65817293D01*
X206505678Y-65800000D01*
X206594322Y-65800000D01*
X206681260Y-65817293D01*
X206763155Y-65851215D01*
X206836861Y-65900464D01*
X206899536Y-65963139D01*
X206948785Y-66036845D01*
X206982707Y-66118740D01*
X207000000Y-66205678D01*
X207000000Y-66294322D01*
X206982707Y-66381260D01*
X206948785Y-66463155D01*
X206899536Y-66536861D01*
X206836861Y-66599536D01*
X206763155Y-66648785D01*
X206681260Y-66682707D01*
X206594322Y-66700000D01*
X206505678Y-66700000D01*
X206418740Y-66682707D01*
X206336845Y-66648785D01*
X206262847Y-66599341D01*
X206244446Y-66584239D01*
X206222835Y-66572688D01*
X206199386Y-66565575D01*
X206175000Y-66563173D01*
X206150614Y-66565575D01*
X206127165Y-66572688D01*
X206105554Y-66584239D01*
X206087153Y-66599341D01*
X206013155Y-66648785D01*
X205931260Y-66682707D01*
X205844322Y-66700000D01*
X205755678Y-66700000D01*
X205668740Y-66682707D01*
X205586845Y-66648785D01*
X205512847Y-66599341D01*
X205494446Y-66584239D01*
X205472835Y-66572688D01*
X205449386Y-66565575D01*
X205425000Y-66563173D01*
X205400614Y-66565575D01*
X205377165Y-66572688D01*
X205355554Y-66584239D01*
X205337153Y-66599341D01*
X205263155Y-66648785D01*
X205181260Y-66682707D01*
X205094322Y-66700000D01*
X205005678Y-66700000D01*
X204918740Y-66682707D01*
X204836845Y-66648785D01*
X204763139Y-66599536D01*
X204700464Y-66536861D01*
X204651215Y-66463155D01*
X204617293Y-66381260D01*
X204600000Y-66294322D01*
X204600000Y-66205678D01*
X204617293Y-66118740D01*
X204651215Y-66036845D01*
X204700464Y-65963139D01*
X204763139Y-65900464D01*
X204836845Y-65851215D01*
X204918740Y-65817293D01*
X205005678Y-65800000D01*
X205094322Y-65800000D01*
X205181260Y-65817293D01*
X205181260Y-65817293D01*
G37*
G36*
X158560000Y-66600000D02*
X157490000Y-66600000D01*
X157490000Y-65200000D01*
X158560000Y-65200000D01*
X158560000Y-66600000D01*
X158560000Y-66600000D01*
G37*
G36*
X156810000Y-66600000D02*
X155740000Y-66600000D01*
X155740000Y-65200000D01*
X156810000Y-65200000D01*
X156810000Y-66600000D01*
X156810000Y-66600000D01*
G37*
G36*
X48272000Y-65220000D02*
X44872000Y-65220000D01*
X44872000Y-63320000D01*
X48272000Y-63320000D01*
X48272000Y-65220000D01*
X48272000Y-65220000D01*
G37*
G36*
X90772000Y-65220000D02*
X87372000Y-65220000D01*
X87372000Y-63320000D01*
X90772000Y-63320000D01*
X90772000Y-65220000D01*
X90772000Y-65220000D01*
G37*
G36*
X81628000Y-65220000D02*
X78228000Y-65220000D01*
X78228000Y-63320000D01*
X81628000Y-63320000D01*
X81628000Y-65220000D01*
X81628000Y-65220000D01*
G37*
G36*
X39128000Y-65220000D02*
X35728000Y-65220000D01*
X35728000Y-63320000D01*
X39128000Y-63320000D01*
X39128000Y-65220000D01*
X39128000Y-65220000D01*
G37*
G36*
X205181260Y-64317293D02*
X205263155Y-64351215D01*
X205337153Y-64400659D01*
X205355554Y-64415761D01*
X205377165Y-64427312D01*
X205400614Y-64434425D01*
X205425000Y-64436827D01*
X205449386Y-64434425D01*
X205472835Y-64427312D01*
X205494446Y-64415761D01*
X205512847Y-64400659D01*
X205586845Y-64351215D01*
X205668740Y-64317293D01*
X205755678Y-64300000D01*
X205844322Y-64300000D01*
X205931260Y-64317293D01*
X206013155Y-64351215D01*
X206087153Y-64400659D01*
X206105554Y-64415761D01*
X206127165Y-64427312D01*
X206150614Y-64434425D01*
X206175000Y-64436827D01*
X206199386Y-64434425D01*
X206222835Y-64427312D01*
X206244446Y-64415761D01*
X206262847Y-64400659D01*
X206336845Y-64351215D01*
X206418740Y-64317293D01*
X206505678Y-64300000D01*
X206594322Y-64300000D01*
X206681260Y-64317293D01*
X206763155Y-64351215D01*
X206836861Y-64400464D01*
X206899536Y-64463139D01*
X206948785Y-64536845D01*
X206982707Y-64618740D01*
X207000000Y-64705678D01*
X207000000Y-64794322D01*
X206982707Y-64881260D01*
X206948785Y-64963155D01*
X206899536Y-65036861D01*
X206836861Y-65099536D01*
X206763155Y-65148785D01*
X206681260Y-65182707D01*
X206594322Y-65200000D01*
X206505678Y-65200000D01*
X206418740Y-65182707D01*
X206336845Y-65148785D01*
X206262847Y-65099341D01*
X206244446Y-65084239D01*
X206222835Y-65072688D01*
X206199386Y-65065575D01*
X206175000Y-65063173D01*
X206150614Y-65065575D01*
X206127165Y-65072688D01*
X206105554Y-65084239D01*
X206087153Y-65099341D01*
X206013155Y-65148785D01*
X205931260Y-65182707D01*
X205844322Y-65200000D01*
X205755678Y-65200000D01*
X205668740Y-65182707D01*
X205586845Y-65148785D01*
X205512847Y-65099341D01*
X205494446Y-65084239D01*
X205472835Y-65072688D01*
X205449386Y-65065575D01*
X205425000Y-65063173D01*
X205400614Y-65065575D01*
X205377165Y-65072688D01*
X205355554Y-65084239D01*
X205337153Y-65099341D01*
X205263155Y-65148785D01*
X205181260Y-65182707D01*
X205094322Y-65200000D01*
X205005678Y-65200000D01*
X204918740Y-65182707D01*
X204836845Y-65148785D01*
X204763139Y-65099536D01*
X204700464Y-65036861D01*
X204651215Y-64963155D01*
X204617293Y-64881260D01*
X204600000Y-64794322D01*
X204600000Y-64705678D01*
X204617293Y-64618740D01*
X204651215Y-64536845D01*
X204700464Y-64463139D01*
X204763139Y-64400464D01*
X204836845Y-64351215D01*
X204918740Y-64317293D01*
X205005678Y-64300000D01*
X205094322Y-64300000D01*
X205181260Y-64317293D01*
X205181260Y-64317293D01*
G37*
G36*
X195181260Y-64317293D02*
X195263155Y-64351215D01*
X195337153Y-64400659D01*
X195355554Y-64415761D01*
X195377165Y-64427312D01*
X195400614Y-64434425D01*
X195425000Y-64436827D01*
X195449386Y-64434425D01*
X195472835Y-64427312D01*
X195494446Y-64415761D01*
X195512847Y-64400659D01*
X195586845Y-64351215D01*
X195668740Y-64317293D01*
X195755678Y-64300000D01*
X195844322Y-64300000D01*
X195931260Y-64317293D01*
X196013155Y-64351215D01*
X196087153Y-64400659D01*
X196105554Y-64415761D01*
X196127165Y-64427312D01*
X196150614Y-64434425D01*
X196175000Y-64436827D01*
X196199386Y-64434425D01*
X196222835Y-64427312D01*
X196244446Y-64415761D01*
X196262847Y-64400659D01*
X196336845Y-64351215D01*
X196418740Y-64317293D01*
X196505678Y-64300000D01*
X196594322Y-64300000D01*
X196681260Y-64317293D01*
X196763155Y-64351215D01*
X196836861Y-64400464D01*
X196899536Y-64463139D01*
X196948785Y-64536845D01*
X196982707Y-64618740D01*
X197000000Y-64705678D01*
X197000000Y-64794322D01*
X196982707Y-64881260D01*
X196948785Y-64963155D01*
X196899536Y-65036861D01*
X196836861Y-65099536D01*
X196763155Y-65148785D01*
X196681260Y-65182707D01*
X196594322Y-65200000D01*
X196505678Y-65200000D01*
X196418740Y-65182707D01*
X196336845Y-65148785D01*
X196262847Y-65099341D01*
X196244446Y-65084239D01*
X196222835Y-65072688D01*
X196199386Y-65065575D01*
X196175000Y-65063173D01*
X196150614Y-65065575D01*
X196127165Y-65072688D01*
X196105554Y-65084239D01*
X196087153Y-65099341D01*
X196013155Y-65148785D01*
X195931260Y-65182707D01*
X195844322Y-65200000D01*
X195755678Y-65200000D01*
X195668740Y-65182707D01*
X195586845Y-65148785D01*
X195512847Y-65099341D01*
X195494446Y-65084239D01*
X195472835Y-65072688D01*
X195449386Y-65065575D01*
X195425000Y-65063173D01*
X195400614Y-65065575D01*
X195377165Y-65072688D01*
X195355554Y-65084239D01*
X195337153Y-65099341D01*
X195263155Y-65148785D01*
X195181260Y-65182707D01*
X195094322Y-65200000D01*
X195005678Y-65200000D01*
X194918740Y-65182707D01*
X194836845Y-65148785D01*
X194763139Y-65099536D01*
X194700464Y-65036861D01*
X194651215Y-64963155D01*
X194617293Y-64881260D01*
X194600000Y-64794322D01*
X194600000Y-64705678D01*
X194617293Y-64618740D01*
X194651215Y-64536845D01*
X194700464Y-64463139D01*
X194763139Y-64400464D01*
X194836845Y-64351215D01*
X194918740Y-64317293D01*
X195005678Y-64300000D01*
X195094322Y-64300000D01*
X195181260Y-64317293D01*
X195181260Y-64317293D01*
G37*
G36*
X118300000Y-65160000D02*
X116900000Y-65160000D01*
X116900000Y-64090000D01*
X118300000Y-64090000D01*
X118300000Y-65160000D01*
X118300000Y-65160000D01*
G37*
G36*
X125000000Y-63425000D02*
X125002402Y-63449386D01*
X125009515Y-63472835D01*
X125021066Y-63494446D01*
X125036612Y-63513388D01*
X125055554Y-63528934D01*
X125077165Y-63540485D01*
X125100614Y-63547598D01*
X125125000Y-63550000D01*
X126550000Y-63550000D01*
X126550000Y-65150000D01*
X122250000Y-65150000D01*
X122250000Y-63550000D01*
X122675000Y-63550000D01*
X122699386Y-63547598D01*
X122722835Y-63540485D01*
X122744446Y-63528934D01*
X122763388Y-63513388D01*
X122778934Y-63494446D01*
X122790485Y-63472835D01*
X122797598Y-63449386D01*
X122800000Y-63425000D01*
X122800000Y-60450000D01*
X125000000Y-60450000D01*
X125000000Y-63425000D01*
X125000000Y-63425000D01*
G37*
G36*
X121950000Y-63460000D02*
X121845000Y-63460000D01*
X121820614Y-63462402D01*
X121797165Y-63469515D01*
X121775554Y-63481066D01*
X121756612Y-63496612D01*
X121741066Y-63515554D01*
X121729515Y-63537165D01*
X121722402Y-63560614D01*
X121720000Y-63585000D01*
X121720000Y-65130000D01*
X118770000Y-65130000D01*
X118770000Y-63585000D01*
X118767598Y-63560614D01*
X118760485Y-63537165D01*
X118748934Y-63515554D01*
X118733388Y-63496612D01*
X118714446Y-63481066D01*
X118692835Y-63469515D01*
X118669386Y-63462402D01*
X118645000Y-63460000D01*
X115750000Y-63460000D01*
X115750000Y-62390000D01*
X121950000Y-62390000D01*
X121950000Y-63460000D01*
X121950000Y-63460000D01*
G37*
G36*
X156960000Y-64150000D02*
X155890000Y-64150000D01*
X155890000Y-62750000D01*
X156960000Y-62750000D01*
X156960000Y-64150000D01*
X156960000Y-64150000D01*
G37*
G36*
X158710000Y-64150000D02*
X157640000Y-64150000D01*
X157640000Y-62750000D01*
X158710000Y-62750000D01*
X158710000Y-64150000D01*
X158710000Y-64150000D01*
G37*
G36*
X84704183Y-62326900D02*
X84831574Y-62379668D01*
X84946224Y-62456274D01*
X85043726Y-62553776D01*
X85120332Y-62668426D01*
X85173100Y-62795817D01*
X85200000Y-62931055D01*
X85200000Y-63068945D01*
X85173100Y-63204183D01*
X85125126Y-63320000D01*
X85120332Y-63331574D01*
X85043726Y-63446224D01*
X84946224Y-63543726D01*
X84831574Y-63620332D01*
X84704183Y-63673100D01*
X84568945Y-63700000D01*
X84431055Y-63700000D01*
X84295817Y-63673100D01*
X84168426Y-63620332D01*
X84053776Y-63543726D01*
X83956274Y-63446224D01*
X83879668Y-63331574D01*
X83874874Y-63320000D01*
X83826900Y-63204183D01*
X83800000Y-63068945D01*
X83800000Y-62931055D01*
X83826900Y-62795817D01*
X83879668Y-62668426D01*
X83956274Y-62553776D01*
X84053776Y-62456274D01*
X84168426Y-62379668D01*
X84295817Y-62326900D01*
X84431055Y-62300000D01*
X84568945Y-62300000D01*
X84704183Y-62326900D01*
X84704183Y-62326900D01*
G37*
G36*
X42204183Y-62326900D02*
X42331574Y-62379668D01*
X42446224Y-62456274D01*
X42543726Y-62553776D01*
X42620332Y-62668426D01*
X42673100Y-62795817D01*
X42700000Y-62931055D01*
X42700000Y-63068945D01*
X42673100Y-63204183D01*
X42625126Y-63320000D01*
X42620332Y-63331574D01*
X42543726Y-63446224D01*
X42446224Y-63543726D01*
X42331574Y-63620332D01*
X42204183Y-63673100D01*
X42068945Y-63700000D01*
X41931055Y-63700000D01*
X41795817Y-63673100D01*
X41668426Y-63620332D01*
X41553776Y-63543726D01*
X41456274Y-63446224D01*
X41379668Y-63331574D01*
X41374874Y-63320000D01*
X41326900Y-63204183D01*
X41300000Y-63068945D01*
X41300000Y-62931055D01*
X41326900Y-62795817D01*
X41379668Y-62668426D01*
X41456274Y-62553776D01*
X41553776Y-62456274D01*
X41668426Y-62379668D01*
X41795817Y-62326900D01*
X41931055Y-62300000D01*
X42068945Y-62300000D01*
X42204183Y-62326900D01*
X42204183Y-62326900D01*
G37*
G36*
X208250000Y-62900000D02*
X193350000Y-62900000D01*
X193350000Y-58500000D01*
X208250000Y-58500000D01*
X208250000Y-62900000D01*
X208250000Y-62900000D01*
G37*
G36*
X48272000Y-62680000D02*
X44872000Y-62680000D01*
X44872000Y-60780000D01*
X48272000Y-60780000D01*
X48272000Y-62680000D01*
X48272000Y-62680000D01*
G37*
G36*
X39128000Y-62680000D02*
X35728000Y-62680000D01*
X35728000Y-60780000D01*
X39128000Y-60780000D01*
X39128000Y-62680000D01*
X39128000Y-62680000D01*
G37*
G36*
X81628000Y-62680000D02*
X78228000Y-62680000D01*
X78228000Y-60780000D01*
X81628000Y-60780000D01*
X81628000Y-62680000D01*
X81628000Y-62680000D01*
G37*
G36*
X90772000Y-62680000D02*
X87372000Y-62680000D01*
X87372000Y-60780000D01*
X90772000Y-60780000D01*
X90772000Y-62680000D01*
X90772000Y-62680000D01*
G37*
G36*
X167930000Y-62250000D02*
X166730000Y-62250000D01*
X166730000Y-58700000D01*
X167930000Y-58700000D01*
X167930000Y-62250000D01*
X167930000Y-62250000D01*
G37*
G36*
X147470000Y-62250000D02*
X146270000Y-62250000D01*
X146270000Y-58700000D01*
X147470000Y-58700000D01*
X147470000Y-62250000D01*
X147470000Y-62250000D01*
G37*
G36*
X144930000Y-62250000D02*
X143730000Y-62250000D01*
X143730000Y-58700000D01*
X144930000Y-58700000D01*
X144930000Y-62250000D01*
X144930000Y-62250000D01*
G37*
G36*
X170470000Y-62250000D02*
X169270000Y-62250000D01*
X169270000Y-58700000D01*
X170470000Y-58700000D01*
X170470000Y-62250000D01*
X170470000Y-62250000D01*
G37*
G36*
X121950000Y-61710000D02*
X115750000Y-61710000D01*
X115750000Y-60640000D01*
X121950000Y-60640000D01*
X121950000Y-61710000D01*
X121950000Y-61710000D01*
G37*
G36*
X151860000Y-61200000D02*
X150790000Y-61200000D01*
X150790000Y-59800000D01*
X151860000Y-59800000D01*
X151860000Y-61200000D01*
X151860000Y-61200000D01*
G37*
G36*
X150110000Y-61200000D02*
X149040000Y-61200000D01*
X149040000Y-59800000D01*
X150110000Y-59800000D01*
X150110000Y-61200000D01*
X150110000Y-61200000D01*
G37*
G36*
X116550000Y-57975000D02*
X116552402Y-57999386D01*
X116559515Y-58022835D01*
X116571066Y-58044446D01*
X116586612Y-58063388D01*
X116605554Y-58078934D01*
X116610000Y-58081310D01*
X116610000Y-59500000D01*
X115540000Y-59500000D01*
X115540000Y-58125000D01*
X115537598Y-58100614D01*
X115530485Y-58077165D01*
X115518934Y-58055554D01*
X115503388Y-58036612D01*
X115484446Y-58021066D01*
X115462835Y-58009515D01*
X115439386Y-58002402D01*
X115415000Y-58000000D01*
X115350000Y-58000000D01*
X115350000Y-56700000D01*
X116550000Y-56700000D01*
X116550000Y-57975000D01*
X116550000Y-57975000D01*
G37*
G36*
X118450000Y-58005622D02*
X118437165Y-58009515D01*
X118415554Y-58021066D01*
X118396612Y-58036612D01*
X118381066Y-58055554D01*
X118369515Y-58077165D01*
X118362402Y-58100614D01*
X118360000Y-58125000D01*
X118360000Y-59500000D01*
X117290000Y-59500000D01*
X117290000Y-58125000D01*
X117287598Y-58100614D01*
X117280485Y-58077165D01*
X117268934Y-58055554D01*
X117253388Y-58036612D01*
X117250000Y-58033831D01*
X117250000Y-56700000D01*
X118450000Y-56700000D01*
X118450000Y-58005622D01*
X118450000Y-58005622D01*
G37*
G36*
X150110000Y-59500000D02*
X149040000Y-59500000D01*
X149040000Y-58100000D01*
X150110000Y-58100000D01*
X150110000Y-59500000D01*
X150110000Y-59500000D01*
G37*
G36*
X151860000Y-59500000D02*
X150790000Y-59500000D01*
X150790000Y-58100000D01*
X151860000Y-58100000D01*
X151860000Y-59500000D01*
X151860000Y-59500000D01*
G37*
G36*
X125000000Y-59350000D02*
X122800000Y-59350000D01*
X122800000Y-56450000D01*
X125000000Y-56450000D01*
X125000000Y-59350000D01*
X125000000Y-59350000D01*
G37*
G36*
X62100000Y-57800000D02*
X58200000Y-57800000D01*
X58200000Y-55700000D01*
X62100000Y-55700000D01*
X62100000Y-57800000D01*
X62100000Y-57800000D01*
G37*
G36*
X68300000Y-57800000D02*
X64400000Y-57800000D01*
X64400000Y-55700000D01*
X68300000Y-55700000D01*
X68300000Y-57800000D01*
X68300000Y-57800000D01*
G37*
G36*
X120050000Y-55975000D02*
X120052402Y-55999386D01*
X120059515Y-56022835D01*
X120060000Y-56023742D01*
X120060000Y-57500000D01*
X118990000Y-57500000D01*
X118990000Y-56125000D01*
X118987598Y-56100614D01*
X118980485Y-56077165D01*
X118968934Y-56055554D01*
X118953388Y-56036612D01*
X118934446Y-56021066D01*
X118912835Y-56009515D01*
X118889386Y-56002402D01*
X118865000Y-56000000D01*
X118850000Y-56000000D01*
X118850000Y-54700000D01*
X120050000Y-54700000D01*
X120050000Y-55975000D01*
X120050000Y-55975000D01*
G37*
G36*
X121950000Y-56000000D02*
X121935000Y-56000000D01*
X121910614Y-56002402D01*
X121887165Y-56009515D01*
X121865554Y-56021066D01*
X121846612Y-56036612D01*
X121831066Y-56055554D01*
X121819515Y-56077165D01*
X121812402Y-56100614D01*
X121810000Y-56125000D01*
X121810000Y-57500000D01*
X120740000Y-57500000D01*
X120740000Y-56023742D01*
X120740485Y-56022835D01*
X120747598Y-55999386D01*
X120750000Y-55975000D01*
X120750000Y-54700000D01*
X121950000Y-54700000D01*
X121950000Y-56000000D01*
X121950000Y-56000000D01*
G37*
G36*
X155950000Y-57310000D02*
X154550000Y-57310000D01*
X154550000Y-56240000D01*
X155950000Y-56240000D01*
X155950000Y-57310000D01*
X155950000Y-57310000D01*
G37*
G36*
X165950000Y-57310000D02*
X164550000Y-57310000D01*
X164550000Y-56240000D01*
X165950000Y-56240000D01*
X165950000Y-57310000D01*
X165950000Y-57310000D01*
G37*
G36*
X149700000Y-57310000D02*
X148300000Y-57310000D01*
X148300000Y-56240000D01*
X149700000Y-56240000D01*
X149700000Y-57310000D01*
X149700000Y-57310000D01*
G37*
G36*
X206350000Y-56500000D02*
X204650000Y-56500000D01*
X204650000Y-55400000D01*
X206350000Y-55400000D01*
X206350000Y-56500000D01*
X206350000Y-56500000D01*
G37*
G36*
X201400000Y-56400000D02*
X200200000Y-56400000D01*
X200200000Y-55200000D01*
X201400000Y-55200000D01*
X201400000Y-56400000D01*
X201400000Y-56400000D01*
G37*
G36*
X117500000Y-56000000D02*
X116300000Y-56000000D01*
X116300000Y-54700000D01*
X117500000Y-54700000D01*
X117500000Y-56000000D01*
X117500000Y-56000000D01*
G37*
G36*
X149700000Y-55560000D02*
X148300000Y-55560000D01*
X148300000Y-54490000D01*
X149700000Y-54490000D01*
X149700000Y-55560000D01*
X149700000Y-55560000D01*
G37*
G36*
X165950000Y-55560000D02*
X164550000Y-55560000D01*
X164550000Y-54490000D01*
X165950000Y-54490000D01*
X165950000Y-55560000D01*
X165950000Y-55560000D01*
G37*
G36*
X155950000Y-55560000D02*
X154550000Y-55560000D01*
X154550000Y-54490000D01*
X155950000Y-54490000D01*
X155950000Y-55560000D01*
X155950000Y-55560000D01*
G37*
G36*
X195875000Y-55305000D02*
X193925000Y-55305000D01*
X193925000Y-54305000D01*
X195875000Y-54305000D01*
X195875000Y-55305000D01*
X195875000Y-55305000D01*
G37*
G36*
X190475000Y-55305000D02*
X188525000Y-55305000D01*
X188525000Y-54305000D01*
X190475000Y-54305000D01*
X190475000Y-55305000D01*
X190475000Y-55305000D01*
G37*
G36*
X68300000Y-55300000D02*
X64400000Y-55300000D01*
X64400000Y-53200000D01*
X68300000Y-53200000D01*
X68300000Y-55300000D01*
X68300000Y-55300000D01*
G37*
G36*
X62100000Y-55300000D02*
X58200000Y-55300000D01*
X58200000Y-53200000D01*
X62100000Y-53200000D01*
X62100000Y-55300000D01*
X62100000Y-55300000D01*
G37*
G36*
X201400000Y-54800000D02*
X200200000Y-54800000D01*
X200200000Y-53600000D01*
X201400000Y-53600000D01*
X201400000Y-54800000D01*
X201400000Y-54800000D01*
G37*
G36*
X206350000Y-54600000D02*
X204650000Y-54600000D01*
X204650000Y-53500000D01*
X206350000Y-53500000D01*
X206350000Y-54600000D01*
X206350000Y-54600000D01*
G37*
G36*
X190475000Y-54035000D02*
X188525000Y-54035000D01*
X188525000Y-53035000D01*
X190475000Y-53035000D01*
X190475000Y-54035000D01*
X190475000Y-54035000D01*
G37*
G36*
X195875000Y-54035000D02*
X193925000Y-54035000D01*
X193925000Y-53035000D01*
X195875000Y-53035000D01*
X195875000Y-54035000D01*
X195875000Y-54035000D01*
G37*
G36*
X121000000Y-54000000D02*
X119800000Y-54000000D01*
X119800000Y-52700000D01*
X121000000Y-52700000D01*
X121000000Y-54000000D01*
X121000000Y-54000000D01*
G37*
G36*
X68300000Y-52800000D02*
X64400000Y-52800000D01*
X64400000Y-50700000D01*
X68300000Y-50700000D01*
X68300000Y-52800000D01*
X68300000Y-52800000D01*
G37*
G36*
X62100000Y-52800000D02*
X58200000Y-52800000D01*
X58200000Y-50700000D01*
X62100000Y-50700000D01*
X62100000Y-52800000D01*
X62100000Y-52800000D01*
G37*
G36*
X195875000Y-52765000D02*
X193925000Y-52765000D01*
X193925000Y-51765000D01*
X195875000Y-51765000D01*
X195875000Y-52765000D01*
X195875000Y-52765000D01*
G37*
G36*
X190475000Y-52765000D02*
X188525000Y-52765000D01*
X188525000Y-51765000D01*
X190475000Y-51765000D01*
X190475000Y-52765000D01*
X190475000Y-52765000D01*
G37*
G36*
X235925094Y-43961403D02*
X236372841Y-44146866D01*
X236689446Y-44278008D01*
X236912504Y-44427051D01*
X237377347Y-44737649D01*
X237962351Y-45322653D01*
X237962353Y-45322656D01*
X238421992Y-46010554D01*
X238421992Y-46010555D01*
X238738597Y-46774906D01*
X238900000Y-47586335D01*
X238900000Y-48413665D01*
X238738597Y-49225094D01*
X238589845Y-49584213D01*
X238421992Y-49989446D01*
X238374738Y-50060166D01*
X237962351Y-50677347D01*
X237377347Y-51262351D01*
X237377344Y-51262353D01*
X236689446Y-51721992D01*
X236407936Y-51838597D01*
X235925094Y-52038597D01*
X235113665Y-52200000D01*
X234286335Y-52200000D01*
X233474906Y-52038597D01*
X232992064Y-51838597D01*
X232710554Y-51721992D01*
X232022656Y-51262353D01*
X232022653Y-51262351D01*
X231437649Y-50677347D01*
X231025262Y-50060166D01*
X230978008Y-49989446D01*
X230810155Y-49584213D01*
X230661403Y-49225094D01*
X230500000Y-48413665D01*
X230500000Y-47586335D01*
X230661403Y-46774906D01*
X230978008Y-46010555D01*
X230978008Y-46010554D01*
X231437647Y-45322656D01*
X231437649Y-45322653D01*
X232022653Y-44737649D01*
X232487496Y-44427051D01*
X232710554Y-44278008D01*
X233027159Y-44146866D01*
X233474906Y-43961403D01*
X234286335Y-43800000D01*
X235113665Y-43800000D01*
X235925094Y-43961403D01*
X235925094Y-43961403D01*
G37*
G36*
X255925094Y-43761403D02*
X256321691Y-43925679D01*
X256689446Y-44078008D01*
X257211825Y-44427051D01*
X257377347Y-44537649D01*
X257962351Y-45122653D01*
X257962353Y-45122656D01*
X258421992Y-45810554D01*
X258504835Y-46010555D01*
X258738597Y-46574906D01*
X258900000Y-47386335D01*
X258900000Y-48213665D01*
X258738597Y-49025094D01*
X258635870Y-49273099D01*
X258421992Y-49789446D01*
X258014033Y-50400000D01*
X257962351Y-50477347D01*
X257377347Y-51062351D01*
X257377344Y-51062353D01*
X256689446Y-51521992D01*
X256372841Y-51653134D01*
X255925094Y-51838597D01*
X255113665Y-52000000D01*
X254286335Y-52000000D01*
X253474906Y-51838597D01*
X253027159Y-51653134D01*
X252710554Y-51521992D01*
X252022656Y-51062353D01*
X252022653Y-51062351D01*
X251437649Y-50477347D01*
X251385967Y-50400000D01*
X250978008Y-49789446D01*
X250764130Y-49273099D01*
X250661403Y-49025094D01*
X250500000Y-48213665D01*
X250500000Y-47386335D01*
X250661403Y-46574906D01*
X250895165Y-46010555D01*
X250978008Y-45810554D01*
X251437647Y-45122656D01*
X251437649Y-45122653D01*
X252022653Y-44537649D01*
X252188175Y-44427051D01*
X252710554Y-44078008D01*
X253078309Y-43925679D01*
X253474906Y-43761403D01*
X254286335Y-43600000D01*
X255113665Y-43600000D01*
X255925094Y-43761403D01*
X255925094Y-43761403D01*
G37*
G36*
X245925094Y-43761403D02*
X246321691Y-43925679D01*
X246689446Y-44078008D01*
X247211825Y-44427051D01*
X247377347Y-44537649D01*
X247962351Y-45122653D01*
X247962353Y-45122656D01*
X248421992Y-45810554D01*
X248504835Y-46010555D01*
X248738597Y-46574906D01*
X248900000Y-47386335D01*
X248900000Y-48213665D01*
X248738597Y-49025094D01*
X248635870Y-49273099D01*
X248421992Y-49789446D01*
X248014033Y-50400000D01*
X247962351Y-50477347D01*
X247377347Y-51062351D01*
X247377344Y-51062353D01*
X246689446Y-51521992D01*
X246372841Y-51653134D01*
X245925094Y-51838597D01*
X245113665Y-52000000D01*
X244286335Y-52000000D01*
X243474906Y-51838597D01*
X243027159Y-51653134D01*
X242710554Y-51521992D01*
X242022656Y-51062353D01*
X242022653Y-51062351D01*
X241437649Y-50477347D01*
X241385967Y-50400000D01*
X240978008Y-49789446D01*
X240764130Y-49273099D01*
X240661403Y-49025094D01*
X240500000Y-48213665D01*
X240500000Y-47386335D01*
X240661403Y-46574906D01*
X240895165Y-46010555D01*
X240978008Y-45810554D01*
X241437647Y-45122656D01*
X241437649Y-45122653D01*
X242022653Y-44537649D01*
X242188175Y-44427051D01*
X242710554Y-44078008D01*
X243078309Y-43925679D01*
X243474906Y-43761403D01*
X244286335Y-43600000D01*
X245113665Y-43600000D01*
X245925094Y-43761403D01*
X245925094Y-43761403D01*
G37*
G36*
X118050000Y-51800000D02*
X116650000Y-51800000D01*
X116650000Y-50400000D01*
X118050000Y-50400000D01*
X118050000Y-51800000D01*
X118050000Y-51800000D01*
G37*
G36*
X123050000Y-51800000D02*
X121650000Y-51800000D01*
X121650000Y-50400000D01*
X123050000Y-50400000D01*
X123050000Y-51800000D01*
X123050000Y-51800000D01*
G37*
G36*
X120550000Y-51800000D02*
X119150000Y-51800000D01*
X119150000Y-50400000D01*
X120550000Y-50400000D01*
X120550000Y-51800000D01*
X120550000Y-51800000D01*
G37*
G36*
X115550000Y-51800000D02*
X114150000Y-51800000D01*
X114150000Y-50400000D01*
X115550000Y-50400000D01*
X115550000Y-51800000D01*
X115550000Y-51800000D01*
G37*
G36*
X113050000Y-51800000D02*
X111650000Y-51800000D01*
X111650000Y-50400000D01*
X113050000Y-50400000D01*
X113050000Y-51800000D01*
X113050000Y-51800000D01*
G37*
G36*
X110550000Y-51800000D02*
X109150000Y-51800000D01*
X109150000Y-50400000D01*
X110550000Y-50400000D01*
X110550000Y-51800000D01*
X110550000Y-51800000D01*
G37*
G36*
X195875000Y-51495000D02*
X193925000Y-51495000D01*
X193925000Y-50495000D01*
X195875000Y-50495000D01*
X195875000Y-51495000D01*
X195875000Y-51495000D01*
G37*
G36*
X190475000Y-51495000D02*
X188525000Y-51495000D01*
X188525000Y-50495000D01*
X190475000Y-50495000D01*
X190475000Y-51495000D01*
X190475000Y-51495000D01*
G37*
G36*
X68300000Y-50300000D02*
X64400000Y-50300000D01*
X64400000Y-48200000D01*
X68300000Y-48200000D01*
X68300000Y-50300000D01*
X68300000Y-50300000D01*
G37*
G36*
X62100000Y-50300000D02*
X58200000Y-50300000D01*
X58200000Y-48200000D01*
X62100000Y-48200000D01*
X62100000Y-50300000D01*
X62100000Y-50300000D01*
G37*
G36*
X195435000Y-49900000D02*
X194365000Y-49900000D01*
X194365000Y-48500000D01*
X195435000Y-48500000D01*
X195435000Y-49900000D01*
X195435000Y-49900000D01*
G37*
G36*
X197185000Y-49900000D02*
X196115000Y-49900000D01*
X196115000Y-48500000D01*
X197185000Y-48500000D01*
X197185000Y-49900000D01*
X197185000Y-49900000D01*
G37*
G36*
X193450000Y-49775000D02*
X192250000Y-49775000D01*
X192250000Y-48625000D01*
X193450000Y-48625000D01*
X193450000Y-49775000D01*
X193450000Y-49775000D01*
G37*
G36*
X191950000Y-49775000D02*
X190750000Y-49775000D01*
X190750000Y-48625000D01*
X191950000Y-48625000D01*
X191950000Y-49775000D01*
X191950000Y-49775000D01*
G37*
G36*
X126050000Y-49467000D02*
X123650000Y-49467000D01*
X123650000Y-47067000D01*
X126050000Y-47067000D01*
X126050000Y-49467000D01*
X126050000Y-49467000D01*
G37*
G36*
X108550000Y-49467000D02*
X106150000Y-49467000D01*
X106150000Y-47067000D01*
X108550000Y-47067000D01*
X108550000Y-49467000D01*
X108550000Y-49467000D01*
G37*
G36*
X121304183Y-47926900D02*
X121431574Y-47979668D01*
X121546224Y-48056274D01*
X121643726Y-48153776D01*
X121683742Y-48213665D01*
X121720332Y-48268426D01*
X121773100Y-48395817D01*
X121800000Y-48531055D01*
X121800000Y-48668945D01*
X121773100Y-48804183D01*
X121720332Y-48931574D01*
X121643725Y-49046225D01*
X121546225Y-49143725D01*
X121431574Y-49220332D01*
X121304183Y-49273100D01*
X121168945Y-49300000D01*
X121031055Y-49300000D01*
X120895817Y-49273100D01*
X120768426Y-49220332D01*
X120653775Y-49143725D01*
X120556275Y-49046225D01*
X120479668Y-48931574D01*
X120426900Y-48804183D01*
X120400000Y-48668945D01*
X120400000Y-48531055D01*
X120426900Y-48395817D01*
X120479668Y-48268426D01*
X120516258Y-48213665D01*
X120556274Y-48153776D01*
X120653776Y-48056274D01*
X120768426Y-47979668D01*
X120895817Y-47926900D01*
X121031055Y-47900000D01*
X121168945Y-47900000D01*
X121304183Y-47926900D01*
X121304183Y-47926900D01*
G37*
G36*
X111304183Y-47926900D02*
X111431574Y-47979668D01*
X111546224Y-48056274D01*
X111643726Y-48153776D01*
X111683742Y-48213665D01*
X111720332Y-48268426D01*
X111773100Y-48395817D01*
X111800000Y-48531055D01*
X111800000Y-48668945D01*
X111773100Y-48804183D01*
X111720332Y-48931574D01*
X111643725Y-49046225D01*
X111546225Y-49143725D01*
X111431574Y-49220332D01*
X111304183Y-49273100D01*
X111168945Y-49300000D01*
X111031055Y-49300000D01*
X110895817Y-49273100D01*
X110768426Y-49220332D01*
X110653775Y-49143725D01*
X110556275Y-49046225D01*
X110479668Y-48931574D01*
X110426900Y-48804183D01*
X110400000Y-48668945D01*
X110400000Y-48531055D01*
X110426900Y-48395817D01*
X110479668Y-48268426D01*
X110516258Y-48213665D01*
X110556274Y-48153776D01*
X110653776Y-48056274D01*
X110768426Y-47979668D01*
X110895817Y-47926900D01*
X111031055Y-47900000D01*
X111168945Y-47900000D01*
X111304183Y-47926900D01*
X111304183Y-47926900D01*
G37*
G36*
X192522947Y-43455722D02*
X192786833Y-43565027D01*
X193024324Y-43723713D01*
X193226287Y-43925676D01*
X193384973Y-44163167D01*
X193494278Y-44427053D01*
X193550000Y-44707186D01*
X193550000Y-44992814D01*
X193494278Y-45272947D01*
X193384973Y-45536833D01*
X193226287Y-45774324D01*
X193024324Y-45976287D01*
X192786833Y-46134973D01*
X192522947Y-46244278D01*
X192242814Y-46300000D01*
X191957186Y-46300000D01*
X191677053Y-46244278D01*
X191413167Y-46134973D01*
X191175676Y-45976287D01*
X190973713Y-45774324D01*
X190815027Y-45536833D01*
X190705722Y-45272947D01*
X190650000Y-44992814D01*
X190650000Y-44707186D01*
X190705722Y-44427053D01*
X190815027Y-44163167D01*
X190973713Y-43925676D01*
X191175676Y-43723713D01*
X191413167Y-43565027D01*
X191677053Y-43455722D01*
X191957186Y-43400000D01*
X192242814Y-43400000D01*
X192522947Y-43455722D01*
X192522947Y-43455722D01*
G37*
G36*
X173244959Y-38972577D02*
X173585470Y-39040309D01*
X174013143Y-39217457D01*
X174398038Y-39474636D01*
X174725364Y-39801962D01*
X174982543Y-40186857D01*
X175159691Y-40614530D01*
X175250000Y-41068545D01*
X175250000Y-41531455D01*
X175159691Y-41985470D01*
X174982543Y-42413143D01*
X174725364Y-42798038D01*
X174398038Y-43125364D01*
X174013143Y-43382543D01*
X173585470Y-43559691D01*
X173244959Y-43627423D01*
X173131456Y-43650000D01*
X172668544Y-43650000D01*
X172555041Y-43627423D01*
X172214530Y-43559691D01*
X171786857Y-43382543D01*
X171401962Y-43125364D01*
X171074636Y-42798038D01*
X170817457Y-42413143D01*
X170640309Y-41985470D01*
X170550000Y-41531455D01*
X170550000Y-41068545D01*
X170640309Y-40614530D01*
X170817457Y-40186857D01*
X171074636Y-39801962D01*
X171401962Y-39474636D01*
X171786857Y-39217457D01*
X172214530Y-39040309D01*
X172555041Y-38972577D01*
X172668544Y-38950000D01*
X173131456Y-38950000D01*
X173244959Y-38972577D01*
X173244959Y-38972577D01*
G37*
G36*
X141644959Y-38972577D02*
X141985470Y-39040309D01*
X142413143Y-39217457D01*
X142798038Y-39474636D01*
X143125364Y-39801962D01*
X143382543Y-40186857D01*
X143559691Y-40614530D01*
X143650000Y-41068545D01*
X143650000Y-41531455D01*
X143559691Y-41985470D01*
X143382543Y-42413143D01*
X143125364Y-42798038D01*
X142798038Y-43125364D01*
X142413143Y-43382543D01*
X141985470Y-43559691D01*
X141644959Y-43627423D01*
X141531456Y-43650000D01*
X141068544Y-43650000D01*
X140955041Y-43627423D01*
X140614530Y-43559691D01*
X140186857Y-43382543D01*
X139801962Y-43125364D01*
X139474636Y-42798038D01*
X139217457Y-42413143D01*
X139040309Y-41985470D01*
X138950000Y-41531455D01*
X138950000Y-41068545D01*
X139040309Y-40614530D01*
X139217457Y-40186857D01*
X139474636Y-39801962D01*
X139801962Y-39474636D01*
X140186857Y-39217457D01*
X140614530Y-39040309D01*
X140955041Y-38972577D01*
X141068544Y-38950000D01*
X141531456Y-38950000D01*
X141644959Y-38972577D01*
X141644959Y-38972577D01*
G37*
G36*
X260909122Y-39546115D02*
X261025041Y-39569173D01*
X261352620Y-39704861D01*
X261514711Y-39813167D01*
X261647436Y-39901851D01*
X261898149Y-40152564D01*
X261898151Y-40152567D01*
X262063481Y-40400000D01*
X262095140Y-40447382D01*
X262096224Y-40450000D01*
X262222841Y-40755678D01*
X262230827Y-40774960D01*
X262300000Y-41122714D01*
X262300000Y-41477286D01*
X262230827Y-41825040D01*
X262095140Y-42152618D01*
X261898149Y-42447436D01*
X261647436Y-42698149D01*
X261647433Y-42698151D01*
X261352620Y-42895139D01*
X261025041Y-43030827D01*
X260909122Y-43053885D01*
X260677286Y-43100000D01*
X260322714Y-43100000D01*
X260090878Y-43053885D01*
X259974959Y-43030827D01*
X259647380Y-42895139D01*
X259352567Y-42698151D01*
X259352564Y-42698149D01*
X259101851Y-42447436D01*
X258904860Y-42152618D01*
X258769173Y-41825040D01*
X258700000Y-41477286D01*
X258700000Y-41122714D01*
X258769173Y-40774960D01*
X258777160Y-40755678D01*
X258903776Y-40450000D01*
X258904860Y-40447382D01*
X258936520Y-40400000D01*
X259101849Y-40152567D01*
X259101851Y-40152564D01*
X259352564Y-39901851D01*
X259485289Y-39813167D01*
X259647380Y-39704861D01*
X259974959Y-39569173D01*
X260090878Y-39546115D01*
X260322714Y-39500000D01*
X260677286Y-39500000D01*
X260909122Y-39546115D01*
X260909122Y-39546115D01*
G37*
G36*
X229309122Y-39546115D02*
X229425041Y-39569173D01*
X229752620Y-39704861D01*
X229914711Y-39813167D01*
X230047436Y-39901851D01*
X230298149Y-40152564D01*
X230298151Y-40152567D01*
X230463481Y-40400000D01*
X230495140Y-40447382D01*
X230496224Y-40450000D01*
X230622841Y-40755678D01*
X230630827Y-40774960D01*
X230700000Y-41122714D01*
X230700000Y-41477286D01*
X230630827Y-41825040D01*
X230495140Y-42152618D01*
X230298149Y-42447436D01*
X230047436Y-42698149D01*
X230047433Y-42698151D01*
X229752620Y-42895139D01*
X229425041Y-43030827D01*
X229309122Y-43053885D01*
X229077286Y-43100000D01*
X228722714Y-43100000D01*
X228490878Y-43053885D01*
X228374959Y-43030827D01*
X228047380Y-42895139D01*
X227752567Y-42698151D01*
X227752564Y-42698149D01*
X227501851Y-42447436D01*
X227304860Y-42152618D01*
X227169173Y-41825040D01*
X227100000Y-41477286D01*
X227100000Y-41122714D01*
X227169173Y-40774960D01*
X227177160Y-40755678D01*
X227303776Y-40450000D01*
X227304860Y-40447382D01*
X227336520Y-40400000D01*
X227501849Y-40152567D01*
X227501851Y-40152564D01*
X227752564Y-39901851D01*
X227885289Y-39813167D01*
X228047380Y-39704861D01*
X228374959Y-39569173D01*
X228490878Y-39546115D01*
X228722714Y-39500000D01*
X229077286Y-39500000D01*
X229309122Y-39546115D01*
X229309122Y-39546115D01*
G37*
G36*
X245122947Y-39105722D02*
X245386833Y-39215027D01*
X245624324Y-39373713D01*
X245826287Y-39575676D01*
X245984973Y-39813167D01*
X246094278Y-40077053D01*
X246150000Y-40357186D01*
X246150000Y-40642814D01*
X246094278Y-40922947D01*
X245984973Y-41186833D01*
X245826287Y-41424324D01*
X245624324Y-41626287D01*
X245386833Y-41784973D01*
X245122947Y-41894278D01*
X244842814Y-41950000D01*
X244557186Y-41950000D01*
X244277053Y-41894278D01*
X244013167Y-41784973D01*
X243775676Y-41626287D01*
X243573713Y-41424324D01*
X243415027Y-41186833D01*
X243305722Y-40922947D01*
X243250000Y-40642814D01*
X243250000Y-40357186D01*
X243305722Y-40077053D01*
X243415027Y-39813167D01*
X243573713Y-39575676D01*
X243775676Y-39373713D01*
X244013167Y-39215027D01*
X244277053Y-39105722D01*
X244557186Y-39050000D01*
X244842814Y-39050000D01*
X245122947Y-39105722D01*
X245122947Y-39105722D01*
G37*
G36*
X235122947Y-39105722D02*
X235386833Y-39215027D01*
X235624324Y-39373713D01*
X235826287Y-39575676D01*
X235984973Y-39813167D01*
X236094278Y-40077053D01*
X236150000Y-40357186D01*
X236150000Y-40642814D01*
X236094278Y-40922947D01*
X235984973Y-41186833D01*
X235826287Y-41424324D01*
X235624324Y-41626287D01*
X235386833Y-41784973D01*
X235122947Y-41894278D01*
X234842814Y-41950000D01*
X234557186Y-41950000D01*
X234277053Y-41894278D01*
X234013167Y-41784973D01*
X233775676Y-41626287D01*
X233573713Y-41424324D01*
X233415027Y-41186833D01*
X233305722Y-40922947D01*
X233250000Y-40642814D01*
X233250000Y-40357186D01*
X233305722Y-40077053D01*
X233415027Y-39813167D01*
X233573713Y-39575676D01*
X233775676Y-39373713D01*
X234013167Y-39215027D01*
X234277053Y-39105722D01*
X234557186Y-39050000D01*
X234842814Y-39050000D01*
X235122947Y-39105722D01*
X235122947Y-39105722D01*
G37*
G36*
X255122947Y-39105722D02*
X255386833Y-39215027D01*
X255624324Y-39373713D01*
X255826287Y-39575676D01*
X255984973Y-39813167D01*
X256094278Y-40077053D01*
X256150000Y-40357186D01*
X256150000Y-40642814D01*
X256094278Y-40922947D01*
X255984973Y-41186833D01*
X255826287Y-41424324D01*
X255624324Y-41626287D01*
X255386833Y-41784973D01*
X255122947Y-41894278D01*
X254842814Y-41950000D01*
X254557186Y-41950000D01*
X254277053Y-41894278D01*
X254013167Y-41784973D01*
X253775676Y-41626287D01*
X253573713Y-41424324D01*
X253415027Y-41186833D01*
X253305722Y-40922947D01*
X253250000Y-40642814D01*
X253250000Y-40357186D01*
X253305722Y-40077053D01*
X253415027Y-39813167D01*
X253573713Y-39575676D01*
X253775676Y-39373713D01*
X254013167Y-39215027D01*
X254277053Y-39105722D01*
X254557186Y-39050000D01*
X254842814Y-39050000D01*
X255122947Y-39105722D01*
X255122947Y-39105722D01*
G37*
G36*
X157522947Y-39105722D02*
X157786833Y-39215027D01*
X158024324Y-39373713D01*
X158226287Y-39575676D01*
X158384973Y-39813167D01*
X158494278Y-40077053D01*
X158550000Y-40357186D01*
X158550000Y-40642814D01*
X158494278Y-40922947D01*
X158384973Y-41186833D01*
X158226287Y-41424324D01*
X158024324Y-41626287D01*
X157786833Y-41784973D01*
X157522947Y-41894278D01*
X157242814Y-41950000D01*
X156957186Y-41950000D01*
X156677053Y-41894278D01*
X156413167Y-41784973D01*
X156175676Y-41626287D01*
X155973713Y-41424324D01*
X155815027Y-41186833D01*
X155705722Y-40922947D01*
X155650000Y-40642814D01*
X155650000Y-40357186D01*
X155705722Y-40077053D01*
X155815027Y-39813167D01*
X155973713Y-39575676D01*
X156175676Y-39373713D01*
X156413167Y-39215027D01*
X156677053Y-39105722D01*
X156957186Y-39050000D01*
X157242814Y-39050000D01*
X157522947Y-39105722D01*
X157522947Y-39105722D01*
G37*
G36*
X147522947Y-39105722D02*
X147786833Y-39215027D01*
X148024324Y-39373713D01*
X148226287Y-39575676D01*
X148384973Y-39813167D01*
X148494278Y-40077053D01*
X148550000Y-40357186D01*
X148550000Y-40642814D01*
X148494278Y-40922947D01*
X148384973Y-41186833D01*
X148226287Y-41424324D01*
X148024324Y-41626287D01*
X147786833Y-41784973D01*
X147522947Y-41894278D01*
X147242814Y-41950000D01*
X146957186Y-41950000D01*
X146677053Y-41894278D01*
X146413167Y-41784973D01*
X146175676Y-41626287D01*
X145973713Y-41424324D01*
X145815027Y-41186833D01*
X145705722Y-40922947D01*
X145650000Y-40642814D01*
X145650000Y-40357186D01*
X145705722Y-40077053D01*
X145815027Y-39813167D01*
X145973713Y-39575676D01*
X146175676Y-39373713D01*
X146413167Y-39215027D01*
X146677053Y-39105722D01*
X146957186Y-39050000D01*
X147242814Y-39050000D01*
X147522947Y-39105722D01*
X147522947Y-39105722D01*
G37*
G36*
X167522947Y-39105722D02*
X167786833Y-39215027D01*
X168024324Y-39373713D01*
X168226287Y-39575676D01*
X168384973Y-39813167D01*
X168494278Y-40077053D01*
X168550000Y-40357186D01*
X168550000Y-40642814D01*
X168494278Y-40922947D01*
X168384973Y-41186833D01*
X168226287Y-41424324D01*
X168024324Y-41626287D01*
X167786833Y-41784973D01*
X167522947Y-41894278D01*
X167242814Y-41950000D01*
X166957186Y-41950000D01*
X166677053Y-41894278D01*
X166413167Y-41784973D01*
X166175676Y-41626287D01*
X165973713Y-41424324D01*
X165815027Y-41186833D01*
X165705722Y-40922947D01*
X165650000Y-40642814D01*
X165650000Y-40357186D01*
X165705722Y-40077053D01*
X165815027Y-39813167D01*
X165973713Y-39575676D01*
X166175676Y-39373713D01*
X166413167Y-39215027D01*
X166677053Y-39105722D01*
X166957186Y-39050000D01*
X167242814Y-39050000D01*
X167522947Y-39105722D01*
X167522947Y-39105722D01*
G37*
G36*
X217831260Y-39567293D02*
X217913155Y-39601215D01*
X217986861Y-39650464D01*
X218049536Y-39713139D01*
X218098785Y-39786845D01*
X218132707Y-39868740D01*
X218150000Y-39955678D01*
X218150000Y-40044322D01*
X218132707Y-40131260D01*
X218098785Y-40213155D01*
X218049536Y-40286861D01*
X218024785Y-40311612D01*
X218009239Y-40330554D01*
X217997688Y-40352165D01*
X217990575Y-40375614D01*
X217988173Y-40400000D01*
X217990575Y-40424386D01*
X217997688Y-40447835D01*
X218009239Y-40469446D01*
X218024785Y-40488388D01*
X218049536Y-40513139D01*
X218098785Y-40586845D01*
X218132707Y-40668740D01*
X218150000Y-40755678D01*
X218150000Y-40844322D01*
X218132707Y-40931260D01*
X218098785Y-41013155D01*
X218049536Y-41086861D01*
X217986861Y-41149536D01*
X217913155Y-41198785D01*
X217831260Y-41232707D01*
X217744322Y-41250000D01*
X217655678Y-41250000D01*
X217568740Y-41232707D01*
X217486845Y-41198785D01*
X217413139Y-41149536D01*
X217350464Y-41086861D01*
X217301215Y-41013155D01*
X217267293Y-40931260D01*
X217250000Y-40844322D01*
X217250000Y-40755678D01*
X217267293Y-40668740D01*
X217301215Y-40586845D01*
X217350464Y-40513139D01*
X217375215Y-40488388D01*
X217390761Y-40469446D01*
X217402312Y-40447835D01*
X217409425Y-40424386D01*
X217411827Y-40400000D01*
X217409425Y-40375614D01*
X217402312Y-40352165D01*
X217390761Y-40330554D01*
X217375215Y-40311612D01*
X217350464Y-40286861D01*
X217301215Y-40213155D01*
X217267293Y-40131260D01*
X217250000Y-40044322D01*
X217250000Y-39955678D01*
X217267293Y-39868740D01*
X217301215Y-39786845D01*
X217350464Y-39713139D01*
X217413139Y-39650464D01*
X217486845Y-39601215D01*
X217568740Y-39567293D01*
X217655678Y-39550000D01*
X217744322Y-39550000D01*
X217831260Y-39567293D01*
X217831260Y-39567293D01*
G37*
G36*
X184031260Y-39567293D02*
X184113155Y-39601215D01*
X184186861Y-39650464D01*
X184249536Y-39713139D01*
X184298785Y-39786845D01*
X184332707Y-39868740D01*
X184350000Y-39955678D01*
X184350000Y-40044322D01*
X184332707Y-40131260D01*
X184298785Y-40213155D01*
X184249536Y-40286861D01*
X184224785Y-40311612D01*
X184209239Y-40330554D01*
X184197688Y-40352165D01*
X184190575Y-40375614D01*
X184188173Y-40400000D01*
X184190575Y-40424386D01*
X184197688Y-40447835D01*
X184209239Y-40469446D01*
X184224785Y-40488388D01*
X184249536Y-40513139D01*
X184298785Y-40586845D01*
X184332707Y-40668740D01*
X184350000Y-40755678D01*
X184350000Y-40844322D01*
X184332707Y-40931260D01*
X184298785Y-41013155D01*
X184249536Y-41086861D01*
X184186861Y-41149536D01*
X184113155Y-41198785D01*
X184031260Y-41232707D01*
X183944322Y-41250000D01*
X183855678Y-41250000D01*
X183768740Y-41232707D01*
X183686845Y-41198785D01*
X183613139Y-41149536D01*
X183550464Y-41086861D01*
X183501215Y-41013155D01*
X183467293Y-40931260D01*
X183450000Y-40844322D01*
X183450000Y-40755678D01*
X183467293Y-40668740D01*
X183501215Y-40586845D01*
X183550464Y-40513139D01*
X183575215Y-40488388D01*
X183590761Y-40469446D01*
X183602312Y-40447835D01*
X183609425Y-40424386D01*
X183611827Y-40400000D01*
X183609425Y-40375614D01*
X183602312Y-40352165D01*
X183590761Y-40330554D01*
X183575215Y-40311612D01*
X183550464Y-40286861D01*
X183501215Y-40213155D01*
X183467293Y-40131260D01*
X183450000Y-40044322D01*
X183450000Y-39955678D01*
X183467293Y-39868740D01*
X183501215Y-39786845D01*
X183550464Y-39713139D01*
X183613139Y-39650464D01*
X183686845Y-39601215D01*
X183768740Y-39567293D01*
X183855678Y-39550000D01*
X183944322Y-39550000D01*
X184031260Y-39567293D01*
X184031260Y-39567293D01*
G37*
G36*
X45881260Y-37317293D02*
X45963155Y-37351215D01*
X46037153Y-37400659D01*
X46055554Y-37415761D01*
X46077165Y-37427312D01*
X46100614Y-37434425D01*
X46125000Y-37436827D01*
X46149386Y-37434425D01*
X46172835Y-37427312D01*
X46194446Y-37415761D01*
X46212847Y-37400659D01*
X46286845Y-37351215D01*
X46368740Y-37317293D01*
X46455678Y-37300000D01*
X46544322Y-37300000D01*
X46631260Y-37317293D01*
X46713155Y-37351215D01*
X46787153Y-37400659D01*
X46805554Y-37415761D01*
X46827165Y-37427312D01*
X46850614Y-37434425D01*
X46875000Y-37436827D01*
X46899386Y-37434425D01*
X46922835Y-37427312D01*
X46944446Y-37415761D01*
X46962847Y-37400659D01*
X47036845Y-37351215D01*
X47118740Y-37317293D01*
X47205678Y-37300000D01*
X47294322Y-37300000D01*
X47381260Y-37317293D01*
X47463155Y-37351215D01*
X47536861Y-37400464D01*
X47599536Y-37463139D01*
X47648785Y-37536845D01*
X47682707Y-37618740D01*
X47700000Y-37705678D01*
X47700000Y-37794322D01*
X47682707Y-37881260D01*
X47648785Y-37963155D01*
X47599536Y-38036861D01*
X47536861Y-38099536D01*
X47463155Y-38148785D01*
X47381260Y-38182707D01*
X47294322Y-38200000D01*
X47205678Y-38200000D01*
X47118740Y-38182707D01*
X47036845Y-38148785D01*
X46962847Y-38099341D01*
X46944446Y-38084239D01*
X46922835Y-38072688D01*
X46899386Y-38065575D01*
X46875000Y-38063173D01*
X46850614Y-38065575D01*
X46827165Y-38072688D01*
X46805554Y-38084239D01*
X46787153Y-38099341D01*
X46713155Y-38148785D01*
X46631260Y-38182707D01*
X46544322Y-38200000D01*
X46455678Y-38200000D01*
X46368740Y-38182707D01*
X46286845Y-38148785D01*
X46212847Y-38099341D01*
X46194446Y-38084239D01*
X46172835Y-38072688D01*
X46149386Y-38065575D01*
X46125000Y-38063173D01*
X46100614Y-38065575D01*
X46077165Y-38072688D01*
X46055554Y-38084239D01*
X46037153Y-38099341D01*
X45963155Y-38148785D01*
X45881260Y-38182707D01*
X45794322Y-38200000D01*
X45705678Y-38200000D01*
X45618740Y-38182707D01*
X45536845Y-38148785D01*
X45463139Y-38099536D01*
X45400464Y-38036861D01*
X45351215Y-37963155D01*
X45317293Y-37881260D01*
X45300000Y-37794322D01*
X45300000Y-37705678D01*
X45317293Y-37618740D01*
X45351215Y-37536845D01*
X45400464Y-37463139D01*
X45463139Y-37400464D01*
X45536845Y-37351215D01*
X45618740Y-37317293D01*
X45705678Y-37300000D01*
X45794322Y-37300000D01*
X45881260Y-37317293D01*
X45881260Y-37317293D01*
G37*
G36*
X129281260Y-37317293D02*
X129363155Y-37351215D01*
X129437153Y-37400659D01*
X129455554Y-37415761D01*
X129477165Y-37427312D01*
X129500614Y-37434425D01*
X129525000Y-37436827D01*
X129549386Y-37434425D01*
X129572835Y-37427312D01*
X129594446Y-37415761D01*
X129612847Y-37400659D01*
X129686845Y-37351215D01*
X129768740Y-37317293D01*
X129855678Y-37300000D01*
X129944322Y-37300000D01*
X130031260Y-37317293D01*
X130113155Y-37351215D01*
X130187153Y-37400659D01*
X130205554Y-37415761D01*
X130227165Y-37427312D01*
X130250614Y-37434425D01*
X130275000Y-37436827D01*
X130299386Y-37434425D01*
X130322835Y-37427312D01*
X130344446Y-37415761D01*
X130362847Y-37400659D01*
X130436845Y-37351215D01*
X130518740Y-37317293D01*
X130605678Y-37300000D01*
X130694322Y-37300000D01*
X130781260Y-37317293D01*
X130863155Y-37351215D01*
X130936861Y-37400464D01*
X130999536Y-37463139D01*
X131048785Y-37536845D01*
X131082707Y-37618740D01*
X131100000Y-37705678D01*
X131100000Y-37794322D01*
X131082707Y-37881260D01*
X131048785Y-37963155D01*
X130999536Y-38036861D01*
X130936861Y-38099536D01*
X130863155Y-38148785D01*
X130781260Y-38182707D01*
X130694322Y-38200000D01*
X130605678Y-38200000D01*
X130518740Y-38182707D01*
X130436845Y-38148785D01*
X130362847Y-38099341D01*
X130344446Y-38084239D01*
X130322835Y-38072688D01*
X130299386Y-38065575D01*
X130275000Y-38063173D01*
X130250614Y-38065575D01*
X130227165Y-38072688D01*
X130205554Y-38084239D01*
X130187153Y-38099341D01*
X130113155Y-38148785D01*
X130031260Y-38182707D01*
X129944322Y-38200000D01*
X129855678Y-38200000D01*
X129768740Y-38182707D01*
X129686845Y-38148785D01*
X129612847Y-38099341D01*
X129594446Y-38084239D01*
X129572835Y-38072688D01*
X129549386Y-38065575D01*
X129525000Y-38063173D01*
X129500614Y-38065575D01*
X129477165Y-38072688D01*
X129455554Y-38084239D01*
X129437153Y-38099341D01*
X129363155Y-38148785D01*
X129281260Y-38182707D01*
X129194322Y-38200000D01*
X129105678Y-38200000D01*
X129018740Y-38182707D01*
X128936845Y-38148785D01*
X128863139Y-38099536D01*
X128800464Y-38036861D01*
X128751215Y-37963155D01*
X128717293Y-37881260D01*
X128700000Y-37794322D01*
X128700000Y-37705678D01*
X128717293Y-37618740D01*
X128751215Y-37536845D01*
X128800464Y-37463139D01*
X128863139Y-37400464D01*
X128936845Y-37351215D01*
X129018740Y-37317293D01*
X129105678Y-37300000D01*
X129194322Y-37300000D01*
X129281260Y-37317293D01*
X129281260Y-37317293D01*
G37*
G36*
X101681260Y-37317293D02*
X101763155Y-37351215D01*
X101837153Y-37400659D01*
X101855554Y-37415761D01*
X101877165Y-37427312D01*
X101900614Y-37434425D01*
X101925000Y-37436827D01*
X101949386Y-37434425D01*
X101972835Y-37427312D01*
X101994446Y-37415761D01*
X102012847Y-37400659D01*
X102086845Y-37351215D01*
X102168740Y-37317293D01*
X102255678Y-37300000D01*
X102344322Y-37300000D01*
X102431260Y-37317293D01*
X102513155Y-37351215D01*
X102587153Y-37400659D01*
X102605554Y-37415761D01*
X102627165Y-37427312D01*
X102650614Y-37434425D01*
X102675000Y-37436827D01*
X102699386Y-37434425D01*
X102722835Y-37427312D01*
X102744446Y-37415761D01*
X102762847Y-37400659D01*
X102836845Y-37351215D01*
X102918740Y-37317293D01*
X103005678Y-37300000D01*
X103094322Y-37300000D01*
X103181260Y-37317293D01*
X103263155Y-37351215D01*
X103336861Y-37400464D01*
X103399536Y-37463139D01*
X103448785Y-37536845D01*
X103482707Y-37618740D01*
X103500000Y-37705678D01*
X103500000Y-37794322D01*
X103482707Y-37881260D01*
X103448785Y-37963155D01*
X103399536Y-38036861D01*
X103336861Y-38099536D01*
X103263155Y-38148785D01*
X103181260Y-38182707D01*
X103094322Y-38200000D01*
X103005678Y-38200000D01*
X102918740Y-38182707D01*
X102836845Y-38148785D01*
X102762847Y-38099341D01*
X102744446Y-38084239D01*
X102722835Y-38072688D01*
X102699386Y-38065575D01*
X102675000Y-38063173D01*
X102650614Y-38065575D01*
X102627165Y-38072688D01*
X102605554Y-38084239D01*
X102587153Y-38099341D01*
X102513155Y-38148785D01*
X102431260Y-38182707D01*
X102344322Y-38200000D01*
X102255678Y-38200000D01*
X102168740Y-38182707D01*
X102086845Y-38148785D01*
X102012847Y-38099341D01*
X101994446Y-38084239D01*
X101972835Y-38072688D01*
X101949386Y-38065575D01*
X101925000Y-38063173D01*
X101900614Y-38065575D01*
X101877165Y-38072688D01*
X101855554Y-38084239D01*
X101837153Y-38099341D01*
X101763155Y-38148785D01*
X101681260Y-38182707D01*
X101594322Y-38200000D01*
X101505678Y-38200000D01*
X101418740Y-38182707D01*
X101336845Y-38148785D01*
X101263139Y-38099536D01*
X101200464Y-38036861D01*
X101151215Y-37963155D01*
X101117293Y-37881260D01*
X101100000Y-37794322D01*
X101100000Y-37705678D01*
X101117293Y-37618740D01*
X101151215Y-37536845D01*
X101200464Y-37463139D01*
X101263139Y-37400464D01*
X101336845Y-37351215D01*
X101418740Y-37317293D01*
X101505678Y-37300000D01*
X101594322Y-37300000D01*
X101681260Y-37317293D01*
X101681260Y-37317293D01*
G37*
G36*
X170281260Y-37317293D02*
X170363155Y-37351215D01*
X170437153Y-37400659D01*
X170455554Y-37415761D01*
X170477165Y-37427312D01*
X170500614Y-37434425D01*
X170525000Y-37436827D01*
X170549386Y-37434425D01*
X170572835Y-37427312D01*
X170594446Y-37415761D01*
X170612847Y-37400659D01*
X170686845Y-37351215D01*
X170768740Y-37317293D01*
X170855678Y-37300000D01*
X170944322Y-37300000D01*
X171031260Y-37317293D01*
X171113155Y-37351215D01*
X171187153Y-37400659D01*
X171205554Y-37415761D01*
X171227165Y-37427312D01*
X171250614Y-37434425D01*
X171275000Y-37436827D01*
X171299386Y-37434425D01*
X171322835Y-37427312D01*
X171344446Y-37415761D01*
X171362847Y-37400659D01*
X171436845Y-37351215D01*
X171518740Y-37317293D01*
X171605678Y-37300000D01*
X171694322Y-37300000D01*
X171781260Y-37317293D01*
X171863155Y-37351215D01*
X171936861Y-37400464D01*
X171999536Y-37463139D01*
X172048785Y-37536845D01*
X172082707Y-37618740D01*
X172100000Y-37705678D01*
X172100000Y-37794322D01*
X172082707Y-37881260D01*
X172048785Y-37963155D01*
X171999536Y-38036861D01*
X171936861Y-38099536D01*
X171863155Y-38148785D01*
X171781260Y-38182707D01*
X171694322Y-38200000D01*
X171605678Y-38200000D01*
X171518740Y-38182707D01*
X171436845Y-38148785D01*
X171362847Y-38099341D01*
X171344446Y-38084239D01*
X171322835Y-38072688D01*
X171299386Y-38065575D01*
X171275000Y-38063173D01*
X171250614Y-38065575D01*
X171227165Y-38072688D01*
X171205554Y-38084239D01*
X171187153Y-38099341D01*
X171113155Y-38148785D01*
X171031260Y-38182707D01*
X170944322Y-38200000D01*
X170855678Y-38200000D01*
X170768740Y-38182707D01*
X170686845Y-38148785D01*
X170612847Y-38099341D01*
X170594446Y-38084239D01*
X170572835Y-38072688D01*
X170549386Y-38065575D01*
X170525000Y-38063173D01*
X170500614Y-38065575D01*
X170477165Y-38072688D01*
X170455554Y-38084239D01*
X170437153Y-38099341D01*
X170363155Y-38148785D01*
X170281260Y-38182707D01*
X170194322Y-38200000D01*
X170105678Y-38200000D01*
X170018740Y-38182707D01*
X169936845Y-38148785D01*
X169863139Y-38099536D01*
X169800464Y-38036861D01*
X169751215Y-37963155D01*
X169717293Y-37881260D01*
X169700000Y-37794322D01*
X169700000Y-37705678D01*
X169717293Y-37618740D01*
X169751215Y-37536845D01*
X169800464Y-37463139D01*
X169863139Y-37400464D01*
X169936845Y-37351215D01*
X170018740Y-37317293D01*
X170105678Y-37300000D01*
X170194322Y-37300000D01*
X170281260Y-37317293D01*
X170281260Y-37317293D01*
G37*
G36*
X142681260Y-37317293D02*
X142763155Y-37351215D01*
X142837153Y-37400659D01*
X142855554Y-37415761D01*
X142877165Y-37427312D01*
X142900614Y-37434425D01*
X142925000Y-37436827D01*
X142949386Y-37434425D01*
X142972835Y-37427312D01*
X142994446Y-37415761D01*
X143012847Y-37400659D01*
X143086845Y-37351215D01*
X143168740Y-37317293D01*
X143255678Y-37300000D01*
X143344322Y-37300000D01*
X143431260Y-37317293D01*
X143513155Y-37351215D01*
X143587153Y-37400659D01*
X143605554Y-37415761D01*
X143627165Y-37427312D01*
X143650614Y-37434425D01*
X143675000Y-37436827D01*
X143699386Y-37434425D01*
X143722835Y-37427312D01*
X143744446Y-37415761D01*
X143762847Y-37400659D01*
X143836845Y-37351215D01*
X143918740Y-37317293D01*
X144005678Y-37300000D01*
X144094322Y-37300000D01*
X144181260Y-37317293D01*
X144263155Y-37351215D01*
X144336861Y-37400464D01*
X144399536Y-37463139D01*
X144448785Y-37536845D01*
X144482707Y-37618740D01*
X144500000Y-37705678D01*
X144500000Y-37794322D01*
X144482707Y-37881260D01*
X144448785Y-37963155D01*
X144399536Y-38036861D01*
X144336861Y-38099536D01*
X144263155Y-38148785D01*
X144181260Y-38182707D01*
X144094322Y-38200000D01*
X144005678Y-38200000D01*
X143918740Y-38182707D01*
X143836845Y-38148785D01*
X143762847Y-38099341D01*
X143744446Y-38084239D01*
X143722835Y-38072688D01*
X143699386Y-38065575D01*
X143675000Y-38063173D01*
X143650614Y-38065575D01*
X143627165Y-38072688D01*
X143605554Y-38084239D01*
X143587153Y-38099341D01*
X143513155Y-38148785D01*
X143431260Y-38182707D01*
X143344322Y-38200000D01*
X143255678Y-38200000D01*
X143168740Y-38182707D01*
X143086845Y-38148785D01*
X143012847Y-38099341D01*
X142994446Y-38084239D01*
X142972835Y-38072688D01*
X142949386Y-38065575D01*
X142925000Y-38063173D01*
X142900614Y-38065575D01*
X142877165Y-38072688D01*
X142855554Y-38084239D01*
X142837153Y-38099341D01*
X142763155Y-38148785D01*
X142681260Y-38182707D01*
X142594322Y-38200000D01*
X142505678Y-38200000D01*
X142418740Y-38182707D01*
X142336845Y-38148785D01*
X142263139Y-38099536D01*
X142200464Y-38036861D01*
X142151215Y-37963155D01*
X142117293Y-37881260D01*
X142100000Y-37794322D01*
X142100000Y-37705678D01*
X142117293Y-37618740D01*
X142151215Y-37536845D01*
X142200464Y-37463139D01*
X142263139Y-37400464D01*
X142336845Y-37351215D01*
X142418740Y-37317293D01*
X142505678Y-37300000D01*
X142594322Y-37300000D01*
X142681260Y-37317293D01*
X142681260Y-37317293D01*
G37*
G36*
X230281260Y-37317293D02*
X230363155Y-37351215D01*
X230437153Y-37400659D01*
X230455554Y-37415761D01*
X230477165Y-37427312D01*
X230500614Y-37434425D01*
X230525000Y-37436827D01*
X230549386Y-37434425D01*
X230572835Y-37427312D01*
X230594446Y-37415761D01*
X230612847Y-37400659D01*
X230686845Y-37351215D01*
X230768740Y-37317293D01*
X230855678Y-37300000D01*
X230944322Y-37300000D01*
X231031260Y-37317293D01*
X231113155Y-37351215D01*
X231187153Y-37400659D01*
X231205554Y-37415761D01*
X231227165Y-37427312D01*
X231250614Y-37434425D01*
X231275000Y-37436827D01*
X231299386Y-37434425D01*
X231322835Y-37427312D01*
X231344446Y-37415761D01*
X231362847Y-37400659D01*
X231436845Y-37351215D01*
X231518740Y-37317293D01*
X231605678Y-37300000D01*
X231694322Y-37300000D01*
X231781260Y-37317293D01*
X231863155Y-37351215D01*
X231936861Y-37400464D01*
X231999536Y-37463139D01*
X232048785Y-37536845D01*
X232082707Y-37618740D01*
X232100000Y-37705678D01*
X232100000Y-37794322D01*
X232082707Y-37881260D01*
X232048785Y-37963155D01*
X231999536Y-38036861D01*
X231936861Y-38099536D01*
X231863155Y-38148785D01*
X231781260Y-38182707D01*
X231694322Y-38200000D01*
X231605678Y-38200000D01*
X231518740Y-38182707D01*
X231436845Y-38148785D01*
X231362847Y-38099341D01*
X231344446Y-38084239D01*
X231322835Y-38072688D01*
X231299386Y-38065575D01*
X231275000Y-38063173D01*
X231250614Y-38065575D01*
X231227165Y-38072688D01*
X231205554Y-38084239D01*
X231187153Y-38099341D01*
X231113155Y-38148785D01*
X231031260Y-38182707D01*
X230944322Y-38200000D01*
X230855678Y-38200000D01*
X230768740Y-38182707D01*
X230686845Y-38148785D01*
X230612847Y-38099341D01*
X230594446Y-38084239D01*
X230572835Y-38072688D01*
X230549386Y-38065575D01*
X230525000Y-38063173D01*
X230500614Y-38065575D01*
X230477165Y-38072688D01*
X230455554Y-38084239D01*
X230437153Y-38099341D01*
X230363155Y-38148785D01*
X230281260Y-38182707D01*
X230194322Y-38200000D01*
X230105678Y-38200000D01*
X230018740Y-38182707D01*
X229936845Y-38148785D01*
X229863139Y-38099536D01*
X229800464Y-38036861D01*
X229751215Y-37963155D01*
X229717293Y-37881260D01*
X229700000Y-37794322D01*
X229700000Y-37705678D01*
X229717293Y-37618740D01*
X229751215Y-37536845D01*
X229800464Y-37463139D01*
X229863139Y-37400464D01*
X229936845Y-37351215D01*
X230018740Y-37317293D01*
X230105678Y-37300000D01*
X230194322Y-37300000D01*
X230281260Y-37317293D01*
X230281260Y-37317293D01*
G37*
G36*
X257881260Y-37317293D02*
X257963155Y-37351215D01*
X258037153Y-37400659D01*
X258055554Y-37415761D01*
X258077165Y-37427312D01*
X258100614Y-37434425D01*
X258125000Y-37436827D01*
X258149386Y-37434425D01*
X258172835Y-37427312D01*
X258194446Y-37415761D01*
X258212847Y-37400659D01*
X258286845Y-37351215D01*
X258368740Y-37317293D01*
X258455678Y-37300000D01*
X258544322Y-37300000D01*
X258631260Y-37317293D01*
X258713155Y-37351215D01*
X258787153Y-37400659D01*
X258805554Y-37415761D01*
X258827165Y-37427312D01*
X258850614Y-37434425D01*
X258875000Y-37436827D01*
X258899386Y-37434425D01*
X258922835Y-37427312D01*
X258944446Y-37415761D01*
X258962847Y-37400659D01*
X259036845Y-37351215D01*
X259118740Y-37317293D01*
X259205678Y-37300000D01*
X259294322Y-37300000D01*
X259381260Y-37317293D01*
X259463155Y-37351215D01*
X259536861Y-37400464D01*
X259599536Y-37463139D01*
X259648785Y-37536845D01*
X259682707Y-37618740D01*
X259700000Y-37705678D01*
X259700000Y-37794322D01*
X259682707Y-37881260D01*
X259648785Y-37963155D01*
X259599536Y-38036861D01*
X259536861Y-38099536D01*
X259463155Y-38148785D01*
X259381260Y-38182707D01*
X259294322Y-38200000D01*
X259205678Y-38200000D01*
X259118740Y-38182707D01*
X259036845Y-38148785D01*
X258962847Y-38099341D01*
X258944446Y-38084239D01*
X258922835Y-38072688D01*
X258899386Y-38065575D01*
X258875000Y-38063173D01*
X258850614Y-38065575D01*
X258827165Y-38072688D01*
X258805554Y-38084239D01*
X258787153Y-38099341D01*
X258713155Y-38148785D01*
X258631260Y-38182707D01*
X258544322Y-38200000D01*
X258455678Y-38200000D01*
X258368740Y-38182707D01*
X258286845Y-38148785D01*
X258212847Y-38099341D01*
X258194446Y-38084239D01*
X258172835Y-38072688D01*
X258149386Y-38065575D01*
X258125000Y-38063173D01*
X258100614Y-38065575D01*
X258077165Y-38072688D01*
X258055554Y-38084239D01*
X258037153Y-38099341D01*
X257963155Y-38148785D01*
X257881260Y-38182707D01*
X257794322Y-38200000D01*
X257705678Y-38200000D01*
X257618740Y-38182707D01*
X257536845Y-38148785D01*
X257463139Y-38099536D01*
X257400464Y-38036861D01*
X257351215Y-37963155D01*
X257317293Y-37881260D01*
X257300000Y-37794322D01*
X257300000Y-37705678D01*
X257317293Y-37618740D01*
X257351215Y-37536845D01*
X257400464Y-37463139D01*
X257463139Y-37400464D01*
X257536845Y-37351215D01*
X257618740Y-37317293D01*
X257705678Y-37300000D01*
X257794322Y-37300000D01*
X257881260Y-37317293D01*
X257881260Y-37317293D01*
G37*
G36*
X79381260Y-37317293D02*
X79463155Y-37351215D01*
X79537153Y-37400659D01*
X79555554Y-37415761D01*
X79577165Y-37427312D01*
X79600614Y-37434425D01*
X79625000Y-37436827D01*
X79649386Y-37434425D01*
X79672835Y-37427312D01*
X79694446Y-37415761D01*
X79712847Y-37400659D01*
X79786845Y-37351215D01*
X79868740Y-37317293D01*
X79955678Y-37300000D01*
X80044322Y-37300000D01*
X80131260Y-37317293D01*
X80213155Y-37351215D01*
X80287153Y-37400659D01*
X80305554Y-37415761D01*
X80327165Y-37427312D01*
X80350614Y-37434425D01*
X80375000Y-37436827D01*
X80399386Y-37434425D01*
X80422835Y-37427312D01*
X80444446Y-37415761D01*
X80462847Y-37400659D01*
X80536845Y-37351215D01*
X80618740Y-37317293D01*
X80705678Y-37300000D01*
X80794322Y-37300000D01*
X80881260Y-37317293D01*
X80963155Y-37351215D01*
X81036861Y-37400464D01*
X81099536Y-37463139D01*
X81148785Y-37536845D01*
X81182707Y-37618740D01*
X81200000Y-37705678D01*
X81200000Y-37794322D01*
X81182707Y-37881260D01*
X81148785Y-37963155D01*
X81099536Y-38036861D01*
X81036861Y-38099536D01*
X80963155Y-38148785D01*
X80881260Y-38182707D01*
X80794322Y-38200000D01*
X80705678Y-38200000D01*
X80618740Y-38182707D01*
X80536845Y-38148785D01*
X80462847Y-38099341D01*
X80444446Y-38084239D01*
X80422835Y-38072688D01*
X80399386Y-38065575D01*
X80375000Y-38063173D01*
X80350614Y-38065575D01*
X80327165Y-38072688D01*
X80305554Y-38084239D01*
X80287153Y-38099341D01*
X80213155Y-38148785D01*
X80131260Y-38182707D01*
X80044322Y-38200000D01*
X79955678Y-38200000D01*
X79868740Y-38182707D01*
X79786845Y-38148785D01*
X79712847Y-38099341D01*
X79694446Y-38084239D01*
X79672835Y-38072688D01*
X79649386Y-38065575D01*
X79625000Y-38063173D01*
X79600614Y-38065575D01*
X79577165Y-38072688D01*
X79555554Y-38084239D01*
X79537153Y-38099341D01*
X79463155Y-38148785D01*
X79381260Y-38182707D01*
X79294322Y-38200000D01*
X79205678Y-38200000D01*
X79118740Y-38182707D01*
X79036845Y-38148785D01*
X78963139Y-38099536D01*
X78900464Y-38036861D01*
X78851215Y-37963155D01*
X78817293Y-37881260D01*
X78800000Y-37794322D01*
X78800000Y-37705678D01*
X78817293Y-37618740D01*
X78851215Y-37536845D01*
X78900464Y-37463139D01*
X78963139Y-37400464D01*
X79036845Y-37351215D01*
X79118740Y-37317293D01*
X79205678Y-37300000D01*
X79294322Y-37300000D01*
X79381260Y-37317293D01*
X79381260Y-37317293D01*
G37*
G36*
X263075770Y-32015372D02*
X263191689Y-32038429D01*
X263373678Y-32113811D01*
X263537463Y-32223249D01*
X263676751Y-32362537D01*
X263786189Y-32526322D01*
X263861571Y-32708311D01*
X263900000Y-32901509D01*
X263900000Y-33098491D01*
X263861571Y-33291689D01*
X263786189Y-33473678D01*
X263676751Y-33637463D01*
X263537463Y-33776751D01*
X263373678Y-33886189D01*
X263191689Y-33961571D01*
X263075770Y-33984628D01*
X262998493Y-34000000D01*
X262801507Y-34000000D01*
X262724230Y-33984628D01*
X262608311Y-33961571D01*
X262426322Y-33886189D01*
X262262537Y-33776751D01*
X262123249Y-33637463D01*
X262013811Y-33473678D01*
X261938429Y-33291689D01*
X261900000Y-33098491D01*
X261900000Y-32901509D01*
X261938429Y-32708311D01*
X262013811Y-32526322D01*
X262123249Y-32362537D01*
X262262537Y-32223249D01*
X262426322Y-32113811D01*
X262608311Y-32038429D01*
X262724230Y-32015372D01*
X262801507Y-32000000D01*
X262998493Y-32000000D01*
X263075770Y-32015372D01*
X263075770Y-32015372D01*
G37*
G36*
X28775770Y-32015372D02*
X28891689Y-32038429D01*
X29073678Y-32113811D01*
X29237463Y-32223249D01*
X29376751Y-32362537D01*
X29486189Y-32526322D01*
X29561571Y-32708311D01*
X29600000Y-32901509D01*
X29600000Y-33098491D01*
X29561571Y-33291689D01*
X29486189Y-33473678D01*
X29376751Y-33637463D01*
X29237463Y-33776751D01*
X29073678Y-33886189D01*
X28891689Y-33961571D01*
X28775770Y-33984628D01*
X28698493Y-34000000D01*
X28501507Y-34000000D01*
X28424230Y-33984628D01*
X28308311Y-33961571D01*
X28126322Y-33886189D01*
X27962537Y-33776751D01*
X27823249Y-33637463D01*
X27713811Y-33473678D01*
X27638429Y-33291689D01*
X27600000Y-33098491D01*
X27600000Y-32901509D01*
X27638429Y-32708311D01*
X27713811Y-32526322D01*
X27823249Y-32362537D01*
X27962537Y-32223249D01*
X28126322Y-32113811D01*
X28308311Y-32038429D01*
X28424230Y-32015372D01*
X28501507Y-32000000D01*
X28698493Y-32000000D01*
X28775770Y-32015372D01*
X28775770Y-32015372D01*
G37*
M02*
