G04 #@! TF.GenerationSoftware,KiCad,Pcbnew,(6.0.0-rc1-dev-509-gcac7479)*
G04 #@! TF.CreationDate,2018-10-23T14:14:01+08:00*
G04 #@! TF.ProjectId,DI-Lambda-UNO-Panelized-v1.7,44492D4C616D6264612D554E4F2D5061,rev?*
G04 #@! TF.SameCoordinates,Original*
G04 #@! TF.FileFunction,Paste,Top*
G04 #@! TF.FilePolarity,Positive*
%FSLAX46Y46*%
G04 Gerber Fmt 4.6, Leading zero omitted, Abs format (unit mm)*
G04 Created by KiCad (PCBNEW (6.0.0-rc1-dev-509-gcac7479)) date Tue Oct 23 14:14:01 2018*
%MOMM*%
%LPD*%
G01*
G04 APERTURE LIST*
%ADD10R,3.000000X1.500000*%
%ADD11R,2.000000X4.000000*%
%ADD12R,0.670000X1.000000*%
%ADD13R,1.750000X1.800000*%
%ADD14R,1.000000X0.670000*%
%ADD15R,0.650000X1.060000*%
%ADD16R,1.500000X1.900000*%
%ADD17R,0.400000X1.350000*%
%ADD18R,1.800000X2.500000*%
%ADD19R,1.800000X1.070000*%
%ADD20R,3.900000X1.200000*%
%ADD21R,2.000000X1.500000*%
%ADD22R,2.000000X3.800000*%
%ADD23R,0.800000X0.900000*%
%ADD24R,1.000000X3.000000*%
%ADD25R,2.000000X2.000000*%
%ADD26R,1.000000X1.000000*%
%ADD27R,0.800000X3.150000*%
%ADD28R,2.000000X4.500000*%
%ADD29R,0.250000X1.300000*%
%ADD30R,1.300000X0.250000*%
%ADD31R,1.700000X2.200000*%
%ADD32R,0.800000X0.800000*%
%ADD33R,1.300000X0.700000*%
%ADD34R,0.800000X0.750000*%
%ADD35R,1.550000X0.600000*%
G04 APERTURE END LIST*
D10*
G04 #@! TO.C,P402*
X37428000Y-137270000D03*
X37428000Y-134730000D03*
X46572000Y-137270000D03*
X46572000Y-134730000D03*
G04 #@! TD*
G04 #@! TO.C,P401*
X37428000Y-64270000D03*
X37428000Y-61730000D03*
X46572000Y-64270000D03*
X46572000Y-61730000D03*
G04 #@! TD*
G04 #@! TO.C,P403*
X55572000Y-71730000D03*
X55572000Y-74270000D03*
X46428000Y-71730000D03*
X46428000Y-74270000D03*
G04 #@! TD*
G04 #@! TO.C,P302*
X89072000Y-134730000D03*
X89072000Y-137270000D03*
X79928000Y-134730000D03*
X79928000Y-137270000D03*
G04 #@! TD*
G04 #@! TO.C,P301*
X89072000Y-61730000D03*
X89072000Y-64270000D03*
X79928000Y-61730000D03*
X79928000Y-64270000D03*
G04 #@! TD*
G04 #@! TO.C,P303*
X70928000Y-74270000D03*
X70928000Y-71730000D03*
X80072000Y-74270000D03*
X80072000Y-71730000D03*
G04 #@! TD*
D11*
G04 #@! TO.C,J601*
X207050000Y-117700000D03*
X204550000Y-117700000D03*
X202050000Y-117700000D03*
X199550000Y-117700000D03*
X197050000Y-117700000D03*
X194550000Y-117700000D03*
G04 #@! TD*
D12*
G04 #@! TO.C,R601*
X196650000Y-106200000D03*
X194900000Y-106200000D03*
G04 #@! TD*
D11*
G04 #@! TO.C,J601*
X194550000Y-70300000D03*
X197050000Y-70300000D03*
X199550000Y-70300000D03*
X202050000Y-70300000D03*
X204550000Y-70300000D03*
X207050000Y-70300000D03*
G04 #@! TD*
D12*
G04 #@! TO.C,R601*
X204950000Y-81800000D03*
X206700000Y-81800000D03*
G04 #@! TD*
D13*
G04 #@! TO.C,D501*
X197200000Y-139000000D03*
X204400000Y-139000000D03*
G04 #@! TD*
D11*
G04 #@! TO.C,J501*
X194550000Y-133300000D03*
X197050000Y-133300000D03*
X199550000Y-133300000D03*
X202050000Y-133300000D03*
X204550000Y-133300000D03*
X207050000Y-133300000D03*
G04 #@! TD*
D14*
G04 #@! TO.C,R501*
X197500000Y-142525000D03*
X197500000Y-144275000D03*
G04 #@! TD*
D15*
G04 #@! TO.C,U502*
X209650000Y-142300000D03*
X208700000Y-142300000D03*
X210600000Y-142300000D03*
X210600000Y-144500000D03*
X209650000Y-144500000D03*
X208700000Y-144500000D03*
G04 #@! TD*
G04 #@! TO.C,U501*
X192250000Y-142300000D03*
X194150000Y-142300000D03*
X194150000Y-144500000D03*
X193200000Y-144500000D03*
X192250000Y-144500000D03*
G04 #@! TD*
D14*
G04 #@! TO.C,C501*
X195800000Y-142475000D03*
X195800000Y-144225000D03*
G04 #@! TD*
D12*
G04 #@! TO.C,C502*
X208275000Y-140400000D03*
X210025000Y-140400000D03*
G04 #@! TD*
D14*
G04 #@! TO.C,C503*
X190600000Y-144275000D03*
X190600000Y-142525000D03*
G04 #@! TD*
D15*
G04 #@! TO.C,U101*
X111650000Y-140150000D03*
X112600000Y-140150000D03*
X110700000Y-140150000D03*
X110700000Y-137950000D03*
X111650000Y-137950000D03*
X112600000Y-137950000D03*
G04 #@! TD*
D16*
G04 #@! TO.C,J101*
X110650000Y-164537500D03*
D17*
X111650000Y-161837500D03*
X112300000Y-161837500D03*
X112950000Y-161837500D03*
X110350000Y-161837500D03*
X111000000Y-161837500D03*
D16*
X112650000Y-164537500D03*
G04 #@! TD*
D18*
G04 #@! TO.C,D101*
X123900000Y-61900000D03*
X123900000Y-57900000D03*
G04 #@! TD*
D19*
G04 #@! TO.C,F101*
X106750000Y-139605000D03*
X106750000Y-136595000D03*
G04 #@! TD*
D20*
G04 #@! TO.C,L104*
X124400000Y-67150000D03*
X124400000Y-64350000D03*
G04 #@! TD*
D14*
G04 #@! TO.C,C104*
X121250000Y-62925000D03*
X121250000Y-61175000D03*
G04 #@! TD*
D21*
G04 #@! TO.C,U102*
X119250000Y-75300000D03*
X119250000Y-70700000D03*
X119250000Y-73000000D03*
D22*
X112950000Y-73000000D03*
G04 #@! TD*
D23*
G04 #@! TO.C,Q101*
X120400000Y-53350000D03*
X121350000Y-55350000D03*
X119450000Y-55350000D03*
G04 #@! TD*
D12*
G04 #@! TO.C,R103*
X119525000Y-56800000D03*
X121275000Y-56800000D03*
G04 #@! TD*
D24*
G04 #@! TO.C,J105*
X103330000Y-70480000D03*
X103330000Y-75520000D03*
X105870000Y-70480000D03*
X105870000Y-75520000D03*
G04 #@! TD*
D15*
G04 #@! TO.C,U103*
X121195000Y-66600000D03*
X119295000Y-66600000D03*
X119295000Y-64400000D03*
X120245000Y-64400000D03*
X121195000Y-64400000D03*
G04 #@! TD*
D24*
G04 #@! TO.C,J106*
X128870000Y-75520000D03*
X128870000Y-70480000D03*
X126330000Y-75520000D03*
X126330000Y-70480000D03*
G04 #@! TD*
D14*
G04 #@! TO.C,C102*
X121450000Y-72125000D03*
X121450000Y-73875000D03*
G04 #@! TD*
D12*
G04 #@! TO.C,C103*
X117125000Y-77500000D03*
X118875000Y-77500000D03*
G04 #@! TD*
D14*
G04 #@! TO.C,C105*
X117600000Y-66375000D03*
X117600000Y-64625000D03*
G04 #@! TD*
D12*
G04 #@! TO.C,C101*
X111575000Y-136200000D03*
X109825000Y-136200000D03*
G04 #@! TD*
D14*
G04 #@! TO.C,C106*
X119650000Y-62925000D03*
X119650000Y-61175000D03*
G04 #@! TD*
G04 #@! TO.C,L101*
X106750000Y-143325000D03*
X106750000Y-141575000D03*
G04 #@! TD*
G04 #@! TO.C,L103*
X125450000Y-143875000D03*
X125450000Y-145625000D03*
G04 #@! TD*
G04 #@! TO.C,L102*
X127150000Y-143875000D03*
X127150000Y-145625000D03*
G04 #@! TD*
D23*
G04 #@! TO.C,Q102*
X116900000Y-55350000D03*
X117850000Y-57350000D03*
X115950000Y-57350000D03*
G04 #@! TD*
D14*
G04 #@! TO.C,R106*
X116450000Y-61175000D03*
X116450000Y-62925000D03*
G04 #@! TD*
G04 #@! TO.C,R105*
X118050000Y-62925000D03*
X118050000Y-61175000D03*
G04 #@! TD*
G04 #@! TO.C,R101*
X112600000Y-143325000D03*
X112600000Y-141575000D03*
G04 #@! TD*
G04 #@! TO.C,R102*
X110700000Y-143325000D03*
X110700000Y-141575000D03*
G04 #@! TD*
D12*
G04 #@! TO.C,R104*
X117825000Y-58800000D03*
X116075000Y-58800000D03*
G04 #@! TD*
D25*
G04 #@! TO.C,J112*
X107350000Y-48267000D03*
X124850000Y-48267000D03*
D26*
X109850000Y-51100000D03*
X112350000Y-51100000D03*
X114850000Y-51100000D03*
X117350000Y-51100000D03*
X119850000Y-51100000D03*
X122350000Y-51100000D03*
G04 #@! TD*
D25*
G04 #@! TO.C,J102*
X124850000Y-150733000D03*
X107350000Y-150733000D03*
D26*
X122350000Y-147900000D03*
X119850000Y-147900000D03*
X117350000Y-147900000D03*
X114850000Y-147900000D03*
X112350000Y-147900000D03*
X109850000Y-147900000D03*
G04 #@! TD*
D27*
G04 #@! TO.C,J207*
X167330000Y-138525000D03*
X167330000Y-133475000D03*
X169870000Y-138525000D03*
X169870000Y-133475000D03*
G04 #@! TD*
G04 #@! TO.C,J208*
X144330000Y-138525000D03*
X144330000Y-133475000D03*
X146870000Y-138525000D03*
X146870000Y-133475000D03*
G04 #@! TD*
G04 #@! TO.C,J204*
X167330000Y-65525000D03*
X167330000Y-60475000D03*
X169870000Y-65525000D03*
X169870000Y-60475000D03*
G04 #@! TD*
G04 #@! TO.C,J203*
X146870000Y-60475000D03*
X146870000Y-65525000D03*
X144330000Y-60475000D03*
X144330000Y-65525000D03*
G04 #@! TD*
D28*
G04 #@! TO.C,Y201*
X147100000Y-82450000D03*
X147100000Y-73950000D03*
G04 #@! TD*
D12*
G04 #@! TO.C,C208*
X158025000Y-65900000D03*
X156275000Y-65900000D03*
G04 #@! TD*
G04 #@! TO.C,C201*
X156425000Y-63450000D03*
X158175000Y-63450000D03*
G04 #@! TD*
D29*
G04 #@! TO.C,U202*
X153900000Y-74100000D03*
X154400000Y-74100000D03*
X154900000Y-74100000D03*
X155400000Y-74100000D03*
X155900000Y-74100000D03*
X156400000Y-74100000D03*
X156900000Y-74100000D03*
X157400000Y-74100000D03*
X157900000Y-74100000D03*
X158400000Y-74100000D03*
X158900000Y-74100000D03*
X159400000Y-74100000D03*
D30*
X161000000Y-75700000D03*
X161000000Y-76200000D03*
X161000000Y-76700000D03*
X161000000Y-77200000D03*
X161000000Y-77700000D03*
X161000000Y-78200000D03*
X161000000Y-78700000D03*
X161000000Y-79200000D03*
X161000000Y-79700000D03*
X161000000Y-80200000D03*
X161000000Y-80700000D03*
X161000000Y-81200000D03*
D29*
X159400000Y-82800000D03*
X158900000Y-82800000D03*
X158400000Y-82800000D03*
X157900000Y-82800000D03*
X157400000Y-82800000D03*
X156900000Y-82800000D03*
X156400000Y-82800000D03*
X155900000Y-82800000D03*
X155400000Y-82800000D03*
X154900000Y-82800000D03*
X154400000Y-82800000D03*
X153900000Y-82800000D03*
D30*
X152300000Y-81200000D03*
X152300000Y-80700000D03*
X152300000Y-80200000D03*
X152300000Y-79700000D03*
X152300000Y-79200000D03*
X152300000Y-78700000D03*
X152300000Y-78200000D03*
X152300000Y-77700000D03*
X152300000Y-77200000D03*
X152300000Y-76700000D03*
X152300000Y-76200000D03*
X152300000Y-75700000D03*
G04 #@! TD*
D31*
G04 #@! TO.C,J211*
X170170000Y-163630000D03*
X165090000Y-163630000D03*
X162550000Y-163630000D03*
X160010000Y-163630000D03*
G04 #@! TD*
D12*
G04 #@! TO.C,C205*
X160025000Y-86050000D03*
X158275000Y-86050000D03*
G04 #@! TD*
G04 #@! TO.C,C206*
X146575000Y-68500000D03*
X144825000Y-68500000D03*
G04 #@! TD*
G04 #@! TO.C,C209*
X158275000Y-84510000D03*
X160025000Y-84510000D03*
G04 #@! TD*
G04 #@! TO.C,C207*
X153275000Y-70900000D03*
X155025000Y-70900000D03*
G04 #@! TD*
G04 #@! TO.C,R202*
X147100000Y-85710000D03*
X148850000Y-85710000D03*
G04 #@! TD*
G04 #@! TO.C,R205*
X165075000Y-73600000D03*
X163325000Y-73600000D03*
G04 #@! TD*
D14*
G04 #@! TO.C,R206*
X155250000Y-56775000D03*
X155250000Y-55025000D03*
G04 #@! TD*
G04 #@! TO.C,R207*
X165250000Y-56775000D03*
X165250000Y-55025000D03*
G04 #@! TD*
G04 #@! TO.C,R208*
X149000000Y-56775000D03*
X149000000Y-55025000D03*
G04 #@! TD*
D12*
G04 #@! TO.C,R201*
X163325000Y-72000000D03*
X165075000Y-72000000D03*
G04 #@! TD*
D14*
G04 #@! TO.C,C212*
X162730000Y-76825000D03*
X162730000Y-75075000D03*
G04 #@! TD*
G04 #@! TO.C,C203*
X143660000Y-75695000D03*
X143660000Y-73945000D03*
G04 #@! TD*
G04 #@! TO.C,C204*
X143670000Y-80695000D03*
X143670000Y-82445000D03*
G04 #@! TD*
D12*
G04 #@! TO.C,C202*
X154045000Y-86660000D03*
X152295000Y-86660000D03*
G04 #@! TD*
G04 #@! TO.C,C211*
X155025000Y-72400000D03*
X153275000Y-72400000D03*
G04 #@! TD*
D14*
G04 #@! TO.C,C213*
X150560000Y-73950000D03*
X150560000Y-75700000D03*
G04 #@! TD*
G04 #@! TO.C,C210*
X150570000Y-79070000D03*
X150570000Y-80820000D03*
G04 #@! TD*
D12*
G04 #@! TO.C,R204*
X151325000Y-58800000D03*
X149575000Y-58800000D03*
G04 #@! TD*
G04 #@! TO.C,R203*
X149575000Y-60500000D03*
X151325000Y-60500000D03*
G04 #@! TD*
G04 #@! TO.C,R601*
X196650000Y-49200000D03*
X194900000Y-49200000D03*
G04 #@! TD*
D11*
G04 #@! TO.C,J601*
X207050000Y-60700000D03*
X204550000Y-60700000D03*
X202050000Y-60700000D03*
X199550000Y-60700000D03*
X197050000Y-60700000D03*
X194550000Y-60700000D03*
G04 #@! TD*
D32*
G04 #@! TO.C,D602*
X200800000Y-112800000D03*
X200800000Y-111200000D03*
G04 #@! TD*
D33*
G04 #@! TO.C,R602*
X205500000Y-112950000D03*
X205500000Y-111050000D03*
G04 #@! TD*
D34*
G04 #@! TO.C,C601*
X192850000Y-106200000D03*
X191350000Y-106200000D03*
G04 #@! TD*
D35*
G04 #@! TO.C,U601*
X189500000Y-107995000D03*
X189500000Y-109265000D03*
X189500000Y-110535000D03*
X189500000Y-111805000D03*
X194900000Y-111805000D03*
X194900000Y-110535000D03*
X194900000Y-109265000D03*
X194900000Y-107995000D03*
G04 #@! TD*
G04 #@! TO.C,U601*
X212100000Y-80005000D03*
X212100000Y-78735000D03*
X212100000Y-77465000D03*
X212100000Y-76195000D03*
X206700000Y-76195000D03*
X206700000Y-77465000D03*
X206700000Y-78735000D03*
X206700000Y-80005000D03*
G04 #@! TD*
D33*
G04 #@! TO.C,R602*
X196100000Y-75050000D03*
X196100000Y-76950000D03*
G04 #@! TD*
D34*
G04 #@! TO.C,C601*
X208750000Y-81800000D03*
X210250000Y-81800000D03*
G04 #@! TD*
D32*
G04 #@! TO.C,D602*
X200800000Y-75200000D03*
X200800000Y-76800000D03*
G04 #@! TD*
D34*
G04 #@! TO.C,C601*
X191350000Y-49200000D03*
X192850000Y-49200000D03*
G04 #@! TD*
D35*
G04 #@! TO.C,U601*
X194900000Y-50995000D03*
X194900000Y-52265000D03*
X194900000Y-53535000D03*
X194900000Y-54805000D03*
X189500000Y-54805000D03*
X189500000Y-53535000D03*
X189500000Y-52265000D03*
X189500000Y-50995000D03*
G04 #@! TD*
D32*
G04 #@! TO.C,D602*
X200800000Y-54200000D03*
X200800000Y-55800000D03*
G04 #@! TD*
D33*
G04 #@! TO.C,R602*
X205500000Y-54050000D03*
X205500000Y-55950000D03*
G04 #@! TD*
M02*
