G04 #@! TF.GenerationSoftware,KiCad,Pcbnew,(6.0.0-rc1-dev-509-gcac7479)*
G04 #@! TF.CreationDate,2018-10-23T14:14:01+08:00*
G04 #@! TF.ProjectId,DI-Lambda-UNO-Panelized-v1.7,44492D4C616D6264612D554E4F2D5061,rev?*
G04 #@! TF.SameCoordinates,Original*
G04 #@! TF.FileFunction,Paste,Bot*
G04 #@! TF.FilePolarity,Positive*
%FSLAX46Y46*%
G04 Gerber Fmt 4.6, Leading zero omitted, Abs format (unit mm)*
G04 Created by KiCad (PCBNEW (6.0.0-rc1-dev-509-gcac7479)) date Tue Oct 23 14:14:01 2018*
%MOMM*%
%LPD*%
G01*
G04 APERTURE LIST*
%ADD10R,1.600000X1.700000*%
%ADD11R,2.750000X1.000000*%
%ADD12C,6.500000*%
%ADD13C,0.500000*%
%ADD14R,0.400000X2.500000*%
G04 APERTURE END LIST*
D10*
G04 #@! TO.C,J111*
X130100000Y-54250000D03*
X130100000Y-51750000D03*
X130100000Y-49250000D03*
X130100000Y-56750000D03*
X133700000Y-49250000D03*
X133700000Y-56750000D03*
X133700000Y-54250000D03*
X133700000Y-51750000D03*
G04 #@! TD*
G04 #@! TO.C,J103*
X98500000Y-54250000D03*
X98500000Y-51750000D03*
X98500000Y-49250000D03*
X98500000Y-56750000D03*
X102100000Y-49250000D03*
X102100000Y-56750000D03*
X102100000Y-54250000D03*
X102100000Y-51750000D03*
G04 #@! TD*
G04 #@! TO.C,J104*
X130100000Y-147250000D03*
X130100000Y-144750000D03*
X130100000Y-142250000D03*
X130100000Y-149750000D03*
X133700000Y-142250000D03*
X133700000Y-149750000D03*
X133700000Y-147250000D03*
X133700000Y-144750000D03*
G04 #@! TD*
G04 #@! TO.C,J110*
X98500000Y-147250000D03*
X98500000Y-144750000D03*
X98500000Y-142250000D03*
X98500000Y-149750000D03*
X102100000Y-142250000D03*
X102100000Y-149750000D03*
X102100000Y-147250000D03*
X102100000Y-144750000D03*
G04 #@! TD*
G04 #@! TO.C,J108*
X133700000Y-95500000D03*
X133700000Y-93000000D03*
X133700000Y-90500000D03*
X130100000Y-95500000D03*
X130100000Y-90500000D03*
X130100000Y-93000000D03*
G04 #@! TD*
G04 #@! TO.C,J109*
X102100000Y-95500000D03*
X102100000Y-93000000D03*
X102100000Y-90500000D03*
X98500000Y-95500000D03*
X98500000Y-90500000D03*
X98500000Y-93000000D03*
G04 #@! TD*
D11*
G04 #@! TO.C,SW203*
X144225000Y-47000000D03*
X149975000Y-47000000D03*
X149975000Y-51000000D03*
X144225000Y-51000000D03*
G04 #@! TD*
G04 #@! TO.C,SW202*
X164225000Y-47000000D03*
X169975000Y-47000000D03*
X169975000Y-51000000D03*
X164225000Y-51000000D03*
G04 #@! TD*
G04 #@! TO.C,SW201*
X154225000Y-47000000D03*
X159975000Y-47000000D03*
X159975000Y-51000000D03*
X154225000Y-51000000D03*
G04 #@! TD*
D12*
G04 #@! TO.C,MK205*
X172900000Y-41300000D03*
G04 #@! TD*
G04 #@! TO.C,MK204*
X141300000Y-41300000D03*
G04 #@! TD*
G04 #@! TO.C,MK203*
X145700000Y-92900000D03*
G04 #@! TD*
G04 #@! TO.C,MK202*
X168500000Y-92900000D03*
G04 #@! TD*
D13*
G04 #@! TO.C,U201*
X149950000Y-59900000D03*
X164350000Y-59900000D03*
D14*
X162350000Y-60900000D03*
X161550000Y-60900000D03*
X160750000Y-60900000D03*
X159950000Y-60900000D03*
X159150000Y-60900000D03*
X158350000Y-60900000D03*
X157550000Y-60900000D03*
X156750000Y-60900000D03*
X155950000Y-60900000D03*
X155150000Y-60900000D03*
X154350000Y-60900000D03*
X153550000Y-60900000D03*
X152750000Y-60900000D03*
X151950000Y-60900000D03*
G04 #@! TD*
M02*
