M48
;DRILL file {KiCad (6.0.0-rc1-dev-509-gcac7479)} date Tue Oct 23 14:14:04 2018
;FORMAT={-:-/ absolute / metric / decimal}
FMAT,2
METRIC,TZ
T1C0.500
T2C1.000
T3C2.500
T4C3.200
T5C4.000
T6C4.300
T7C8.000
%
G90
G05
M71
T1
X170.15Y-166.25
X170.9Y-166.25
X171.65Y-166.25
X207.55Y-129.25
X208.3Y-129.25
X209.05Y-129.25
X79.25Y-37.75
X80.Y-37.75
X80.75Y-37.75
X101.55Y-166.25
X102.3Y-166.25
X103.05Y-166.25
X224.9Y-156.6
X224.9Y-157.4
X217.7Y-96.6
X257.75Y-96.65
X258.5Y-96.65
X259.25Y-96.65
X79.25Y-166.25
X80.Y-166.25
X80.75Y-166.25
X217.7Y-90.2
X192.55Y-129.25
X193.3Y-129.25
X194.05Y-129.25
X225.Y-106.4
X230.15Y-37.75
X230.9Y-37.75
X231.65Y-37.75
X217.7Y-153.2
X183.9Y-91.4
X258.8Y-107.2
X170.15Y-37.75
X170.9Y-37.75
X171.65Y-37.75
X205.05Y-64.75
X205.05Y-66.25
X205.8Y-64.75
X205.8Y-66.25
X206.55Y-64.75
X206.55Y-66.25
X258.8Y-106.4
X223.6Y-106.4
X45.75Y-166.25
X46.5Y-166.25
X47.25Y-166.25
X183.9Y-97.8
X217.7Y-97.4
X195.05Y-64.75
X195.05Y-66.25
X195.8Y-64.75
X195.8Y-66.25
X196.55Y-64.75
X196.55Y-66.25
X257.75Y-37.75
X258.5Y-37.75
X259.25Y-37.75
X205.05Y-121.75
X205.8Y-121.75
X206.55Y-121.75
X195.05Y-121.75
X195.8Y-121.75
X196.55Y-121.75
X241.15Y-131.15
X241.15Y-132.65
X241.9Y-131.15
X241.9Y-132.65
X242.65Y-131.15
X242.65Y-132.65
X129.15Y-166.25
X129.9Y-166.25
X130.65Y-166.25
X183.9Y-90.6
X183.9Y-153.2
X129.15Y-37.75
X129.9Y-37.75
X130.65Y-37.75
X101.55Y-37.75
X102.3Y-37.75
X103.05Y-37.75
X183.9Y-40.8
X258.8Y-156.6
X183.9Y-154.
X230.15Y-96.65
X230.9Y-96.65
X231.65Y-96.65
X142.55Y-37.75
X143.3Y-37.75
X144.05Y-37.75
X217.7Y-40.8
X217.7Y-91.
X258.8Y-157.4
X183.9Y-97.
X223.6Y-107.2
X217.7Y-154.
X183.9Y-40.
X142.55Y-166.25
X143.3Y-166.25
X144.05Y-166.25
X45.75Y-37.75
X46.5Y-37.75
X47.25Y-37.75
X225.Y-107.2
X217.7Y-40.
T2
X111.1Y-150.4
X121.1Y-150.4
X84.5Y-63.
X84.5Y-136.
X42.Y-63.
X241.9Y-142.4
X241.9Y-121.4
X42.Y-136.
X75.5Y-73.
X51.Y-73.
X111.1Y-48.6
X121.1Y-48.6
T3
X147.1Y-40.5
X157.1Y-40.5
X167.1Y-40.5
X234.7Y-40.5
X244.7Y-40.5
X254.7Y-40.5
T4
X228.9Y-41.3
X105.475Y-115.3
X126.725Y-115.3
X260.5Y-41.3
X233.3Y-92.9
X256.1Y-92.9
T5
X116.1Y-115.3
T6
X141.3Y-41.3
X141.3Y-41.3
X168.5Y-92.9
X168.5Y-92.9
X172.9Y-41.3
X172.9Y-41.3
X145.7Y-92.9
X145.7Y-92.9
T7
X254.7Y-47.8
X234.7Y-48.
X244.7Y-47.8
T0
M30
