G04 #@! TF.GenerationSoftware,KiCad,Pcbnew,(6.0.0-rc1-dev-509-gcac7479)*
G04 #@! TF.CreationDate,2018-10-23T14:14:01+08:00*
G04 #@! TF.ProjectId,DI-Lambda-UNO-Panelized-v1.7,44492D4C616D6264612D554E4F2D5061,rev?*
G04 #@! TF.SameCoordinates,Original*
G04 #@! TF.FileFunction,Profile,NP*
%FSLAX46Y46*%
G04 Gerber Fmt 4.6, Leading zero omitted, Abs format (unit mm)*
G04 Created by KiCad (PCBNEW (6.0.0-rc1-dev-509-gcac7479)) date Tue Oct 23 14:14:01 2018*
%MOMM*%
%LPD*%
G01*
G04 APERTURE LIST*
%ADD10C,0.100000*%
G04 #@! TA.AperFunction,NonConductor*
%ADD11C,0.150000*%
G04 #@! TD*
G04 #@! TA.AperFunction,NonConductor*
%ADD12C,0.100000*%
G04 #@! TD*
G04 APERTURE END LIST*
D10*
X239900000Y-130900000D02*
G75*
G02X239900000Y-132900000I0J-1000000D01*
G01*
X243900000Y-132900000D02*
G75*
G02X243900000Y-130900000I0J1000000D01*
G01*
X260500000Y-160400000D02*
G75*
G02X259500000Y-161400000I-1000000J0D01*
G01*
X224300000Y-161400000D02*
G75*
G02X223300000Y-160400000I0J1000000D01*
G01*
X260500000Y-160400000D02*
X260500000Y-158600000D01*
X224300000Y-161400000D02*
X259500000Y-161400000D01*
X223300000Y-158600000D02*
X223300000Y-160400000D01*
X258500000Y-158600000D02*
G75*
G02X260500000Y-158600000I1000000J0D01*
G01*
X260500000Y-155400000D02*
G75*
G02X258500000Y-155400000I-1000000J0D01*
G01*
X225300000Y-155400000D02*
G75*
G02X223300000Y-155400000I-1000000J0D01*
G01*
X223300000Y-158600000D02*
G75*
G02X225300000Y-158600000I1000000J0D01*
G01*
X227300000Y-134400000D02*
X235400000Y-134400000D01*
X258500000Y-158600000D02*
X258500000Y-159000000D01*
X258100000Y-159400000D02*
G75*
G03X258500000Y-159000000I0J400000D01*
G01*
X225700000Y-159400000D02*
X258100000Y-159400000D01*
X227300000Y-134400000D02*
G75*
G03X226900000Y-134800000I0J-400000D01*
G01*
X256900000Y-154400000D02*
G75*
G03X256900000Y-155400000I0J-500000D01*
G01*
X256900000Y-134800000D02*
X256900000Y-154400000D01*
X226900000Y-134800000D02*
X226900000Y-154400000D01*
X256500000Y-134400000D02*
X248400000Y-134400000D01*
X256900000Y-155400000D02*
X258500000Y-155400000D01*
X226900000Y-155400000D02*
G75*
G03X226900000Y-154400000I0J500000D01*
G01*
X225300000Y-159000000D02*
X225300000Y-158600000D01*
X256900000Y-134800000D02*
G75*
G03X256500000Y-134400000I-400000J0D01*
G01*
X226900000Y-155400000D02*
X225300000Y-155400000D01*
X225300000Y-159000000D02*
G75*
G03X225700000Y-159400000I400000J0D01*
G01*
X259500000Y-102400000D02*
G75*
G02X260500000Y-103400000I0J-1000000D01*
G01*
X260500000Y-108400000D02*
X260500000Y-155400000D01*
X260500000Y-104800000D02*
X260500000Y-103400000D01*
X260500000Y-105200000D02*
X260500000Y-104800000D01*
X260500000Y-105200000D02*
G75*
G02X258500000Y-105200000I-1000000J0D01*
G01*
X258500000Y-108400000D02*
G75*
G02X260500000Y-108400000I1000000J0D01*
G01*
X223300000Y-103400000D02*
G75*
G02X224300000Y-102400000I1000000J0D01*
G01*
X223300000Y-105200000D02*
X223300000Y-103400000D01*
X225300000Y-105200000D02*
G75*
G02X223300000Y-105200000I-1000000J0D01*
G01*
X223300000Y-108400000D02*
G75*
G02X225300000Y-108400000I1000000J0D01*
G01*
X263800000Y-98400000D02*
X263800000Y-173100000D01*
X260500000Y-98400000D02*
X263800000Y-98400000D01*
X259500000Y-102400000D02*
X224300000Y-102400000D01*
X228900000Y-98400000D02*
X224400000Y-98400000D01*
X256500000Y-96400000D02*
G75*
G02X256500000Y-98400000I0J-1000000D01*
G01*
X232900000Y-98400000D02*
G75*
G02X232900000Y-96400000I0J1000000D01*
G01*
X228900000Y-96400000D02*
G75*
G02X228900000Y-98400000I0J-1000000D01*
G01*
X260500000Y-98400000D02*
G75*
G02X260500000Y-96400000I0J1000000D01*
G01*
X223400000Y-97400000D02*
X223400000Y-37000000D01*
X264900000Y-31000000D02*
X264900000Y-36000000D01*
X223400000Y-37000000D02*
G75*
G02X224400000Y-36000000I1000000J0D01*
G01*
X228900000Y-36000000D02*
X224400000Y-36000000D01*
X264900000Y-36000000D02*
X260500000Y-36000000D01*
X228900000Y-36000000D02*
G75*
G02X228900000Y-38000000I0J-1000000D01*
G01*
X232900000Y-38000000D02*
G75*
G02X232900000Y-36000000I0J1000000D01*
G01*
X256500000Y-36000000D02*
G75*
G02X256500000Y-38000000I0J-1000000D01*
G01*
X260500000Y-38000000D02*
G75*
G02X260500000Y-36000000I0J1000000D01*
G01*
X232900000Y-36000000D02*
X256500000Y-36000000D01*
X224400000Y-98400000D02*
G75*
G02X223400000Y-97400000I0J1000000D01*
G01*
X256500000Y-98400000D02*
X232900000Y-98400000D01*
X30600000Y-37000000D02*
G75*
G02X31600000Y-36000000I1000000J0D01*
G01*
X31600000Y-168000000D02*
G75*
G02X30600000Y-167000000I0J1000000D01*
G01*
X26600000Y-173000000D02*
X26600000Y-31000000D01*
X206300000Y-127500000D02*
G75*
G02X206300000Y-129500000I0J-1000000D01*
G01*
X210300000Y-129500000D02*
G75*
G02X210300000Y-127500000I0J1000000D01*
G01*
X195300000Y-129500000D02*
G75*
G02X195300000Y-127500000I0J1000000D01*
G01*
X191300000Y-127500000D02*
G75*
G02X191300000Y-129500000I0J-1000000D01*
G01*
X203800000Y-64500000D02*
G75*
G02X203800000Y-66500000I0J-1000000D01*
G01*
X207800000Y-66500000D02*
G75*
G02X207800000Y-64500000I0J1000000D01*
G01*
X197800000Y-66500000D02*
G75*
G02X197800000Y-64500000I0J1000000D01*
G01*
X193800000Y-64500000D02*
G75*
G02X193800000Y-66500000I0J-1000000D01*
G01*
X207800000Y-123500000D02*
G75*
G02X207800000Y-121500000I0J1000000D01*
G01*
X203800000Y-121500000D02*
G75*
G02X203800000Y-123500000I0J-1000000D01*
G01*
X197800000Y-123500000D02*
G75*
G02X197800000Y-121500000I0J1000000D01*
G01*
X193800000Y-121500000D02*
G75*
G02X193800000Y-123500000I0J-1000000D01*
G01*
X100300000Y-166000000D02*
G75*
G02X100300000Y-168000000I0J-1000000D01*
G01*
X104300000Y-168000000D02*
G75*
G02X104300000Y-166000000I0J1000000D01*
G01*
X67500000Y-166000000D02*
X78000000Y-166000000D01*
X82000000Y-168000000D02*
G75*
G02X82000000Y-166000000I0J1000000D01*
G01*
X78000000Y-166000000D02*
G75*
G02X78000000Y-168000000I0J-1000000D01*
G01*
X127900000Y-166000000D02*
G75*
G02X127900000Y-168000000I0J-1000000D01*
G01*
X131900000Y-168000000D02*
G75*
G02X131900000Y-166000000I0J1000000D01*
G01*
X145300000Y-168000000D02*
G75*
G02X145300000Y-166000000I0J1000000D01*
G01*
X141300000Y-166000000D02*
G75*
G02X141300000Y-168000000I0J-1000000D01*
G01*
X172900000Y-168000000D02*
G75*
G02X172900000Y-166000000I0J1000000D01*
G01*
X168900000Y-166000000D02*
G75*
G02X168900000Y-168000000I0J-1000000D01*
G01*
X172900000Y-168000000D02*
X177200000Y-168000000D01*
X178200000Y-167000000D02*
G75*
G02X177200000Y-168000000I-1000000J0D01*
G01*
X145300000Y-168000000D02*
X168900000Y-168000000D01*
X131900000Y-168000000D02*
X141300000Y-168000000D01*
X104300000Y-168000000D02*
X127900000Y-168000000D01*
X100300000Y-166000000D02*
G75*
G02X97000000Y-162700000I0J3300000D01*
G01*
X135200000Y-162700000D02*
G75*
G02X131900000Y-166000000I-3300000J0D01*
G01*
X82000000Y-168000000D02*
X100300000Y-168000000D01*
X48500000Y-168000000D02*
X78000000Y-168000000D01*
X26600000Y-173000000D02*
X263800000Y-173100000D01*
X44500000Y-168000000D02*
X31600000Y-168000000D01*
X44500000Y-166000000D02*
X34000000Y-166000000D01*
X44500000Y-166000000D02*
G75*
G02X44500000Y-168000000I0J-1000000D01*
G01*
X48500000Y-168000000D02*
G75*
G02X48500000Y-166000000I0J1000000D01*
G01*
X219400000Y-155200000D02*
X219400000Y-157000000D01*
X219400000Y-157000000D02*
G75*
G02X218400000Y-158000000I-1000000J0D01*
G01*
X182200000Y-155200000D02*
X182200000Y-157000000D01*
X183200000Y-158000000D02*
G75*
G02X182200000Y-157000000I0J1000000D01*
G01*
X183200000Y-158000000D02*
X218400000Y-158000000D01*
X219400000Y-128500000D02*
X219400000Y-152000000D01*
X217400000Y-155200000D02*
G75*
G02X219400000Y-155200000I1000000J0D01*
G01*
X219400000Y-152000000D02*
G75*
G02X217400000Y-152000000I-1000000J0D01*
G01*
X218400000Y-127500000D02*
G75*
G02X219400000Y-128500000I0J-1000000D01*
G01*
X219400000Y-122500000D02*
G75*
G02X218400000Y-123500000I-1000000J0D01*
G01*
X210300000Y-127500000D02*
X218400000Y-127500000D01*
X207800000Y-123500000D02*
X218400000Y-123500000D01*
X219400000Y-98600000D02*
X219400000Y-122500000D01*
X219400000Y-92200000D02*
X219400000Y-95400000D01*
X217400000Y-98600000D02*
G75*
G02X219400000Y-98600000I1000000J0D01*
G01*
X219400000Y-95400000D02*
G75*
G02X217400000Y-95400000I-1000000J0D01*
G01*
X217400000Y-92200000D02*
G75*
G02X219400000Y-92200000I1000000J0D01*
G01*
X219400000Y-89000000D02*
G75*
G02X217400000Y-89000000I-1000000J0D01*
G01*
X219400000Y-42000000D02*
X219400000Y-89000000D01*
X223300000Y-155400000D02*
X223300000Y-108400000D01*
X219400000Y-38800000D02*
G75*
G02X217400000Y-38800000I-1000000J0D01*
G01*
X217400000Y-42000000D02*
G75*
G02X219400000Y-42000000I1000000J0D01*
G01*
X219400000Y-38800000D02*
X219400000Y-37000000D01*
X218400000Y-36000000D02*
G75*
G02X219400000Y-37000000I0J-1000000D01*
G01*
X182200000Y-155200000D02*
G75*
G02X184200000Y-155200000I1000000J0D01*
G01*
X184200000Y-152000000D02*
G75*
G02X182200000Y-152000000I-1000000J0D01*
G01*
X182200000Y-128500000D02*
X182200000Y-152000000D01*
X195300000Y-127500000D02*
X206300000Y-127500000D01*
X197800000Y-123500000D02*
X203800000Y-123500000D01*
X182200000Y-128500000D02*
G75*
G02X183200000Y-127500000I1000000J0D01*
G01*
X183200000Y-127500000D02*
X191300000Y-127500000D01*
X183200000Y-123500000D02*
G75*
G02X182200000Y-122500000I0J1000000D01*
G01*
X183200000Y-123500000D02*
X193800000Y-123500000D01*
X182200000Y-99000000D02*
X182200000Y-122500000D01*
X182200000Y-92600000D02*
X182200000Y-95800000D01*
X182200000Y-99000000D02*
G75*
G02X184200000Y-99000000I1000000J0D01*
G01*
X184200000Y-95800000D02*
G75*
G02X182200000Y-95800000I-1000000J0D01*
G01*
X182200000Y-92600000D02*
G75*
G02X184200000Y-92600000I1000000J0D01*
G01*
X184200000Y-89400000D02*
G75*
G02X182200000Y-89400000I-1000000J0D01*
G01*
X182200000Y-42000000D02*
X182200000Y-89400000D01*
X186200000Y-120000000D02*
X191800000Y-120000000D01*
X185800000Y-99000000D02*
X184200000Y-99000000D01*
X184200000Y-95800000D02*
X184200000Y-95400000D01*
X215400000Y-120000000D02*
X209800000Y-120000000D01*
X185800000Y-119600000D02*
X185800000Y-99800000D01*
X215800000Y-99000000D02*
X217400000Y-99000000D01*
X217000000Y-95000000D02*
X184600000Y-95000000D01*
X215800000Y-119600000D02*
X215800000Y-99800000D01*
X185800000Y-119600000D02*
G75*
G03X186200000Y-120000000I400000J0D01*
G01*
X215400000Y-120000000D02*
G75*
G03X215800000Y-119600000I0J400000D01*
G01*
X184600000Y-95000000D02*
G75*
G03X184200000Y-95400000I0J-400000D01*
G01*
X217400000Y-95400000D02*
G75*
G03X217000000Y-95000000I-400000J0D01*
G01*
X185800000Y-99800000D02*
G75*
G03X185800000Y-99000000I0J400000D01*
G01*
X215800000Y-99000000D02*
G75*
G03X215800000Y-99800000I0J-400000D01*
G01*
X217400000Y-98600000D02*
X217400000Y-99000000D01*
X184200000Y-89400000D02*
X184200000Y-89000000D01*
X186200000Y-68000000D02*
X191800000Y-68000000D01*
X215800000Y-68400000D02*
X215800000Y-88200000D01*
X185800000Y-89000000D02*
X184200000Y-89000000D01*
X184600000Y-93000000D02*
X217000000Y-93000000D01*
X185800000Y-68400000D02*
X185800000Y-88200000D01*
X215800000Y-68400000D02*
G75*
G03X215400000Y-68000000I-400000J0D01*
G01*
X186200000Y-68000000D02*
G75*
G03X185800000Y-68400000I0J-400000D01*
G01*
X217000000Y-93000000D02*
G75*
G03X217400000Y-92600000I0J400000D01*
G01*
X184200000Y-92600000D02*
G75*
G03X184600000Y-93000000I400000J0D01*
G01*
X215800000Y-88200000D02*
G75*
G03X215800000Y-89000000I0J-400000D01*
G01*
X215400000Y-68000000D02*
X209800000Y-68000000D01*
X215800000Y-89000000D02*
X217400000Y-89000000D01*
X217400000Y-92200000D02*
X217400000Y-92600000D01*
X185800000Y-89000000D02*
G75*
G03X185800000Y-88200000I0J400000D01*
G01*
X182200000Y-38800000D02*
X182200000Y-37000000D01*
X178200000Y-37000000D02*
X178200000Y-167000000D01*
X182200000Y-42000000D02*
G75*
G02X184200000Y-42000000I1000000J0D01*
G01*
X184200000Y-38800000D02*
G75*
G02X182200000Y-38800000I-1000000J0D01*
G01*
X183200000Y-36000000D02*
X218400000Y-36000000D01*
X177200000Y-36000000D02*
G75*
G02X178200000Y-37000000I0J-1000000D01*
G01*
X182200000Y-37000000D02*
G75*
G02X183200000Y-36000000I1000000J0D01*
G01*
X217400000Y-38400000D02*
X217400000Y-38800000D01*
X177200000Y-36000000D02*
X172900000Y-36000000D01*
X26600000Y-31000000D02*
X264900000Y-31000000D01*
X30600000Y-167000000D02*
X30600000Y-37000000D01*
X145300000Y-36000000D02*
X168900000Y-36000000D01*
X172900000Y-38000000D02*
G75*
G02X172900000Y-36000000I0J1000000D01*
G01*
X168900000Y-36000000D02*
G75*
G02X168900000Y-38000000I0J-1000000D01*
G01*
X97000000Y-41300000D02*
G75*
G02X100300000Y-38000000I3300000J0D01*
G01*
X131900000Y-38000000D02*
G75*
G02X135200000Y-41300000I0J-3300000D01*
G01*
X131900000Y-36000000D02*
X141300000Y-36000000D01*
X145300000Y-38000000D02*
G75*
G02X145300000Y-36000000I0J1000000D01*
G01*
X141300000Y-36000000D02*
G75*
G02X141300000Y-38000000I0J-1000000D01*
G01*
X104300000Y-36000000D02*
X127900000Y-36000000D01*
X131900000Y-38000000D02*
G75*
G02X131900000Y-36000000I0J1000000D01*
G01*
X127900000Y-36000000D02*
G75*
G02X127900000Y-38000000I0J-1000000D01*
G01*
X100300000Y-36000000D02*
G75*
G02X100300000Y-38000000I0J-1000000D01*
G01*
X104300000Y-38000000D02*
G75*
G02X104300000Y-36000000I0J1000000D01*
G01*
X92500000Y-38000000D02*
X82000000Y-38000000D01*
X82000000Y-36000000D02*
X100300000Y-36000000D01*
X78000000Y-36000000D02*
G75*
G02X78000000Y-38000000I0J-1000000D01*
G01*
X82000000Y-38000000D02*
G75*
G02X82000000Y-36000000I0J1000000D01*
G01*
X48500000Y-36000000D02*
X78000000Y-36000000D01*
X31600000Y-36000000D02*
X44500000Y-36000000D01*
X48500000Y-38000000D02*
G75*
G02X48500000Y-36000000I0J1000000D01*
G01*
X48500000Y-38000000D02*
X59000000Y-38000000D01*
X44500000Y-36000000D02*
G75*
G02X44500000Y-38000000I0J-1000000D01*
G01*
X215400000Y-131000000D02*
X212300000Y-131000000D01*
X215800000Y-152000000D02*
X217400000Y-152000000D01*
X217400000Y-155200000D02*
X217400000Y-155600000D01*
X184200000Y-155600000D02*
X184200000Y-155200000D01*
X186200000Y-131000000D02*
X189300000Y-131000000D01*
X215800000Y-131400000D02*
X215800000Y-151000000D01*
X185800000Y-152000000D02*
X184200000Y-152000000D01*
X184600000Y-156000000D02*
X217000000Y-156000000D01*
X185800000Y-131400000D02*
X185800000Y-151000000D01*
X215800000Y-131400000D02*
G75*
G03X215400000Y-131000000I-400000J0D01*
G01*
X186200000Y-131000000D02*
G75*
G03X185800000Y-131400000I0J-400000D01*
G01*
X217000000Y-156000000D02*
G75*
G03X217400000Y-155600000I0J400000D01*
G01*
X184200000Y-155600000D02*
G75*
G03X184600000Y-156000000I400000J0D01*
G01*
X215800000Y-151000000D02*
G75*
G03X215800000Y-152000000I0J-500000D01*
G01*
X185800000Y-152000000D02*
G75*
G03X185800000Y-151000000I0J500000D01*
G01*
X34000000Y-149500000D02*
G75*
G02X34000000Y-150500000I0J-500000D01*
G01*
X34000000Y-141500000D02*
G75*
G02X34000000Y-142500000I0J-500000D01*
G01*
X34000000Y-96500000D02*
G75*
G02X34000000Y-97500000I0J-500000D01*
G01*
X34000000Y-88500000D02*
G75*
G02X34000000Y-89500000I0J-500000D01*
G01*
X34000000Y-56500000D02*
G75*
G02X34000000Y-57500000I0J-500000D01*
G01*
X34000000Y-48500000D02*
G75*
G02X34000000Y-49500000I0J-500000D01*
G01*
X34000000Y-57500000D02*
X34000000Y-88500000D01*
X59000000Y-141000000D02*
G75*
G02X59000000Y-140000000I0J500000D01*
G01*
X59000000Y-99000000D02*
X59000000Y-140000000D01*
X34000000Y-156450000D02*
G75*
G02X34300000Y-156150000I300000J0D01*
G01*
X34300000Y-154450000D02*
G75*
G02X34000000Y-154150000I0J300000D01*
G01*
X34000000Y-126450000D02*
G75*
G02X34300000Y-126150000I300000J0D01*
G01*
X34300000Y-124450000D02*
G75*
G02X34000000Y-124150000I0J300000D01*
G01*
X34000000Y-106450000D02*
G75*
G02X34300000Y-106150000I300000J0D01*
G01*
X34300000Y-104450000D02*
G75*
G02X34000000Y-104150000I0J300000D01*
G01*
X34300000Y-42850000D02*
G75*
G02X34000000Y-42550000I0J300000D01*
G01*
X34000000Y-44850000D02*
G75*
G02X34300000Y-44550000I300000J0D01*
G01*
X39500000Y-155650000D02*
X39500000Y-154950000D01*
X39000000Y-154450000D02*
G75*
G02X39500000Y-154950000I0J-500000D01*
G01*
X39500000Y-155650000D02*
G75*
G02X39000000Y-156150000I-500000J0D01*
G01*
X39000000Y-124450000D02*
G75*
G02X39500000Y-124950000I0J-500000D01*
G01*
X39500000Y-125650000D02*
G75*
G02X39000000Y-126150000I-500000J0D01*
G01*
X39500000Y-125650000D02*
X39500000Y-124950000D01*
X39000000Y-104450000D02*
G75*
G02X39500000Y-104950000I0J-500000D01*
G01*
X39500000Y-105650000D02*
G75*
G02X39000000Y-106150000I-500000J0D01*
G01*
X39500000Y-105650000D02*
X39500000Y-104950000D01*
X59000000Y-48000000D02*
G75*
G02X59000000Y-47000000I0J500000D01*
G01*
X59000000Y-59000000D02*
G75*
G02X59000000Y-58000000I0J500000D01*
G01*
X59000000Y-88000000D02*
G75*
G02X59000000Y-87000000I0J500000D01*
G01*
X59000000Y-99000000D02*
G75*
G02X59000000Y-98000000I0J500000D01*
G01*
X59000000Y-152000000D02*
G75*
G02X59000000Y-151000000I0J500000D01*
G01*
X39500000Y-44050000D02*
G75*
G02X39000000Y-44550000I-500000J0D01*
G01*
X39000000Y-42850000D02*
G75*
G02X39500000Y-43350000I0J-500000D01*
G01*
X34000000Y-48500000D02*
X34000000Y-44850000D01*
X34000000Y-126450000D02*
X34000000Y-141500000D01*
X34300000Y-104450000D02*
X39000000Y-104450000D01*
X34000000Y-97500000D02*
X34000000Y-104150000D01*
X34300000Y-106150000D02*
X39000000Y-106150000D01*
X34000000Y-124150000D02*
X34000000Y-106450000D01*
X39000000Y-124450000D02*
X34300000Y-124450000D01*
X34300000Y-126150000D02*
X39000000Y-126150000D01*
X34000000Y-154150000D02*
X34000000Y-150500000D01*
X39000000Y-154450000D02*
X34300000Y-154450000D01*
X34300000Y-156150000D02*
X39000000Y-156150000D01*
X34000000Y-166000000D02*
X34000000Y-156450000D01*
X59000000Y-166000000D02*
X48500000Y-166000000D01*
X59000000Y-152000000D02*
X59000000Y-166000000D01*
X59000000Y-59000000D02*
X59000000Y-87000000D01*
X59000000Y-38000000D02*
X59000000Y-47000000D01*
X34000000Y-38000000D02*
X44500000Y-38000000D01*
X34000000Y-42550000D02*
X34000000Y-38000000D01*
X39000000Y-42850000D02*
X34300000Y-42850000D01*
X39500000Y-44050000D02*
X39500000Y-43350000D01*
X34300000Y-44550000D02*
X39000000Y-44550000D01*
X92500000Y-149500000D02*
G75*
G03X92500000Y-150500000I0J-500000D01*
G01*
X92500000Y-141500000D02*
G75*
G03X92500000Y-142500000I0J-500000D01*
G01*
X92500000Y-96500000D02*
G75*
G03X92500000Y-97500000I0J-500000D01*
G01*
X92500000Y-88500000D02*
G75*
G03X92500000Y-89500000I0J-500000D01*
G01*
X92500000Y-56500000D02*
G75*
G03X92500000Y-57500000I0J-500000D01*
G01*
X92500000Y-48500000D02*
G75*
G03X92500000Y-49500000I0J-500000D01*
G01*
X92500000Y-57500000D02*
X92500000Y-88500000D01*
X67500000Y-141000000D02*
G75*
G03X67500000Y-140000000I0J500000D01*
G01*
X67500000Y-99000000D02*
X67500000Y-140000000D01*
X92500000Y-156450000D02*
G75*
G03X92200000Y-156150000I-300000J0D01*
G01*
X92200000Y-154450000D02*
G75*
G03X92500000Y-154150000I0J300000D01*
G01*
X92500000Y-126450000D02*
G75*
G03X92200000Y-126150000I-300000J0D01*
G01*
X92200000Y-124450000D02*
G75*
G03X92500000Y-124150000I0J300000D01*
G01*
X92500000Y-106450000D02*
G75*
G03X92200000Y-106150000I-300000J0D01*
G01*
X92200000Y-104450000D02*
G75*
G03X92500000Y-104150000I0J300000D01*
G01*
X92200000Y-42850000D02*
G75*
G03X92500000Y-42550000I0J300000D01*
G01*
X92500000Y-44850000D02*
G75*
G03X92200000Y-44550000I-300000J0D01*
G01*
X87000000Y-155650000D02*
X87000000Y-154950000D01*
X87500000Y-154450000D02*
G75*
G03X87000000Y-154950000I0J-500000D01*
G01*
X87000000Y-155650000D02*
G75*
G03X87500000Y-156150000I500000J0D01*
G01*
X87500000Y-124450000D02*
G75*
G03X87000000Y-124950000I0J-500000D01*
G01*
X87000000Y-125650000D02*
G75*
G03X87500000Y-126150000I500000J0D01*
G01*
X87000000Y-125650000D02*
X87000000Y-124950000D01*
X87500000Y-104450000D02*
G75*
G03X87000000Y-104950000I0J-500000D01*
G01*
X87000000Y-105650000D02*
G75*
G03X87500000Y-106150000I500000J0D01*
G01*
X87000000Y-105650000D02*
X87000000Y-104950000D01*
X67500000Y-48000000D02*
G75*
G03X67500000Y-47000000I0J500000D01*
G01*
X67500000Y-59000000D02*
G75*
G03X67500000Y-58000000I0J500000D01*
G01*
X67500000Y-88000000D02*
G75*
G03X67500000Y-87000000I0J500000D01*
G01*
X67500000Y-99000000D02*
G75*
G03X67500000Y-98000000I0J500000D01*
G01*
X67500000Y-152000000D02*
G75*
G03X67500000Y-151000000I0J500000D01*
G01*
X87000000Y-44050000D02*
G75*
G03X87500000Y-44550000I500000J0D01*
G01*
X87500000Y-42850000D02*
G75*
G03X87000000Y-43350000I0J-500000D01*
G01*
X92500000Y-48500000D02*
X92500000Y-44850000D01*
X92500000Y-126450000D02*
X92500000Y-141500000D01*
X92200000Y-104450000D02*
X87500000Y-104450000D01*
X92500000Y-97500000D02*
X92500000Y-104150000D01*
X92200000Y-106150000D02*
X87500000Y-106150000D01*
X92500000Y-124150000D02*
X92500000Y-106450000D01*
X87500000Y-124450000D02*
X92200000Y-124450000D01*
X92200000Y-126150000D02*
X87500000Y-126150000D01*
X92500000Y-154150000D02*
X92500000Y-150500000D01*
X87500000Y-154450000D02*
X92200000Y-154450000D01*
X92200000Y-156150000D02*
X87500000Y-156150000D01*
X92500000Y-166000000D02*
X92500000Y-156450000D01*
X82000000Y-166000000D02*
X92500000Y-166000000D01*
X67500000Y-152000000D02*
X67500000Y-166000000D01*
X67500000Y-59000000D02*
X67500000Y-87000000D01*
X67500000Y-38000000D02*
X67500000Y-47000000D01*
X78000000Y-38000000D02*
X67500000Y-38000000D01*
X92500000Y-42550000D02*
X92500000Y-38000000D01*
X87500000Y-42850000D02*
X92200000Y-42850000D01*
X87000000Y-44050000D02*
X87000000Y-43350000D01*
X92200000Y-44550000D02*
X87500000Y-44550000D01*
X135200000Y-41300000D02*
X135200000Y-162700000D01*
X104300000Y-38000000D02*
X127900000Y-38000000D01*
X97000000Y-162700000D02*
X97000000Y-41300000D01*
X127900000Y-166000000D02*
X104300000Y-166000000D01*
X176200000Y-162700000D02*
G75*
G02X172900000Y-166000000I-3300000J0D01*
G01*
X141300000Y-166000000D02*
G75*
G02X138000000Y-162700000I0J3300000D01*
G01*
X172900000Y-38000000D02*
G75*
G02X176200000Y-41300000I0J-3300000D01*
G01*
X138000000Y-41300000D02*
G75*
G02X141300000Y-38000000I3300000J0D01*
G01*
X176200000Y-41300000D02*
X176200000Y-162700000D01*
X145300000Y-38000000D02*
X168900000Y-38000000D01*
X138000000Y-162700000D02*
X138000000Y-41300000D01*
X168900000Y-166000000D02*
X145300000Y-166000000D01*
X215800000Y-42000000D02*
G75*
G03X215800000Y-42800000I0J-400000D01*
G01*
X185800000Y-42800000D02*
G75*
G03X185800000Y-42000000I0J400000D01*
G01*
X217400000Y-38400000D02*
G75*
G03X217000000Y-38000000I-400000J0D01*
G01*
X184600000Y-38000000D02*
G75*
G03X184200000Y-38400000I0J-400000D01*
G01*
X215400000Y-63000000D02*
G75*
G03X215800000Y-62600000I0J400000D01*
G01*
X185800000Y-62600000D02*
G75*
G03X186200000Y-63000000I400000J0D01*
G01*
X215800000Y-62600000D02*
X215800000Y-42800000D01*
X217000000Y-38000000D02*
X184600000Y-38000000D01*
X215800000Y-42000000D02*
X217400000Y-42000000D01*
X185800000Y-62600000D02*
X185800000Y-42800000D01*
X215400000Y-63000000D02*
X209800000Y-63000000D01*
X184200000Y-38800000D02*
X184200000Y-38400000D01*
X185800000Y-42000000D02*
X184200000Y-42000000D01*
X186200000Y-63000000D02*
X191800000Y-63000000D01*
X263800000Y-93100000D02*
G75*
G02X260500000Y-96400000I-3300000J0D01*
G01*
X228900000Y-96400000D02*
G75*
G02X225600000Y-93100000I0J3300000D01*
G01*
X260500000Y-38000000D02*
G75*
G02X263800000Y-41300000I0J-3300000D01*
G01*
X225600000Y-41300000D02*
G75*
G02X228900000Y-38000000I3300000J0D01*
G01*
X263800000Y-41300000D02*
X263800000Y-93100000D01*
X232900000Y-38000000D02*
X256500000Y-38000000D01*
X225600000Y-93100000D02*
X225600000Y-41300000D01*
X256500000Y-96400000D02*
X232900000Y-96400000D01*
X256900000Y-108400000D02*
G75*
G03X256900000Y-109400000I0J-500000D01*
G01*
X226900000Y-109400000D02*
G75*
G03X226900000Y-108400000I0J500000D01*
G01*
X258500000Y-104800000D02*
G75*
G03X258100000Y-104400000I-400000J0D01*
G01*
X225700000Y-104400000D02*
G75*
G03X225300000Y-104800000I0J-400000D01*
G01*
X256500000Y-129400000D02*
G75*
G03X256900000Y-129000000I0J400000D01*
G01*
X226900000Y-129000000D02*
G75*
G03X227300000Y-129400000I400000J0D01*
G01*
X256900000Y-129000000D02*
X256900000Y-109400000D01*
X258100000Y-104400000D02*
X225700000Y-104400000D01*
X256900000Y-108400000D02*
X258500000Y-108400000D01*
X226900000Y-129000000D02*
X226900000Y-109400000D01*
X256500000Y-129400000D02*
X248400000Y-129400000D01*
X258500000Y-104800000D02*
X258500000Y-105200000D01*
X225300000Y-105200000D02*
X225300000Y-104800000D01*
X226900000Y-108400000D02*
X225300000Y-108400000D01*
X227300000Y-129400000D02*
X235400000Y-129400000D01*
D11*
G04 #@! TO.C,MK2*
X239900000Y-132900000D02*
X237400000Y-132900000D01*
X236900000Y-134400000D02*
G75*
G02X235400000Y-134400000I-750000J0D01*
G01*
X248400000Y-134400000D02*
G75*
G02X246900000Y-134400000I-750000J0D01*
G01*
X236900000Y-133400000D02*
G75*
G02X237400000Y-132900000I500000J0D01*
G01*
X246400000Y-132900000D02*
G75*
G02X246900000Y-133400000I0J-500000D01*
G01*
X246900000Y-133400000D02*
X246900000Y-134400000D01*
X236900000Y-133400000D02*
X236900000Y-134400000D01*
X246400000Y-132900000D02*
X243900000Y-132900000D01*
X243900000Y-130900000D02*
X246400000Y-130900000D01*
X246900000Y-129400000D02*
G75*
G02X248400000Y-129400000I750000J0D01*
G01*
X235400000Y-129400000D02*
G75*
G02X236900000Y-129400000I750000J0D01*
G01*
X246900000Y-130400000D02*
G75*
G02X246400000Y-130900000I-500000J0D01*
G01*
X237400000Y-130900000D02*
G75*
G02X236900000Y-130400000I0J500000D01*
G01*
X236900000Y-130400000D02*
X236900000Y-129400000D01*
X246900000Y-130400000D02*
X246900000Y-129400000D01*
X237400000Y-130900000D02*
X239900000Y-130900000D01*
G04 #@! TO.C,MK501*
X196550000Y-131000000D02*
G75*
G02X195800000Y-130250000I0J750000D01*
G01*
X190800000Y-131000000D02*
G75*
G02X189300000Y-131000000I-750000J0D01*
G01*
X190800000Y-130000000D02*
X190800000Y-131000000D01*
X205800000Y-130000000D02*
G75*
G02X206300000Y-129500000I500000J0D01*
G01*
X195300000Y-129500000D02*
G75*
G02X195800000Y-130000000I0J-500000D01*
G01*
X210800000Y-130000000D02*
X210800000Y-131000000D01*
X205800000Y-130250000D02*
G75*
G02X205050000Y-131000000I-750000J0D01*
G01*
X205800000Y-130000000D02*
X205800000Y-130250000D01*
X205050000Y-131000000D02*
X196550000Y-131000000D01*
X195800000Y-130250000D02*
X195800000Y-130000000D01*
X190800000Y-130000000D02*
G75*
G02X191300000Y-129500000I500000J0D01*
G01*
X210300000Y-129500000D02*
G75*
G02X210800000Y-130000000I0J-500000D01*
G01*
X212300000Y-131000000D02*
G75*
G02X210800000Y-131000000I-750000J0D01*
G01*
G04 #@! TO.C,MK601*
X198300000Y-121000000D02*
X198300000Y-120750000D01*
X203300000Y-120750000D02*
X203300000Y-121000000D01*
X193300000Y-121000000D02*
X193300000Y-120000000D01*
X208300000Y-121000000D02*
X208300000Y-120000000D01*
X193800000Y-121500000D02*
G75*
G02X193300000Y-121000000I0J500000D01*
G01*
X198300000Y-121000000D02*
G75*
G02X197800000Y-121500000I-500000J0D01*
G01*
X203800000Y-121500000D02*
G75*
G02X203300000Y-121000000I0J500000D01*
G01*
X208300000Y-121000000D02*
G75*
G02X207800000Y-121500000I-500000J0D01*
G01*
X199050000Y-120000000D02*
X202550000Y-120000000D01*
X191800000Y-120000000D02*
G75*
G02X193300000Y-120000000I750000J0D01*
G01*
X208300000Y-120000000D02*
G75*
G02X209800000Y-120000000I750000J0D01*
G01*
X202550000Y-120000000D02*
G75*
G02X203300000Y-120750000I0J-750000D01*
G01*
X198300000Y-120750000D02*
G75*
G02X199050000Y-120000000I750000J0D01*
G01*
X203300000Y-67000000D02*
X203300000Y-67250000D01*
X198300000Y-67250000D02*
X198300000Y-67000000D01*
X208300000Y-67000000D02*
X208300000Y-68000000D01*
X193300000Y-67000000D02*
X193300000Y-68000000D01*
X207800000Y-66500000D02*
G75*
G02X208300000Y-67000000I0J-500000D01*
G01*
X203300000Y-67000000D02*
G75*
G02X203800000Y-66500000I500000J0D01*
G01*
X197800000Y-66500000D02*
G75*
G02X198300000Y-67000000I0J-500000D01*
G01*
X193300000Y-67000000D02*
G75*
G02X193800000Y-66500000I500000J0D01*
G01*
X202550000Y-68000000D02*
X199050000Y-68000000D01*
X209800000Y-68000000D02*
G75*
G02X208300000Y-68000000I-750000J0D01*
G01*
X193300000Y-68000000D02*
G75*
G02X191800000Y-68000000I-750000J0D01*
G01*
X199050000Y-68000000D02*
G75*
G02X198300000Y-67250000I0J750000D01*
G01*
X203300000Y-67250000D02*
G75*
G02X202550000Y-68000000I-750000J0D01*
G01*
X198300000Y-64000000D02*
X198300000Y-63750000D01*
X203300000Y-63750000D02*
X203300000Y-64000000D01*
X193300000Y-64000000D02*
X193300000Y-63000000D01*
X208300000Y-64000000D02*
X208300000Y-63000000D01*
X193800000Y-64500000D02*
G75*
G02X193300000Y-64000000I0J500000D01*
G01*
X198300000Y-64000000D02*
G75*
G02X197800000Y-64500000I-500000J0D01*
G01*
X203800000Y-64500000D02*
G75*
G02X203300000Y-64000000I0J500000D01*
G01*
X208300000Y-64000000D02*
G75*
G02X207800000Y-64500000I-500000J0D01*
G01*
X199050000Y-63000000D02*
X202550000Y-63000000D01*
X191800000Y-63000000D02*
G75*
G02X193300000Y-63000000I750000J0D01*
G01*
X208300000Y-63000000D02*
G75*
G02X209800000Y-63000000I750000J0D01*
G01*
X202550000Y-63000000D02*
G75*
G02X203300000Y-63750000I0J-750000D01*
G01*
X198300000Y-63750000D02*
G75*
G02X199050000Y-63000000I750000J0D01*
G01*
D12*
G04 #@! TO.C,MK404*
X53200000Y-118800000D02*
X52450000Y-118800000D01*
X53200000Y-111800000D02*
X52450000Y-111800000D01*
X50950000Y-117300000D02*
G75*
G03X52450000Y-118800000I1500000J0D01*
G01*
X53200000Y-118800000D02*
G75*
G03X54700000Y-117300000I0J1500000D01*
G01*
X52450000Y-111800000D02*
G75*
G03X50950000Y-113300000I0J-1500000D01*
G01*
X54700000Y-113300000D02*
G75*
G03X53200000Y-111800000I-1500000J0D01*
G01*
X54700000Y-113300000D02*
X54700000Y-117300000D01*
X50950000Y-113300000D02*
X50950000Y-117300000D01*
G04 #@! TO.C,MK403*
X32500000Y-149100000D02*
G75*
G03X32900000Y-149500000I400000J0D01*
G01*
X32900000Y-142500000D02*
G75*
G03X32500000Y-142900000I0J-400000D01*
G01*
X32900000Y-149500000D02*
X34000000Y-149500000D01*
X32900000Y-142500000D02*
X34000000Y-142500000D01*
X32500000Y-149100000D02*
X32500000Y-142900000D01*
G04 #@! TO.C,MK402*
X32500000Y-56100000D02*
G75*
G03X32900000Y-56500000I400000J0D01*
G01*
X32900000Y-49500000D02*
G75*
G03X32500000Y-49900000I0J-400000D01*
G01*
X32900000Y-56500000D02*
X34000000Y-56500000D01*
X32900000Y-49500000D02*
X34000000Y-49500000D01*
X32500000Y-56100000D02*
X32500000Y-49900000D01*
G04 #@! TO.C,MK401*
X32500000Y-96100000D02*
G75*
G03X32900000Y-96500000I400000J0D01*
G01*
X32900000Y-89500000D02*
G75*
G03X32500000Y-89900000I0J-400000D01*
G01*
X32900000Y-96500000D02*
X34000000Y-96500000D01*
X32900000Y-89500000D02*
X34000000Y-89500000D01*
X32500000Y-96100000D02*
X32500000Y-89900000D01*
G04 #@! TO.C,P405*
X62000000Y-88400000D02*
G75*
G03X61600000Y-88000000I-400000J0D01*
G01*
X61600000Y-98000000D02*
G75*
G03X62000000Y-97600000I0J400000D01*
G01*
X61600000Y-88000000D02*
X59000000Y-88000000D01*
X61600000Y-98000000D02*
X59000000Y-98000000D01*
X62000000Y-88400000D02*
X62000000Y-97600000D01*
G04 #@! TO.C,P406*
X62000000Y-141400000D02*
G75*
G03X61600000Y-141000000I-400000J0D01*
G01*
X61600000Y-151000000D02*
G75*
G03X62000000Y-150600000I0J400000D01*
G01*
X61600000Y-141000000D02*
X59000000Y-141000000D01*
X61600000Y-151000000D02*
X59000000Y-151000000D01*
X62000000Y-141400000D02*
X62000000Y-150600000D01*
G04 #@! TO.C,P404*
X62000000Y-48400000D02*
G75*
G03X61600000Y-48000000I-400000J0D01*
G01*
X61600000Y-58000000D02*
G75*
G03X62000000Y-57600000I0J400000D01*
G01*
X61600000Y-48000000D02*
X59000000Y-48000000D01*
X61600000Y-58000000D02*
X59000000Y-58000000D01*
X62000000Y-48400000D02*
X62000000Y-57600000D01*
G04 #@! TO.C,MK304*
X73300000Y-118800000D02*
X74050000Y-118800000D01*
X73300000Y-111800000D02*
X74050000Y-111800000D01*
X75550000Y-117300000D02*
G75*
G02X74050000Y-118800000I-1500000J0D01*
G01*
X73300000Y-118800000D02*
G75*
G02X71800000Y-117300000I0J1500000D01*
G01*
X74050000Y-111800000D02*
G75*
G02X75550000Y-113300000I0J-1500000D01*
G01*
X71800000Y-113300000D02*
G75*
G02X73300000Y-111800000I1500000J0D01*
G01*
X71800000Y-113300000D02*
X71800000Y-117300000D01*
X75550000Y-113300000D02*
X75550000Y-117300000D01*
G04 #@! TO.C,MK303*
X94000000Y-149100000D02*
G75*
G02X93600000Y-149500000I-400000J0D01*
G01*
X93600000Y-142500000D02*
G75*
G02X94000000Y-142900000I0J-400000D01*
G01*
X93600000Y-149500000D02*
X92500000Y-149500000D01*
X93600000Y-142500000D02*
X92500000Y-142500000D01*
X94000000Y-149100000D02*
X94000000Y-142900000D01*
G04 #@! TO.C,MK302*
X94000000Y-56100000D02*
G75*
G02X93600000Y-56500000I-400000J0D01*
G01*
X93600000Y-49500000D02*
G75*
G02X94000000Y-49900000I0J-400000D01*
G01*
X93600000Y-56500000D02*
X92500000Y-56500000D01*
X93600000Y-49500000D02*
X92500000Y-49500000D01*
X94000000Y-56100000D02*
X94000000Y-49900000D01*
G04 #@! TO.C,MK301*
X94000000Y-96100000D02*
G75*
G02X93600000Y-96500000I-400000J0D01*
G01*
X93600000Y-89500000D02*
G75*
G02X94000000Y-89900000I0J-400000D01*
G01*
X93600000Y-96500000D02*
X92500000Y-96500000D01*
X93600000Y-89500000D02*
X92500000Y-89500000D01*
X94000000Y-96100000D02*
X94000000Y-89900000D01*
G04 #@! TO.C,P305*
X64500000Y-88400000D02*
G75*
G02X64900000Y-88000000I400000J0D01*
G01*
X64900000Y-98000000D02*
G75*
G02X64500000Y-97600000I0J400000D01*
G01*
X64900000Y-88000000D02*
X67500000Y-88000000D01*
X64900000Y-98000000D02*
X67500000Y-98000000D01*
X64500000Y-88400000D02*
X64500000Y-97600000D01*
G04 #@! TO.C,P306*
X64500000Y-141400000D02*
G75*
G02X64900000Y-141000000I400000J0D01*
G01*
X64900000Y-151000000D02*
G75*
G02X64500000Y-150600000I0J400000D01*
G01*
X64900000Y-141000000D02*
X67500000Y-141000000D01*
X64900000Y-151000000D02*
X67500000Y-151000000D01*
X64500000Y-141400000D02*
X64500000Y-150600000D01*
G04 #@! TO.C,P304*
X64500000Y-48400000D02*
G75*
G02X64900000Y-48000000I400000J0D01*
G01*
X64900000Y-58000000D02*
G75*
G02X64500000Y-57600000I0J400000D01*
G01*
X64900000Y-48000000D02*
X67500000Y-48000000D01*
X64900000Y-58000000D02*
X67500000Y-58000000D01*
X64500000Y-48400000D02*
X64500000Y-57600000D01*
G04 #@! TO.C,J111*
X131050000Y-48000000D02*
X131050000Y-58000000D01*
X132750000Y-48000000D02*
X132750000Y-58000000D01*
X132748691Y-48047150D02*
G75*
G03X131050000Y-48000000I-848691J47150D01*
G01*
X131050000Y-58000000D02*
G75*
G03X132750000Y-58000000I850000J0D01*
G01*
G04 #@! TO.C,J103*
X99450000Y-48000000D02*
X99450000Y-58000000D01*
X101150000Y-48000000D02*
X101150000Y-58000000D01*
X101148691Y-48047150D02*
G75*
G03X99450000Y-48000000I-848691J47150D01*
G01*
X99450000Y-58000000D02*
G75*
G03X101150000Y-58000000I850000J0D01*
G01*
G04 #@! TO.C,J104*
X131050000Y-141000000D02*
X131050000Y-151000000D01*
X132750000Y-141000000D02*
X132750000Y-151000000D01*
X132748691Y-141047150D02*
G75*
G03X131050000Y-141000000I-848691J47150D01*
G01*
X131050000Y-151000000D02*
G75*
G03X132750000Y-151000000I850000J0D01*
G01*
G04 #@! TO.C,J110*
X99450000Y-141000000D02*
X99450000Y-151000000D01*
X101150000Y-141000000D02*
X101150000Y-151000000D01*
X101148691Y-141047150D02*
G75*
G03X99450000Y-141000000I-848691J47150D01*
G01*
X99450000Y-151000000D02*
G75*
G03X101150000Y-151000000I850000J0D01*
G01*
G04 #@! TO.C,J108*
X131050000Y-96500000D02*
G75*
G03X131050000Y-98000000I0J-750000D01*
G01*
X132750000Y-98000000D02*
G75*
G03X132750000Y-96500000I0J750000D01*
G01*
X132750000Y-89500000D02*
G75*
G03X132750000Y-88000000I0J750000D01*
G01*
X131050000Y-88000000D02*
G75*
G03X131050000Y-89500000I0J-750000D01*
G01*
X131050000Y-98000000D02*
X132750000Y-98000000D01*
X131050000Y-88000000D02*
X132750000Y-88000000D01*
X132750000Y-89500000D02*
X132750000Y-96500000D01*
X131050000Y-89500000D02*
X131050000Y-96500000D01*
G04 #@! TO.C,J109*
X99450000Y-96500000D02*
G75*
G03X99450000Y-98000000I0J-750000D01*
G01*
X101150000Y-98000000D02*
G75*
G03X101150000Y-96500000I0J750000D01*
G01*
X101150000Y-89500000D02*
G75*
G03X101150000Y-88000000I0J750000D01*
G01*
X99450000Y-88000000D02*
G75*
G03X99450000Y-89500000I0J-750000D01*
G01*
X99450000Y-98000000D02*
X101150000Y-98000000D01*
X99450000Y-88000000D02*
X101150000Y-88000000D01*
X101150000Y-89500000D02*
X101150000Y-96500000D01*
X99450000Y-89500000D02*
X99450000Y-96500000D01*
D11*
G04 #@! TO.C,MK103*
X112600000Y-106150000D02*
G75*
G02X111100000Y-106150000I-750000J0D01*
G01*
X121100000Y-106150000D02*
G75*
G02X119600000Y-106150000I-750000J0D01*
G01*
X111100000Y-104450000D02*
G75*
G02X112600000Y-104450000I750000J0D01*
G01*
X112600000Y-104450000D02*
X119600000Y-104450000D01*
X112600000Y-106150000D02*
X119600000Y-106150000D01*
X119600000Y-104450000D02*
G75*
G02X121100000Y-104450000I750000J0D01*
G01*
X111100000Y-104450000D02*
X111100000Y-106150000D01*
X121100000Y-104450000D02*
X121100000Y-106150000D01*
G04 #@! TO.C,MK101*
X108600000Y-42850000D02*
X108600000Y-44550000D01*
X110100000Y-42850000D02*
X112850000Y-42850000D01*
X108600000Y-42850000D02*
G75*
G02X110100000Y-42850000I750000J0D01*
G01*
X110100000Y-44550000D02*
G75*
G02X108600000Y-44550000I-750000J0D01*
G01*
X110100000Y-44550000D02*
X112850000Y-44550000D01*
X123600000Y-44550000D02*
X123600000Y-42850000D01*
X123600000Y-44550000D02*
G75*
G02X122100000Y-44550000I-750000J0D01*
G01*
X122100000Y-44550000D02*
X119350000Y-44550000D01*
X122100000Y-42850000D02*
G75*
G02X123600000Y-42850000I750000J0D01*
G01*
X122100000Y-42850000D02*
X119350000Y-42850000D01*
X112850000Y-42850000D02*
G75*
G02X114350000Y-42850000I750000J0D01*
G01*
X114350000Y-44550000D02*
G75*
G02X112850000Y-44550000I-750000J0D01*
G01*
X114350000Y-42850000D02*
X114350000Y-44550000D01*
X117850000Y-42850000D02*
G75*
G02X119350000Y-42850000I750000J0D01*
G01*
X119350000Y-44550000D02*
G75*
G02X117850000Y-44550000I-750000J0D01*
G01*
X117850000Y-42850000D02*
X117850000Y-44550000D01*
G04 #@! TO.C,MK102*
X112600000Y-126150000D02*
G75*
G02X111100000Y-126150000I-750000J0D01*
G01*
X121100000Y-126150000D02*
G75*
G02X119600000Y-126150000I-750000J0D01*
G01*
X111100000Y-124450000D02*
G75*
G02X112600000Y-124450000I750000J0D01*
G01*
X112600000Y-124450000D02*
X119600000Y-124450000D01*
X112600000Y-126150000D02*
X119600000Y-126150000D01*
X119600000Y-124450000D02*
G75*
G02X121100000Y-124450000I750000J0D01*
G01*
X111100000Y-124450000D02*
X111100000Y-126150000D01*
X121100000Y-124450000D02*
X121100000Y-126150000D01*
G04 #@! TO.C,MK104*
X126100000Y-156150000D02*
G75*
G02X124600000Y-156150000I-750000J0D01*
G01*
X110350000Y-154450000D02*
G75*
G02X111850000Y-154450000I750000J0D01*
G01*
X124600000Y-156150000D02*
X121850000Y-156150000D01*
X106100000Y-154450000D02*
X106100000Y-156150000D01*
X111850000Y-154450000D02*
X111850000Y-156150000D01*
X121850000Y-156150000D02*
G75*
G02X120350000Y-156150000I-750000J0D01*
G01*
X106100000Y-154450000D02*
G75*
G02X107600000Y-154450000I750000J0D01*
G01*
X126100000Y-156100000D02*
X126100000Y-154450000D01*
X107600000Y-154450000D02*
X110350000Y-154450000D01*
X120350000Y-154450000D02*
X120350000Y-156150000D01*
X124600000Y-154450000D02*
G75*
G02X126100000Y-154450000I750000J0D01*
G01*
X120350000Y-154450000D02*
G75*
G02X121850000Y-154450000I750000J0D01*
G01*
X107600000Y-156150000D02*
G75*
G02X106100000Y-156150000I-750000J0D01*
G01*
X124600000Y-154450000D02*
X121850000Y-154450000D01*
X111850000Y-156150000D02*
G75*
G02X110350000Y-156150000I-750000J0D01*
G01*
X107600000Y-156150000D02*
X110350000Y-156150000D01*
D12*
G04 #@! TO.C,MK206*
X163600000Y-120750000D02*
G75*
G02X162550000Y-121800000I-550000J-500000D01*
G01*
X162550000Y-108800000D02*
G75*
G02X163600000Y-109850000I500000J-550000D01*
G01*
X150600000Y-109850000D02*
G75*
G02X151650000Y-108800000I550000J500000D01*
G01*
X151650000Y-121800000D02*
G75*
G02X150600000Y-120750000I-500000J550000D01*
G01*
X162550000Y-121800000D02*
X159600000Y-121800000D01*
X159600000Y-121800000D02*
G75*
G02X159000000Y-122400000I-600000J0D01*
G01*
X155200000Y-122400000D02*
G75*
G02X154600000Y-121800000I0J600000D01*
G01*
X159000000Y-122400000D02*
X155200000Y-122400000D01*
X159000000Y-108200000D02*
G75*
G02X159600000Y-108800000I0J-600000D01*
G01*
X154600000Y-108800000D02*
G75*
G02X155200000Y-108200000I600000J0D01*
G01*
X159600000Y-108800000D02*
X162550000Y-108800000D01*
X155200000Y-108200000D02*
X159000000Y-108200000D01*
X151650000Y-108800000D02*
X154600000Y-108800000D01*
X163600000Y-109850000D02*
X163600000Y-120750000D01*
X154600000Y-121800000D02*
X151650000Y-121800000D01*
X150600000Y-120750000D02*
X150600000Y-109850000D01*
G04 #@! TO.C,J201*
X140450000Y-56500000D02*
G75*
G03X142150000Y-56500000I850000J0D01*
G01*
X142150000Y-49500000D02*
G75*
G03X140450000Y-49500000I-850000J0D01*
G01*
X142150000Y-49500000D02*
X142150000Y-56500000D01*
X140450000Y-49500000D02*
X140450000Y-56500000D01*
G04 #@! TO.C,J209*
X140450000Y-149500000D02*
G75*
G03X142150000Y-149500000I850000J0D01*
G01*
X142150000Y-142500000D02*
G75*
G03X140450000Y-142500000I-850000J0D01*
G01*
X142150000Y-142500000D02*
X142150000Y-149500000D01*
X140450000Y-142500000D02*
X140450000Y-149500000D01*
G04 #@! TO.C,J206*
X140450000Y-96500000D02*
G75*
G03X142150000Y-96500000I850000J0D01*
G01*
X142150000Y-89500000D02*
G75*
G03X140450000Y-89500000I-850000J0D01*
G01*
X142150000Y-89500000D02*
X142150000Y-96500000D01*
X140450000Y-89500000D02*
X140450000Y-96500000D01*
G04 #@! TO.C,J205*
X172050000Y-96500000D02*
G75*
G03X173750000Y-96500000I850000J0D01*
G01*
X173750000Y-89500000D02*
G75*
G03X172050000Y-89500000I-850000J0D01*
G01*
X173750000Y-89500000D02*
X173750000Y-96500000D01*
X172050000Y-89500000D02*
X172050000Y-96500000D01*
G04 #@! TO.C,J202*
X172050000Y-149500000D02*
G75*
G03X173750000Y-149500000I850000J0D01*
G01*
X173750000Y-142500000D02*
G75*
G03X172050000Y-142500000I-850000J0D01*
G01*
X173750000Y-142500000D02*
X173750000Y-149500000D01*
X172050000Y-142500000D02*
X172050000Y-149500000D01*
G04 #@! TO.C,J210*
X172050000Y-56500000D02*
G75*
G03X173750000Y-56500000I850000J0D01*
G01*
X173750000Y-49500000D02*
G75*
G03X172050000Y-49500000I-850000J0D01*
G01*
X173750000Y-49500000D02*
X173750000Y-56500000D01*
X172050000Y-49500000D02*
X172050000Y-56500000D01*
G04 #@! TO.C,U1*
X232000000Y-60000000D02*
X232000000Y-86500000D01*
X257500000Y-60000000D02*
X232000000Y-60000000D01*
X257500000Y-86500000D02*
X257500000Y-60000000D01*
X232000000Y-86500000D02*
X257500000Y-86500000D01*
G04 #@! TD*
M02*
