M48
;DRILL file {KiCad (6.0.0-rc1-dev-509-gcac7479)} date Tue Oct 23 14:14:04 2018
;FORMAT={-:-/ absolute / metric / decimal}
FMAT,2
METRIC,TZ
T1C0.300
T2C0.400
T3C0.600
T4C0.850
T5C0.900
%
G90
G05
M71
T1
X143.7Y-77.1
X143.7Y-79.3
X144.8Y-69.9
X148.7Y-59.75
X149.Y-54.25
X149.1Y-62.4
X149.48Y-79.68
X150.51Y-82.02
X151.895Y-74.48
X152.95Y-68.25
X154.18Y-78.22
X154.3Y-69.65
X154.35Y-66.2
X154.575Y-75.846
X154.95Y-79.4
X155.Y-80.8
X155.15Y-63.4
X155.25Y-54.25
X155.316Y-75.959
X155.85Y-72.15
X156.65Y-81.15
X157.25Y-84.55
X157.25Y-86.05
X157.6Y-76.9
X157.671Y-80.971
X157.7Y-77.9
X159.15Y-63.45
X159.9Y-62.6
X159.9Y-76.7
X159.95Y-69.75
X160.175Y-65.903
X160.437Y-73.55
X160.9Y-74.8
X162.15Y-73.65
X162.2Y-70.95
X162.4Y-69.75
X162.5Y-78.35
X162.883Y-81.45
X162.9Y-80.7
X163.1Y-79.9
X163.5Y-78.45
X163.75Y-76.55
X163.8Y-70.05
X164.6Y-78.5
X164.65Y-61.9
X165.25Y-54.25
X231.Y-42.3
X167.33Y-132.459
X167.33Y-133.475
X167.33Y-134.491
X167.33Y-137.524
X167.33Y-138.54
X167.33Y-139.556
X169.87Y-132.459
X169.87Y-133.475
X169.87Y-134.491
X169.87Y-137.524
X169.87Y-138.54
X169.87Y-139.556
X78.912Y-61.349
X78.912Y-62.111
X78.912Y-63.889
X78.912Y-64.651
X79.928Y-61.73
X79.928Y-64.27
X80.944Y-61.349
X80.944Y-62.111
X80.944Y-63.889
X80.944Y-64.651
X88.056Y-61.349
X88.056Y-62.111
X88.056Y-63.889
X88.056Y-64.651
X89.072Y-61.73
X89.072Y-64.27
X90.088Y-61.349
X90.088Y-62.111
X90.088Y-63.889
X90.088Y-64.651
X61.25Y-48.75
X61.25Y-49.25
X61.25Y-49.75
X61.25Y-51.25
X61.25Y-51.75
X61.25Y-52.25
X61.25Y-53.75
X61.25Y-54.25
X61.25Y-54.75
X61.25Y-56.25
X61.25Y-56.75
X61.25Y-57.25
X98.15Y-142.25
X98.15Y-144.75
X98.15Y-147.25
X98.15Y-149.75
X98.85Y-141.85
X98.85Y-142.65
X98.85Y-144.35
X98.85Y-145.15
X98.85Y-146.85
X98.85Y-147.65
X98.85Y-149.35
X98.85Y-150.15
X101.75Y-141.85
X101.75Y-142.65
X101.75Y-144.35
X101.75Y-145.15
X101.75Y-146.85
X101.75Y-147.65
X101.75Y-149.35
X101.75Y-150.15
X102.45Y-142.25
X102.45Y-144.75
X102.45Y-147.25
X102.45Y-149.75
X78.912Y-134.349
X78.912Y-135.111
X78.912Y-136.889
X78.912Y-137.651
X79.928Y-134.73
X79.928Y-137.27
X80.944Y-134.349
X80.944Y-135.111
X80.944Y-136.889
X80.944Y-137.651
X88.056Y-134.349
X88.056Y-135.111
X88.056Y-136.889
X88.056Y-137.651
X89.072Y-134.73
X89.072Y-137.27
X90.088Y-134.349
X90.088Y-135.111
X90.088Y-136.889
X90.088Y-137.651
X36.412Y-61.349
X36.412Y-62.111
X36.412Y-63.889
X36.412Y-64.651
X37.428Y-61.73
X37.428Y-64.27
X38.444Y-61.349
X38.444Y-62.111
X38.444Y-63.889
X38.444Y-64.651
X45.556Y-61.349
X45.556Y-62.111
X45.556Y-63.889
X45.556Y-64.651
X46.572Y-61.73
X46.572Y-64.27
X47.588Y-61.349
X47.588Y-62.111
X47.588Y-63.889
X47.588Y-64.651
X65.25Y-90.
X65.25Y-90.5
X65.25Y-91.
X65.25Y-92.5
X65.25Y-93.
X65.25Y-93.5
X65.25Y-95.
X65.25Y-95.5
X65.25Y-96.
X65.25Y-48.75
X65.25Y-49.25
X65.25Y-49.75
X65.25Y-51.25
X65.25Y-51.75
X65.25Y-52.25
X65.25Y-53.75
X65.25Y-54.25
X65.25Y-54.75
X65.25Y-56.25
X65.25Y-56.75
X65.25Y-57.25
X36.412Y-134.349
X36.412Y-135.111
X36.412Y-136.889
X36.412Y-137.651
X37.428Y-134.73
X37.428Y-137.27
X38.444Y-134.349
X38.444Y-135.111
X38.444Y-136.889
X38.444Y-137.651
X45.556Y-134.349
X45.556Y-135.111
X45.556Y-136.889
X45.556Y-137.651
X46.572Y-134.73
X46.572Y-137.27
X47.588Y-134.349
X47.588Y-135.111
X47.588Y-136.889
X47.588Y-137.651
X65.25Y-141.75
X65.25Y-142.25
X65.25Y-142.75
X65.25Y-144.25
X65.25Y-144.75
X65.25Y-145.25
X65.25Y-146.75
X65.25Y-147.25
X65.25Y-147.75
X65.25Y-149.25
X65.25Y-149.75
X65.25Y-150.25
X69.912Y-71.349
X69.912Y-72.111
X69.912Y-73.889
X69.912Y-74.651
X70.928Y-71.73
X70.928Y-74.27
X71.944Y-71.349
X71.944Y-72.111
X71.944Y-73.889
X71.944Y-74.651
X79.056Y-71.349
X79.056Y-72.111
X79.056Y-73.889
X79.056Y-74.651
X80.072Y-71.73
X80.072Y-74.27
X81.088Y-71.349
X81.088Y-72.111
X81.088Y-73.889
X81.088Y-74.651
X129.75Y-49.25
X129.75Y-51.75
X129.75Y-54.25
X129.75Y-56.75
X130.45Y-48.85
X130.45Y-49.65
X130.45Y-51.35
X130.45Y-52.15
X130.45Y-53.85
X130.45Y-54.65
X130.45Y-56.35
X130.45Y-57.15
X133.35Y-48.85
X133.35Y-49.65
X133.35Y-51.35
X133.35Y-52.15
X133.35Y-53.85
X133.35Y-54.65
X133.35Y-56.35
X133.35Y-57.15
X134.05Y-49.25
X134.05Y-51.75
X134.05Y-54.25
X134.05Y-56.75
X129.75Y-90.5
X129.75Y-93.
X129.75Y-95.5
X130.45Y-90.1
X130.45Y-90.9
X130.45Y-92.6
X130.45Y-93.4
X130.45Y-95.1
X130.45Y-95.9
X133.35Y-90.1
X133.35Y-90.9
X133.35Y-92.6
X133.35Y-93.4
X133.35Y-95.1
X133.35Y-95.9
X134.05Y-90.5
X134.05Y-93.
X134.05Y-95.5
X61.25Y-90.
X61.25Y-90.5
X61.25Y-91.
X61.25Y-92.5
X61.25Y-93.
X61.25Y-93.5
X61.25Y-95.
X61.25Y-95.5
X61.25Y-96.
X144.33Y-132.459
X144.33Y-133.475
X144.33Y-134.491
X144.33Y-137.524
X144.33Y-138.54
X144.33Y-139.556
X146.87Y-132.459
X146.87Y-133.475
X146.87Y-134.491
X146.87Y-137.524
X146.87Y-138.54
X146.87Y-139.556
X45.412Y-71.349
X45.412Y-72.111
X45.412Y-73.889
X45.412Y-74.651
X46.428Y-71.73
X46.428Y-74.27
X47.444Y-71.349
X47.444Y-72.111
X47.444Y-73.889
X47.444Y-74.651
X54.556Y-71.349
X54.556Y-72.111
X54.556Y-73.889
X54.556Y-74.651
X55.572Y-71.73
X55.572Y-74.27
X56.588Y-71.349
X56.588Y-72.111
X56.588Y-73.889
X56.588Y-74.651
X98.15Y-90.5
X98.15Y-93.
X98.15Y-95.5
X98.85Y-90.1
X98.85Y-90.9
X98.85Y-92.6
X98.85Y-93.4
X98.85Y-95.1
X98.85Y-95.9
X101.75Y-90.1
X101.75Y-90.9
X101.75Y-92.6
X101.75Y-93.4
X101.75Y-95.1
X101.75Y-95.9
X102.45Y-90.5
X102.45Y-93.
X102.45Y-95.5
X61.25Y-141.75
X61.25Y-142.25
X61.25Y-142.75
X61.25Y-144.25
X61.25Y-144.75
X61.25Y-145.25
X61.25Y-146.75
X61.25Y-147.25
X61.25Y-147.75
X61.25Y-149.25
X61.25Y-149.75
X61.25Y-150.25
X144.33Y-59.444
X144.33Y-60.46
X144.33Y-61.476
X144.33Y-64.509
X144.33Y-65.525
X144.33Y-66.541
X146.87Y-59.444
X146.87Y-60.46
X146.87Y-61.476
X146.87Y-64.509
X146.87Y-65.525
X146.87Y-66.541
X98.15Y-49.25
X98.15Y-51.75
X98.15Y-54.25
X98.15Y-56.75
X98.85Y-48.85
X98.85Y-49.65
X98.85Y-51.35
X98.85Y-52.15
X98.85Y-53.85
X98.85Y-54.65
X98.85Y-56.35
X98.85Y-57.15
X101.75Y-48.85
X101.75Y-49.65
X101.75Y-51.35
X101.75Y-52.15
X101.75Y-53.85
X101.75Y-54.65
X101.75Y-56.35
X101.75Y-57.15
X102.45Y-49.25
X102.45Y-51.75
X102.45Y-54.25
X102.45Y-56.75
X167.33Y-59.459
X167.33Y-60.475
X167.33Y-61.491
X167.33Y-64.524
X167.33Y-65.54
X167.33Y-66.556
X169.87Y-59.459
X169.87Y-60.475
X169.87Y-61.491
X169.87Y-64.524
X169.87Y-65.54
X169.87Y-66.556
X129.75Y-142.25
X129.75Y-144.75
X129.75Y-147.25
X129.75Y-149.75
X130.45Y-141.85
X130.45Y-142.65
X130.45Y-144.35
X130.45Y-145.15
X130.45Y-146.85
X130.45Y-147.65
X130.45Y-149.35
X130.45Y-150.15
X133.35Y-141.85
X133.35Y-142.65
X133.35Y-144.35
X133.35Y-145.15
X133.35Y-146.85
X133.35Y-147.65
X133.35Y-149.35
X133.35Y-150.15
X134.05Y-142.25
X134.05Y-144.75
X134.05Y-147.25
X134.05Y-149.75
T2
X101.2Y-157.7
X104.2Y-45.7
X113.6Y-157.3
X115.6Y-158.8
X118.8Y-163.1
X128.Y-63.
X128.9Y-80.8
X130.1Y-60.2
X130.1Y-140.5
X130.3Y-77.8
X190.6Y-141.2
X191.5Y-60.7
X191.5Y-117.7
X193.2Y-143.55
X197.4Y-76.
X197.5Y-55.
X197.5Y-112.
X199.55Y-73.25
X199.55Y-136.25
X202.05Y-57.75
X202.05Y-114.75
X202.1Y-136.1
X204.1Y-76.
X204.2Y-55.
X204.2Y-112.
X204.6Y-136.05
X207.5Y-142.3
X209.9Y-138.9
X210.1Y-70.3
X212.4Y-141.1
X212.45Y-144.
X217.4Y-156.
T4
X109.15Y-161.838
X114.15Y-161.838
T5
X199.53Y-76.
X202.07Y-76.
X199.53Y-112.
X202.07Y-112.
X199.53Y-55.
X202.07Y-55.
T3
X108.15Y-164.887G85X108.15Y-164.188
G05
X115.15Y-164.188G85X115.15Y-164.887
G05
T0
M30
