G04 #@! TF.GenerationSoftware,KiCad,Pcbnew,(6.0.0-rc1-dev-509-gcac7479)*
G04 #@! TF.CreationDate,2018-10-23T14:14:01+08:00*
G04 #@! TF.ProjectId,DI-Lambda-UNO-Panelized-v1.7,44492D4C616D6264612D554E4F2D5061,rev?*
G04 #@! TF.SameCoordinates,Original*
G04 #@! TF.FileFunction,Legend,Top*
G04 #@! TF.FilePolarity,Positive*
%FSLAX46Y46*%
G04 Gerber Fmt 4.6, Leading zero omitted, Abs format (unit mm)*
G04 Created by KiCad (PCBNEW (6.0.0-rc1-dev-509-gcac7479)) date Tue Oct 23 14:14:01 2018*
%MOMM*%
%LPD*%
G01*
G04 APERTURE LIST*
%ADD10C,0.300000*%
%ADD11C,0.200000*%
%ADD12C,0.100000*%
%ADD13C,0.120000*%
%ADD14C,0.150000*%
G04 APERTURE END LIST*
D10*
X185828571Y-164078571D02*
X184971428Y-164078571D01*
X185400000Y-164078571D02*
X185400000Y-162578571D01*
X185257142Y-162792857D01*
X185114285Y-162935714D01*
X184971428Y-163007142D01*
X187114285Y-163078571D02*
X187114285Y-164078571D01*
X186757142Y-162507142D02*
X186400000Y-163578571D01*
X187328571Y-163578571D01*
X188971428Y-163650000D02*
X189685714Y-163650000D01*
X188828571Y-164078571D02*
X189328571Y-162578571D01*
X189828571Y-164078571D01*
X190328571Y-163078571D02*
X190328571Y-164578571D01*
X190328571Y-163150000D02*
X190471428Y-163078571D01*
X190757142Y-163078571D01*
X190900000Y-163150000D01*
X190971428Y-163221428D01*
X191042857Y-163364285D01*
X191042857Y-163792857D01*
X190971428Y-163935714D01*
X190900000Y-164007142D01*
X190757142Y-164078571D01*
X190471428Y-164078571D01*
X190328571Y-164007142D01*
X191685714Y-164078571D02*
X191685714Y-163078571D01*
X191685714Y-163364285D02*
X191757142Y-163221428D01*
X191828571Y-163150000D01*
X191971428Y-163078571D01*
X192114285Y-163078571D01*
X192614285Y-164078571D02*
X192614285Y-163078571D01*
X192614285Y-162578571D02*
X192542857Y-162650000D01*
X192614285Y-162721428D01*
X192685714Y-162650000D01*
X192614285Y-162578571D01*
X192614285Y-162721428D01*
X193542857Y-164078571D02*
X193400000Y-164007142D01*
X193328571Y-163864285D01*
X193328571Y-162578571D01*
X195185714Y-162721428D02*
X195257142Y-162650000D01*
X195400000Y-162578571D01*
X195757142Y-162578571D01*
X195900000Y-162650000D01*
X195971428Y-162721428D01*
X196042857Y-162864285D01*
X196042857Y-163007142D01*
X195971428Y-163221428D01*
X195114285Y-164078571D01*
X196042857Y-164078571D01*
X196971428Y-162578571D02*
X197114285Y-162578571D01*
X197257142Y-162650000D01*
X197328571Y-162721428D01*
X197400000Y-162864285D01*
X197471428Y-163150000D01*
X197471428Y-163507142D01*
X197400000Y-163792857D01*
X197328571Y-163935714D01*
X197257142Y-164007142D01*
X197114285Y-164078571D01*
X196971428Y-164078571D01*
X196828571Y-164007142D01*
X196757142Y-163935714D01*
X196685714Y-163792857D01*
X196614285Y-163507142D01*
X196614285Y-163150000D01*
X196685714Y-162864285D01*
X196757142Y-162721428D01*
X196828571Y-162650000D01*
X196971428Y-162578571D01*
X198900000Y-164078571D02*
X198042857Y-164078571D01*
X198471428Y-164078571D02*
X198471428Y-162578571D01*
X198328571Y-162792857D01*
X198185714Y-162935714D01*
X198042857Y-163007142D01*
X199757142Y-163221428D02*
X199614285Y-163150000D01*
X199542857Y-163078571D01*
X199471428Y-162935714D01*
X199471428Y-162864285D01*
X199542857Y-162721428D01*
X199614285Y-162650000D01*
X199757142Y-162578571D01*
X200042857Y-162578571D01*
X200185714Y-162650000D01*
X200257142Y-162721428D01*
X200328571Y-162864285D01*
X200328571Y-162935714D01*
X200257142Y-163078571D01*
X200185714Y-163150000D01*
X200042857Y-163221428D01*
X199757142Y-163221428D01*
X199614285Y-163292857D01*
X199542857Y-163364285D01*
X199471428Y-163507142D01*
X199471428Y-163792857D01*
X199542857Y-163935714D01*
X199614285Y-164007142D01*
X199757142Y-164078571D01*
X200042857Y-164078571D01*
X200185714Y-164007142D01*
X200257142Y-163935714D01*
X200328571Y-163792857D01*
X200328571Y-163507142D01*
X200257142Y-163364285D01*
X200185714Y-163292857D01*
X200042857Y-163221428D01*
X185042857Y-161878571D02*
X185042857Y-160378571D01*
X185400000Y-160378571D01*
X185614285Y-160450000D01*
X185757142Y-160592857D01*
X185828571Y-160735714D01*
X185900000Y-161021428D01*
X185900000Y-161235714D01*
X185828571Y-161521428D01*
X185757142Y-161664285D01*
X185614285Y-161807142D01*
X185400000Y-161878571D01*
X185042857Y-161878571D01*
X186542857Y-161878571D02*
X186542857Y-160378571D01*
X187257142Y-161307142D02*
X188400000Y-161307142D01*
X189828571Y-161878571D02*
X189114285Y-161878571D01*
X189114285Y-160378571D01*
X190971428Y-161878571D02*
X190971428Y-161092857D01*
X190900000Y-160950000D01*
X190757142Y-160878571D01*
X190471428Y-160878571D01*
X190328571Y-160950000D01*
X190971428Y-161807142D02*
X190828571Y-161878571D01*
X190471428Y-161878571D01*
X190328571Y-161807142D01*
X190257142Y-161664285D01*
X190257142Y-161521428D01*
X190328571Y-161378571D01*
X190471428Y-161307142D01*
X190828571Y-161307142D01*
X190971428Y-161235714D01*
X191685714Y-161878571D02*
X191685714Y-160878571D01*
X191685714Y-161021428D02*
X191757142Y-160950000D01*
X191900000Y-160878571D01*
X192114285Y-160878571D01*
X192257142Y-160950000D01*
X192328571Y-161092857D01*
X192328571Y-161878571D01*
X192328571Y-161092857D02*
X192400000Y-160950000D01*
X192542857Y-160878571D01*
X192757142Y-160878571D01*
X192900000Y-160950000D01*
X192971428Y-161092857D01*
X192971428Y-161878571D01*
X193685714Y-161878571D02*
X193685714Y-160378571D01*
X193685714Y-160950000D02*
X193828571Y-160878571D01*
X194114285Y-160878571D01*
X194257142Y-160950000D01*
X194328571Y-161021428D01*
X194400000Y-161164285D01*
X194400000Y-161592857D01*
X194328571Y-161735714D01*
X194257142Y-161807142D01*
X194114285Y-161878571D01*
X193828571Y-161878571D01*
X193685714Y-161807142D01*
X195685714Y-161878571D02*
X195685714Y-160378571D01*
X195685714Y-161807142D02*
X195542857Y-161878571D01*
X195257142Y-161878571D01*
X195114285Y-161807142D01*
X195042857Y-161735714D01*
X194971428Y-161592857D01*
X194971428Y-161164285D01*
X195042857Y-161021428D01*
X195114285Y-160950000D01*
X195257142Y-160878571D01*
X195542857Y-160878571D01*
X195685714Y-160950000D01*
X197042857Y-161878571D02*
X197042857Y-161092857D01*
X196971428Y-160950000D01*
X196828571Y-160878571D01*
X196542857Y-160878571D01*
X196400000Y-160950000D01*
X197042857Y-161807142D02*
X196900000Y-161878571D01*
X196542857Y-161878571D01*
X196400000Y-161807142D01*
X196328571Y-161664285D01*
X196328571Y-161521428D01*
X196400000Y-161378571D01*
X196542857Y-161307142D01*
X196900000Y-161307142D01*
X197042857Y-161235714D01*
X198900000Y-160378571D02*
X198900000Y-161592857D01*
X198971428Y-161735714D01*
X199042857Y-161807142D01*
X199185714Y-161878571D01*
X199471428Y-161878571D01*
X199614285Y-161807142D01*
X199685714Y-161735714D01*
X199757142Y-161592857D01*
X199757142Y-160378571D01*
X200471428Y-161878571D02*
X200471428Y-160378571D01*
X201328571Y-161878571D01*
X201328571Y-160378571D01*
X202328571Y-160378571D02*
X202614285Y-160378571D01*
X202757142Y-160450000D01*
X202900000Y-160592857D01*
X202971428Y-160878571D01*
X202971428Y-161378571D01*
X202900000Y-161664285D01*
X202757142Y-161807142D01*
X202614285Y-161878571D01*
X202328571Y-161878571D01*
X202185714Y-161807142D01*
X202042857Y-161664285D01*
X201971428Y-161378571D01*
X201971428Y-160878571D01*
X202042857Y-160592857D01*
X202185714Y-160450000D01*
X202328571Y-160378571D01*
X204614285Y-160878571D02*
X204971428Y-161878571D01*
X205328571Y-160878571D01*
X206685714Y-161878571D02*
X205828571Y-161878571D01*
X206257142Y-161878571D02*
X206257142Y-160378571D01*
X206114285Y-160592857D01*
X205971428Y-160735714D01*
X205828571Y-160807142D01*
X207328571Y-161735714D02*
X207400000Y-161807142D01*
X207328571Y-161878571D01*
X207257142Y-161807142D01*
X207328571Y-161735714D01*
X207328571Y-161878571D01*
X207900000Y-160378571D02*
X208900000Y-160378571D01*
X208257142Y-161878571D01*
D11*
X190359523Y-98902380D02*
X190597619Y-99902380D01*
X190788095Y-99188095D01*
X190978571Y-99902380D01*
X191216666Y-98902380D01*
X191597619Y-99902380D02*
X191597619Y-99235714D01*
X191597619Y-99426190D02*
X191645238Y-99330952D01*
X191692857Y-99283333D01*
X191788095Y-99235714D01*
X191883333Y-99235714D01*
X192216666Y-99902380D02*
X192216666Y-99235714D01*
X192216666Y-98902380D02*
X192169047Y-98950000D01*
X192216666Y-98997619D01*
X192264285Y-98950000D01*
X192216666Y-98902380D01*
X192216666Y-98997619D01*
X192550000Y-99235714D02*
X192930952Y-99235714D01*
X192692857Y-98902380D02*
X192692857Y-99759523D01*
X192740476Y-99854761D01*
X192835714Y-99902380D01*
X192930952Y-99902380D01*
X193645238Y-99854761D02*
X193550000Y-99902380D01*
X193359523Y-99902380D01*
X193264285Y-99854761D01*
X193216666Y-99759523D01*
X193216666Y-99378571D01*
X193264285Y-99283333D01*
X193359523Y-99235714D01*
X193550000Y-99235714D01*
X193645238Y-99283333D01*
X193692857Y-99378571D01*
X193692857Y-99473809D01*
X193216666Y-99569047D01*
X211240476Y-89097619D02*
X211002380Y-88097619D01*
X210811904Y-88811904D01*
X210621428Y-88097619D01*
X210383333Y-89097619D01*
X210002380Y-88097619D02*
X210002380Y-88764285D01*
X210002380Y-88573809D02*
X209954761Y-88669047D01*
X209907142Y-88716666D01*
X209811904Y-88764285D01*
X209716666Y-88764285D01*
X209383333Y-88097619D02*
X209383333Y-88764285D01*
X209383333Y-89097619D02*
X209430952Y-89050000D01*
X209383333Y-89002380D01*
X209335714Y-89050000D01*
X209383333Y-89097619D01*
X209383333Y-89002380D01*
X209050000Y-88764285D02*
X208669047Y-88764285D01*
X208907142Y-89097619D02*
X208907142Y-88240476D01*
X208859523Y-88145238D01*
X208764285Y-88097619D01*
X208669047Y-88097619D01*
X207954761Y-88145238D02*
X208050000Y-88097619D01*
X208240476Y-88097619D01*
X208335714Y-88145238D01*
X208383333Y-88240476D01*
X208383333Y-88621428D01*
X208335714Y-88716666D01*
X208240476Y-88764285D01*
X208050000Y-88764285D01*
X207954761Y-88716666D01*
X207907142Y-88621428D01*
X207907142Y-88526190D01*
X208383333Y-88430952D01*
D10*
X169500000Y-161142857D02*
X169428571Y-161285714D01*
X169428571Y-161500000D01*
X169500000Y-161714285D01*
X169642857Y-161857142D01*
X169785714Y-161928571D01*
X170071428Y-162000000D01*
X170285714Y-162000000D01*
X170571428Y-161928571D01*
X170714285Y-161857142D01*
X170857142Y-161714285D01*
X170928571Y-161500000D01*
X170928571Y-161357142D01*
X170857142Y-161142857D01*
X170785714Y-161071428D01*
X170285714Y-161071428D01*
X170285714Y-161357142D01*
X170928571Y-160428571D02*
X169428571Y-160428571D01*
X170928571Y-159571428D01*
X169428571Y-159571428D01*
X170928571Y-158857142D02*
X169428571Y-158857142D01*
X169428571Y-158500000D01*
X169500000Y-158285714D01*
X169642857Y-158142857D01*
X169785714Y-158071428D01*
X170071428Y-158000000D01*
X170285714Y-158000000D01*
X170571428Y-158071428D01*
X170714285Y-158142857D01*
X170857142Y-158285714D01*
X170928571Y-158500000D01*
X170928571Y-158857142D01*
X168248214Y-161071428D02*
X168319642Y-161142856D01*
X168391071Y-161357142D01*
X168391071Y-161499999D01*
X168319642Y-161714285D01*
X168176785Y-161857142D01*
X168033928Y-161928571D01*
X167748214Y-161999999D01*
X167533928Y-161999999D01*
X167248214Y-161928571D01*
X167105357Y-161857142D01*
X166962500Y-161714285D01*
X166891071Y-161499999D01*
X166891071Y-161357142D01*
X166962500Y-161142856D01*
X167033928Y-161071428D01*
X168391071Y-159714285D02*
X168391071Y-160428571D01*
X166891071Y-160428571D01*
X168391071Y-159214285D02*
X166891071Y-159214285D01*
X168391071Y-158357142D02*
X167533928Y-158999999D01*
X166891071Y-158357142D02*
X167748214Y-159214285D01*
X165853571Y-161928571D02*
X164353571Y-161928571D01*
X164353571Y-160928571D02*
X164353571Y-160642857D01*
X164425000Y-160499999D01*
X164567857Y-160357142D01*
X164853571Y-160285714D01*
X165353571Y-160285714D01*
X165639285Y-160357142D01*
X165782142Y-160499999D01*
X165853571Y-160642857D01*
X165853571Y-160928571D01*
X165782142Y-161071428D01*
X165639285Y-161214285D01*
X165353571Y-161285714D01*
X164853571Y-161285714D01*
X164567857Y-161214285D01*
X164425000Y-161071428D01*
X164353571Y-160928571D01*
X163316071Y-161071428D02*
X162601785Y-161571428D01*
X163316071Y-161928571D02*
X161816071Y-161928571D01*
X161816071Y-161357142D01*
X161887500Y-161214285D01*
X161958928Y-161142857D01*
X162101785Y-161071428D01*
X162316071Y-161071428D01*
X162458928Y-161142857D01*
X162530357Y-161214285D01*
X162601785Y-161357142D01*
X162601785Y-161928571D01*
X163244642Y-160500000D02*
X163316071Y-160285714D01*
X163316071Y-159928571D01*
X163244642Y-159785714D01*
X163173214Y-159714285D01*
X163030357Y-159642857D01*
X162887500Y-159642857D01*
X162744642Y-159714285D01*
X162673214Y-159785714D01*
X162601785Y-159928571D01*
X162530357Y-160214285D01*
X162458928Y-160357142D01*
X162387500Y-160428571D01*
X162244642Y-160500000D01*
X162101785Y-160500000D01*
X161958928Y-160428571D01*
X161887500Y-160357142D01*
X161816071Y-160214285D01*
X161816071Y-159857142D01*
X161887500Y-159642857D01*
X161816071Y-159214285D02*
X161816071Y-158357142D01*
X163316071Y-158785714D02*
X161816071Y-158785714D01*
X159278571Y-162142857D02*
X160778571Y-161642857D01*
X159278571Y-161142857D01*
X160635714Y-159785714D02*
X160707142Y-159857142D01*
X160778571Y-160071428D01*
X160778571Y-160214285D01*
X160707142Y-160428571D01*
X160564285Y-160571428D01*
X160421428Y-160642857D01*
X160135714Y-160714285D01*
X159921428Y-160714285D01*
X159635714Y-160642857D01*
X159492857Y-160571428D01*
X159350000Y-160428571D01*
X159278571Y-160214285D01*
X159278571Y-160071428D01*
X159350000Y-159857142D01*
X159421428Y-159785714D01*
X160635714Y-158285714D02*
X160707142Y-158357142D01*
X160778571Y-158571428D01*
X160778571Y-158714285D01*
X160707142Y-158928571D01*
X160564285Y-159071428D01*
X160421428Y-159142857D01*
X160135714Y-159214285D01*
X159921428Y-159214285D01*
X159635714Y-159142857D01*
X159492857Y-159071428D01*
X159350000Y-158928571D01*
X159278571Y-158714285D01*
X159278571Y-158571428D01*
X159350000Y-158357142D01*
X159421428Y-158285714D01*
D11*
X190359523Y-41902380D02*
X190597619Y-42902380D01*
X190788095Y-42188095D01*
X190978571Y-42902380D01*
X191216666Y-41902380D01*
X191597619Y-42902380D02*
X191597619Y-42235714D01*
X191597619Y-42426190D02*
X191645238Y-42330952D01*
X191692857Y-42283333D01*
X191788095Y-42235714D01*
X191883333Y-42235714D01*
X192216666Y-42902380D02*
X192216666Y-42235714D01*
X192216666Y-41902380D02*
X192169047Y-41950000D01*
X192216666Y-41997619D01*
X192264285Y-41950000D01*
X192216666Y-41902380D01*
X192216666Y-41997619D01*
X192550000Y-42235714D02*
X192930952Y-42235714D01*
X192692857Y-41902380D02*
X192692857Y-42759523D01*
X192740476Y-42854761D01*
X192835714Y-42902380D01*
X192930952Y-42902380D01*
X193645238Y-42854761D02*
X193550000Y-42902380D01*
X193359523Y-42902380D01*
X193264285Y-42854761D01*
X193216666Y-42759523D01*
X193216666Y-42378571D01*
X193264285Y-42283333D01*
X193359523Y-42235714D01*
X193550000Y-42235714D01*
X193645238Y-42283333D01*
X193692857Y-42378571D01*
X193692857Y-42473809D01*
X193216666Y-42569047D01*
X234700000Y-56000000D02*
X234700000Y-59000000D01*
X244700000Y-56000000D02*
X244700000Y-59000000D01*
X254700000Y-56000000D02*
X254700000Y-59000000D01*
D10*
X237414285Y-53621428D02*
X237414285Y-55121428D01*
X236914285Y-54050000D01*
X236414285Y-55121428D01*
X236414285Y-53621428D01*
X235414285Y-55121428D02*
X235128571Y-55121428D01*
X234985714Y-55050000D01*
X234842857Y-54907142D01*
X234771428Y-54621428D01*
X234771428Y-54121428D01*
X234842857Y-53835714D01*
X234985714Y-53692857D01*
X235128571Y-53621428D01*
X235414285Y-53621428D01*
X235557142Y-53692857D01*
X235700000Y-53835714D01*
X235771428Y-54121428D01*
X235771428Y-54621428D01*
X235700000Y-54907142D01*
X235557142Y-55050000D01*
X235414285Y-55121428D01*
X234128571Y-53621428D02*
X234128571Y-55121428D01*
X233771428Y-55121428D01*
X233557142Y-55050000D01*
X233414285Y-54907142D01*
X233342857Y-54764285D01*
X233271428Y-54478571D01*
X233271428Y-54264285D01*
X233342857Y-53978571D01*
X233414285Y-53835714D01*
X233557142Y-53692857D01*
X233771428Y-53621428D01*
X234128571Y-53621428D01*
X232628571Y-54407142D02*
X232128571Y-54407142D01*
X231914285Y-53621428D02*
X232628571Y-53621428D01*
X232628571Y-55121428D01*
X231914285Y-55121428D01*
X248564285Y-53692857D02*
X248350000Y-53621428D01*
X247992857Y-53621428D01*
X247850000Y-53692857D01*
X247778571Y-53764285D01*
X247707142Y-53907142D01*
X247707142Y-54050000D01*
X247778571Y-54192857D01*
X247850000Y-54264285D01*
X247992857Y-54335714D01*
X248278571Y-54407142D01*
X248421428Y-54478571D01*
X248492857Y-54550000D01*
X248564285Y-54692857D01*
X248564285Y-54835714D01*
X248492857Y-54978571D01*
X248421428Y-55050000D01*
X248278571Y-55121428D01*
X247921428Y-55121428D01*
X247707142Y-55050000D01*
X247135714Y-54050000D02*
X246421428Y-54050000D01*
X247278571Y-53621428D02*
X246778571Y-55121428D01*
X246278571Y-53621428D01*
X245778571Y-53621428D02*
X245778571Y-55121428D01*
X245278571Y-54050000D01*
X244778571Y-55121428D01*
X244778571Y-53621428D01*
X244064285Y-53621428D02*
X244064285Y-55121428D01*
X243492857Y-55121428D01*
X243350000Y-55050000D01*
X243278571Y-54978571D01*
X243207142Y-54835714D01*
X243207142Y-54621428D01*
X243278571Y-54478571D01*
X243350000Y-54407142D01*
X243492857Y-54335714D01*
X244064285Y-54335714D01*
X241850000Y-53621428D02*
X242564285Y-53621428D01*
X242564285Y-55121428D01*
X241350000Y-54407142D02*
X240850000Y-54407142D01*
X240635714Y-53621428D02*
X241350000Y-53621428D01*
X241350000Y-55121428D01*
X240635714Y-55121428D01*
X257378571Y-54407142D02*
X257164285Y-54335714D01*
X257092857Y-54264285D01*
X257021428Y-54121428D01*
X257021428Y-53907142D01*
X257092857Y-53764285D01*
X257164285Y-53692857D01*
X257307142Y-53621428D01*
X257878571Y-53621428D01*
X257878571Y-55121428D01*
X257378571Y-55121428D01*
X257235714Y-55050000D01*
X257164285Y-54978571D01*
X257092857Y-54835714D01*
X257092857Y-54692857D01*
X257164285Y-54550000D01*
X257235714Y-54478571D01*
X257378571Y-54407142D01*
X257878571Y-54407142D01*
X255664285Y-53621428D02*
X256378571Y-53621428D01*
X256378571Y-55121428D01*
X255235714Y-54050000D02*
X254521428Y-54050000D01*
X255378571Y-53621428D02*
X254878571Y-55121428D01*
X254378571Y-53621428D01*
X253878571Y-53621428D02*
X253878571Y-55121428D01*
X253021428Y-53621428D01*
X253021428Y-55121428D01*
X252307142Y-53621428D02*
X252307142Y-55121428D01*
X251450000Y-53621428D02*
X252092857Y-54478571D01*
X251450000Y-55121428D02*
X252307142Y-54264285D01*
D11*
X231700000Y-59700000D02*
X231700000Y-86800000D01*
X257800000Y-59700000D02*
X231700000Y-59700000D01*
X257800000Y-86800000D02*
X257800000Y-59700000D01*
X231700000Y-86800000D02*
X257800000Y-86800000D01*
X236200000Y-92900000D02*
G75*
G03X236200000Y-92900000I-2900000J0D01*
G01*
X259000000Y-92900000D02*
G75*
G03X259000000Y-92900000I-2900000J0D01*
G01*
X263400000Y-41300000D02*
G75*
G03X263400000Y-41300000I-2900000J0D01*
G01*
X231800000Y-41300000D02*
G75*
G03X231800000Y-41300000I-2900000J0D01*
G01*
D12*
G04 #@! TO.C,P402*
X46000000Y-138750000D02*
X38000000Y-138750000D01*
X38000000Y-138750000D02*
X38000000Y-133250000D01*
X38000000Y-133250000D02*
X46000000Y-133250000D01*
X46000000Y-133250000D02*
X46000000Y-138750000D01*
D11*
X37400000Y-139400000D02*
X37800000Y-139600000D01*
X37400000Y-139400000D02*
X39800000Y-139400000D01*
X37400000Y-139400000D02*
X37800000Y-139200000D01*
X37400000Y-132600000D02*
X37800000Y-132400000D01*
X37400000Y-132600000D02*
X39800000Y-132600000D01*
X37400000Y-132600000D02*
X37800000Y-132800000D01*
D12*
G04 #@! TO.C,P401*
X46000000Y-65750000D02*
X38000000Y-65750000D01*
X38000000Y-65750000D02*
X38000000Y-60250000D01*
X38000000Y-60250000D02*
X46000000Y-60250000D01*
X46000000Y-60250000D02*
X46000000Y-65750000D01*
D11*
X37400000Y-66400000D02*
X37800000Y-66600000D01*
X37400000Y-66400000D02*
X39800000Y-66400000D01*
X37400000Y-66400000D02*
X37800000Y-66200000D01*
X37400000Y-59600000D02*
X37800000Y-59400000D01*
X37400000Y-59600000D02*
X39800000Y-59600000D01*
X37400000Y-59600000D02*
X37800000Y-59800000D01*
D12*
G04 #@! TO.C,P403*
X47000000Y-70250000D02*
X55000000Y-70250000D01*
X55000000Y-70250000D02*
X55000000Y-75750000D01*
X55000000Y-75750000D02*
X47000000Y-75750000D01*
X47000000Y-75750000D02*
X47000000Y-70250000D01*
D11*
X55600000Y-69600000D02*
X55200000Y-69400000D01*
X55600000Y-69600000D02*
X53200000Y-69600000D01*
X55600000Y-69600000D02*
X55200000Y-69800000D01*
X55600000Y-76400000D02*
X55200000Y-76600000D01*
X55600000Y-76400000D02*
X53200000Y-76400000D01*
X55600000Y-76400000D02*
X55200000Y-76200000D01*
D12*
G04 #@! TO.C,P302*
X80500000Y-133250000D02*
X88500000Y-133250000D01*
X88500000Y-133250000D02*
X88500000Y-138750000D01*
X88500000Y-138750000D02*
X80500000Y-138750000D01*
X80500000Y-138750000D02*
X80500000Y-133250000D01*
D11*
X89100000Y-132600000D02*
X88700000Y-132400000D01*
X89100000Y-132600000D02*
X86700000Y-132600000D01*
X89100000Y-132600000D02*
X88700000Y-132800000D01*
X89100000Y-139400000D02*
X88700000Y-139600000D01*
X89100000Y-139400000D02*
X86700000Y-139400000D01*
X89100000Y-139400000D02*
X88700000Y-139200000D01*
D12*
G04 #@! TO.C,P301*
X80500000Y-60250000D02*
X88500000Y-60250000D01*
X88500000Y-60250000D02*
X88500000Y-65750000D01*
X88500000Y-65750000D02*
X80500000Y-65750000D01*
X80500000Y-65750000D02*
X80500000Y-60250000D01*
D11*
X89100000Y-59600000D02*
X88700000Y-59400000D01*
X89100000Y-59600000D02*
X86700000Y-59600000D01*
X89100000Y-59600000D02*
X88700000Y-59800000D01*
X89100000Y-66400000D02*
X88700000Y-66600000D01*
X89100000Y-66400000D02*
X86700000Y-66400000D01*
X89100000Y-66400000D02*
X88700000Y-66200000D01*
D12*
G04 #@! TO.C,P303*
X79500000Y-75750000D02*
X71500000Y-75750000D01*
X71500000Y-75750000D02*
X71500000Y-70250000D01*
X71500000Y-70250000D02*
X79500000Y-70250000D01*
X79500000Y-70250000D02*
X79500000Y-75750000D01*
D11*
X70900000Y-76400000D02*
X71300000Y-76600000D01*
X70900000Y-76400000D02*
X73300000Y-76400000D01*
X70900000Y-76400000D02*
X71300000Y-76200000D01*
X70900000Y-69600000D02*
X71300000Y-69400000D01*
X70900000Y-69600000D02*
X73300000Y-69600000D01*
X70900000Y-69600000D02*
X71300000Y-69800000D01*
D12*
G04 #@! TO.C,mouse-bite-2mm-slot*
X197800000Y-64500000D02*
G75*
G03X197800000Y-66500000I0J-1000000D01*
G01*
X193800000Y-66500000D02*
G75*
G03X193800000Y-64500000I0J1000000D01*
G01*
X207800000Y-64500000D02*
G75*
G03X207800000Y-66500000I0J-1000000D01*
G01*
X203800000Y-66500000D02*
G75*
G03X203800000Y-64500000I0J1000000D01*
G01*
X206300000Y-129500000D02*
G75*
G03X206300000Y-127500000I0J1000000D01*
G01*
X210300000Y-127500000D02*
G75*
G03X210300000Y-129500000I0J-1000000D01*
G01*
X207800000Y-121500000D02*
G75*
G03X207800000Y-123500000I0J-1000000D01*
G01*
X203800000Y-123500000D02*
G75*
G03X203800000Y-121500000I0J1000000D01*
G01*
X197800000Y-121500000D02*
G75*
G03X197800000Y-123500000I0J-1000000D01*
G01*
X193800000Y-123500000D02*
G75*
G03X193800000Y-121500000I0J1000000D01*
G01*
X191300000Y-129500000D02*
G75*
G03X191300000Y-127500000I0J1000000D01*
G01*
X195300000Y-127500000D02*
G75*
G03X195300000Y-129500000I0J-1000000D01*
G01*
X243900000Y-130900000D02*
G75*
G03X243900000Y-132900000I0J-1000000D01*
G01*
X239900000Y-132900000D02*
G75*
G03X239900000Y-130900000I0J1000000D01*
G01*
X260500000Y-96400000D02*
G75*
G03X260500000Y-98400000I0J-1000000D01*
G01*
X256500000Y-98400000D02*
G75*
G03X256500000Y-96400000I0J1000000D01*
G01*
X232900000Y-96400000D02*
G75*
G03X232900000Y-98400000I0J-1000000D01*
G01*
X228900000Y-98400000D02*
G75*
G03X228900000Y-96400000I0J1000000D01*
G01*
X256500000Y-38000000D02*
G75*
G03X256500000Y-36000000I0J1000000D01*
G01*
X260500000Y-36000000D02*
G75*
G03X260500000Y-38000000I0J-1000000D01*
G01*
X228900000Y-38000000D02*
G75*
G03X228900000Y-36000000I0J1000000D01*
G01*
X232900000Y-36000000D02*
G75*
G03X232900000Y-38000000I0J-1000000D01*
G01*
X48500000Y-166000000D02*
G75*
G03X48500000Y-168000000I0J-1000000D01*
G01*
X44500000Y-168000000D02*
G75*
G03X44500000Y-166000000I0J1000000D01*
G01*
X172900000Y-166000000D02*
G75*
G03X172900000Y-168000000I0J-1000000D01*
G01*
X168900000Y-168000000D02*
G75*
G03X168900000Y-166000000I0J1000000D01*
G01*
X82000000Y-166000000D02*
G75*
G03X82000000Y-168000000I0J-1000000D01*
G01*
X78000000Y-168000000D02*
G75*
G03X78000000Y-166000000I0J1000000D01*
G01*
X131900000Y-166000000D02*
G75*
G03X131900000Y-168000000I0J-1000000D01*
G01*
X127900000Y-168000000D02*
G75*
G03X127900000Y-166000000I0J1000000D01*
G01*
X104300000Y-166000000D02*
G75*
G03X104300000Y-168000000I0J-1000000D01*
G01*
X100300000Y-168000000D02*
G75*
G03X100300000Y-166000000I0J1000000D01*
G01*
X145300000Y-166000000D02*
G75*
G03X145300000Y-168000000I0J-1000000D01*
G01*
X141300000Y-168000000D02*
G75*
G03X141300000Y-166000000I0J1000000D01*
G01*
D13*
G04 #@! TO.C,W601*
X193550000Y-101850000D02*
G75*
G03X193550000Y-101850000I-1450000J0D01*
G01*
G04 #@! TO.C,D601*
X203790000Y-112000462D02*
G75*
G03X198240000Y-110455170I-2990000J462D01*
G01*
X203790000Y-111999538D02*
G75*
G02X198240000Y-113544830I-2990000J-462D01*
G01*
X203300000Y-112000000D02*
G75*
G03X203300000Y-112000000I-2500000J0D01*
G01*
X198240000Y-110455000D02*
X198240000Y-113545000D01*
G04 #@! TO.C,R601*
X195555000Y-106710000D02*
X195995000Y-106710000D01*
X195555000Y-105690000D02*
X195995000Y-105690000D01*
G04 #@! TO.C,W601*
X210950000Y-86150000D02*
G75*
G03X210950000Y-86150000I-1450000J0D01*
G01*
G04 #@! TO.C,D601*
X197810000Y-75999538D02*
G75*
G03X203360000Y-77544830I2990000J-462D01*
G01*
X197810000Y-76000462D02*
G75*
G02X203360000Y-74455170I2990000J462D01*
G01*
X203300000Y-76000000D02*
G75*
G03X203300000Y-76000000I-2500000J0D01*
G01*
X203360000Y-77545000D02*
X203360000Y-74455000D01*
G04 #@! TO.C,R601*
X206045000Y-81290000D02*
X205605000Y-81290000D01*
X206045000Y-82310000D02*
X205605000Y-82310000D01*
D12*
G04 #@! TO.C,mouse-bite-2mm-slot*
X100300000Y-38000000D02*
G75*
G03X100300000Y-36000000I0J1000000D01*
G01*
X104300000Y-36000000D02*
G75*
G03X104300000Y-38000000I0J-1000000D01*
G01*
X78000000Y-38000000D02*
G75*
G03X78000000Y-36000000I0J1000000D01*
G01*
X82000000Y-36000000D02*
G75*
G03X82000000Y-38000000I0J-1000000D01*
G01*
X44500000Y-38000000D02*
G75*
G03X44500000Y-36000000I0J1000000D01*
G01*
X48500000Y-36000000D02*
G75*
G03X48500000Y-38000000I0J-1000000D01*
G01*
X168900000Y-38000000D02*
G75*
G03X168900000Y-36000000I0J1000000D01*
G01*
X172900000Y-36000000D02*
G75*
G03X172900000Y-38000000I0J-1000000D01*
G01*
X141300000Y-38000000D02*
G75*
G03X141300000Y-36000000I0J1000000D01*
G01*
X145300000Y-36000000D02*
G75*
G03X145300000Y-38000000I0J-1000000D01*
G01*
X127900000Y-38000000D02*
G75*
G03X127900000Y-36000000I0J1000000D01*
G01*
X131900000Y-36000000D02*
G75*
G03X131900000Y-38000000I0J-1000000D01*
G01*
D10*
G04 #@! TO.C,D501*
X201808000Y-139000000D02*
X202808000Y-139000000D01*
X199308000Y-139000000D02*
X200308000Y-139000000D01*
X201808000Y-138000000D02*
X201808000Y-140000000D01*
X201792000Y-140000000D02*
X200292000Y-139000000D01*
X200308000Y-139000000D02*
X201808000Y-138000000D01*
X200308000Y-138000000D02*
X200308000Y-140000000D01*
X203300000Y-141032000D02*
X198800000Y-141032000D01*
X198768000Y-136968000D02*
X198768000Y-141032000D01*
X198800000Y-136968000D02*
X203300000Y-136968000D01*
D13*
G04 #@! TO.C,R501*
X198010000Y-143620000D02*
X198010000Y-143180000D01*
X196990000Y-143620000D02*
X196990000Y-143180000D01*
G04 #@! TO.C,U502*
X208040000Y-142500000D02*
X208040000Y-144950000D01*
X211260000Y-144300000D02*
X211260000Y-142500000D01*
G04 #@! TO.C,U501*
X191590000Y-142500000D02*
X191590000Y-144950000D01*
X194810000Y-144300000D02*
X194810000Y-142500000D01*
G04 #@! TO.C,C501*
X196310000Y-143570000D02*
X196310000Y-143130000D01*
X195290000Y-143570000D02*
X195290000Y-143130000D01*
G04 #@! TO.C,C502*
X209370000Y-139890000D02*
X208930000Y-139890000D01*
X209370000Y-140910000D02*
X208930000Y-140910000D01*
G04 #@! TO.C,C503*
X190090000Y-143180000D02*
X190090000Y-143620000D01*
X191110000Y-143180000D02*
X191110000Y-143620000D01*
G04 #@! TO.C,U101*
X113260000Y-139950000D02*
X113260000Y-137500000D01*
X110040000Y-138150000D02*
X110040000Y-139950000D01*
G04 #@! TO.C,J101*
X109950000Y-160987500D02*
X109950000Y-161437500D01*
X109950000Y-160987500D02*
X110400000Y-160987500D01*
X115550000Y-161537500D02*
X115100000Y-161537500D01*
X115550000Y-163387500D02*
X115550000Y-161537500D01*
X107750000Y-165937500D02*
X107750000Y-165687500D01*
X115550000Y-165937500D02*
X115550000Y-165687500D01*
X107750000Y-163387500D02*
X107750000Y-161537500D01*
X107750000Y-161537500D02*
X108200000Y-161537500D01*
G04 #@! TO.C,D101*
X125550000Y-56500000D02*
X125550000Y-61900000D01*
X122250000Y-56500000D02*
X122250000Y-61900000D01*
X125550000Y-56500000D02*
X122250000Y-56500000D01*
G04 #@! TO.C,F101*
X105840000Y-137450000D02*
X105840000Y-138750000D01*
X107660000Y-137450000D02*
X107660000Y-138750000D01*
G04 #@! TO.C,L104*
X122300000Y-63750000D02*
X122300000Y-67750000D01*
X126500000Y-63750000D02*
X126500000Y-67750000D01*
G04 #@! TO.C,C104*
X120740000Y-61830000D02*
X120740000Y-62270000D01*
X121760000Y-61830000D02*
X121760000Y-62270000D01*
G04 #@! TO.C,U102*
X120200000Y-76410000D02*
X114190000Y-76410000D01*
X117950000Y-69590000D02*
X114190000Y-69590000D01*
X114190000Y-76410000D02*
X114190000Y-75150000D01*
X114190000Y-69590000D02*
X114190000Y-70850000D01*
G04 #@! TO.C,Q101*
X121980000Y-53590000D02*
X121980000Y-55050000D01*
X118820000Y-53590000D02*
X118820000Y-55750000D01*
X118820000Y-53590000D02*
X119750000Y-53590000D01*
X121980000Y-53590000D02*
X121050000Y-53590000D01*
G04 #@! TO.C,R103*
X120620000Y-56290000D02*
X120180000Y-56290000D01*
X120620000Y-57310000D02*
X120180000Y-57310000D01*
G04 #@! TO.C,J105*
X106630000Y-75600000D02*
X106630000Y-76960000D01*
X102570000Y-70400000D02*
X102000000Y-70400000D01*
X105110000Y-70400000D02*
X104090000Y-70400000D01*
X107200000Y-70400000D02*
X106630000Y-70400000D01*
X102000000Y-70400000D02*
X102000000Y-75600000D01*
X102570000Y-75600000D02*
X102000000Y-75600000D01*
X105110000Y-75600000D02*
X104090000Y-75600000D01*
X107200000Y-75600000D02*
X106630000Y-75600000D01*
X107200000Y-70400000D02*
X107200000Y-75600000D01*
G04 #@! TO.C,U103*
X121855000Y-66400000D02*
X121855000Y-63950000D01*
X118635000Y-64600000D02*
X118635000Y-66400000D01*
G04 #@! TO.C,J106*
X125570000Y-70400000D02*
X125570000Y-69040000D01*
X129630000Y-75600000D02*
X130200000Y-75600000D01*
X127090000Y-75600000D02*
X128110000Y-75600000D01*
X125000000Y-75600000D02*
X125570000Y-75600000D01*
X130200000Y-75600000D02*
X130200000Y-70400000D01*
X129630000Y-70400000D02*
X130200000Y-70400000D01*
X127090000Y-70400000D02*
X128110000Y-70400000D01*
X125000000Y-70400000D02*
X125570000Y-70400000D01*
X125000000Y-75600000D02*
X125000000Y-70400000D01*
G04 #@! TO.C,C102*
X121960000Y-73220000D02*
X121960000Y-72780000D01*
X120940000Y-73220000D02*
X120940000Y-72780000D01*
G04 #@! TO.C,C103*
X118220000Y-76990000D02*
X117780000Y-76990000D01*
X118220000Y-78010000D02*
X117780000Y-78010000D01*
G04 #@! TO.C,C105*
X117090000Y-65280000D02*
X117090000Y-65720000D01*
X118110000Y-65280000D02*
X118110000Y-65720000D01*
G04 #@! TO.C,C101*
X110480000Y-136710000D02*
X110920000Y-136710000D01*
X110480000Y-135690000D02*
X110920000Y-135690000D01*
G04 #@! TO.C,C106*
X119140000Y-61830000D02*
X119140000Y-62270000D01*
X120160000Y-61830000D02*
X120160000Y-62270000D01*
G04 #@! TO.C,L101*
X106240000Y-142230000D02*
X106240000Y-142670000D01*
X107260000Y-142230000D02*
X107260000Y-142670000D01*
G04 #@! TO.C,L103*
X125960000Y-144970000D02*
X125960000Y-144530000D01*
X124940000Y-144970000D02*
X124940000Y-144530000D01*
G04 #@! TO.C,L102*
X127660000Y-144970000D02*
X127660000Y-144530000D01*
X126640000Y-144970000D02*
X126640000Y-144530000D01*
G04 #@! TO.C,Q102*
X118480000Y-55590000D02*
X118480000Y-57050000D01*
X115320000Y-55590000D02*
X115320000Y-57750000D01*
X115320000Y-55590000D02*
X116250000Y-55590000D01*
X118480000Y-55590000D02*
X117550000Y-55590000D01*
G04 #@! TO.C,R106*
X116960000Y-62270000D02*
X116960000Y-61830000D01*
X115940000Y-62270000D02*
X115940000Y-61830000D01*
G04 #@! TO.C,R105*
X117540000Y-61830000D02*
X117540000Y-62270000D01*
X118560000Y-61830000D02*
X118560000Y-62270000D01*
G04 #@! TO.C,R101*
X112090000Y-142230000D02*
X112090000Y-142670000D01*
X113110000Y-142230000D02*
X113110000Y-142670000D01*
G04 #@! TO.C,R102*
X110190000Y-142230000D02*
X110190000Y-142670000D01*
X111210000Y-142230000D02*
X111210000Y-142670000D01*
G04 #@! TO.C,R104*
X116730000Y-59310000D02*
X117170000Y-59310000D01*
X116730000Y-58290000D02*
X117170000Y-58290000D01*
D10*
G04 #@! TO.C,J112*
X107850000Y-51100000D02*
X124350000Y-51100000D01*
X107850000Y-46100000D02*
X107850000Y-51100000D01*
X124350000Y-46100000D02*
X107850000Y-46100000D01*
X124350000Y-51100000D02*
X124350000Y-46100000D01*
G04 #@! TO.C,J102*
X124350000Y-147900000D02*
X107850000Y-147900000D01*
X124350000Y-152900000D02*
X124350000Y-147900000D01*
X107850000Y-152900000D02*
X124350000Y-152900000D01*
X107850000Y-147900000D02*
X107850000Y-152900000D01*
D13*
G04 #@! TO.C,J207*
X166000000Y-138600000D02*
X166000000Y-133400000D01*
X171200000Y-138600000D02*
X171200000Y-133400000D01*
X166570000Y-140040000D02*
X166570000Y-138600000D01*
X166000000Y-138600000D02*
X166570000Y-138600000D01*
X166000000Y-133400000D02*
X166570000Y-133400000D01*
X170630000Y-138600000D02*
X171200000Y-138600000D01*
X170630000Y-133400000D02*
X171200000Y-133400000D01*
X168090000Y-138600000D02*
X169110000Y-138600000D01*
X168090000Y-133400000D02*
X169110000Y-133400000D01*
G04 #@! TO.C,J208*
X143000000Y-138600000D02*
X143000000Y-133400000D01*
X148200000Y-138600000D02*
X148200000Y-133400000D01*
X143570000Y-140040000D02*
X143570000Y-138600000D01*
X143000000Y-138600000D02*
X143570000Y-138600000D01*
X143000000Y-133400000D02*
X143570000Y-133400000D01*
X147630000Y-138600000D02*
X148200000Y-138600000D01*
X147630000Y-133400000D02*
X148200000Y-133400000D01*
X145090000Y-138600000D02*
X146110000Y-138600000D01*
X145090000Y-133400000D02*
X146110000Y-133400000D01*
G04 #@! TO.C,J204*
X166000000Y-65600000D02*
X166000000Y-60400000D01*
X171200000Y-65600000D02*
X171200000Y-60400000D01*
X166570000Y-67040000D02*
X166570000Y-65600000D01*
X166000000Y-65600000D02*
X166570000Y-65600000D01*
X166000000Y-60400000D02*
X166570000Y-60400000D01*
X170630000Y-65600000D02*
X171200000Y-65600000D01*
X170630000Y-60400000D02*
X171200000Y-60400000D01*
X168090000Y-65600000D02*
X169110000Y-65600000D01*
X168090000Y-60400000D02*
X169110000Y-60400000D01*
G04 #@! TO.C,J203*
X148200000Y-60400000D02*
X148200000Y-65600000D01*
X143000000Y-60400000D02*
X143000000Y-65600000D01*
X147630000Y-58960000D02*
X147630000Y-60400000D01*
X148200000Y-60400000D02*
X147630000Y-60400000D01*
X148200000Y-65600000D02*
X147630000Y-65600000D01*
X143570000Y-60400000D02*
X143000000Y-60400000D01*
X143570000Y-65600000D02*
X143000000Y-65600000D01*
X146110000Y-60400000D02*
X145090000Y-60400000D01*
X146110000Y-65600000D02*
X145090000Y-65600000D01*
G04 #@! TO.C,Y201*
X144550000Y-71500000D02*
X144550000Y-84100000D01*
X149650000Y-71500000D02*
X144550000Y-71500000D01*
X149650000Y-84100000D02*
X149650000Y-71500000D01*
G04 #@! TO.C,C208*
X156930000Y-66410000D02*
X157370000Y-66410000D01*
X156930000Y-65390000D02*
X157370000Y-65390000D01*
G04 #@! TO.C,C201*
X157520000Y-62940000D02*
X157080000Y-62940000D01*
X157520000Y-63960000D02*
X157080000Y-63960000D01*
G04 #@! TO.C,U202*
X153090000Y-82010000D02*
X153510000Y-82010000D01*
X153090000Y-74890000D02*
X153090000Y-75310000D01*
X153090000Y-75310000D02*
X151710000Y-75310000D01*
X160210000Y-74890000D02*
X159790000Y-74890000D01*
X160210000Y-82010000D02*
X159790000Y-82010000D01*
X153090000Y-74890000D02*
X153510000Y-74890000D01*
X153090000Y-82010000D02*
X153090000Y-81590000D01*
X160210000Y-82010000D02*
X160210000Y-81590000D01*
X160210000Y-74890000D02*
X160210000Y-75310000D01*
G04 #@! TO.C,J211*
X158680000Y-164960000D02*
X158680000Y-163630000D01*
X160010000Y-164960000D02*
X158680000Y-164960000D01*
X161280000Y-164960000D02*
X161280000Y-162300000D01*
X161280000Y-162300000D02*
X171500000Y-162300000D01*
X161280000Y-164960000D02*
X171500000Y-164960000D01*
X171500000Y-164960000D02*
X171500000Y-162300000D01*
G04 #@! TO.C,C205*
X158930000Y-86560000D02*
X159370000Y-86560000D01*
X158930000Y-85540000D02*
X159370000Y-85540000D01*
G04 #@! TO.C,C206*
X145480000Y-69010000D02*
X145920000Y-69010000D01*
X145480000Y-67990000D02*
X145920000Y-67990000D01*
G04 #@! TO.C,C209*
X159370000Y-84000000D02*
X158930000Y-84000000D01*
X159370000Y-85020000D02*
X158930000Y-85020000D01*
G04 #@! TO.C,C207*
X154370000Y-70390000D02*
X153930000Y-70390000D01*
X154370000Y-71410000D02*
X153930000Y-71410000D01*
G04 #@! TO.C,R202*
X148195000Y-85200000D02*
X147755000Y-85200000D01*
X148195000Y-86220000D02*
X147755000Y-86220000D01*
G04 #@! TO.C,R205*
X163980000Y-74110000D02*
X164420000Y-74110000D01*
X163980000Y-73090000D02*
X164420000Y-73090000D01*
G04 #@! TO.C,R206*
X154740000Y-55680000D02*
X154740000Y-56120000D01*
X155760000Y-55680000D02*
X155760000Y-56120000D01*
G04 #@! TO.C,R207*
X164740000Y-55680000D02*
X164740000Y-56120000D01*
X165760000Y-55680000D02*
X165760000Y-56120000D01*
G04 #@! TO.C,R208*
X148490000Y-55680000D02*
X148490000Y-56120000D01*
X149510000Y-55680000D02*
X149510000Y-56120000D01*
G04 #@! TO.C,R201*
X164420000Y-71490000D02*
X163980000Y-71490000D01*
X164420000Y-72510000D02*
X163980000Y-72510000D01*
G04 #@! TO.C,C212*
X162220000Y-75730000D02*
X162220000Y-76170000D01*
X163240000Y-75730000D02*
X163240000Y-76170000D01*
G04 #@! TO.C,C203*
X143150000Y-74600000D02*
X143150000Y-75040000D01*
X144170000Y-74600000D02*
X144170000Y-75040000D01*
G04 #@! TO.C,C204*
X144180000Y-81790000D02*
X144180000Y-81350000D01*
X143160000Y-81790000D02*
X143160000Y-81350000D01*
G04 #@! TO.C,C202*
X152950000Y-87170000D02*
X153390000Y-87170000D01*
X152950000Y-86150000D02*
X153390000Y-86150000D01*
G04 #@! TO.C,C211*
X153930000Y-72910000D02*
X154370000Y-72910000D01*
X153930000Y-71890000D02*
X154370000Y-71890000D01*
G04 #@! TO.C,C213*
X151070000Y-75045000D02*
X151070000Y-74605000D01*
X150050000Y-75045000D02*
X150050000Y-74605000D01*
G04 #@! TO.C,C210*
X151080000Y-80165000D02*
X151080000Y-79725000D01*
X150060000Y-80165000D02*
X150060000Y-79725000D01*
G04 #@! TO.C,R204*
X150230000Y-59310000D02*
X150670000Y-59310000D01*
X150230000Y-58290000D02*
X150670000Y-58290000D01*
G04 #@! TO.C,R203*
X150670000Y-59990000D02*
X150230000Y-59990000D01*
X150670000Y-61010000D02*
X150230000Y-61010000D01*
G04 #@! TO.C,R601*
X195555000Y-49710000D02*
X195995000Y-49710000D01*
X195555000Y-48690000D02*
X195995000Y-48690000D01*
G04 #@! TO.C,W601*
X193550000Y-44850000D02*
G75*
G03X193550000Y-44850000I-1450000J0D01*
G01*
G04 #@! TO.C,D601*
X203790000Y-55000462D02*
G75*
G03X198240000Y-53455170I-2990000J462D01*
G01*
X203790000Y-54999538D02*
G75*
G02X198240000Y-56544830I-2990000J-462D01*
G01*
X203300000Y-55000000D02*
G75*
G03X203300000Y-55000000I-2500000J0D01*
G01*
X198240000Y-53455000D02*
X198240000Y-56545000D01*
G04 #@! TO.C,D602*
X201300000Y-110700000D02*
X200300000Y-110700000D01*
X200300000Y-110700000D02*
X200300000Y-112800000D01*
X201300000Y-110700000D02*
X201300000Y-112800000D01*
D14*
G04 #@! TO.C,R602*
X206375000Y-111400000D02*
X206375000Y-112600000D01*
X204625000Y-112600000D02*
X204625000Y-111400000D01*
D13*
G04 #@! TO.C,C601*
X192450000Y-106800000D02*
X191750000Y-106800000D01*
X191750000Y-105600000D02*
X192450000Y-105600000D01*
D14*
G04 #@! TO.C,U601*
X190125000Y-107325000D02*
X190125000Y-107375000D01*
X194275000Y-107325000D02*
X194275000Y-107470000D01*
X194275000Y-112475000D02*
X194275000Y-112330000D01*
X190125000Y-112475000D02*
X190125000Y-112330000D01*
X190125000Y-107325000D02*
X194275000Y-107325000D01*
X190125000Y-112475000D02*
X194275000Y-112475000D01*
X190125000Y-107375000D02*
X188725000Y-107375000D01*
X211475000Y-80675000D02*
X211475000Y-80625000D01*
X207325000Y-80675000D02*
X207325000Y-80530000D01*
X207325000Y-75525000D02*
X207325000Y-75670000D01*
X211475000Y-75525000D02*
X211475000Y-75670000D01*
X211475000Y-80675000D02*
X207325000Y-80675000D01*
X211475000Y-75525000D02*
X207325000Y-75525000D01*
X211475000Y-80625000D02*
X212875000Y-80625000D01*
G04 #@! TO.C,R602*
X195225000Y-76600000D02*
X195225000Y-75400000D01*
X196975000Y-75400000D02*
X196975000Y-76600000D01*
D13*
G04 #@! TO.C,C601*
X209150000Y-81200000D02*
X209850000Y-81200000D01*
X209850000Y-82400000D02*
X209150000Y-82400000D01*
G04 #@! TO.C,D602*
X200300000Y-77300000D02*
X201300000Y-77300000D01*
X201300000Y-77300000D02*
X201300000Y-75200000D01*
X200300000Y-77300000D02*
X200300000Y-75200000D01*
G04 #@! TO.C,C601*
X191750000Y-48600000D02*
X192450000Y-48600000D01*
X192450000Y-49800000D02*
X191750000Y-49800000D01*
D14*
G04 #@! TO.C,U601*
X190125000Y-50375000D02*
X188725000Y-50375000D01*
X190125000Y-55475000D02*
X194275000Y-55475000D01*
X190125000Y-50325000D02*
X194275000Y-50325000D01*
X190125000Y-55475000D02*
X190125000Y-55330000D01*
X194275000Y-55475000D02*
X194275000Y-55330000D01*
X194275000Y-50325000D02*
X194275000Y-50470000D01*
X190125000Y-50325000D02*
X190125000Y-50375000D01*
D13*
G04 #@! TO.C,D602*
X201300000Y-53700000D02*
X201300000Y-55800000D01*
X200300000Y-53700000D02*
X200300000Y-55800000D01*
X201300000Y-53700000D02*
X200300000Y-53700000D01*
D14*
G04 #@! TO.C,R602*
X204625000Y-55600000D02*
X204625000Y-54400000D01*
X206375000Y-54400000D02*
X206375000Y-55600000D01*
G04 #@! TO.C,P402*
X40309523Y-132952380D02*
X40309523Y-131952380D01*
X40690476Y-131952380D01*
X40785714Y-132000000D01*
X40833333Y-132047619D01*
X40880952Y-132142857D01*
X40880952Y-132285714D01*
X40833333Y-132380952D01*
X40785714Y-132428571D01*
X40690476Y-132476190D01*
X40309523Y-132476190D01*
X41738095Y-132285714D02*
X41738095Y-132952380D01*
X41500000Y-131904761D02*
X41261904Y-132619047D01*
X41880952Y-132619047D01*
X42452380Y-131952380D02*
X42547619Y-131952380D01*
X42642857Y-132000000D01*
X42690476Y-132047619D01*
X42738095Y-132142857D01*
X42785714Y-132333333D01*
X42785714Y-132571428D01*
X42738095Y-132761904D01*
X42690476Y-132857142D01*
X42642857Y-132904761D01*
X42547619Y-132952380D01*
X42452380Y-132952380D01*
X42357142Y-132904761D01*
X42309523Y-132857142D01*
X42261904Y-132761904D01*
X42214285Y-132571428D01*
X42214285Y-132333333D01*
X42261904Y-132142857D01*
X42309523Y-132047619D01*
X42357142Y-132000000D01*
X42452380Y-131952380D01*
X43166666Y-132047619D02*
X43214285Y-132000000D01*
X43309523Y-131952380D01*
X43547619Y-131952380D01*
X43642857Y-132000000D01*
X43690476Y-132047619D01*
X43738095Y-132142857D01*
X43738095Y-132238095D01*
X43690476Y-132380952D01*
X43119047Y-132952380D01*
X43738095Y-132952380D01*
G04 #@! TO.C,P401*
X40309523Y-59852380D02*
X40309523Y-58852380D01*
X40690476Y-58852380D01*
X40785714Y-58900000D01*
X40833333Y-58947619D01*
X40880952Y-59042857D01*
X40880952Y-59185714D01*
X40833333Y-59280952D01*
X40785714Y-59328571D01*
X40690476Y-59376190D01*
X40309523Y-59376190D01*
X41738095Y-59185714D02*
X41738095Y-59852380D01*
X41500000Y-58804761D02*
X41261904Y-59519047D01*
X41880952Y-59519047D01*
X42452380Y-58852380D02*
X42547619Y-58852380D01*
X42642857Y-58900000D01*
X42690476Y-58947619D01*
X42738095Y-59042857D01*
X42785714Y-59233333D01*
X42785714Y-59471428D01*
X42738095Y-59661904D01*
X42690476Y-59757142D01*
X42642857Y-59804761D01*
X42547619Y-59852380D01*
X42452380Y-59852380D01*
X42357142Y-59804761D01*
X42309523Y-59757142D01*
X42261904Y-59661904D01*
X42214285Y-59471428D01*
X42214285Y-59233333D01*
X42261904Y-59042857D01*
X42309523Y-58947619D01*
X42357142Y-58900000D01*
X42452380Y-58852380D01*
X43738095Y-59852380D02*
X43166666Y-59852380D01*
X43452380Y-59852380D02*
X43452380Y-58852380D01*
X43357142Y-58995238D01*
X43261904Y-59090476D01*
X43166666Y-59138095D01*
G04 #@! TO.C,P403*
X48309523Y-69852380D02*
X48309523Y-68852380D01*
X48690476Y-68852380D01*
X48785714Y-68900000D01*
X48833333Y-68947619D01*
X48880952Y-69042857D01*
X48880952Y-69185714D01*
X48833333Y-69280952D01*
X48785714Y-69328571D01*
X48690476Y-69376190D01*
X48309523Y-69376190D01*
X49738095Y-69185714D02*
X49738095Y-69852380D01*
X49500000Y-68804761D02*
X49261904Y-69519047D01*
X49880952Y-69519047D01*
X50452380Y-68852380D02*
X50547619Y-68852380D01*
X50642857Y-68900000D01*
X50690476Y-68947619D01*
X50738095Y-69042857D01*
X50785714Y-69233333D01*
X50785714Y-69471428D01*
X50738095Y-69661904D01*
X50690476Y-69757142D01*
X50642857Y-69804761D01*
X50547619Y-69852380D01*
X50452380Y-69852380D01*
X50357142Y-69804761D01*
X50309523Y-69757142D01*
X50261904Y-69661904D01*
X50214285Y-69471428D01*
X50214285Y-69233333D01*
X50261904Y-69042857D01*
X50309523Y-68947619D01*
X50357142Y-68900000D01*
X50452380Y-68852380D01*
X51119047Y-68852380D02*
X51738095Y-68852380D01*
X51404761Y-69233333D01*
X51547619Y-69233333D01*
X51642857Y-69280952D01*
X51690476Y-69328571D01*
X51738095Y-69423809D01*
X51738095Y-69661904D01*
X51690476Y-69757142D01*
X51642857Y-69804761D01*
X51547619Y-69852380D01*
X51261904Y-69852380D01*
X51166666Y-69804761D01*
X51119047Y-69757142D01*
G04 #@! TO.C,P302*
X82809523Y-139952380D02*
X82809523Y-138952380D01*
X83190476Y-138952380D01*
X83285714Y-139000000D01*
X83333333Y-139047619D01*
X83380952Y-139142857D01*
X83380952Y-139285714D01*
X83333333Y-139380952D01*
X83285714Y-139428571D01*
X83190476Y-139476190D01*
X82809523Y-139476190D01*
X83714285Y-138952380D02*
X84333333Y-138952380D01*
X84000000Y-139333333D01*
X84142857Y-139333333D01*
X84238095Y-139380952D01*
X84285714Y-139428571D01*
X84333333Y-139523809D01*
X84333333Y-139761904D01*
X84285714Y-139857142D01*
X84238095Y-139904761D01*
X84142857Y-139952380D01*
X83857142Y-139952380D01*
X83761904Y-139904761D01*
X83714285Y-139857142D01*
X84952380Y-138952380D02*
X85047619Y-138952380D01*
X85142857Y-139000000D01*
X85190476Y-139047619D01*
X85238095Y-139142857D01*
X85285714Y-139333333D01*
X85285714Y-139571428D01*
X85238095Y-139761904D01*
X85190476Y-139857142D01*
X85142857Y-139904761D01*
X85047619Y-139952380D01*
X84952380Y-139952380D01*
X84857142Y-139904761D01*
X84809523Y-139857142D01*
X84761904Y-139761904D01*
X84714285Y-139571428D01*
X84714285Y-139333333D01*
X84761904Y-139142857D01*
X84809523Y-139047619D01*
X84857142Y-139000000D01*
X84952380Y-138952380D01*
X85666666Y-139047619D02*
X85714285Y-139000000D01*
X85809523Y-138952380D01*
X86047619Y-138952380D01*
X86142857Y-139000000D01*
X86190476Y-139047619D01*
X86238095Y-139142857D01*
X86238095Y-139238095D01*
X86190476Y-139380952D01*
X85619047Y-139952380D01*
X86238095Y-139952380D01*
G04 #@! TO.C,P301*
X82809523Y-67052380D02*
X82809523Y-66052380D01*
X83190476Y-66052380D01*
X83285714Y-66100000D01*
X83333333Y-66147619D01*
X83380952Y-66242857D01*
X83380952Y-66385714D01*
X83333333Y-66480952D01*
X83285714Y-66528571D01*
X83190476Y-66576190D01*
X82809523Y-66576190D01*
X83714285Y-66052380D02*
X84333333Y-66052380D01*
X84000000Y-66433333D01*
X84142857Y-66433333D01*
X84238095Y-66480952D01*
X84285714Y-66528571D01*
X84333333Y-66623809D01*
X84333333Y-66861904D01*
X84285714Y-66957142D01*
X84238095Y-67004761D01*
X84142857Y-67052380D01*
X83857142Y-67052380D01*
X83761904Y-67004761D01*
X83714285Y-66957142D01*
X84952380Y-66052380D02*
X85047619Y-66052380D01*
X85142857Y-66100000D01*
X85190476Y-66147619D01*
X85238095Y-66242857D01*
X85285714Y-66433333D01*
X85285714Y-66671428D01*
X85238095Y-66861904D01*
X85190476Y-66957142D01*
X85142857Y-67004761D01*
X85047619Y-67052380D01*
X84952380Y-67052380D01*
X84857142Y-67004761D01*
X84809523Y-66957142D01*
X84761904Y-66861904D01*
X84714285Y-66671428D01*
X84714285Y-66433333D01*
X84761904Y-66242857D01*
X84809523Y-66147619D01*
X84857142Y-66100000D01*
X84952380Y-66052380D01*
X86238095Y-67052380D02*
X85666666Y-67052380D01*
X85952380Y-67052380D02*
X85952380Y-66052380D01*
X85857142Y-66195238D01*
X85761904Y-66290476D01*
X85666666Y-66338095D01*
G04 #@! TO.C,P303*
X74809523Y-77052380D02*
X74809523Y-76052380D01*
X75190476Y-76052380D01*
X75285714Y-76100000D01*
X75333333Y-76147619D01*
X75380952Y-76242857D01*
X75380952Y-76385714D01*
X75333333Y-76480952D01*
X75285714Y-76528571D01*
X75190476Y-76576190D01*
X74809523Y-76576190D01*
X75714285Y-76052380D02*
X76333333Y-76052380D01*
X76000000Y-76433333D01*
X76142857Y-76433333D01*
X76238095Y-76480952D01*
X76285714Y-76528571D01*
X76333333Y-76623809D01*
X76333333Y-76861904D01*
X76285714Y-76957142D01*
X76238095Y-77004761D01*
X76142857Y-77052380D01*
X75857142Y-77052380D01*
X75761904Y-77004761D01*
X75714285Y-76957142D01*
X76952380Y-76052380D02*
X77047619Y-76052380D01*
X77142857Y-76100000D01*
X77190476Y-76147619D01*
X77238095Y-76242857D01*
X77285714Y-76433333D01*
X77285714Y-76671428D01*
X77238095Y-76861904D01*
X77190476Y-76957142D01*
X77142857Y-77004761D01*
X77047619Y-77052380D01*
X76952380Y-77052380D01*
X76857142Y-77004761D01*
X76809523Y-76957142D01*
X76761904Y-76861904D01*
X76714285Y-76671428D01*
X76714285Y-76433333D01*
X76761904Y-76242857D01*
X76809523Y-76147619D01*
X76857142Y-76100000D01*
X76952380Y-76052380D01*
X77619047Y-76052380D02*
X78238095Y-76052380D01*
X77904761Y-76433333D01*
X78047619Y-76433333D01*
X78142857Y-76480952D01*
X78190476Y-76528571D01*
X78238095Y-76623809D01*
X78238095Y-76861904D01*
X78190476Y-76957142D01*
X78142857Y-77004761D01*
X78047619Y-77052380D01*
X77761904Y-77052380D01*
X77666666Y-77004761D01*
X77619047Y-76957142D01*
G04 #@! TO.C,D601*
X198052380Y-113590476D02*
X197052380Y-113590476D01*
X197052380Y-113352380D01*
X197100000Y-113209523D01*
X197195238Y-113114285D01*
X197290476Y-113066666D01*
X197480952Y-113019047D01*
X197623809Y-113019047D01*
X197814285Y-113066666D01*
X197909523Y-113114285D01*
X198004761Y-113209523D01*
X198052380Y-113352380D01*
X198052380Y-113590476D01*
X197052380Y-112161904D02*
X197052380Y-112352380D01*
X197100000Y-112447619D01*
X197147619Y-112495238D01*
X197290476Y-112590476D01*
X197480952Y-112638095D01*
X197861904Y-112638095D01*
X197957142Y-112590476D01*
X198004761Y-112542857D01*
X198052380Y-112447619D01*
X198052380Y-112257142D01*
X198004761Y-112161904D01*
X197957142Y-112114285D01*
X197861904Y-112066666D01*
X197623809Y-112066666D01*
X197528571Y-112114285D01*
X197480952Y-112161904D01*
X197433333Y-112257142D01*
X197433333Y-112447619D01*
X197480952Y-112542857D01*
X197528571Y-112590476D01*
X197623809Y-112638095D01*
X197052380Y-111447619D02*
X197052380Y-111352380D01*
X197100000Y-111257142D01*
X197147619Y-111209523D01*
X197242857Y-111161904D01*
X197433333Y-111114285D01*
X197671428Y-111114285D01*
X197861904Y-111161904D01*
X197957142Y-111209523D01*
X198004761Y-111257142D01*
X198052380Y-111352380D01*
X198052380Y-111447619D01*
X198004761Y-111542857D01*
X197957142Y-111590476D01*
X197861904Y-111638095D01*
X197671428Y-111685714D01*
X197433333Y-111685714D01*
X197242857Y-111638095D01*
X197147619Y-111590476D01*
X197100000Y-111542857D01*
X197052380Y-111447619D01*
X198052380Y-110161904D02*
X198052380Y-110733333D01*
X198052380Y-110447619D02*
X197052380Y-110447619D01*
X197195238Y-110542857D01*
X197290476Y-110638095D01*
X197338095Y-110733333D01*
G04 #@! TO.C,R601*
X194880952Y-105152380D02*
X194547619Y-104676190D01*
X194309523Y-105152380D02*
X194309523Y-104152380D01*
X194690476Y-104152380D01*
X194785714Y-104200000D01*
X194833333Y-104247619D01*
X194880952Y-104342857D01*
X194880952Y-104485714D01*
X194833333Y-104580952D01*
X194785714Y-104628571D01*
X194690476Y-104676190D01*
X194309523Y-104676190D01*
X195738095Y-104152380D02*
X195547619Y-104152380D01*
X195452380Y-104200000D01*
X195404761Y-104247619D01*
X195309523Y-104390476D01*
X195261904Y-104580952D01*
X195261904Y-104961904D01*
X195309523Y-105057142D01*
X195357142Y-105104761D01*
X195452380Y-105152380D01*
X195642857Y-105152380D01*
X195738095Y-105104761D01*
X195785714Y-105057142D01*
X195833333Y-104961904D01*
X195833333Y-104723809D01*
X195785714Y-104628571D01*
X195738095Y-104580952D01*
X195642857Y-104533333D01*
X195452380Y-104533333D01*
X195357142Y-104580952D01*
X195309523Y-104628571D01*
X195261904Y-104723809D01*
X196452380Y-104152380D02*
X196547619Y-104152380D01*
X196642857Y-104200000D01*
X196690476Y-104247619D01*
X196738095Y-104342857D01*
X196785714Y-104533333D01*
X196785714Y-104771428D01*
X196738095Y-104961904D01*
X196690476Y-105057142D01*
X196642857Y-105104761D01*
X196547619Y-105152380D01*
X196452380Y-105152380D01*
X196357142Y-105104761D01*
X196309523Y-105057142D01*
X196261904Y-104961904D01*
X196214285Y-104771428D01*
X196214285Y-104533333D01*
X196261904Y-104342857D01*
X196309523Y-104247619D01*
X196357142Y-104200000D01*
X196452380Y-104152380D01*
X197738095Y-105152380D02*
X197166666Y-105152380D01*
X197452380Y-105152380D02*
X197452380Y-104152380D01*
X197357142Y-104295238D01*
X197261904Y-104390476D01*
X197166666Y-104438095D01*
G04 #@! TO.C,D601*
X204452380Y-77790476D02*
X203452380Y-77790476D01*
X203452380Y-77552380D01*
X203500000Y-77409523D01*
X203595238Y-77314285D01*
X203690476Y-77266666D01*
X203880952Y-77219047D01*
X204023809Y-77219047D01*
X204214285Y-77266666D01*
X204309523Y-77314285D01*
X204404761Y-77409523D01*
X204452380Y-77552380D01*
X204452380Y-77790476D01*
X203452380Y-76361904D02*
X203452380Y-76552380D01*
X203500000Y-76647619D01*
X203547619Y-76695238D01*
X203690476Y-76790476D01*
X203880952Y-76838095D01*
X204261904Y-76838095D01*
X204357142Y-76790476D01*
X204404761Y-76742857D01*
X204452380Y-76647619D01*
X204452380Y-76457142D01*
X204404761Y-76361904D01*
X204357142Y-76314285D01*
X204261904Y-76266666D01*
X204023809Y-76266666D01*
X203928571Y-76314285D01*
X203880952Y-76361904D01*
X203833333Y-76457142D01*
X203833333Y-76647619D01*
X203880952Y-76742857D01*
X203928571Y-76790476D01*
X204023809Y-76838095D01*
X203452380Y-75647619D02*
X203452380Y-75552380D01*
X203500000Y-75457142D01*
X203547619Y-75409523D01*
X203642857Y-75361904D01*
X203833333Y-75314285D01*
X204071428Y-75314285D01*
X204261904Y-75361904D01*
X204357142Y-75409523D01*
X204404761Y-75457142D01*
X204452380Y-75552380D01*
X204452380Y-75647619D01*
X204404761Y-75742857D01*
X204357142Y-75790476D01*
X204261904Y-75838095D01*
X204071428Y-75885714D01*
X203833333Y-75885714D01*
X203642857Y-75838095D01*
X203547619Y-75790476D01*
X203500000Y-75742857D01*
X203452380Y-75647619D01*
X204452380Y-74361904D02*
X204452380Y-74933333D01*
X204452380Y-74647619D02*
X203452380Y-74647619D01*
X203595238Y-74742857D01*
X203690476Y-74838095D01*
X203738095Y-74933333D01*
G04 #@! TO.C,R601*
X204480952Y-83752380D02*
X204147619Y-83276190D01*
X203909523Y-83752380D02*
X203909523Y-82752380D01*
X204290476Y-82752380D01*
X204385714Y-82800000D01*
X204433333Y-82847619D01*
X204480952Y-82942857D01*
X204480952Y-83085714D01*
X204433333Y-83180952D01*
X204385714Y-83228571D01*
X204290476Y-83276190D01*
X203909523Y-83276190D01*
X205338095Y-82752380D02*
X205147619Y-82752380D01*
X205052380Y-82800000D01*
X205004761Y-82847619D01*
X204909523Y-82990476D01*
X204861904Y-83180952D01*
X204861904Y-83561904D01*
X204909523Y-83657142D01*
X204957142Y-83704761D01*
X205052380Y-83752380D01*
X205242857Y-83752380D01*
X205338095Y-83704761D01*
X205385714Y-83657142D01*
X205433333Y-83561904D01*
X205433333Y-83323809D01*
X205385714Y-83228571D01*
X205338095Y-83180952D01*
X205242857Y-83133333D01*
X205052380Y-83133333D01*
X204957142Y-83180952D01*
X204909523Y-83228571D01*
X204861904Y-83323809D01*
X206052380Y-82752380D02*
X206147619Y-82752380D01*
X206242857Y-82800000D01*
X206290476Y-82847619D01*
X206338095Y-82942857D01*
X206385714Y-83133333D01*
X206385714Y-83371428D01*
X206338095Y-83561904D01*
X206290476Y-83657142D01*
X206242857Y-83704761D01*
X206147619Y-83752380D01*
X206052380Y-83752380D01*
X205957142Y-83704761D01*
X205909523Y-83657142D01*
X205861904Y-83561904D01*
X205814285Y-83371428D01*
X205814285Y-83133333D01*
X205861904Y-82942857D01*
X205909523Y-82847619D01*
X205957142Y-82800000D01*
X206052380Y-82752380D01*
X207338095Y-83752380D02*
X206766666Y-83752380D01*
X207052380Y-83752380D02*
X207052380Y-82752380D01*
X206957142Y-82895238D01*
X206861904Y-82990476D01*
X206766666Y-83038095D01*
G04 #@! TO.C,D501*
X199009523Y-142552380D02*
X199009523Y-141552380D01*
X199247619Y-141552380D01*
X199390476Y-141600000D01*
X199485714Y-141695238D01*
X199533333Y-141790476D01*
X199580952Y-141980952D01*
X199580952Y-142123809D01*
X199533333Y-142314285D01*
X199485714Y-142409523D01*
X199390476Y-142504761D01*
X199247619Y-142552380D01*
X199009523Y-142552380D01*
X200485714Y-141552380D02*
X200009523Y-141552380D01*
X199961904Y-142028571D01*
X200009523Y-141980952D01*
X200104761Y-141933333D01*
X200342857Y-141933333D01*
X200438095Y-141980952D01*
X200485714Y-142028571D01*
X200533333Y-142123809D01*
X200533333Y-142361904D01*
X200485714Y-142457142D01*
X200438095Y-142504761D01*
X200342857Y-142552380D01*
X200104761Y-142552380D01*
X200009523Y-142504761D01*
X199961904Y-142457142D01*
X201152380Y-141552380D02*
X201247619Y-141552380D01*
X201342857Y-141600000D01*
X201390476Y-141647619D01*
X201438095Y-141742857D01*
X201485714Y-141933333D01*
X201485714Y-142171428D01*
X201438095Y-142361904D01*
X201390476Y-142457142D01*
X201342857Y-142504761D01*
X201247619Y-142552380D01*
X201152380Y-142552380D01*
X201057142Y-142504761D01*
X201009523Y-142457142D01*
X200961904Y-142361904D01*
X200914285Y-142171428D01*
X200914285Y-141933333D01*
X200961904Y-141742857D01*
X201009523Y-141647619D01*
X201057142Y-141600000D01*
X201152380Y-141552380D01*
X202438095Y-142552380D02*
X201866666Y-142552380D01*
X202152380Y-142552380D02*
X202152380Y-141552380D01*
X202057142Y-141695238D01*
X201961904Y-141790476D01*
X201866666Y-141838095D01*
G04 #@! TO.C,R501*
X197852380Y-148019047D02*
X197376190Y-148352380D01*
X197852380Y-148590476D02*
X196852380Y-148590476D01*
X196852380Y-148209523D01*
X196900000Y-148114285D01*
X196947619Y-148066666D01*
X197042857Y-148019047D01*
X197185714Y-148019047D01*
X197280952Y-148066666D01*
X197328571Y-148114285D01*
X197376190Y-148209523D01*
X197376190Y-148590476D01*
X196852380Y-147114285D02*
X196852380Y-147590476D01*
X197328571Y-147638095D01*
X197280952Y-147590476D01*
X197233333Y-147495238D01*
X197233333Y-147257142D01*
X197280952Y-147161904D01*
X197328571Y-147114285D01*
X197423809Y-147066666D01*
X197661904Y-147066666D01*
X197757142Y-147114285D01*
X197804761Y-147161904D01*
X197852380Y-147257142D01*
X197852380Y-147495238D01*
X197804761Y-147590476D01*
X197757142Y-147638095D01*
X196852380Y-146447619D02*
X196852380Y-146352380D01*
X196900000Y-146257142D01*
X196947619Y-146209523D01*
X197042857Y-146161904D01*
X197233333Y-146114285D01*
X197471428Y-146114285D01*
X197661904Y-146161904D01*
X197757142Y-146209523D01*
X197804761Y-146257142D01*
X197852380Y-146352380D01*
X197852380Y-146447619D01*
X197804761Y-146542857D01*
X197757142Y-146590476D01*
X197661904Y-146638095D01*
X197471428Y-146685714D01*
X197233333Y-146685714D01*
X197042857Y-146638095D01*
X196947619Y-146590476D01*
X196900000Y-146542857D01*
X196852380Y-146447619D01*
X197852380Y-145161904D02*
X197852380Y-145733333D01*
X197852380Y-145447619D02*
X196852380Y-145447619D01*
X196995238Y-145542857D01*
X197090476Y-145638095D01*
X197138095Y-145733333D01*
G04 #@! TO.C,U502*
X207647619Y-141985714D02*
X206838095Y-141985714D01*
X206742857Y-142033333D01*
X206695238Y-142080952D01*
X206647619Y-142176190D01*
X206647619Y-142366666D01*
X206695238Y-142461904D01*
X206742857Y-142509523D01*
X206838095Y-142557142D01*
X207647619Y-142557142D01*
X207647619Y-143509523D02*
X207647619Y-143033333D01*
X207171428Y-142985714D01*
X207219047Y-143033333D01*
X207266666Y-143128571D01*
X207266666Y-143366666D01*
X207219047Y-143461904D01*
X207171428Y-143509523D01*
X207076190Y-143557142D01*
X206838095Y-143557142D01*
X206742857Y-143509523D01*
X206695238Y-143461904D01*
X206647619Y-143366666D01*
X206647619Y-143128571D01*
X206695238Y-143033333D01*
X206742857Y-142985714D01*
X207647619Y-144176190D02*
X207647619Y-144271428D01*
X207600000Y-144366666D01*
X207552380Y-144414285D01*
X207457142Y-144461904D01*
X207266666Y-144509523D01*
X207028571Y-144509523D01*
X206838095Y-144461904D01*
X206742857Y-144414285D01*
X206695238Y-144366666D01*
X206647619Y-144271428D01*
X206647619Y-144176190D01*
X206695238Y-144080952D01*
X206742857Y-144033333D01*
X206838095Y-143985714D01*
X207028571Y-143938095D01*
X207266666Y-143938095D01*
X207457142Y-143985714D01*
X207552380Y-144033333D01*
X207600000Y-144080952D01*
X207647619Y-144176190D01*
X207552380Y-144890476D02*
X207600000Y-144938095D01*
X207647619Y-145033333D01*
X207647619Y-145271428D01*
X207600000Y-145366666D01*
X207552380Y-145414285D01*
X207457142Y-145461904D01*
X207361904Y-145461904D01*
X207219047Y-145414285D01*
X206647619Y-144842857D01*
X206647619Y-145461904D01*
G04 #@! TO.C,U501*
X191485714Y-140152380D02*
X191485714Y-140961904D01*
X191533333Y-141057142D01*
X191580952Y-141104761D01*
X191676190Y-141152380D01*
X191866666Y-141152380D01*
X191961904Y-141104761D01*
X192009523Y-141057142D01*
X192057142Y-140961904D01*
X192057142Y-140152380D01*
X193009523Y-140152380D02*
X192533333Y-140152380D01*
X192485714Y-140628571D01*
X192533333Y-140580952D01*
X192628571Y-140533333D01*
X192866666Y-140533333D01*
X192961904Y-140580952D01*
X193009523Y-140628571D01*
X193057142Y-140723809D01*
X193057142Y-140961904D01*
X193009523Y-141057142D01*
X192961904Y-141104761D01*
X192866666Y-141152380D01*
X192628571Y-141152380D01*
X192533333Y-141104761D01*
X192485714Y-141057142D01*
X193676190Y-140152380D02*
X193771428Y-140152380D01*
X193866666Y-140200000D01*
X193914285Y-140247619D01*
X193961904Y-140342857D01*
X194009523Y-140533333D01*
X194009523Y-140771428D01*
X193961904Y-140961904D01*
X193914285Y-141057142D01*
X193866666Y-141104761D01*
X193771428Y-141152380D01*
X193676190Y-141152380D01*
X193580952Y-141104761D01*
X193533333Y-141057142D01*
X193485714Y-140961904D01*
X193438095Y-140771428D01*
X193438095Y-140533333D01*
X193485714Y-140342857D01*
X193533333Y-140247619D01*
X193580952Y-140200000D01*
X193676190Y-140152380D01*
X194961904Y-141152380D02*
X194390476Y-141152380D01*
X194676190Y-141152380D02*
X194676190Y-140152380D01*
X194580952Y-140295238D01*
X194485714Y-140390476D01*
X194390476Y-140438095D01*
G04 #@! TO.C,C501*
X196157142Y-148019047D02*
X196204761Y-148066666D01*
X196252380Y-148209523D01*
X196252380Y-148304761D01*
X196204761Y-148447619D01*
X196109523Y-148542857D01*
X196014285Y-148590476D01*
X195823809Y-148638095D01*
X195680952Y-148638095D01*
X195490476Y-148590476D01*
X195395238Y-148542857D01*
X195300000Y-148447619D01*
X195252380Y-148304761D01*
X195252380Y-148209523D01*
X195300000Y-148066666D01*
X195347619Y-148019047D01*
X195252380Y-147114285D02*
X195252380Y-147590476D01*
X195728571Y-147638095D01*
X195680952Y-147590476D01*
X195633333Y-147495238D01*
X195633333Y-147257142D01*
X195680952Y-147161904D01*
X195728571Y-147114285D01*
X195823809Y-147066666D01*
X196061904Y-147066666D01*
X196157142Y-147114285D01*
X196204761Y-147161904D01*
X196252380Y-147257142D01*
X196252380Y-147495238D01*
X196204761Y-147590476D01*
X196157142Y-147638095D01*
X195252380Y-146447619D02*
X195252380Y-146352380D01*
X195300000Y-146257142D01*
X195347619Y-146209523D01*
X195442857Y-146161904D01*
X195633333Y-146114285D01*
X195871428Y-146114285D01*
X196061904Y-146161904D01*
X196157142Y-146209523D01*
X196204761Y-146257142D01*
X196252380Y-146352380D01*
X196252380Y-146447619D01*
X196204761Y-146542857D01*
X196157142Y-146590476D01*
X196061904Y-146638095D01*
X195871428Y-146685714D01*
X195633333Y-146685714D01*
X195442857Y-146638095D01*
X195347619Y-146590476D01*
X195300000Y-146542857D01*
X195252380Y-146447619D01*
X196252380Y-145161904D02*
X196252380Y-145733333D01*
X196252380Y-145447619D02*
X195252380Y-145447619D01*
X195395238Y-145542857D01*
X195490476Y-145638095D01*
X195538095Y-145733333D01*
G04 #@! TO.C,C502*
X211380952Y-140457142D02*
X211333333Y-140504761D01*
X211190476Y-140552380D01*
X211095238Y-140552380D01*
X210952380Y-140504761D01*
X210857142Y-140409523D01*
X210809523Y-140314285D01*
X210761904Y-140123809D01*
X210761904Y-139980952D01*
X210809523Y-139790476D01*
X210857142Y-139695238D01*
X210952380Y-139600000D01*
X211095238Y-139552380D01*
X211190476Y-139552380D01*
X211333333Y-139600000D01*
X211380952Y-139647619D01*
X212285714Y-139552380D02*
X211809523Y-139552380D01*
X211761904Y-140028571D01*
X211809523Y-139980952D01*
X211904761Y-139933333D01*
X212142857Y-139933333D01*
X212238095Y-139980952D01*
X212285714Y-140028571D01*
X212333333Y-140123809D01*
X212333333Y-140361904D01*
X212285714Y-140457142D01*
X212238095Y-140504761D01*
X212142857Y-140552380D01*
X211904761Y-140552380D01*
X211809523Y-140504761D01*
X211761904Y-140457142D01*
X212952380Y-139552380D02*
X213047619Y-139552380D01*
X213142857Y-139600000D01*
X213190476Y-139647619D01*
X213238095Y-139742857D01*
X213285714Y-139933333D01*
X213285714Y-140171428D01*
X213238095Y-140361904D01*
X213190476Y-140457142D01*
X213142857Y-140504761D01*
X213047619Y-140552380D01*
X212952380Y-140552380D01*
X212857142Y-140504761D01*
X212809523Y-140457142D01*
X212761904Y-140361904D01*
X212714285Y-140171428D01*
X212714285Y-139933333D01*
X212761904Y-139742857D01*
X212809523Y-139647619D01*
X212857142Y-139600000D01*
X212952380Y-139552380D01*
X213666666Y-139647619D02*
X213714285Y-139600000D01*
X213809523Y-139552380D01*
X214047619Y-139552380D01*
X214142857Y-139600000D01*
X214190476Y-139647619D01*
X214238095Y-139742857D01*
X214238095Y-139838095D01*
X214190476Y-139980952D01*
X213619047Y-140552380D01*
X214238095Y-140552380D01*
G04 #@! TO.C,C503*
X190957142Y-148019047D02*
X191004761Y-148066666D01*
X191052380Y-148209523D01*
X191052380Y-148304761D01*
X191004761Y-148447619D01*
X190909523Y-148542857D01*
X190814285Y-148590476D01*
X190623809Y-148638095D01*
X190480952Y-148638095D01*
X190290476Y-148590476D01*
X190195238Y-148542857D01*
X190100000Y-148447619D01*
X190052380Y-148304761D01*
X190052380Y-148209523D01*
X190100000Y-148066666D01*
X190147619Y-148019047D01*
X190052380Y-147114285D02*
X190052380Y-147590476D01*
X190528571Y-147638095D01*
X190480952Y-147590476D01*
X190433333Y-147495238D01*
X190433333Y-147257142D01*
X190480952Y-147161904D01*
X190528571Y-147114285D01*
X190623809Y-147066666D01*
X190861904Y-147066666D01*
X190957142Y-147114285D01*
X191004761Y-147161904D01*
X191052380Y-147257142D01*
X191052380Y-147495238D01*
X191004761Y-147590476D01*
X190957142Y-147638095D01*
X190052380Y-146447619D02*
X190052380Y-146352380D01*
X190100000Y-146257142D01*
X190147619Y-146209523D01*
X190242857Y-146161904D01*
X190433333Y-146114285D01*
X190671428Y-146114285D01*
X190861904Y-146161904D01*
X190957142Y-146209523D01*
X191004761Y-146257142D01*
X191052380Y-146352380D01*
X191052380Y-146447619D01*
X191004761Y-146542857D01*
X190957142Y-146590476D01*
X190861904Y-146638095D01*
X190671428Y-146685714D01*
X190433333Y-146685714D01*
X190242857Y-146638095D01*
X190147619Y-146590476D01*
X190100000Y-146542857D01*
X190052380Y-146447619D01*
X190052380Y-145780952D02*
X190052380Y-145161904D01*
X190433333Y-145495238D01*
X190433333Y-145352380D01*
X190480952Y-145257142D01*
X190528571Y-145209523D01*
X190623809Y-145161904D01*
X190861904Y-145161904D01*
X190957142Y-145209523D01*
X191004761Y-145257142D01*
X191052380Y-145352380D01*
X191052380Y-145638095D01*
X191004761Y-145733333D01*
X190957142Y-145780952D01*
G04 #@! TO.C,U101*
D12*
X113616666Y-140200000D02*
X114183333Y-140200000D01*
X114250000Y-140166666D01*
X114283333Y-140133333D01*
X114316666Y-140066666D01*
X114316666Y-139933333D01*
X114283333Y-139866666D01*
X114250000Y-139833333D01*
X114183333Y-139800000D01*
X113616666Y-139800000D01*
X114316666Y-139100000D02*
X114316666Y-139500000D01*
X114316666Y-139300000D02*
X113616666Y-139300000D01*
X113716666Y-139366666D01*
X113783333Y-139433333D01*
X113816666Y-139500000D01*
X113616666Y-138666666D02*
X113616666Y-138600000D01*
X113650000Y-138533333D01*
X113683333Y-138500000D01*
X113750000Y-138466666D01*
X113883333Y-138433333D01*
X114050000Y-138433333D01*
X114183333Y-138466666D01*
X114250000Y-138500000D01*
X114283333Y-138533333D01*
X114316666Y-138600000D01*
X114316666Y-138666666D01*
X114283333Y-138733333D01*
X114250000Y-138766666D01*
X114183333Y-138800000D01*
X114050000Y-138833333D01*
X113883333Y-138833333D01*
X113750000Y-138800000D01*
X113683333Y-138766666D01*
X113650000Y-138733333D01*
X113616666Y-138666666D01*
X114316666Y-137766666D02*
X114316666Y-138166666D01*
X114316666Y-137966666D02*
X113616666Y-137966666D01*
X113716666Y-138033333D01*
X113783333Y-138100000D01*
X113816666Y-138166666D01*
G04 #@! TO.C,J101*
X110750000Y-159804166D02*
X110750000Y-160304166D01*
X110716666Y-160404166D01*
X110650000Y-160470833D01*
X110550000Y-160504166D01*
X110483333Y-160504166D01*
X111450000Y-160504166D02*
X111050000Y-160504166D01*
X111250000Y-160504166D02*
X111250000Y-159804166D01*
X111183333Y-159904166D01*
X111116666Y-159970833D01*
X111050000Y-160004166D01*
X111883333Y-159804166D02*
X111950000Y-159804166D01*
X112016666Y-159837500D01*
X112050000Y-159870833D01*
X112083333Y-159937500D01*
X112116666Y-160070833D01*
X112116666Y-160237500D01*
X112083333Y-160370833D01*
X112050000Y-160437500D01*
X112016666Y-160470833D01*
X111950000Y-160504166D01*
X111883333Y-160504166D01*
X111816666Y-160470833D01*
X111783333Y-160437500D01*
X111750000Y-160370833D01*
X111716666Y-160237500D01*
X111716666Y-160070833D01*
X111750000Y-159937500D01*
X111783333Y-159870833D01*
X111816666Y-159837500D01*
X111883333Y-159804166D01*
X112783333Y-160504166D02*
X112383333Y-160504166D01*
X112583333Y-160504166D02*
X112583333Y-159804166D01*
X112516666Y-159904166D01*
X112450000Y-159970833D01*
X112383333Y-160004166D01*
G04 #@! TO.C,D101*
X126516666Y-61083333D02*
X125816666Y-61083333D01*
X125816666Y-60916666D01*
X125850000Y-60816666D01*
X125916666Y-60750000D01*
X125983333Y-60716666D01*
X126116666Y-60683333D01*
X126216666Y-60683333D01*
X126350000Y-60716666D01*
X126416666Y-60750000D01*
X126483333Y-60816666D01*
X126516666Y-60916666D01*
X126516666Y-61083333D01*
X126516666Y-60016666D02*
X126516666Y-60416666D01*
X126516666Y-60216666D02*
X125816666Y-60216666D01*
X125916666Y-60283333D01*
X125983333Y-60350000D01*
X126016666Y-60416666D01*
X125816666Y-59583333D02*
X125816666Y-59516666D01*
X125850000Y-59450000D01*
X125883333Y-59416666D01*
X125950000Y-59383333D01*
X126083333Y-59350000D01*
X126250000Y-59350000D01*
X126383333Y-59383333D01*
X126450000Y-59416666D01*
X126483333Y-59450000D01*
X126516666Y-59516666D01*
X126516666Y-59583333D01*
X126483333Y-59650000D01*
X126450000Y-59683333D01*
X126383333Y-59716666D01*
X126250000Y-59750000D01*
X126083333Y-59750000D01*
X125950000Y-59716666D01*
X125883333Y-59683333D01*
X125850000Y-59650000D01*
X125816666Y-59583333D01*
X126516666Y-58683333D02*
X126516666Y-59083333D01*
X126516666Y-58883333D02*
X125816666Y-58883333D01*
X125916666Y-58950000D01*
X125983333Y-59016666D01*
X126016666Y-59083333D01*
G04 #@! TO.C,F101*
X105150000Y-139000000D02*
X105150000Y-139233333D01*
X105516666Y-139233333D02*
X104816666Y-139233333D01*
X104816666Y-138900000D01*
X105516666Y-138266666D02*
X105516666Y-138666666D01*
X105516666Y-138466666D02*
X104816666Y-138466666D01*
X104916666Y-138533333D01*
X104983333Y-138600000D01*
X105016666Y-138666666D01*
X104816666Y-137833333D02*
X104816666Y-137766666D01*
X104850000Y-137700000D01*
X104883333Y-137666666D01*
X104950000Y-137633333D01*
X105083333Y-137600000D01*
X105250000Y-137600000D01*
X105383333Y-137633333D01*
X105450000Y-137666666D01*
X105483333Y-137700000D01*
X105516666Y-137766666D01*
X105516666Y-137833333D01*
X105483333Y-137900000D01*
X105450000Y-137933333D01*
X105383333Y-137966666D01*
X105250000Y-138000000D01*
X105083333Y-138000000D01*
X104950000Y-137966666D01*
X104883333Y-137933333D01*
X104850000Y-137900000D01*
X104816666Y-137833333D01*
X105516666Y-136933333D02*
X105516666Y-137333333D01*
X105516666Y-137133333D02*
X104816666Y-137133333D01*
X104916666Y-137200000D01*
X104983333Y-137266666D01*
X105016666Y-137333333D01*
G04 #@! TO.C,L104*
X127616666Y-66583333D02*
X127616666Y-66916666D01*
X126916666Y-66916666D01*
X127616666Y-65983333D02*
X127616666Y-66383333D01*
X127616666Y-66183333D02*
X126916666Y-66183333D01*
X127016666Y-66250000D01*
X127083333Y-66316666D01*
X127116666Y-66383333D01*
X126916666Y-65550000D02*
X126916666Y-65483333D01*
X126950000Y-65416666D01*
X126983333Y-65383333D01*
X127050000Y-65350000D01*
X127183333Y-65316666D01*
X127350000Y-65316666D01*
X127483333Y-65350000D01*
X127550000Y-65383333D01*
X127583333Y-65416666D01*
X127616666Y-65483333D01*
X127616666Y-65550000D01*
X127583333Y-65616666D01*
X127550000Y-65650000D01*
X127483333Y-65683333D01*
X127350000Y-65716666D01*
X127183333Y-65716666D01*
X127050000Y-65683333D01*
X126983333Y-65650000D01*
X126950000Y-65616666D01*
X126916666Y-65550000D01*
X127150000Y-64716666D02*
X127616666Y-64716666D01*
X126883333Y-64883333D02*
X127383333Y-65050000D01*
X127383333Y-64616666D01*
G04 #@! TO.C,C104*
X115450000Y-62833333D02*
X115483333Y-62866666D01*
X115516666Y-62966666D01*
X115516666Y-63033333D01*
X115483333Y-63133333D01*
X115416666Y-63200000D01*
X115350000Y-63233333D01*
X115216666Y-63266666D01*
X115116666Y-63266666D01*
X114983333Y-63233333D01*
X114916666Y-63200000D01*
X114850000Y-63133333D01*
X114816666Y-63033333D01*
X114816666Y-62966666D01*
X114850000Y-62866666D01*
X114883333Y-62833333D01*
X115516666Y-62166666D02*
X115516666Y-62566666D01*
X115516666Y-62366666D02*
X114816666Y-62366666D01*
X114916666Y-62433333D01*
X114983333Y-62500000D01*
X115016666Y-62566666D01*
X114816666Y-61733333D02*
X114816666Y-61666666D01*
X114850000Y-61600000D01*
X114883333Y-61566666D01*
X114950000Y-61533333D01*
X115083333Y-61500000D01*
X115250000Y-61500000D01*
X115383333Y-61533333D01*
X115450000Y-61566666D01*
X115483333Y-61600000D01*
X115516666Y-61666666D01*
X115516666Y-61733333D01*
X115483333Y-61800000D01*
X115450000Y-61833333D01*
X115383333Y-61866666D01*
X115250000Y-61900000D01*
X115083333Y-61900000D01*
X114950000Y-61866666D01*
X114883333Y-61833333D01*
X114850000Y-61800000D01*
X114816666Y-61733333D01*
X115050000Y-60900000D02*
X115516666Y-60900000D01*
X114783333Y-61066666D02*
X115283333Y-61233333D01*
X115283333Y-60800000D01*
G04 #@! TO.C,U102*
X113216666Y-77800000D02*
X113783333Y-77800000D01*
X113850000Y-77766666D01*
X113883333Y-77733333D01*
X113916666Y-77666666D01*
X113916666Y-77533333D01*
X113883333Y-77466666D01*
X113850000Y-77433333D01*
X113783333Y-77400000D01*
X113216666Y-77400000D01*
X113916666Y-76700000D02*
X113916666Y-77100000D01*
X113916666Y-76900000D02*
X113216666Y-76900000D01*
X113316666Y-76966666D01*
X113383333Y-77033333D01*
X113416666Y-77100000D01*
X113216666Y-76266666D02*
X113216666Y-76200000D01*
X113250000Y-76133333D01*
X113283333Y-76100000D01*
X113350000Y-76066666D01*
X113483333Y-76033333D01*
X113650000Y-76033333D01*
X113783333Y-76066666D01*
X113850000Y-76100000D01*
X113883333Y-76133333D01*
X113916666Y-76200000D01*
X113916666Y-76266666D01*
X113883333Y-76333333D01*
X113850000Y-76366666D01*
X113783333Y-76400000D01*
X113650000Y-76433333D01*
X113483333Y-76433333D01*
X113350000Y-76400000D01*
X113283333Y-76366666D01*
X113250000Y-76333333D01*
X113216666Y-76266666D01*
X113283333Y-75766666D02*
X113250000Y-75733333D01*
X113216666Y-75666666D01*
X113216666Y-75500000D01*
X113250000Y-75433333D01*
X113283333Y-75400000D01*
X113350000Y-75366666D01*
X113416666Y-75366666D01*
X113516666Y-75400000D01*
X113916666Y-75800000D01*
X113916666Y-75366666D01*
G04 #@! TO.C,Q101*
X121666666Y-53383333D02*
X121600000Y-53350000D01*
X121533333Y-53283333D01*
X121433333Y-53183333D01*
X121366666Y-53150000D01*
X121300000Y-53150000D01*
X121333333Y-53316666D02*
X121266666Y-53283333D01*
X121200000Y-53216666D01*
X121166666Y-53083333D01*
X121166666Y-52850000D01*
X121200000Y-52716666D01*
X121266666Y-52650000D01*
X121333333Y-52616666D01*
X121466666Y-52616666D01*
X121533333Y-52650000D01*
X121600000Y-52716666D01*
X121633333Y-52850000D01*
X121633333Y-53083333D01*
X121600000Y-53216666D01*
X121533333Y-53283333D01*
X121466666Y-53316666D01*
X121333333Y-53316666D01*
X122300000Y-53316666D02*
X121900000Y-53316666D01*
X122100000Y-53316666D02*
X122100000Y-52616666D01*
X122033333Y-52716666D01*
X121966666Y-52783333D01*
X121900000Y-52816666D01*
X122733333Y-52616666D02*
X122800000Y-52616666D01*
X122866666Y-52650000D01*
X122900000Y-52683333D01*
X122933333Y-52750000D01*
X122966666Y-52883333D01*
X122966666Y-53050000D01*
X122933333Y-53183333D01*
X122900000Y-53250000D01*
X122866666Y-53283333D01*
X122800000Y-53316666D01*
X122733333Y-53316666D01*
X122666666Y-53283333D01*
X122633333Y-53250000D01*
X122600000Y-53183333D01*
X122566666Y-53050000D01*
X122566666Y-52883333D01*
X122600000Y-52750000D01*
X122633333Y-52683333D01*
X122666666Y-52650000D01*
X122733333Y-52616666D01*
X123633333Y-53316666D02*
X123233333Y-53316666D01*
X123433333Y-53316666D02*
X123433333Y-52616666D01*
X123366666Y-52716666D01*
X123300000Y-52783333D01*
X123233333Y-52816666D01*
G04 #@! TO.C,R103*
X119616666Y-58316666D02*
X119383333Y-57983333D01*
X119216666Y-58316666D02*
X119216666Y-57616666D01*
X119483333Y-57616666D01*
X119550000Y-57650000D01*
X119583333Y-57683333D01*
X119616666Y-57750000D01*
X119616666Y-57850000D01*
X119583333Y-57916666D01*
X119550000Y-57950000D01*
X119483333Y-57983333D01*
X119216666Y-57983333D01*
X120283333Y-58316666D02*
X119883333Y-58316666D01*
X120083333Y-58316666D02*
X120083333Y-57616666D01*
X120016666Y-57716666D01*
X119950000Y-57783333D01*
X119883333Y-57816666D01*
X120716666Y-57616666D02*
X120783333Y-57616666D01*
X120850000Y-57650000D01*
X120883333Y-57683333D01*
X120916666Y-57750000D01*
X120950000Y-57883333D01*
X120950000Y-58050000D01*
X120916666Y-58183333D01*
X120883333Y-58250000D01*
X120850000Y-58283333D01*
X120783333Y-58316666D01*
X120716666Y-58316666D01*
X120650000Y-58283333D01*
X120616666Y-58250000D01*
X120583333Y-58183333D01*
X120550000Y-58050000D01*
X120550000Y-57883333D01*
X120583333Y-57750000D01*
X120616666Y-57683333D01*
X120650000Y-57650000D01*
X120716666Y-57616666D01*
X121183333Y-57616666D02*
X121616666Y-57616666D01*
X121383333Y-57883333D01*
X121483333Y-57883333D01*
X121550000Y-57916666D01*
X121583333Y-57950000D01*
X121616666Y-58016666D01*
X121616666Y-58183333D01*
X121583333Y-58250000D01*
X121550000Y-58283333D01*
X121483333Y-58316666D01*
X121283333Y-58316666D01*
X121216666Y-58283333D01*
X121183333Y-58250000D01*
G04 #@! TO.C,J105*
X107016666Y-77900000D02*
X107516666Y-77900000D01*
X107616666Y-77933333D01*
X107683333Y-78000000D01*
X107716666Y-78100000D01*
X107716666Y-78166666D01*
X107716666Y-77200000D02*
X107716666Y-77600000D01*
X107716666Y-77400000D02*
X107016666Y-77400000D01*
X107116666Y-77466666D01*
X107183333Y-77533333D01*
X107216666Y-77600000D01*
X107016666Y-76766666D02*
X107016666Y-76700000D01*
X107050000Y-76633333D01*
X107083333Y-76600000D01*
X107150000Y-76566666D01*
X107283333Y-76533333D01*
X107450000Y-76533333D01*
X107583333Y-76566666D01*
X107650000Y-76600000D01*
X107683333Y-76633333D01*
X107716666Y-76700000D01*
X107716666Y-76766666D01*
X107683333Y-76833333D01*
X107650000Y-76866666D01*
X107583333Y-76900000D01*
X107450000Y-76933333D01*
X107283333Y-76933333D01*
X107150000Y-76900000D01*
X107083333Y-76866666D01*
X107050000Y-76833333D01*
X107016666Y-76766666D01*
X107016666Y-75900000D02*
X107016666Y-76233333D01*
X107350000Y-76266666D01*
X107316666Y-76233333D01*
X107283333Y-76166666D01*
X107283333Y-76000000D01*
X107316666Y-75933333D01*
X107350000Y-75900000D01*
X107416666Y-75866666D01*
X107583333Y-75866666D01*
X107650000Y-75900000D01*
X107683333Y-75933333D01*
X107716666Y-76000000D01*
X107716666Y-76166666D01*
X107683333Y-76233333D01*
X107650000Y-76266666D01*
G04 #@! TO.C,U103*
X119045000Y-67716666D02*
X119045000Y-68283333D01*
X119078333Y-68350000D01*
X119111666Y-68383333D01*
X119178333Y-68416666D01*
X119311666Y-68416666D01*
X119378333Y-68383333D01*
X119411666Y-68350000D01*
X119445000Y-68283333D01*
X119445000Y-67716666D01*
X120145000Y-68416666D02*
X119745000Y-68416666D01*
X119945000Y-68416666D02*
X119945000Y-67716666D01*
X119878333Y-67816666D01*
X119811666Y-67883333D01*
X119745000Y-67916666D01*
X120578333Y-67716666D02*
X120645000Y-67716666D01*
X120711666Y-67750000D01*
X120745000Y-67783333D01*
X120778333Y-67850000D01*
X120811666Y-67983333D01*
X120811666Y-68150000D01*
X120778333Y-68283333D01*
X120745000Y-68350000D01*
X120711666Y-68383333D01*
X120645000Y-68416666D01*
X120578333Y-68416666D01*
X120511666Y-68383333D01*
X120478333Y-68350000D01*
X120445000Y-68283333D01*
X120411666Y-68150000D01*
X120411666Y-67983333D01*
X120445000Y-67850000D01*
X120478333Y-67783333D01*
X120511666Y-67750000D01*
X120578333Y-67716666D01*
X121045000Y-67716666D02*
X121478333Y-67716666D01*
X121245000Y-67983333D01*
X121345000Y-67983333D01*
X121411666Y-68016666D01*
X121445000Y-68050000D01*
X121478333Y-68116666D01*
X121478333Y-68283333D01*
X121445000Y-68350000D01*
X121411666Y-68383333D01*
X121345000Y-68416666D01*
X121145000Y-68416666D01*
X121078333Y-68383333D01*
X121045000Y-68350000D01*
G04 #@! TO.C,J106*
X124716666Y-77900000D02*
X125216666Y-77900000D01*
X125316666Y-77933333D01*
X125383333Y-78000000D01*
X125416666Y-78100000D01*
X125416666Y-78166666D01*
X125416666Y-77200000D02*
X125416666Y-77600000D01*
X125416666Y-77400000D02*
X124716666Y-77400000D01*
X124816666Y-77466666D01*
X124883333Y-77533333D01*
X124916666Y-77600000D01*
X124716666Y-76766666D02*
X124716666Y-76700000D01*
X124750000Y-76633333D01*
X124783333Y-76600000D01*
X124850000Y-76566666D01*
X124983333Y-76533333D01*
X125150000Y-76533333D01*
X125283333Y-76566666D01*
X125350000Y-76600000D01*
X125383333Y-76633333D01*
X125416666Y-76700000D01*
X125416666Y-76766666D01*
X125383333Y-76833333D01*
X125350000Y-76866666D01*
X125283333Y-76900000D01*
X125150000Y-76933333D01*
X124983333Y-76933333D01*
X124850000Y-76900000D01*
X124783333Y-76866666D01*
X124750000Y-76833333D01*
X124716666Y-76766666D01*
X124716666Y-75933333D02*
X124716666Y-76066666D01*
X124750000Y-76133333D01*
X124783333Y-76166666D01*
X124883333Y-76233333D01*
X125016666Y-76266666D01*
X125283333Y-76266666D01*
X125350000Y-76233333D01*
X125383333Y-76200000D01*
X125416666Y-76133333D01*
X125416666Y-76000000D01*
X125383333Y-75933333D01*
X125350000Y-75900000D01*
X125283333Y-75866666D01*
X125116666Y-75866666D01*
X125050000Y-75900000D01*
X125016666Y-75933333D01*
X124983333Y-76000000D01*
X124983333Y-76133333D01*
X125016666Y-76200000D01*
X125050000Y-76233333D01*
X125116666Y-76266666D01*
G04 #@! TO.C,C102*
X123300000Y-73783333D02*
X123333333Y-73816666D01*
X123366666Y-73916666D01*
X123366666Y-73983333D01*
X123333333Y-74083333D01*
X123266666Y-74150000D01*
X123200000Y-74183333D01*
X123066666Y-74216666D01*
X122966666Y-74216666D01*
X122833333Y-74183333D01*
X122766666Y-74150000D01*
X122700000Y-74083333D01*
X122666666Y-73983333D01*
X122666666Y-73916666D01*
X122700000Y-73816666D01*
X122733333Y-73783333D01*
X123366666Y-73116666D02*
X123366666Y-73516666D01*
X123366666Y-73316666D02*
X122666666Y-73316666D01*
X122766666Y-73383333D01*
X122833333Y-73450000D01*
X122866666Y-73516666D01*
X122666666Y-72683333D02*
X122666666Y-72616666D01*
X122700000Y-72550000D01*
X122733333Y-72516666D01*
X122800000Y-72483333D01*
X122933333Y-72450000D01*
X123100000Y-72450000D01*
X123233333Y-72483333D01*
X123300000Y-72516666D01*
X123333333Y-72550000D01*
X123366666Y-72616666D01*
X123366666Y-72683333D01*
X123333333Y-72750000D01*
X123300000Y-72783333D01*
X123233333Y-72816666D01*
X123100000Y-72850000D01*
X122933333Y-72850000D01*
X122800000Y-72816666D01*
X122733333Y-72783333D01*
X122700000Y-72750000D01*
X122666666Y-72683333D01*
X122733333Y-72183333D02*
X122700000Y-72150000D01*
X122666666Y-72083333D01*
X122666666Y-71916666D01*
X122700000Y-71850000D01*
X122733333Y-71816666D01*
X122800000Y-71783333D01*
X122866666Y-71783333D01*
X122966666Y-71816666D01*
X123366666Y-72216666D01*
X123366666Y-71783333D01*
G04 #@! TO.C,C103*
X117216666Y-79400000D02*
X117183333Y-79433333D01*
X117083333Y-79466666D01*
X117016666Y-79466666D01*
X116916666Y-79433333D01*
X116850000Y-79366666D01*
X116816666Y-79300000D01*
X116783333Y-79166666D01*
X116783333Y-79066666D01*
X116816666Y-78933333D01*
X116850000Y-78866666D01*
X116916666Y-78800000D01*
X117016666Y-78766666D01*
X117083333Y-78766666D01*
X117183333Y-78800000D01*
X117216666Y-78833333D01*
X117883333Y-79466666D02*
X117483333Y-79466666D01*
X117683333Y-79466666D02*
X117683333Y-78766666D01*
X117616666Y-78866666D01*
X117550000Y-78933333D01*
X117483333Y-78966666D01*
X118316666Y-78766666D02*
X118383333Y-78766666D01*
X118450000Y-78800000D01*
X118483333Y-78833333D01*
X118516666Y-78900000D01*
X118550000Y-79033333D01*
X118550000Y-79200000D01*
X118516666Y-79333333D01*
X118483333Y-79400000D01*
X118450000Y-79433333D01*
X118383333Y-79466666D01*
X118316666Y-79466666D01*
X118250000Y-79433333D01*
X118216666Y-79400000D01*
X118183333Y-79333333D01*
X118150000Y-79200000D01*
X118150000Y-79033333D01*
X118183333Y-78900000D01*
X118216666Y-78833333D01*
X118250000Y-78800000D01*
X118316666Y-78766666D01*
X118783333Y-78766666D02*
X119216666Y-78766666D01*
X118983333Y-79033333D01*
X119083333Y-79033333D01*
X119150000Y-79066666D01*
X119183333Y-79100000D01*
X119216666Y-79166666D01*
X119216666Y-79333333D01*
X119183333Y-79400000D01*
X119150000Y-79433333D01*
X119083333Y-79466666D01*
X118883333Y-79466666D01*
X118816666Y-79433333D01*
X118783333Y-79400000D01*
G04 #@! TO.C,C105*
X116300000Y-66333333D02*
X116333333Y-66366666D01*
X116366666Y-66466666D01*
X116366666Y-66533333D01*
X116333333Y-66633333D01*
X116266666Y-66700000D01*
X116200000Y-66733333D01*
X116066666Y-66766666D01*
X115966666Y-66766666D01*
X115833333Y-66733333D01*
X115766666Y-66700000D01*
X115700000Y-66633333D01*
X115666666Y-66533333D01*
X115666666Y-66466666D01*
X115700000Y-66366666D01*
X115733333Y-66333333D01*
X116366666Y-65666666D02*
X116366666Y-66066666D01*
X116366666Y-65866666D02*
X115666666Y-65866666D01*
X115766666Y-65933333D01*
X115833333Y-66000000D01*
X115866666Y-66066666D01*
X115666666Y-65233333D02*
X115666666Y-65166666D01*
X115700000Y-65100000D01*
X115733333Y-65066666D01*
X115800000Y-65033333D01*
X115933333Y-65000000D01*
X116100000Y-65000000D01*
X116233333Y-65033333D01*
X116300000Y-65066666D01*
X116333333Y-65100000D01*
X116366666Y-65166666D01*
X116366666Y-65233333D01*
X116333333Y-65300000D01*
X116300000Y-65333333D01*
X116233333Y-65366666D01*
X116100000Y-65400000D01*
X115933333Y-65400000D01*
X115800000Y-65366666D01*
X115733333Y-65333333D01*
X115700000Y-65300000D01*
X115666666Y-65233333D01*
X115666666Y-64366666D02*
X115666666Y-64700000D01*
X116000000Y-64733333D01*
X115966666Y-64700000D01*
X115933333Y-64633333D01*
X115933333Y-64466666D01*
X115966666Y-64400000D01*
X116000000Y-64366666D01*
X116066666Y-64333333D01*
X116233333Y-64333333D01*
X116300000Y-64366666D01*
X116333333Y-64400000D01*
X116366666Y-64466666D01*
X116366666Y-64633333D01*
X116333333Y-64700000D01*
X116300000Y-64733333D01*
G04 #@! TO.C,C101*
X109916666Y-135250000D02*
X109883333Y-135283333D01*
X109783333Y-135316666D01*
X109716666Y-135316666D01*
X109616666Y-135283333D01*
X109550000Y-135216666D01*
X109516666Y-135150000D01*
X109483333Y-135016666D01*
X109483333Y-134916666D01*
X109516666Y-134783333D01*
X109550000Y-134716666D01*
X109616666Y-134650000D01*
X109716666Y-134616666D01*
X109783333Y-134616666D01*
X109883333Y-134650000D01*
X109916666Y-134683333D01*
X110583333Y-135316666D02*
X110183333Y-135316666D01*
X110383333Y-135316666D02*
X110383333Y-134616666D01*
X110316666Y-134716666D01*
X110250000Y-134783333D01*
X110183333Y-134816666D01*
X111016666Y-134616666D02*
X111083333Y-134616666D01*
X111150000Y-134650000D01*
X111183333Y-134683333D01*
X111216666Y-134750000D01*
X111250000Y-134883333D01*
X111250000Y-135050000D01*
X111216666Y-135183333D01*
X111183333Y-135250000D01*
X111150000Y-135283333D01*
X111083333Y-135316666D01*
X111016666Y-135316666D01*
X110950000Y-135283333D01*
X110916666Y-135250000D01*
X110883333Y-135183333D01*
X110850000Y-135050000D01*
X110850000Y-134883333D01*
X110883333Y-134750000D01*
X110916666Y-134683333D01*
X110950000Y-134650000D01*
X111016666Y-134616666D01*
X111916666Y-135316666D02*
X111516666Y-135316666D01*
X111716666Y-135316666D02*
X111716666Y-134616666D01*
X111650000Y-134716666D01*
X111583333Y-134783333D01*
X111516666Y-134816666D01*
G04 #@! TO.C,C106*
X114450000Y-62783333D02*
X114483333Y-62816666D01*
X114516666Y-62916666D01*
X114516666Y-62983333D01*
X114483333Y-63083333D01*
X114416666Y-63150000D01*
X114350000Y-63183333D01*
X114216666Y-63216666D01*
X114116666Y-63216666D01*
X113983333Y-63183333D01*
X113916666Y-63150000D01*
X113850000Y-63083333D01*
X113816666Y-62983333D01*
X113816666Y-62916666D01*
X113850000Y-62816666D01*
X113883333Y-62783333D01*
X114516666Y-62116666D02*
X114516666Y-62516666D01*
X114516666Y-62316666D02*
X113816666Y-62316666D01*
X113916666Y-62383333D01*
X113983333Y-62450000D01*
X114016666Y-62516666D01*
X113816666Y-61683333D02*
X113816666Y-61616666D01*
X113850000Y-61550000D01*
X113883333Y-61516666D01*
X113950000Y-61483333D01*
X114083333Y-61450000D01*
X114250000Y-61450000D01*
X114383333Y-61483333D01*
X114450000Y-61516666D01*
X114483333Y-61550000D01*
X114516666Y-61616666D01*
X114516666Y-61683333D01*
X114483333Y-61750000D01*
X114450000Y-61783333D01*
X114383333Y-61816666D01*
X114250000Y-61850000D01*
X114083333Y-61850000D01*
X113950000Y-61816666D01*
X113883333Y-61783333D01*
X113850000Y-61750000D01*
X113816666Y-61683333D01*
X113816666Y-60850000D02*
X113816666Y-60983333D01*
X113850000Y-61050000D01*
X113883333Y-61083333D01*
X113983333Y-61150000D01*
X114116666Y-61183333D01*
X114383333Y-61183333D01*
X114450000Y-61150000D01*
X114483333Y-61116666D01*
X114516666Y-61050000D01*
X114516666Y-60916666D01*
X114483333Y-60850000D01*
X114450000Y-60816666D01*
X114383333Y-60783333D01*
X114216666Y-60783333D01*
X114150000Y-60816666D01*
X114116666Y-60850000D01*
X114083333Y-60916666D01*
X114083333Y-61050000D01*
X114116666Y-61116666D01*
X114150000Y-61150000D01*
X114216666Y-61183333D01*
G04 #@! TO.C,L101*
X107066666Y-145783333D02*
X107066666Y-146116666D01*
X106366666Y-146116666D01*
X107066666Y-145183333D02*
X107066666Y-145583333D01*
X107066666Y-145383333D02*
X106366666Y-145383333D01*
X106466666Y-145450000D01*
X106533333Y-145516666D01*
X106566666Y-145583333D01*
X106366666Y-144750000D02*
X106366666Y-144683333D01*
X106400000Y-144616666D01*
X106433333Y-144583333D01*
X106500000Y-144550000D01*
X106633333Y-144516666D01*
X106800000Y-144516666D01*
X106933333Y-144550000D01*
X107000000Y-144583333D01*
X107033333Y-144616666D01*
X107066666Y-144683333D01*
X107066666Y-144750000D01*
X107033333Y-144816666D01*
X107000000Y-144850000D01*
X106933333Y-144883333D01*
X106800000Y-144916666D01*
X106633333Y-144916666D01*
X106500000Y-144883333D01*
X106433333Y-144850000D01*
X106400000Y-144816666D01*
X106366666Y-144750000D01*
X107066666Y-143850000D02*
X107066666Y-144250000D01*
X107066666Y-144050000D02*
X106366666Y-144050000D01*
X106466666Y-144116666D01*
X106533333Y-144183333D01*
X106566666Y-144250000D01*
G04 #@! TO.C,L103*
X125816666Y-142883333D02*
X125816666Y-143216666D01*
X125116666Y-143216666D01*
X125816666Y-142283333D02*
X125816666Y-142683333D01*
X125816666Y-142483333D02*
X125116666Y-142483333D01*
X125216666Y-142550000D01*
X125283333Y-142616666D01*
X125316666Y-142683333D01*
X125116666Y-141850000D02*
X125116666Y-141783333D01*
X125150000Y-141716666D01*
X125183333Y-141683333D01*
X125250000Y-141650000D01*
X125383333Y-141616666D01*
X125550000Y-141616666D01*
X125683333Y-141650000D01*
X125750000Y-141683333D01*
X125783333Y-141716666D01*
X125816666Y-141783333D01*
X125816666Y-141850000D01*
X125783333Y-141916666D01*
X125750000Y-141950000D01*
X125683333Y-141983333D01*
X125550000Y-142016666D01*
X125383333Y-142016666D01*
X125250000Y-141983333D01*
X125183333Y-141950000D01*
X125150000Y-141916666D01*
X125116666Y-141850000D01*
X125116666Y-141383333D02*
X125116666Y-140950000D01*
X125383333Y-141183333D01*
X125383333Y-141083333D01*
X125416666Y-141016666D01*
X125450000Y-140983333D01*
X125516666Y-140950000D01*
X125683333Y-140950000D01*
X125750000Y-140983333D01*
X125783333Y-141016666D01*
X125816666Y-141083333D01*
X125816666Y-141283333D01*
X125783333Y-141350000D01*
X125750000Y-141383333D01*
G04 #@! TO.C,L102*
X127466666Y-142883333D02*
X127466666Y-143216666D01*
X126766666Y-143216666D01*
X127466666Y-142283333D02*
X127466666Y-142683333D01*
X127466666Y-142483333D02*
X126766666Y-142483333D01*
X126866666Y-142550000D01*
X126933333Y-142616666D01*
X126966666Y-142683333D01*
X126766666Y-141850000D02*
X126766666Y-141783333D01*
X126800000Y-141716666D01*
X126833333Y-141683333D01*
X126900000Y-141650000D01*
X127033333Y-141616666D01*
X127200000Y-141616666D01*
X127333333Y-141650000D01*
X127400000Y-141683333D01*
X127433333Y-141716666D01*
X127466666Y-141783333D01*
X127466666Y-141850000D01*
X127433333Y-141916666D01*
X127400000Y-141950000D01*
X127333333Y-141983333D01*
X127200000Y-142016666D01*
X127033333Y-142016666D01*
X126900000Y-141983333D01*
X126833333Y-141950000D01*
X126800000Y-141916666D01*
X126766666Y-141850000D01*
X126833333Y-141350000D02*
X126800000Y-141316666D01*
X126766666Y-141250000D01*
X126766666Y-141083333D01*
X126800000Y-141016666D01*
X126833333Y-140983333D01*
X126900000Y-140950000D01*
X126966666Y-140950000D01*
X127066666Y-140983333D01*
X127466666Y-141383333D01*
X127466666Y-140950000D01*
G04 #@! TO.C,Q102*
X114166666Y-55383333D02*
X114100000Y-55350000D01*
X114033333Y-55283333D01*
X113933333Y-55183333D01*
X113866666Y-55150000D01*
X113800000Y-55150000D01*
X113833333Y-55316666D02*
X113766666Y-55283333D01*
X113700000Y-55216666D01*
X113666666Y-55083333D01*
X113666666Y-54850000D01*
X113700000Y-54716666D01*
X113766666Y-54650000D01*
X113833333Y-54616666D01*
X113966666Y-54616666D01*
X114033333Y-54650000D01*
X114100000Y-54716666D01*
X114133333Y-54850000D01*
X114133333Y-55083333D01*
X114100000Y-55216666D01*
X114033333Y-55283333D01*
X113966666Y-55316666D01*
X113833333Y-55316666D01*
X114800000Y-55316666D02*
X114400000Y-55316666D01*
X114600000Y-55316666D02*
X114600000Y-54616666D01*
X114533333Y-54716666D01*
X114466666Y-54783333D01*
X114400000Y-54816666D01*
X115233333Y-54616666D02*
X115300000Y-54616666D01*
X115366666Y-54650000D01*
X115400000Y-54683333D01*
X115433333Y-54750000D01*
X115466666Y-54883333D01*
X115466666Y-55050000D01*
X115433333Y-55183333D01*
X115400000Y-55250000D01*
X115366666Y-55283333D01*
X115300000Y-55316666D01*
X115233333Y-55316666D01*
X115166666Y-55283333D01*
X115133333Y-55250000D01*
X115100000Y-55183333D01*
X115066666Y-55050000D01*
X115066666Y-54883333D01*
X115100000Y-54750000D01*
X115133333Y-54683333D01*
X115166666Y-54650000D01*
X115233333Y-54616666D01*
X115733333Y-54683333D02*
X115766666Y-54650000D01*
X115833333Y-54616666D01*
X116000000Y-54616666D01*
X116066666Y-54650000D01*
X116100000Y-54683333D01*
X116133333Y-54750000D01*
X116133333Y-54816666D01*
X116100000Y-54916666D01*
X115700000Y-55316666D01*
X116133333Y-55316666D01*
G04 #@! TO.C,R106*
X112516666Y-62783333D02*
X112183333Y-63016666D01*
X112516666Y-63183333D02*
X111816666Y-63183333D01*
X111816666Y-62916666D01*
X111850000Y-62850000D01*
X111883333Y-62816666D01*
X111950000Y-62783333D01*
X112050000Y-62783333D01*
X112116666Y-62816666D01*
X112150000Y-62850000D01*
X112183333Y-62916666D01*
X112183333Y-63183333D01*
X112516666Y-62116666D02*
X112516666Y-62516666D01*
X112516666Y-62316666D02*
X111816666Y-62316666D01*
X111916666Y-62383333D01*
X111983333Y-62450000D01*
X112016666Y-62516666D01*
X111816666Y-61683333D02*
X111816666Y-61616666D01*
X111850000Y-61550000D01*
X111883333Y-61516666D01*
X111950000Y-61483333D01*
X112083333Y-61450000D01*
X112250000Y-61450000D01*
X112383333Y-61483333D01*
X112450000Y-61516666D01*
X112483333Y-61550000D01*
X112516666Y-61616666D01*
X112516666Y-61683333D01*
X112483333Y-61750000D01*
X112450000Y-61783333D01*
X112383333Y-61816666D01*
X112250000Y-61850000D01*
X112083333Y-61850000D01*
X111950000Y-61816666D01*
X111883333Y-61783333D01*
X111850000Y-61750000D01*
X111816666Y-61683333D01*
X111816666Y-60850000D02*
X111816666Y-60983333D01*
X111850000Y-61050000D01*
X111883333Y-61083333D01*
X111983333Y-61150000D01*
X112116666Y-61183333D01*
X112383333Y-61183333D01*
X112450000Y-61150000D01*
X112483333Y-61116666D01*
X112516666Y-61050000D01*
X112516666Y-60916666D01*
X112483333Y-60850000D01*
X112450000Y-60816666D01*
X112383333Y-60783333D01*
X112216666Y-60783333D01*
X112150000Y-60816666D01*
X112116666Y-60850000D01*
X112083333Y-60916666D01*
X112083333Y-61050000D01*
X112116666Y-61116666D01*
X112150000Y-61150000D01*
X112216666Y-61183333D01*
G04 #@! TO.C,R105*
X113516666Y-62783333D02*
X113183333Y-63016666D01*
X113516666Y-63183333D02*
X112816666Y-63183333D01*
X112816666Y-62916666D01*
X112850000Y-62850000D01*
X112883333Y-62816666D01*
X112950000Y-62783333D01*
X113050000Y-62783333D01*
X113116666Y-62816666D01*
X113150000Y-62850000D01*
X113183333Y-62916666D01*
X113183333Y-63183333D01*
X113516666Y-62116666D02*
X113516666Y-62516666D01*
X113516666Y-62316666D02*
X112816666Y-62316666D01*
X112916666Y-62383333D01*
X112983333Y-62450000D01*
X113016666Y-62516666D01*
X112816666Y-61683333D02*
X112816666Y-61616666D01*
X112850000Y-61550000D01*
X112883333Y-61516666D01*
X112950000Y-61483333D01*
X113083333Y-61450000D01*
X113250000Y-61450000D01*
X113383333Y-61483333D01*
X113450000Y-61516666D01*
X113483333Y-61550000D01*
X113516666Y-61616666D01*
X113516666Y-61683333D01*
X113483333Y-61750000D01*
X113450000Y-61783333D01*
X113383333Y-61816666D01*
X113250000Y-61850000D01*
X113083333Y-61850000D01*
X112950000Y-61816666D01*
X112883333Y-61783333D01*
X112850000Y-61750000D01*
X112816666Y-61683333D01*
X112816666Y-60816666D02*
X112816666Y-61150000D01*
X113150000Y-61183333D01*
X113116666Y-61150000D01*
X113083333Y-61083333D01*
X113083333Y-60916666D01*
X113116666Y-60850000D01*
X113150000Y-60816666D01*
X113216666Y-60783333D01*
X113383333Y-60783333D01*
X113450000Y-60816666D01*
X113483333Y-60850000D01*
X113516666Y-60916666D01*
X113516666Y-61083333D01*
X113483333Y-61150000D01*
X113450000Y-61183333D01*
G04 #@! TO.C,R101*
X112916666Y-146133333D02*
X112583333Y-146366666D01*
X112916666Y-146533333D02*
X112216666Y-146533333D01*
X112216666Y-146266666D01*
X112250000Y-146200000D01*
X112283333Y-146166666D01*
X112350000Y-146133333D01*
X112450000Y-146133333D01*
X112516666Y-146166666D01*
X112550000Y-146200000D01*
X112583333Y-146266666D01*
X112583333Y-146533333D01*
X112916666Y-145466666D02*
X112916666Y-145866666D01*
X112916666Y-145666666D02*
X112216666Y-145666666D01*
X112316666Y-145733333D01*
X112383333Y-145800000D01*
X112416666Y-145866666D01*
X112216666Y-145033333D02*
X112216666Y-144966666D01*
X112250000Y-144900000D01*
X112283333Y-144866666D01*
X112350000Y-144833333D01*
X112483333Y-144800000D01*
X112650000Y-144800000D01*
X112783333Y-144833333D01*
X112850000Y-144866666D01*
X112883333Y-144900000D01*
X112916666Y-144966666D01*
X112916666Y-145033333D01*
X112883333Y-145100000D01*
X112850000Y-145133333D01*
X112783333Y-145166666D01*
X112650000Y-145200000D01*
X112483333Y-145200000D01*
X112350000Y-145166666D01*
X112283333Y-145133333D01*
X112250000Y-145100000D01*
X112216666Y-145033333D01*
X112916666Y-144133333D02*
X112916666Y-144533333D01*
X112916666Y-144333333D02*
X112216666Y-144333333D01*
X112316666Y-144400000D01*
X112383333Y-144466666D01*
X112416666Y-144533333D01*
G04 #@! TO.C,R102*
X111016666Y-146133333D02*
X110683333Y-146366666D01*
X111016666Y-146533333D02*
X110316666Y-146533333D01*
X110316666Y-146266666D01*
X110350000Y-146200000D01*
X110383333Y-146166666D01*
X110450000Y-146133333D01*
X110550000Y-146133333D01*
X110616666Y-146166666D01*
X110650000Y-146200000D01*
X110683333Y-146266666D01*
X110683333Y-146533333D01*
X111016666Y-145466666D02*
X111016666Y-145866666D01*
X111016666Y-145666666D02*
X110316666Y-145666666D01*
X110416666Y-145733333D01*
X110483333Y-145800000D01*
X110516666Y-145866666D01*
X110316666Y-145033333D02*
X110316666Y-144966666D01*
X110350000Y-144900000D01*
X110383333Y-144866666D01*
X110450000Y-144833333D01*
X110583333Y-144800000D01*
X110750000Y-144800000D01*
X110883333Y-144833333D01*
X110950000Y-144866666D01*
X110983333Y-144900000D01*
X111016666Y-144966666D01*
X111016666Y-145033333D01*
X110983333Y-145100000D01*
X110950000Y-145133333D01*
X110883333Y-145166666D01*
X110750000Y-145200000D01*
X110583333Y-145200000D01*
X110450000Y-145166666D01*
X110383333Y-145133333D01*
X110350000Y-145100000D01*
X110316666Y-145033333D01*
X110383333Y-144533333D02*
X110350000Y-144500000D01*
X110316666Y-144433333D01*
X110316666Y-144266666D01*
X110350000Y-144200000D01*
X110383333Y-144166666D01*
X110450000Y-144133333D01*
X110516666Y-144133333D01*
X110616666Y-144166666D01*
X111016666Y-144566666D01*
X111016666Y-144133333D01*
G04 #@! TO.C,R104*
X113416666Y-59116666D02*
X113183333Y-58783333D01*
X113016666Y-59116666D02*
X113016666Y-58416666D01*
X113283333Y-58416666D01*
X113350000Y-58450000D01*
X113383333Y-58483333D01*
X113416666Y-58550000D01*
X113416666Y-58650000D01*
X113383333Y-58716666D01*
X113350000Y-58750000D01*
X113283333Y-58783333D01*
X113016666Y-58783333D01*
X114083333Y-59116666D02*
X113683333Y-59116666D01*
X113883333Y-59116666D02*
X113883333Y-58416666D01*
X113816666Y-58516666D01*
X113750000Y-58583333D01*
X113683333Y-58616666D01*
X114516666Y-58416666D02*
X114583333Y-58416666D01*
X114650000Y-58450000D01*
X114683333Y-58483333D01*
X114716666Y-58550000D01*
X114750000Y-58683333D01*
X114750000Y-58850000D01*
X114716666Y-58983333D01*
X114683333Y-59050000D01*
X114650000Y-59083333D01*
X114583333Y-59116666D01*
X114516666Y-59116666D01*
X114450000Y-59083333D01*
X114416666Y-59050000D01*
X114383333Y-58983333D01*
X114350000Y-58850000D01*
X114350000Y-58683333D01*
X114383333Y-58550000D01*
X114416666Y-58483333D01*
X114450000Y-58450000D01*
X114516666Y-58416666D01*
X115350000Y-58650000D02*
X115350000Y-59116666D01*
X115183333Y-58383333D02*
X115016666Y-58883333D01*
X115450000Y-58883333D01*
G04 #@! TO.C,J112*
X106616666Y-51900000D02*
X107116666Y-51900000D01*
X107216666Y-51933333D01*
X107283333Y-52000000D01*
X107316666Y-52100000D01*
X107316666Y-52166666D01*
X107316666Y-51200000D02*
X107316666Y-51600000D01*
X107316666Y-51400000D02*
X106616666Y-51400000D01*
X106716666Y-51466666D01*
X106783333Y-51533333D01*
X106816666Y-51600000D01*
X107316666Y-50533333D02*
X107316666Y-50933333D01*
X107316666Y-50733333D02*
X106616666Y-50733333D01*
X106716666Y-50800000D01*
X106783333Y-50866666D01*
X106816666Y-50933333D01*
X106683333Y-50266666D02*
X106650000Y-50233333D01*
X106616666Y-50166666D01*
X106616666Y-50000000D01*
X106650000Y-49933333D01*
X106683333Y-49900000D01*
X106750000Y-49866666D01*
X106816666Y-49866666D01*
X106916666Y-49900000D01*
X107316666Y-50300000D01*
X107316666Y-49866666D01*
G04 #@! TO.C,J102*
X106616666Y-149200000D02*
X107116666Y-149200000D01*
X107216666Y-149233333D01*
X107283333Y-149300000D01*
X107316666Y-149400000D01*
X107316666Y-149466666D01*
X107316666Y-148500000D02*
X107316666Y-148900000D01*
X107316666Y-148700000D02*
X106616666Y-148700000D01*
X106716666Y-148766666D01*
X106783333Y-148833333D01*
X106816666Y-148900000D01*
X106616666Y-148066666D02*
X106616666Y-148000000D01*
X106650000Y-147933333D01*
X106683333Y-147900000D01*
X106750000Y-147866666D01*
X106883333Y-147833333D01*
X107050000Y-147833333D01*
X107183333Y-147866666D01*
X107250000Y-147900000D01*
X107283333Y-147933333D01*
X107316666Y-148000000D01*
X107316666Y-148066666D01*
X107283333Y-148133333D01*
X107250000Y-148166666D01*
X107183333Y-148200000D01*
X107050000Y-148233333D01*
X106883333Y-148233333D01*
X106750000Y-148200000D01*
X106683333Y-148166666D01*
X106650000Y-148133333D01*
X106616666Y-148066666D01*
X106683333Y-147566666D02*
X106650000Y-147533333D01*
X106616666Y-147466666D01*
X106616666Y-147300000D01*
X106650000Y-147233333D01*
X106683333Y-147200000D01*
X106750000Y-147166666D01*
X106816666Y-147166666D01*
X106916666Y-147200000D01*
X107316666Y-147600000D01*
X107316666Y-147166666D01*
G04 #@! TO.C,J207*
D14*
X165252380Y-141585714D02*
X165966666Y-141585714D01*
X166109523Y-141633333D01*
X166204761Y-141728571D01*
X166252380Y-141871428D01*
X166252380Y-141966666D01*
X165347619Y-141157142D02*
X165300000Y-141109523D01*
X165252380Y-141014285D01*
X165252380Y-140776190D01*
X165300000Y-140680952D01*
X165347619Y-140633333D01*
X165442857Y-140585714D01*
X165538095Y-140585714D01*
X165680952Y-140633333D01*
X166252380Y-141204761D01*
X166252380Y-140585714D01*
X165252380Y-139966666D02*
X165252380Y-139871428D01*
X165300000Y-139776190D01*
X165347619Y-139728571D01*
X165442857Y-139680952D01*
X165633333Y-139633333D01*
X165871428Y-139633333D01*
X166061904Y-139680952D01*
X166157142Y-139728571D01*
X166204761Y-139776190D01*
X166252380Y-139871428D01*
X166252380Y-139966666D01*
X166204761Y-140061904D01*
X166157142Y-140109523D01*
X166061904Y-140157142D01*
X165871428Y-140204761D01*
X165633333Y-140204761D01*
X165442857Y-140157142D01*
X165347619Y-140109523D01*
X165300000Y-140061904D01*
X165252380Y-139966666D01*
X165252380Y-139300000D02*
X165252380Y-138633333D01*
X166252380Y-139061904D01*
G04 #@! TO.C,J208*
X142352380Y-141885714D02*
X143066666Y-141885714D01*
X143209523Y-141933333D01*
X143304761Y-142028571D01*
X143352380Y-142171428D01*
X143352380Y-142266666D01*
X142447619Y-141457142D02*
X142400000Y-141409523D01*
X142352380Y-141314285D01*
X142352380Y-141076190D01*
X142400000Y-140980952D01*
X142447619Y-140933333D01*
X142542857Y-140885714D01*
X142638095Y-140885714D01*
X142780952Y-140933333D01*
X143352380Y-141504761D01*
X143352380Y-140885714D01*
X142352380Y-140266666D02*
X142352380Y-140171428D01*
X142400000Y-140076190D01*
X142447619Y-140028571D01*
X142542857Y-139980952D01*
X142733333Y-139933333D01*
X142971428Y-139933333D01*
X143161904Y-139980952D01*
X143257142Y-140028571D01*
X143304761Y-140076190D01*
X143352380Y-140171428D01*
X143352380Y-140266666D01*
X143304761Y-140361904D01*
X143257142Y-140409523D01*
X143161904Y-140457142D01*
X142971428Y-140504761D01*
X142733333Y-140504761D01*
X142542857Y-140457142D01*
X142447619Y-140409523D01*
X142400000Y-140361904D01*
X142352380Y-140266666D01*
X142780952Y-139361904D02*
X142733333Y-139457142D01*
X142685714Y-139504761D01*
X142590476Y-139552380D01*
X142542857Y-139552380D01*
X142447619Y-139504761D01*
X142400000Y-139457142D01*
X142352380Y-139361904D01*
X142352380Y-139171428D01*
X142400000Y-139076190D01*
X142447619Y-139028571D01*
X142542857Y-138980952D01*
X142590476Y-138980952D01*
X142685714Y-139028571D01*
X142733333Y-139076190D01*
X142780952Y-139171428D01*
X142780952Y-139361904D01*
X142828571Y-139457142D01*
X142876190Y-139504761D01*
X142971428Y-139552380D01*
X143161904Y-139552380D01*
X143257142Y-139504761D01*
X143304761Y-139457142D01*
X143352380Y-139361904D01*
X143352380Y-139171428D01*
X143304761Y-139076190D01*
X143257142Y-139028571D01*
X143161904Y-138980952D01*
X142971428Y-138980952D01*
X142876190Y-139028571D01*
X142828571Y-139076190D01*
X142780952Y-139171428D01*
G04 #@! TO.C,J204*
X165352380Y-68785714D02*
X166066666Y-68785714D01*
X166209523Y-68833333D01*
X166304761Y-68928571D01*
X166352380Y-69071428D01*
X166352380Y-69166666D01*
X165447619Y-68357142D02*
X165400000Y-68309523D01*
X165352380Y-68214285D01*
X165352380Y-67976190D01*
X165400000Y-67880952D01*
X165447619Y-67833333D01*
X165542857Y-67785714D01*
X165638095Y-67785714D01*
X165780952Y-67833333D01*
X166352380Y-68404761D01*
X166352380Y-67785714D01*
X165352380Y-67166666D02*
X165352380Y-67071428D01*
X165400000Y-66976190D01*
X165447619Y-66928571D01*
X165542857Y-66880952D01*
X165733333Y-66833333D01*
X165971428Y-66833333D01*
X166161904Y-66880952D01*
X166257142Y-66928571D01*
X166304761Y-66976190D01*
X166352380Y-67071428D01*
X166352380Y-67166666D01*
X166304761Y-67261904D01*
X166257142Y-67309523D01*
X166161904Y-67357142D01*
X165971428Y-67404761D01*
X165733333Y-67404761D01*
X165542857Y-67357142D01*
X165447619Y-67309523D01*
X165400000Y-67261904D01*
X165352380Y-67166666D01*
X165685714Y-65976190D02*
X166352380Y-65976190D01*
X165304761Y-66214285D02*
X166019047Y-66452380D01*
X166019047Y-65833333D01*
G04 #@! TO.C,J203*
X148452380Y-65585714D02*
X149166666Y-65585714D01*
X149309523Y-65633333D01*
X149404761Y-65728571D01*
X149452380Y-65871428D01*
X149452380Y-65966666D01*
X148547619Y-65157142D02*
X148500000Y-65109523D01*
X148452380Y-65014285D01*
X148452380Y-64776190D01*
X148500000Y-64680952D01*
X148547619Y-64633333D01*
X148642857Y-64585714D01*
X148738095Y-64585714D01*
X148880952Y-64633333D01*
X149452380Y-65204761D01*
X149452380Y-64585714D01*
X148452380Y-63966666D02*
X148452380Y-63871428D01*
X148500000Y-63776190D01*
X148547619Y-63728571D01*
X148642857Y-63680952D01*
X148833333Y-63633333D01*
X149071428Y-63633333D01*
X149261904Y-63680952D01*
X149357142Y-63728571D01*
X149404761Y-63776190D01*
X149452380Y-63871428D01*
X149452380Y-63966666D01*
X149404761Y-64061904D01*
X149357142Y-64109523D01*
X149261904Y-64157142D01*
X149071428Y-64204761D01*
X148833333Y-64204761D01*
X148642857Y-64157142D01*
X148547619Y-64109523D01*
X148500000Y-64061904D01*
X148452380Y-63966666D01*
X148452380Y-63300000D02*
X148452380Y-62680952D01*
X148833333Y-63014285D01*
X148833333Y-62871428D01*
X148880952Y-62776190D01*
X148928571Y-62728571D01*
X149023809Y-62680952D01*
X149261904Y-62680952D01*
X149357142Y-62728571D01*
X149404761Y-62776190D01*
X149452380Y-62871428D01*
X149452380Y-63157142D01*
X149404761Y-63252380D01*
X149357142Y-63300000D01*
G04 #@! TO.C,Y201*
X145871428Y-70676190D02*
X145871428Y-71152380D01*
X145538095Y-70152380D02*
X145871428Y-70676190D01*
X146204761Y-70152380D01*
X146490476Y-70247619D02*
X146538095Y-70200000D01*
X146633333Y-70152380D01*
X146871428Y-70152380D01*
X146966666Y-70200000D01*
X147014285Y-70247619D01*
X147061904Y-70342857D01*
X147061904Y-70438095D01*
X147014285Y-70580952D01*
X146442857Y-71152380D01*
X147061904Y-71152380D01*
X147680952Y-70152380D02*
X147776190Y-70152380D01*
X147871428Y-70200000D01*
X147919047Y-70247619D01*
X147966666Y-70342857D01*
X148014285Y-70533333D01*
X148014285Y-70771428D01*
X147966666Y-70961904D01*
X147919047Y-71057142D01*
X147871428Y-71104761D01*
X147776190Y-71152380D01*
X147680952Y-71152380D01*
X147585714Y-71104761D01*
X147538095Y-71057142D01*
X147490476Y-70961904D01*
X147442857Y-70771428D01*
X147442857Y-70533333D01*
X147490476Y-70342857D01*
X147538095Y-70247619D01*
X147585714Y-70200000D01*
X147680952Y-70152380D01*
X148966666Y-71152380D02*
X148395238Y-71152380D01*
X148680952Y-71152380D02*
X148680952Y-70152380D01*
X148585714Y-70295238D01*
X148490476Y-70390476D01*
X148395238Y-70438095D01*
G04 #@! TO.C,C208*
X159580952Y-66307142D02*
X159533333Y-66354761D01*
X159390476Y-66402380D01*
X159295238Y-66402380D01*
X159152380Y-66354761D01*
X159057142Y-66259523D01*
X159009523Y-66164285D01*
X158961904Y-65973809D01*
X158961904Y-65830952D01*
X159009523Y-65640476D01*
X159057142Y-65545238D01*
X159152380Y-65450000D01*
X159295238Y-65402380D01*
X159390476Y-65402380D01*
X159533333Y-65450000D01*
X159580952Y-65497619D01*
X159961904Y-65497619D02*
X160009523Y-65450000D01*
X160104761Y-65402380D01*
X160342857Y-65402380D01*
X160438095Y-65450000D01*
X160485714Y-65497619D01*
X160533333Y-65592857D01*
X160533333Y-65688095D01*
X160485714Y-65830952D01*
X159914285Y-66402380D01*
X160533333Y-66402380D01*
X161152380Y-65402380D02*
X161247619Y-65402380D01*
X161342857Y-65450000D01*
X161390476Y-65497619D01*
X161438095Y-65592857D01*
X161485714Y-65783333D01*
X161485714Y-66021428D01*
X161438095Y-66211904D01*
X161390476Y-66307142D01*
X161342857Y-66354761D01*
X161247619Y-66402380D01*
X161152380Y-66402380D01*
X161057142Y-66354761D01*
X161009523Y-66307142D01*
X160961904Y-66211904D01*
X160914285Y-66021428D01*
X160914285Y-65783333D01*
X160961904Y-65592857D01*
X161009523Y-65497619D01*
X161057142Y-65450000D01*
X161152380Y-65402380D01*
X162057142Y-65830952D02*
X161961904Y-65783333D01*
X161914285Y-65735714D01*
X161866666Y-65640476D01*
X161866666Y-65592857D01*
X161914285Y-65497619D01*
X161961904Y-65450000D01*
X162057142Y-65402380D01*
X162247619Y-65402380D01*
X162342857Y-65450000D01*
X162390476Y-65497619D01*
X162438095Y-65592857D01*
X162438095Y-65640476D01*
X162390476Y-65735714D01*
X162342857Y-65783333D01*
X162247619Y-65830952D01*
X162057142Y-65830952D01*
X161961904Y-65878571D01*
X161914285Y-65926190D01*
X161866666Y-66021428D01*
X161866666Y-66211904D01*
X161914285Y-66307142D01*
X161961904Y-66354761D01*
X162057142Y-66402380D01*
X162247619Y-66402380D01*
X162342857Y-66354761D01*
X162390476Y-66307142D01*
X162438095Y-66211904D01*
X162438095Y-66021428D01*
X162390476Y-65926190D01*
X162342857Y-65878571D01*
X162247619Y-65830952D01*
G04 #@! TO.C,C201*
X159580952Y-63857142D02*
X159533333Y-63904761D01*
X159390476Y-63952380D01*
X159295238Y-63952380D01*
X159152380Y-63904761D01*
X159057142Y-63809523D01*
X159009523Y-63714285D01*
X158961904Y-63523809D01*
X158961904Y-63380952D01*
X159009523Y-63190476D01*
X159057142Y-63095238D01*
X159152380Y-63000000D01*
X159295238Y-62952380D01*
X159390476Y-62952380D01*
X159533333Y-63000000D01*
X159580952Y-63047619D01*
X159961904Y-63047619D02*
X160009523Y-63000000D01*
X160104761Y-62952380D01*
X160342857Y-62952380D01*
X160438095Y-63000000D01*
X160485714Y-63047619D01*
X160533333Y-63142857D01*
X160533333Y-63238095D01*
X160485714Y-63380952D01*
X159914285Y-63952380D01*
X160533333Y-63952380D01*
X161152380Y-62952380D02*
X161247619Y-62952380D01*
X161342857Y-63000000D01*
X161390476Y-63047619D01*
X161438095Y-63142857D01*
X161485714Y-63333333D01*
X161485714Y-63571428D01*
X161438095Y-63761904D01*
X161390476Y-63857142D01*
X161342857Y-63904761D01*
X161247619Y-63952380D01*
X161152380Y-63952380D01*
X161057142Y-63904761D01*
X161009523Y-63857142D01*
X160961904Y-63761904D01*
X160914285Y-63571428D01*
X160914285Y-63333333D01*
X160961904Y-63142857D01*
X161009523Y-63047619D01*
X161057142Y-63000000D01*
X161152380Y-62952380D01*
X162438095Y-63952380D02*
X161866666Y-63952380D01*
X162152380Y-63952380D02*
X162152380Y-62952380D01*
X162057142Y-63095238D01*
X161961904Y-63190476D01*
X161866666Y-63238095D01*
G04 #@! TO.C,U202*
X151652380Y-75014285D02*
X152461904Y-75014285D01*
X152557142Y-74966666D01*
X152604761Y-74919047D01*
X152652380Y-74823809D01*
X152652380Y-74633333D01*
X152604761Y-74538095D01*
X152557142Y-74490476D01*
X152461904Y-74442857D01*
X151652380Y-74442857D01*
X151747619Y-74014285D02*
X151700000Y-73966666D01*
X151652380Y-73871428D01*
X151652380Y-73633333D01*
X151700000Y-73538095D01*
X151747619Y-73490476D01*
X151842857Y-73442857D01*
X151938095Y-73442857D01*
X152080952Y-73490476D01*
X152652380Y-74061904D01*
X152652380Y-73442857D01*
X151652380Y-72823809D02*
X151652380Y-72728571D01*
X151700000Y-72633333D01*
X151747619Y-72585714D01*
X151842857Y-72538095D01*
X152033333Y-72490476D01*
X152271428Y-72490476D01*
X152461904Y-72538095D01*
X152557142Y-72585714D01*
X152604761Y-72633333D01*
X152652380Y-72728571D01*
X152652380Y-72823809D01*
X152604761Y-72919047D01*
X152557142Y-72966666D01*
X152461904Y-73014285D01*
X152271428Y-73061904D01*
X152033333Y-73061904D01*
X151842857Y-73014285D01*
X151747619Y-72966666D01*
X151700000Y-72919047D01*
X151652380Y-72823809D01*
X151747619Y-72109523D02*
X151700000Y-72061904D01*
X151652380Y-71966666D01*
X151652380Y-71728571D01*
X151700000Y-71633333D01*
X151747619Y-71585714D01*
X151842857Y-71538095D01*
X151938095Y-71538095D01*
X152080952Y-71585714D01*
X152652380Y-72157142D01*
X152652380Y-71538095D01*
G04 #@! TO.C,J211*
X157132380Y-164915714D02*
X157846666Y-164915714D01*
X157989523Y-164963333D01*
X158084761Y-165058571D01*
X158132380Y-165201428D01*
X158132380Y-165296666D01*
X157227619Y-164487142D02*
X157180000Y-164439523D01*
X157132380Y-164344285D01*
X157132380Y-164106190D01*
X157180000Y-164010952D01*
X157227619Y-163963333D01*
X157322857Y-163915714D01*
X157418095Y-163915714D01*
X157560952Y-163963333D01*
X158132380Y-164534761D01*
X158132380Y-163915714D01*
X158132380Y-162963333D02*
X158132380Y-163534761D01*
X158132380Y-163249047D02*
X157132380Y-163249047D01*
X157275238Y-163344285D01*
X157370476Y-163439523D01*
X157418095Y-163534761D01*
X158132380Y-162010952D02*
X158132380Y-162582380D01*
X158132380Y-162296666D02*
X157132380Y-162296666D01*
X157275238Y-162391904D01*
X157370476Y-162487142D01*
X157418095Y-162582380D01*
G04 #@! TO.C,C205*
X161380952Y-86507142D02*
X161333333Y-86554761D01*
X161190476Y-86602380D01*
X161095238Y-86602380D01*
X160952380Y-86554761D01*
X160857142Y-86459523D01*
X160809523Y-86364285D01*
X160761904Y-86173809D01*
X160761904Y-86030952D01*
X160809523Y-85840476D01*
X160857142Y-85745238D01*
X160952380Y-85650000D01*
X161095238Y-85602380D01*
X161190476Y-85602380D01*
X161333333Y-85650000D01*
X161380952Y-85697619D01*
X161761904Y-85697619D02*
X161809523Y-85650000D01*
X161904761Y-85602380D01*
X162142857Y-85602380D01*
X162238095Y-85650000D01*
X162285714Y-85697619D01*
X162333333Y-85792857D01*
X162333333Y-85888095D01*
X162285714Y-86030952D01*
X161714285Y-86602380D01*
X162333333Y-86602380D01*
X162952380Y-85602380D02*
X163047619Y-85602380D01*
X163142857Y-85650000D01*
X163190476Y-85697619D01*
X163238095Y-85792857D01*
X163285714Y-85983333D01*
X163285714Y-86221428D01*
X163238095Y-86411904D01*
X163190476Y-86507142D01*
X163142857Y-86554761D01*
X163047619Y-86602380D01*
X162952380Y-86602380D01*
X162857142Y-86554761D01*
X162809523Y-86507142D01*
X162761904Y-86411904D01*
X162714285Y-86221428D01*
X162714285Y-85983333D01*
X162761904Y-85792857D01*
X162809523Y-85697619D01*
X162857142Y-85650000D01*
X162952380Y-85602380D01*
X164190476Y-85602380D02*
X163714285Y-85602380D01*
X163666666Y-86078571D01*
X163714285Y-86030952D01*
X163809523Y-85983333D01*
X164047619Y-85983333D01*
X164142857Y-86030952D01*
X164190476Y-86078571D01*
X164238095Y-86173809D01*
X164238095Y-86411904D01*
X164190476Y-86507142D01*
X164142857Y-86554761D01*
X164047619Y-86602380D01*
X163809523Y-86602380D01*
X163714285Y-86554761D01*
X163666666Y-86507142D01*
G04 #@! TO.C,C206*
X148080952Y-68857142D02*
X148033333Y-68904761D01*
X147890476Y-68952380D01*
X147795238Y-68952380D01*
X147652380Y-68904761D01*
X147557142Y-68809523D01*
X147509523Y-68714285D01*
X147461904Y-68523809D01*
X147461904Y-68380952D01*
X147509523Y-68190476D01*
X147557142Y-68095238D01*
X147652380Y-68000000D01*
X147795238Y-67952380D01*
X147890476Y-67952380D01*
X148033333Y-68000000D01*
X148080952Y-68047619D01*
X148461904Y-68047619D02*
X148509523Y-68000000D01*
X148604761Y-67952380D01*
X148842857Y-67952380D01*
X148938095Y-68000000D01*
X148985714Y-68047619D01*
X149033333Y-68142857D01*
X149033333Y-68238095D01*
X148985714Y-68380952D01*
X148414285Y-68952380D01*
X149033333Y-68952380D01*
X149652380Y-67952380D02*
X149747619Y-67952380D01*
X149842857Y-68000000D01*
X149890476Y-68047619D01*
X149938095Y-68142857D01*
X149985714Y-68333333D01*
X149985714Y-68571428D01*
X149938095Y-68761904D01*
X149890476Y-68857142D01*
X149842857Y-68904761D01*
X149747619Y-68952380D01*
X149652380Y-68952380D01*
X149557142Y-68904761D01*
X149509523Y-68857142D01*
X149461904Y-68761904D01*
X149414285Y-68571428D01*
X149414285Y-68333333D01*
X149461904Y-68142857D01*
X149509523Y-68047619D01*
X149557142Y-68000000D01*
X149652380Y-67952380D01*
X150842857Y-67952380D02*
X150652380Y-67952380D01*
X150557142Y-68000000D01*
X150509523Y-68047619D01*
X150414285Y-68190476D01*
X150366666Y-68380952D01*
X150366666Y-68761904D01*
X150414285Y-68857142D01*
X150461904Y-68904761D01*
X150557142Y-68952380D01*
X150747619Y-68952380D01*
X150842857Y-68904761D01*
X150890476Y-68857142D01*
X150938095Y-68761904D01*
X150938095Y-68523809D01*
X150890476Y-68428571D01*
X150842857Y-68380952D01*
X150747619Y-68333333D01*
X150557142Y-68333333D01*
X150461904Y-68380952D01*
X150414285Y-68428571D01*
X150366666Y-68523809D01*
G04 #@! TO.C,C209*
X161380952Y-84907142D02*
X161333333Y-84954761D01*
X161190476Y-85002380D01*
X161095238Y-85002380D01*
X160952380Y-84954761D01*
X160857142Y-84859523D01*
X160809523Y-84764285D01*
X160761904Y-84573809D01*
X160761904Y-84430952D01*
X160809523Y-84240476D01*
X160857142Y-84145238D01*
X160952380Y-84050000D01*
X161095238Y-84002380D01*
X161190476Y-84002380D01*
X161333333Y-84050000D01*
X161380952Y-84097619D01*
X161761904Y-84097619D02*
X161809523Y-84050000D01*
X161904761Y-84002380D01*
X162142857Y-84002380D01*
X162238095Y-84050000D01*
X162285714Y-84097619D01*
X162333333Y-84192857D01*
X162333333Y-84288095D01*
X162285714Y-84430952D01*
X161714285Y-85002380D01*
X162333333Y-85002380D01*
X162952380Y-84002380D02*
X163047619Y-84002380D01*
X163142857Y-84050000D01*
X163190476Y-84097619D01*
X163238095Y-84192857D01*
X163285714Y-84383333D01*
X163285714Y-84621428D01*
X163238095Y-84811904D01*
X163190476Y-84907142D01*
X163142857Y-84954761D01*
X163047619Y-85002380D01*
X162952380Y-85002380D01*
X162857142Y-84954761D01*
X162809523Y-84907142D01*
X162761904Y-84811904D01*
X162714285Y-84621428D01*
X162714285Y-84383333D01*
X162761904Y-84192857D01*
X162809523Y-84097619D01*
X162857142Y-84050000D01*
X162952380Y-84002380D01*
X163761904Y-85002380D02*
X163952380Y-85002380D01*
X164047619Y-84954761D01*
X164095238Y-84907142D01*
X164190476Y-84764285D01*
X164238095Y-84573809D01*
X164238095Y-84192857D01*
X164190476Y-84097619D01*
X164142857Y-84050000D01*
X164047619Y-84002380D01*
X163857142Y-84002380D01*
X163761904Y-84050000D01*
X163714285Y-84097619D01*
X163666666Y-84192857D01*
X163666666Y-84430952D01*
X163714285Y-84526190D01*
X163761904Y-84573809D01*
X163857142Y-84621428D01*
X164047619Y-84621428D01*
X164142857Y-84573809D01*
X164190476Y-84526190D01*
X164238095Y-84430952D01*
G04 #@! TO.C,C207*
X156480952Y-71257142D02*
X156433333Y-71304761D01*
X156290476Y-71352380D01*
X156195238Y-71352380D01*
X156052380Y-71304761D01*
X155957142Y-71209523D01*
X155909523Y-71114285D01*
X155861904Y-70923809D01*
X155861904Y-70780952D01*
X155909523Y-70590476D01*
X155957142Y-70495238D01*
X156052380Y-70400000D01*
X156195238Y-70352380D01*
X156290476Y-70352380D01*
X156433333Y-70400000D01*
X156480952Y-70447619D01*
X156861904Y-70447619D02*
X156909523Y-70400000D01*
X157004761Y-70352380D01*
X157242857Y-70352380D01*
X157338095Y-70400000D01*
X157385714Y-70447619D01*
X157433333Y-70542857D01*
X157433333Y-70638095D01*
X157385714Y-70780952D01*
X156814285Y-71352380D01*
X157433333Y-71352380D01*
X158052380Y-70352380D02*
X158147619Y-70352380D01*
X158242857Y-70400000D01*
X158290476Y-70447619D01*
X158338095Y-70542857D01*
X158385714Y-70733333D01*
X158385714Y-70971428D01*
X158338095Y-71161904D01*
X158290476Y-71257142D01*
X158242857Y-71304761D01*
X158147619Y-71352380D01*
X158052380Y-71352380D01*
X157957142Y-71304761D01*
X157909523Y-71257142D01*
X157861904Y-71161904D01*
X157814285Y-70971428D01*
X157814285Y-70733333D01*
X157861904Y-70542857D01*
X157909523Y-70447619D01*
X157957142Y-70400000D01*
X158052380Y-70352380D01*
X158719047Y-70352380D02*
X159385714Y-70352380D01*
X158957142Y-71352380D01*
G04 #@! TO.C,R202*
X146855952Y-87812380D02*
X146522619Y-87336190D01*
X146284523Y-87812380D02*
X146284523Y-86812380D01*
X146665476Y-86812380D01*
X146760714Y-86860000D01*
X146808333Y-86907619D01*
X146855952Y-87002857D01*
X146855952Y-87145714D01*
X146808333Y-87240952D01*
X146760714Y-87288571D01*
X146665476Y-87336190D01*
X146284523Y-87336190D01*
X147236904Y-86907619D02*
X147284523Y-86860000D01*
X147379761Y-86812380D01*
X147617857Y-86812380D01*
X147713095Y-86860000D01*
X147760714Y-86907619D01*
X147808333Y-87002857D01*
X147808333Y-87098095D01*
X147760714Y-87240952D01*
X147189285Y-87812380D01*
X147808333Y-87812380D01*
X148427380Y-86812380D02*
X148522619Y-86812380D01*
X148617857Y-86860000D01*
X148665476Y-86907619D01*
X148713095Y-87002857D01*
X148760714Y-87193333D01*
X148760714Y-87431428D01*
X148713095Y-87621904D01*
X148665476Y-87717142D01*
X148617857Y-87764761D01*
X148522619Y-87812380D01*
X148427380Y-87812380D01*
X148332142Y-87764761D01*
X148284523Y-87717142D01*
X148236904Y-87621904D01*
X148189285Y-87431428D01*
X148189285Y-87193333D01*
X148236904Y-87002857D01*
X148284523Y-86907619D01*
X148332142Y-86860000D01*
X148427380Y-86812380D01*
X149141666Y-86907619D02*
X149189285Y-86860000D01*
X149284523Y-86812380D01*
X149522619Y-86812380D01*
X149617857Y-86860000D01*
X149665476Y-86907619D01*
X149713095Y-87002857D01*
X149713095Y-87098095D01*
X149665476Y-87240952D01*
X149094047Y-87812380D01*
X149713095Y-87812380D01*
G04 #@! TO.C,R205*
X166380952Y-74052380D02*
X166047619Y-73576190D01*
X165809523Y-74052380D02*
X165809523Y-73052380D01*
X166190476Y-73052380D01*
X166285714Y-73100000D01*
X166333333Y-73147619D01*
X166380952Y-73242857D01*
X166380952Y-73385714D01*
X166333333Y-73480952D01*
X166285714Y-73528571D01*
X166190476Y-73576190D01*
X165809523Y-73576190D01*
X166761904Y-73147619D02*
X166809523Y-73100000D01*
X166904761Y-73052380D01*
X167142857Y-73052380D01*
X167238095Y-73100000D01*
X167285714Y-73147619D01*
X167333333Y-73242857D01*
X167333333Y-73338095D01*
X167285714Y-73480952D01*
X166714285Y-74052380D01*
X167333333Y-74052380D01*
X167952380Y-73052380D02*
X168047619Y-73052380D01*
X168142857Y-73100000D01*
X168190476Y-73147619D01*
X168238095Y-73242857D01*
X168285714Y-73433333D01*
X168285714Y-73671428D01*
X168238095Y-73861904D01*
X168190476Y-73957142D01*
X168142857Y-74004761D01*
X168047619Y-74052380D01*
X167952380Y-74052380D01*
X167857142Y-74004761D01*
X167809523Y-73957142D01*
X167761904Y-73861904D01*
X167714285Y-73671428D01*
X167714285Y-73433333D01*
X167761904Y-73242857D01*
X167809523Y-73147619D01*
X167857142Y-73100000D01*
X167952380Y-73052380D01*
X169190476Y-73052380D02*
X168714285Y-73052380D01*
X168666666Y-73528571D01*
X168714285Y-73480952D01*
X168809523Y-73433333D01*
X169047619Y-73433333D01*
X169142857Y-73480952D01*
X169190476Y-73528571D01*
X169238095Y-73623809D01*
X169238095Y-73861904D01*
X169190476Y-73957142D01*
X169142857Y-74004761D01*
X169047619Y-74052380D01*
X168809523Y-74052380D01*
X168714285Y-74004761D01*
X168666666Y-73957142D01*
G04 #@! TO.C,R206*
X155652380Y-53619047D02*
X155176190Y-53952380D01*
X155652380Y-54190476D02*
X154652380Y-54190476D01*
X154652380Y-53809523D01*
X154700000Y-53714285D01*
X154747619Y-53666666D01*
X154842857Y-53619047D01*
X154985714Y-53619047D01*
X155080952Y-53666666D01*
X155128571Y-53714285D01*
X155176190Y-53809523D01*
X155176190Y-54190476D01*
X154747619Y-53238095D02*
X154700000Y-53190476D01*
X154652380Y-53095238D01*
X154652380Y-52857142D01*
X154700000Y-52761904D01*
X154747619Y-52714285D01*
X154842857Y-52666666D01*
X154938095Y-52666666D01*
X155080952Y-52714285D01*
X155652380Y-53285714D01*
X155652380Y-52666666D01*
X154652380Y-52047619D02*
X154652380Y-51952380D01*
X154700000Y-51857142D01*
X154747619Y-51809523D01*
X154842857Y-51761904D01*
X155033333Y-51714285D01*
X155271428Y-51714285D01*
X155461904Y-51761904D01*
X155557142Y-51809523D01*
X155604761Y-51857142D01*
X155652380Y-51952380D01*
X155652380Y-52047619D01*
X155604761Y-52142857D01*
X155557142Y-52190476D01*
X155461904Y-52238095D01*
X155271428Y-52285714D01*
X155033333Y-52285714D01*
X154842857Y-52238095D01*
X154747619Y-52190476D01*
X154700000Y-52142857D01*
X154652380Y-52047619D01*
X154652380Y-50857142D02*
X154652380Y-51047619D01*
X154700000Y-51142857D01*
X154747619Y-51190476D01*
X154890476Y-51285714D01*
X155080952Y-51333333D01*
X155461904Y-51333333D01*
X155557142Y-51285714D01*
X155604761Y-51238095D01*
X155652380Y-51142857D01*
X155652380Y-50952380D01*
X155604761Y-50857142D01*
X155557142Y-50809523D01*
X155461904Y-50761904D01*
X155223809Y-50761904D01*
X155128571Y-50809523D01*
X155080952Y-50857142D01*
X155033333Y-50952380D01*
X155033333Y-51142857D01*
X155080952Y-51238095D01*
X155128571Y-51285714D01*
X155223809Y-51333333D01*
G04 #@! TO.C,R207*
X165702380Y-53619047D02*
X165226190Y-53952380D01*
X165702380Y-54190476D02*
X164702380Y-54190476D01*
X164702380Y-53809523D01*
X164750000Y-53714285D01*
X164797619Y-53666666D01*
X164892857Y-53619047D01*
X165035714Y-53619047D01*
X165130952Y-53666666D01*
X165178571Y-53714285D01*
X165226190Y-53809523D01*
X165226190Y-54190476D01*
X164797619Y-53238095D02*
X164750000Y-53190476D01*
X164702380Y-53095238D01*
X164702380Y-52857142D01*
X164750000Y-52761904D01*
X164797619Y-52714285D01*
X164892857Y-52666666D01*
X164988095Y-52666666D01*
X165130952Y-52714285D01*
X165702380Y-53285714D01*
X165702380Y-52666666D01*
X164702380Y-52047619D02*
X164702380Y-51952380D01*
X164750000Y-51857142D01*
X164797619Y-51809523D01*
X164892857Y-51761904D01*
X165083333Y-51714285D01*
X165321428Y-51714285D01*
X165511904Y-51761904D01*
X165607142Y-51809523D01*
X165654761Y-51857142D01*
X165702380Y-51952380D01*
X165702380Y-52047619D01*
X165654761Y-52142857D01*
X165607142Y-52190476D01*
X165511904Y-52238095D01*
X165321428Y-52285714D01*
X165083333Y-52285714D01*
X164892857Y-52238095D01*
X164797619Y-52190476D01*
X164750000Y-52142857D01*
X164702380Y-52047619D01*
X164702380Y-51380952D02*
X164702380Y-50714285D01*
X165702380Y-51142857D01*
G04 #@! TO.C,R208*
X149452380Y-53619047D02*
X148976190Y-53952380D01*
X149452380Y-54190476D02*
X148452380Y-54190476D01*
X148452380Y-53809523D01*
X148500000Y-53714285D01*
X148547619Y-53666666D01*
X148642857Y-53619047D01*
X148785714Y-53619047D01*
X148880952Y-53666666D01*
X148928571Y-53714285D01*
X148976190Y-53809523D01*
X148976190Y-54190476D01*
X148547619Y-53238095D02*
X148500000Y-53190476D01*
X148452380Y-53095238D01*
X148452380Y-52857142D01*
X148500000Y-52761904D01*
X148547619Y-52714285D01*
X148642857Y-52666666D01*
X148738095Y-52666666D01*
X148880952Y-52714285D01*
X149452380Y-53285714D01*
X149452380Y-52666666D01*
X148452380Y-52047619D02*
X148452380Y-51952380D01*
X148500000Y-51857142D01*
X148547619Y-51809523D01*
X148642857Y-51761904D01*
X148833333Y-51714285D01*
X149071428Y-51714285D01*
X149261904Y-51761904D01*
X149357142Y-51809523D01*
X149404761Y-51857142D01*
X149452380Y-51952380D01*
X149452380Y-52047619D01*
X149404761Y-52142857D01*
X149357142Y-52190476D01*
X149261904Y-52238095D01*
X149071428Y-52285714D01*
X148833333Y-52285714D01*
X148642857Y-52238095D01*
X148547619Y-52190476D01*
X148500000Y-52142857D01*
X148452380Y-52047619D01*
X148880952Y-51142857D02*
X148833333Y-51238095D01*
X148785714Y-51285714D01*
X148690476Y-51333333D01*
X148642857Y-51333333D01*
X148547619Y-51285714D01*
X148500000Y-51238095D01*
X148452380Y-51142857D01*
X148452380Y-50952380D01*
X148500000Y-50857142D01*
X148547619Y-50809523D01*
X148642857Y-50761904D01*
X148690476Y-50761904D01*
X148785714Y-50809523D01*
X148833333Y-50857142D01*
X148880952Y-50952380D01*
X148880952Y-51142857D01*
X148928571Y-51238095D01*
X148976190Y-51285714D01*
X149071428Y-51333333D01*
X149261904Y-51333333D01*
X149357142Y-51285714D01*
X149404761Y-51238095D01*
X149452380Y-51142857D01*
X149452380Y-50952380D01*
X149404761Y-50857142D01*
X149357142Y-50809523D01*
X149261904Y-50761904D01*
X149071428Y-50761904D01*
X148976190Y-50809523D01*
X148928571Y-50857142D01*
X148880952Y-50952380D01*
G04 #@! TO.C,R201*
X166380952Y-72502380D02*
X166047619Y-72026190D01*
X165809523Y-72502380D02*
X165809523Y-71502380D01*
X166190476Y-71502380D01*
X166285714Y-71550000D01*
X166333333Y-71597619D01*
X166380952Y-71692857D01*
X166380952Y-71835714D01*
X166333333Y-71930952D01*
X166285714Y-71978571D01*
X166190476Y-72026190D01*
X165809523Y-72026190D01*
X166761904Y-71597619D02*
X166809523Y-71550000D01*
X166904761Y-71502380D01*
X167142857Y-71502380D01*
X167238095Y-71550000D01*
X167285714Y-71597619D01*
X167333333Y-71692857D01*
X167333333Y-71788095D01*
X167285714Y-71930952D01*
X166714285Y-72502380D01*
X167333333Y-72502380D01*
X167952380Y-71502380D02*
X168047619Y-71502380D01*
X168142857Y-71550000D01*
X168190476Y-71597619D01*
X168238095Y-71692857D01*
X168285714Y-71883333D01*
X168285714Y-72121428D01*
X168238095Y-72311904D01*
X168190476Y-72407142D01*
X168142857Y-72454761D01*
X168047619Y-72502380D01*
X167952380Y-72502380D01*
X167857142Y-72454761D01*
X167809523Y-72407142D01*
X167761904Y-72311904D01*
X167714285Y-72121428D01*
X167714285Y-71883333D01*
X167761904Y-71692857D01*
X167809523Y-71597619D01*
X167857142Y-71550000D01*
X167952380Y-71502380D01*
X169238095Y-72502380D02*
X168666666Y-72502380D01*
X168952380Y-72502380D02*
X168952380Y-71502380D01*
X168857142Y-71645238D01*
X168761904Y-71740476D01*
X168666666Y-71788095D01*
G04 #@! TO.C,C212*
X164557142Y-77519047D02*
X164604761Y-77566666D01*
X164652380Y-77709523D01*
X164652380Y-77804761D01*
X164604761Y-77947619D01*
X164509523Y-78042857D01*
X164414285Y-78090476D01*
X164223809Y-78138095D01*
X164080952Y-78138095D01*
X163890476Y-78090476D01*
X163795238Y-78042857D01*
X163700000Y-77947619D01*
X163652380Y-77804761D01*
X163652380Y-77709523D01*
X163700000Y-77566666D01*
X163747619Y-77519047D01*
X163747619Y-77138095D02*
X163700000Y-77090476D01*
X163652380Y-76995238D01*
X163652380Y-76757142D01*
X163700000Y-76661904D01*
X163747619Y-76614285D01*
X163842857Y-76566666D01*
X163938095Y-76566666D01*
X164080952Y-76614285D01*
X164652380Y-77185714D01*
X164652380Y-76566666D01*
X164652380Y-75614285D02*
X164652380Y-76185714D01*
X164652380Y-75900000D02*
X163652380Y-75900000D01*
X163795238Y-75995238D01*
X163890476Y-76090476D01*
X163938095Y-76185714D01*
X163747619Y-75233333D02*
X163700000Y-75185714D01*
X163652380Y-75090476D01*
X163652380Y-74852380D01*
X163700000Y-74757142D01*
X163747619Y-74709523D01*
X163842857Y-74661904D01*
X163938095Y-74661904D01*
X164080952Y-74709523D01*
X164652380Y-75280952D01*
X164652380Y-74661904D01*
G04 #@! TO.C,C203*
X143957142Y-72519047D02*
X144004761Y-72566666D01*
X144052380Y-72709523D01*
X144052380Y-72804761D01*
X144004761Y-72947619D01*
X143909523Y-73042857D01*
X143814285Y-73090476D01*
X143623809Y-73138095D01*
X143480952Y-73138095D01*
X143290476Y-73090476D01*
X143195238Y-73042857D01*
X143100000Y-72947619D01*
X143052380Y-72804761D01*
X143052380Y-72709523D01*
X143100000Y-72566666D01*
X143147619Y-72519047D01*
X143147619Y-72138095D02*
X143100000Y-72090476D01*
X143052380Y-71995238D01*
X143052380Y-71757142D01*
X143100000Y-71661904D01*
X143147619Y-71614285D01*
X143242857Y-71566666D01*
X143338095Y-71566666D01*
X143480952Y-71614285D01*
X144052380Y-72185714D01*
X144052380Y-71566666D01*
X143052380Y-70947619D02*
X143052380Y-70852380D01*
X143100000Y-70757142D01*
X143147619Y-70709523D01*
X143242857Y-70661904D01*
X143433333Y-70614285D01*
X143671428Y-70614285D01*
X143861904Y-70661904D01*
X143957142Y-70709523D01*
X144004761Y-70757142D01*
X144052380Y-70852380D01*
X144052380Y-70947619D01*
X144004761Y-71042857D01*
X143957142Y-71090476D01*
X143861904Y-71138095D01*
X143671428Y-71185714D01*
X143433333Y-71185714D01*
X143242857Y-71138095D01*
X143147619Y-71090476D01*
X143100000Y-71042857D01*
X143052380Y-70947619D01*
X143052380Y-70280952D02*
X143052380Y-69661904D01*
X143433333Y-69995238D01*
X143433333Y-69852380D01*
X143480952Y-69757142D01*
X143528571Y-69709523D01*
X143623809Y-69661904D01*
X143861904Y-69661904D01*
X143957142Y-69709523D01*
X144004761Y-69757142D01*
X144052380Y-69852380D01*
X144052380Y-70138095D01*
X144004761Y-70233333D01*
X143957142Y-70280952D01*
G04 #@! TO.C,C204*
X143957142Y-86319047D02*
X144004761Y-86366666D01*
X144052380Y-86509523D01*
X144052380Y-86604761D01*
X144004761Y-86747619D01*
X143909523Y-86842857D01*
X143814285Y-86890476D01*
X143623809Y-86938095D01*
X143480952Y-86938095D01*
X143290476Y-86890476D01*
X143195238Y-86842857D01*
X143100000Y-86747619D01*
X143052380Y-86604761D01*
X143052380Y-86509523D01*
X143100000Y-86366666D01*
X143147619Y-86319047D01*
X143147619Y-85938095D02*
X143100000Y-85890476D01*
X143052380Y-85795238D01*
X143052380Y-85557142D01*
X143100000Y-85461904D01*
X143147619Y-85414285D01*
X143242857Y-85366666D01*
X143338095Y-85366666D01*
X143480952Y-85414285D01*
X144052380Y-85985714D01*
X144052380Y-85366666D01*
X143052380Y-84747619D02*
X143052380Y-84652380D01*
X143100000Y-84557142D01*
X143147619Y-84509523D01*
X143242857Y-84461904D01*
X143433333Y-84414285D01*
X143671428Y-84414285D01*
X143861904Y-84461904D01*
X143957142Y-84509523D01*
X144004761Y-84557142D01*
X144052380Y-84652380D01*
X144052380Y-84747619D01*
X144004761Y-84842857D01*
X143957142Y-84890476D01*
X143861904Y-84938095D01*
X143671428Y-84985714D01*
X143433333Y-84985714D01*
X143242857Y-84938095D01*
X143147619Y-84890476D01*
X143100000Y-84842857D01*
X143052380Y-84747619D01*
X143385714Y-83557142D02*
X144052380Y-83557142D01*
X143004761Y-83795238D02*
X143719047Y-84033333D01*
X143719047Y-83414285D01*
G04 #@! TO.C,C202*
X152080952Y-88457142D02*
X152033333Y-88504761D01*
X151890476Y-88552380D01*
X151795238Y-88552380D01*
X151652380Y-88504761D01*
X151557142Y-88409523D01*
X151509523Y-88314285D01*
X151461904Y-88123809D01*
X151461904Y-87980952D01*
X151509523Y-87790476D01*
X151557142Y-87695238D01*
X151652380Y-87600000D01*
X151795238Y-87552380D01*
X151890476Y-87552380D01*
X152033333Y-87600000D01*
X152080952Y-87647619D01*
X152461904Y-87647619D02*
X152509523Y-87600000D01*
X152604761Y-87552380D01*
X152842857Y-87552380D01*
X152938095Y-87600000D01*
X152985714Y-87647619D01*
X153033333Y-87742857D01*
X153033333Y-87838095D01*
X152985714Y-87980952D01*
X152414285Y-88552380D01*
X153033333Y-88552380D01*
X153652380Y-87552380D02*
X153747619Y-87552380D01*
X153842857Y-87600000D01*
X153890476Y-87647619D01*
X153938095Y-87742857D01*
X153985714Y-87933333D01*
X153985714Y-88171428D01*
X153938095Y-88361904D01*
X153890476Y-88457142D01*
X153842857Y-88504761D01*
X153747619Y-88552380D01*
X153652380Y-88552380D01*
X153557142Y-88504761D01*
X153509523Y-88457142D01*
X153461904Y-88361904D01*
X153414285Y-88171428D01*
X153414285Y-87933333D01*
X153461904Y-87742857D01*
X153509523Y-87647619D01*
X153557142Y-87600000D01*
X153652380Y-87552380D01*
X154366666Y-87647619D02*
X154414285Y-87600000D01*
X154509523Y-87552380D01*
X154747619Y-87552380D01*
X154842857Y-87600000D01*
X154890476Y-87647619D01*
X154938095Y-87742857D01*
X154938095Y-87838095D01*
X154890476Y-87980952D01*
X154319047Y-88552380D01*
X154938095Y-88552380D01*
G04 #@! TO.C,C211*
X156480952Y-72757142D02*
X156433333Y-72804761D01*
X156290476Y-72852380D01*
X156195238Y-72852380D01*
X156052380Y-72804761D01*
X155957142Y-72709523D01*
X155909523Y-72614285D01*
X155861904Y-72423809D01*
X155861904Y-72280952D01*
X155909523Y-72090476D01*
X155957142Y-71995238D01*
X156052380Y-71900000D01*
X156195238Y-71852380D01*
X156290476Y-71852380D01*
X156433333Y-71900000D01*
X156480952Y-71947619D01*
X156861904Y-71947619D02*
X156909523Y-71900000D01*
X157004761Y-71852380D01*
X157242857Y-71852380D01*
X157338095Y-71900000D01*
X157385714Y-71947619D01*
X157433333Y-72042857D01*
X157433333Y-72138095D01*
X157385714Y-72280952D01*
X156814285Y-72852380D01*
X157433333Y-72852380D01*
X158385714Y-72852380D02*
X157814285Y-72852380D01*
X158100000Y-72852380D02*
X158100000Y-71852380D01*
X158004761Y-71995238D01*
X157909523Y-72090476D01*
X157814285Y-72138095D01*
X159338095Y-72852380D02*
X158766666Y-72852380D01*
X159052380Y-72852380D02*
X159052380Y-71852380D01*
X158957142Y-71995238D01*
X158861904Y-72090476D01*
X158766666Y-72138095D01*
G04 #@! TO.C,C213*
X150907142Y-72419047D02*
X150954761Y-72466666D01*
X151002380Y-72609523D01*
X151002380Y-72704761D01*
X150954761Y-72847619D01*
X150859523Y-72942857D01*
X150764285Y-72990476D01*
X150573809Y-73038095D01*
X150430952Y-73038095D01*
X150240476Y-72990476D01*
X150145238Y-72942857D01*
X150050000Y-72847619D01*
X150002380Y-72704761D01*
X150002380Y-72609523D01*
X150050000Y-72466666D01*
X150097619Y-72419047D01*
X150097619Y-72038095D02*
X150050000Y-71990476D01*
X150002380Y-71895238D01*
X150002380Y-71657142D01*
X150050000Y-71561904D01*
X150097619Y-71514285D01*
X150192857Y-71466666D01*
X150288095Y-71466666D01*
X150430952Y-71514285D01*
X151002380Y-72085714D01*
X151002380Y-71466666D01*
X151002380Y-70514285D02*
X151002380Y-71085714D01*
X151002380Y-70800000D02*
X150002380Y-70800000D01*
X150145238Y-70895238D01*
X150240476Y-70990476D01*
X150288095Y-71085714D01*
X150002380Y-70180952D02*
X150002380Y-69561904D01*
X150383333Y-69895238D01*
X150383333Y-69752380D01*
X150430952Y-69657142D01*
X150478571Y-69609523D01*
X150573809Y-69561904D01*
X150811904Y-69561904D01*
X150907142Y-69609523D01*
X150954761Y-69657142D01*
X151002380Y-69752380D01*
X151002380Y-70038095D01*
X150954761Y-70133333D01*
X150907142Y-70180952D01*
G04 #@! TO.C,C210*
X150907142Y-84819047D02*
X150954761Y-84866666D01*
X151002380Y-85009523D01*
X151002380Y-85104761D01*
X150954761Y-85247619D01*
X150859523Y-85342857D01*
X150764285Y-85390476D01*
X150573809Y-85438095D01*
X150430952Y-85438095D01*
X150240476Y-85390476D01*
X150145238Y-85342857D01*
X150050000Y-85247619D01*
X150002380Y-85104761D01*
X150002380Y-85009523D01*
X150050000Y-84866666D01*
X150097619Y-84819047D01*
X150097619Y-84438095D02*
X150050000Y-84390476D01*
X150002380Y-84295238D01*
X150002380Y-84057142D01*
X150050000Y-83961904D01*
X150097619Y-83914285D01*
X150192857Y-83866666D01*
X150288095Y-83866666D01*
X150430952Y-83914285D01*
X151002380Y-84485714D01*
X151002380Y-83866666D01*
X151002380Y-82914285D02*
X151002380Y-83485714D01*
X151002380Y-83200000D02*
X150002380Y-83200000D01*
X150145238Y-83295238D01*
X150240476Y-83390476D01*
X150288095Y-83485714D01*
X150002380Y-82295238D02*
X150002380Y-82200000D01*
X150050000Y-82104761D01*
X150097619Y-82057142D01*
X150192857Y-82009523D01*
X150383333Y-81961904D01*
X150621428Y-81961904D01*
X150811904Y-82009523D01*
X150907142Y-82057142D01*
X150954761Y-82104761D01*
X151002380Y-82200000D01*
X151002380Y-82295238D01*
X150954761Y-82390476D01*
X150907142Y-82438095D01*
X150811904Y-82485714D01*
X150621428Y-82533333D01*
X150383333Y-82533333D01*
X150192857Y-82485714D01*
X150097619Y-82438095D01*
X150050000Y-82390476D01*
X150002380Y-82295238D01*
G04 #@! TO.C,R204*
X152780952Y-59252380D02*
X152447619Y-58776190D01*
X152209523Y-59252380D02*
X152209523Y-58252380D01*
X152590476Y-58252380D01*
X152685714Y-58300000D01*
X152733333Y-58347619D01*
X152780952Y-58442857D01*
X152780952Y-58585714D01*
X152733333Y-58680952D01*
X152685714Y-58728571D01*
X152590476Y-58776190D01*
X152209523Y-58776190D01*
X153161904Y-58347619D02*
X153209523Y-58300000D01*
X153304761Y-58252380D01*
X153542857Y-58252380D01*
X153638095Y-58300000D01*
X153685714Y-58347619D01*
X153733333Y-58442857D01*
X153733333Y-58538095D01*
X153685714Y-58680952D01*
X153114285Y-59252380D01*
X153733333Y-59252380D01*
X154352380Y-58252380D02*
X154447619Y-58252380D01*
X154542857Y-58300000D01*
X154590476Y-58347619D01*
X154638095Y-58442857D01*
X154685714Y-58633333D01*
X154685714Y-58871428D01*
X154638095Y-59061904D01*
X154590476Y-59157142D01*
X154542857Y-59204761D01*
X154447619Y-59252380D01*
X154352380Y-59252380D01*
X154257142Y-59204761D01*
X154209523Y-59157142D01*
X154161904Y-59061904D01*
X154114285Y-58871428D01*
X154114285Y-58633333D01*
X154161904Y-58442857D01*
X154209523Y-58347619D01*
X154257142Y-58300000D01*
X154352380Y-58252380D01*
X155542857Y-58585714D02*
X155542857Y-59252380D01*
X155304761Y-58204761D02*
X155066666Y-58919047D01*
X155685714Y-58919047D01*
G04 #@! TO.C,R203*
X152780952Y-60952380D02*
X152447619Y-60476190D01*
X152209523Y-60952380D02*
X152209523Y-59952380D01*
X152590476Y-59952380D01*
X152685714Y-60000000D01*
X152733333Y-60047619D01*
X152780952Y-60142857D01*
X152780952Y-60285714D01*
X152733333Y-60380952D01*
X152685714Y-60428571D01*
X152590476Y-60476190D01*
X152209523Y-60476190D01*
X153161904Y-60047619D02*
X153209523Y-60000000D01*
X153304761Y-59952380D01*
X153542857Y-59952380D01*
X153638095Y-60000000D01*
X153685714Y-60047619D01*
X153733333Y-60142857D01*
X153733333Y-60238095D01*
X153685714Y-60380952D01*
X153114285Y-60952380D01*
X153733333Y-60952380D01*
X154352380Y-59952380D02*
X154447619Y-59952380D01*
X154542857Y-60000000D01*
X154590476Y-60047619D01*
X154638095Y-60142857D01*
X154685714Y-60333333D01*
X154685714Y-60571428D01*
X154638095Y-60761904D01*
X154590476Y-60857142D01*
X154542857Y-60904761D01*
X154447619Y-60952380D01*
X154352380Y-60952380D01*
X154257142Y-60904761D01*
X154209523Y-60857142D01*
X154161904Y-60761904D01*
X154114285Y-60571428D01*
X154114285Y-60333333D01*
X154161904Y-60142857D01*
X154209523Y-60047619D01*
X154257142Y-60000000D01*
X154352380Y-59952380D01*
X155019047Y-59952380D02*
X155638095Y-59952380D01*
X155304761Y-60333333D01*
X155447619Y-60333333D01*
X155542857Y-60380952D01*
X155590476Y-60428571D01*
X155638095Y-60523809D01*
X155638095Y-60761904D01*
X155590476Y-60857142D01*
X155542857Y-60904761D01*
X155447619Y-60952380D01*
X155161904Y-60952380D01*
X155066666Y-60904761D01*
X155019047Y-60857142D01*
G04 #@! TO.C,R601*
X194880952Y-48152380D02*
X194547619Y-47676190D01*
X194309523Y-48152380D02*
X194309523Y-47152380D01*
X194690476Y-47152380D01*
X194785714Y-47200000D01*
X194833333Y-47247619D01*
X194880952Y-47342857D01*
X194880952Y-47485714D01*
X194833333Y-47580952D01*
X194785714Y-47628571D01*
X194690476Y-47676190D01*
X194309523Y-47676190D01*
X195738095Y-47152380D02*
X195547619Y-47152380D01*
X195452380Y-47200000D01*
X195404761Y-47247619D01*
X195309523Y-47390476D01*
X195261904Y-47580952D01*
X195261904Y-47961904D01*
X195309523Y-48057142D01*
X195357142Y-48104761D01*
X195452380Y-48152380D01*
X195642857Y-48152380D01*
X195738095Y-48104761D01*
X195785714Y-48057142D01*
X195833333Y-47961904D01*
X195833333Y-47723809D01*
X195785714Y-47628571D01*
X195738095Y-47580952D01*
X195642857Y-47533333D01*
X195452380Y-47533333D01*
X195357142Y-47580952D01*
X195309523Y-47628571D01*
X195261904Y-47723809D01*
X196452380Y-47152380D02*
X196547619Y-47152380D01*
X196642857Y-47200000D01*
X196690476Y-47247619D01*
X196738095Y-47342857D01*
X196785714Y-47533333D01*
X196785714Y-47771428D01*
X196738095Y-47961904D01*
X196690476Y-48057142D01*
X196642857Y-48104761D01*
X196547619Y-48152380D01*
X196452380Y-48152380D01*
X196357142Y-48104761D01*
X196309523Y-48057142D01*
X196261904Y-47961904D01*
X196214285Y-47771428D01*
X196214285Y-47533333D01*
X196261904Y-47342857D01*
X196309523Y-47247619D01*
X196357142Y-47200000D01*
X196452380Y-47152380D01*
X197738095Y-48152380D02*
X197166666Y-48152380D01*
X197452380Y-48152380D02*
X197452380Y-47152380D01*
X197357142Y-47295238D01*
X197261904Y-47390476D01*
X197166666Y-47438095D01*
G04 #@! TO.C,D601*
X198052380Y-56590476D02*
X197052380Y-56590476D01*
X197052380Y-56352380D01*
X197100000Y-56209523D01*
X197195238Y-56114285D01*
X197290476Y-56066666D01*
X197480952Y-56019047D01*
X197623809Y-56019047D01*
X197814285Y-56066666D01*
X197909523Y-56114285D01*
X198004761Y-56209523D01*
X198052380Y-56352380D01*
X198052380Y-56590476D01*
X197052380Y-55161904D02*
X197052380Y-55352380D01*
X197100000Y-55447619D01*
X197147619Y-55495238D01*
X197290476Y-55590476D01*
X197480952Y-55638095D01*
X197861904Y-55638095D01*
X197957142Y-55590476D01*
X198004761Y-55542857D01*
X198052380Y-55447619D01*
X198052380Y-55257142D01*
X198004761Y-55161904D01*
X197957142Y-55114285D01*
X197861904Y-55066666D01*
X197623809Y-55066666D01*
X197528571Y-55114285D01*
X197480952Y-55161904D01*
X197433333Y-55257142D01*
X197433333Y-55447619D01*
X197480952Y-55542857D01*
X197528571Y-55590476D01*
X197623809Y-55638095D01*
X197052380Y-54447619D02*
X197052380Y-54352380D01*
X197100000Y-54257142D01*
X197147619Y-54209523D01*
X197242857Y-54161904D01*
X197433333Y-54114285D01*
X197671428Y-54114285D01*
X197861904Y-54161904D01*
X197957142Y-54209523D01*
X198004761Y-54257142D01*
X198052380Y-54352380D01*
X198052380Y-54447619D01*
X198004761Y-54542857D01*
X197957142Y-54590476D01*
X197861904Y-54638095D01*
X197671428Y-54685714D01*
X197433333Y-54685714D01*
X197242857Y-54638095D01*
X197147619Y-54590476D01*
X197100000Y-54542857D01*
X197052380Y-54447619D01*
X198052380Y-53161904D02*
X198052380Y-53733333D01*
X198052380Y-53447619D02*
X197052380Y-53447619D01*
X197195238Y-53542857D01*
X197290476Y-53638095D01*
X197338095Y-53733333D01*
G04 #@! TO.C,D602*
X201252380Y-108590476D02*
X200252380Y-108590476D01*
X200252380Y-108352380D01*
X200300000Y-108209523D01*
X200395238Y-108114285D01*
X200490476Y-108066666D01*
X200680952Y-108019047D01*
X200823809Y-108019047D01*
X201014285Y-108066666D01*
X201109523Y-108114285D01*
X201204761Y-108209523D01*
X201252380Y-108352380D01*
X201252380Y-108590476D01*
X200252380Y-107161904D02*
X200252380Y-107352380D01*
X200300000Y-107447619D01*
X200347619Y-107495238D01*
X200490476Y-107590476D01*
X200680952Y-107638095D01*
X201061904Y-107638095D01*
X201157142Y-107590476D01*
X201204761Y-107542857D01*
X201252380Y-107447619D01*
X201252380Y-107257142D01*
X201204761Y-107161904D01*
X201157142Y-107114285D01*
X201061904Y-107066666D01*
X200823809Y-107066666D01*
X200728571Y-107114285D01*
X200680952Y-107161904D01*
X200633333Y-107257142D01*
X200633333Y-107447619D01*
X200680952Y-107542857D01*
X200728571Y-107590476D01*
X200823809Y-107638095D01*
X200252380Y-106447619D02*
X200252380Y-106352380D01*
X200300000Y-106257142D01*
X200347619Y-106209523D01*
X200442857Y-106161904D01*
X200633333Y-106114285D01*
X200871428Y-106114285D01*
X201061904Y-106161904D01*
X201157142Y-106209523D01*
X201204761Y-106257142D01*
X201252380Y-106352380D01*
X201252380Y-106447619D01*
X201204761Y-106542857D01*
X201157142Y-106590476D01*
X201061904Y-106638095D01*
X200871428Y-106685714D01*
X200633333Y-106685714D01*
X200442857Y-106638095D01*
X200347619Y-106590476D01*
X200300000Y-106542857D01*
X200252380Y-106447619D01*
X200347619Y-105733333D02*
X200300000Y-105685714D01*
X200252380Y-105590476D01*
X200252380Y-105352380D01*
X200300000Y-105257142D01*
X200347619Y-105209523D01*
X200442857Y-105161904D01*
X200538095Y-105161904D01*
X200680952Y-105209523D01*
X201252380Y-105780952D01*
X201252380Y-105161904D01*
G04 #@! TO.C,R602*
X207852380Y-113119047D02*
X207376190Y-113452380D01*
X207852380Y-113690476D02*
X206852380Y-113690476D01*
X206852380Y-113309523D01*
X206900000Y-113214285D01*
X206947619Y-113166666D01*
X207042857Y-113119047D01*
X207185714Y-113119047D01*
X207280952Y-113166666D01*
X207328571Y-113214285D01*
X207376190Y-113309523D01*
X207376190Y-113690476D01*
X206852380Y-112261904D02*
X206852380Y-112452380D01*
X206900000Y-112547619D01*
X206947619Y-112595238D01*
X207090476Y-112690476D01*
X207280952Y-112738095D01*
X207661904Y-112738095D01*
X207757142Y-112690476D01*
X207804761Y-112642857D01*
X207852380Y-112547619D01*
X207852380Y-112357142D01*
X207804761Y-112261904D01*
X207757142Y-112214285D01*
X207661904Y-112166666D01*
X207423809Y-112166666D01*
X207328571Y-112214285D01*
X207280952Y-112261904D01*
X207233333Y-112357142D01*
X207233333Y-112547619D01*
X207280952Y-112642857D01*
X207328571Y-112690476D01*
X207423809Y-112738095D01*
X206852380Y-111547619D02*
X206852380Y-111452380D01*
X206900000Y-111357142D01*
X206947619Y-111309523D01*
X207042857Y-111261904D01*
X207233333Y-111214285D01*
X207471428Y-111214285D01*
X207661904Y-111261904D01*
X207757142Y-111309523D01*
X207804761Y-111357142D01*
X207852380Y-111452380D01*
X207852380Y-111547619D01*
X207804761Y-111642857D01*
X207757142Y-111690476D01*
X207661904Y-111738095D01*
X207471428Y-111785714D01*
X207233333Y-111785714D01*
X207042857Y-111738095D01*
X206947619Y-111690476D01*
X206900000Y-111642857D01*
X206852380Y-111547619D01*
X206947619Y-110833333D02*
X206900000Y-110785714D01*
X206852380Y-110690476D01*
X206852380Y-110452380D01*
X206900000Y-110357142D01*
X206947619Y-110309523D01*
X207042857Y-110261904D01*
X207138095Y-110261904D01*
X207280952Y-110309523D01*
X207852380Y-110880952D01*
X207852380Y-110261904D01*
G04 #@! TO.C,C601*
X187580952Y-106657142D02*
X187533333Y-106704761D01*
X187390476Y-106752380D01*
X187295238Y-106752380D01*
X187152380Y-106704761D01*
X187057142Y-106609523D01*
X187009523Y-106514285D01*
X186961904Y-106323809D01*
X186961904Y-106180952D01*
X187009523Y-105990476D01*
X187057142Y-105895238D01*
X187152380Y-105800000D01*
X187295238Y-105752380D01*
X187390476Y-105752380D01*
X187533333Y-105800000D01*
X187580952Y-105847619D01*
X188438095Y-105752380D02*
X188247619Y-105752380D01*
X188152380Y-105800000D01*
X188104761Y-105847619D01*
X188009523Y-105990476D01*
X187961904Y-106180952D01*
X187961904Y-106561904D01*
X188009523Y-106657142D01*
X188057142Y-106704761D01*
X188152380Y-106752380D01*
X188342857Y-106752380D01*
X188438095Y-106704761D01*
X188485714Y-106657142D01*
X188533333Y-106561904D01*
X188533333Y-106323809D01*
X188485714Y-106228571D01*
X188438095Y-106180952D01*
X188342857Y-106133333D01*
X188152380Y-106133333D01*
X188057142Y-106180952D01*
X188009523Y-106228571D01*
X187961904Y-106323809D01*
X189152380Y-105752380D02*
X189247619Y-105752380D01*
X189342857Y-105800000D01*
X189390476Y-105847619D01*
X189438095Y-105942857D01*
X189485714Y-106133333D01*
X189485714Y-106371428D01*
X189438095Y-106561904D01*
X189390476Y-106657142D01*
X189342857Y-106704761D01*
X189247619Y-106752380D01*
X189152380Y-106752380D01*
X189057142Y-106704761D01*
X189009523Y-106657142D01*
X188961904Y-106561904D01*
X188914285Y-106371428D01*
X188914285Y-106133333D01*
X188961904Y-105942857D01*
X189009523Y-105847619D01*
X189057142Y-105800000D01*
X189152380Y-105752380D01*
X190438095Y-106752380D02*
X189866666Y-106752380D01*
X190152380Y-106752380D02*
X190152380Y-105752380D01*
X190057142Y-105895238D01*
X189961904Y-105990476D01*
X189866666Y-106038095D01*
G04 #@! TO.C,U601*
X187252380Y-111614285D02*
X188061904Y-111614285D01*
X188157142Y-111566666D01*
X188204761Y-111519047D01*
X188252380Y-111423809D01*
X188252380Y-111233333D01*
X188204761Y-111138095D01*
X188157142Y-111090476D01*
X188061904Y-111042857D01*
X187252380Y-111042857D01*
X187252380Y-110138095D02*
X187252380Y-110328571D01*
X187300000Y-110423809D01*
X187347619Y-110471428D01*
X187490476Y-110566666D01*
X187680952Y-110614285D01*
X188061904Y-110614285D01*
X188157142Y-110566666D01*
X188204761Y-110519047D01*
X188252380Y-110423809D01*
X188252380Y-110233333D01*
X188204761Y-110138095D01*
X188157142Y-110090476D01*
X188061904Y-110042857D01*
X187823809Y-110042857D01*
X187728571Y-110090476D01*
X187680952Y-110138095D01*
X187633333Y-110233333D01*
X187633333Y-110423809D01*
X187680952Y-110519047D01*
X187728571Y-110566666D01*
X187823809Y-110614285D01*
X187252380Y-109423809D02*
X187252380Y-109328571D01*
X187300000Y-109233333D01*
X187347619Y-109185714D01*
X187442857Y-109138095D01*
X187633333Y-109090476D01*
X187871428Y-109090476D01*
X188061904Y-109138095D01*
X188157142Y-109185714D01*
X188204761Y-109233333D01*
X188252380Y-109328571D01*
X188252380Y-109423809D01*
X188204761Y-109519047D01*
X188157142Y-109566666D01*
X188061904Y-109614285D01*
X187871428Y-109661904D01*
X187633333Y-109661904D01*
X187442857Y-109614285D01*
X187347619Y-109566666D01*
X187300000Y-109519047D01*
X187252380Y-109423809D01*
X188252380Y-108138095D02*
X188252380Y-108709523D01*
X188252380Y-108423809D02*
X187252380Y-108423809D01*
X187395238Y-108519047D01*
X187490476Y-108614285D01*
X187538095Y-108709523D01*
X213252380Y-79814285D02*
X214061904Y-79814285D01*
X214157142Y-79766666D01*
X214204761Y-79719047D01*
X214252380Y-79623809D01*
X214252380Y-79433333D01*
X214204761Y-79338095D01*
X214157142Y-79290476D01*
X214061904Y-79242857D01*
X213252380Y-79242857D01*
X213252380Y-78338095D02*
X213252380Y-78528571D01*
X213300000Y-78623809D01*
X213347619Y-78671428D01*
X213490476Y-78766666D01*
X213680952Y-78814285D01*
X214061904Y-78814285D01*
X214157142Y-78766666D01*
X214204761Y-78719047D01*
X214252380Y-78623809D01*
X214252380Y-78433333D01*
X214204761Y-78338095D01*
X214157142Y-78290476D01*
X214061904Y-78242857D01*
X213823809Y-78242857D01*
X213728571Y-78290476D01*
X213680952Y-78338095D01*
X213633333Y-78433333D01*
X213633333Y-78623809D01*
X213680952Y-78719047D01*
X213728571Y-78766666D01*
X213823809Y-78814285D01*
X213252380Y-77623809D02*
X213252380Y-77528571D01*
X213300000Y-77433333D01*
X213347619Y-77385714D01*
X213442857Y-77338095D01*
X213633333Y-77290476D01*
X213871428Y-77290476D01*
X214061904Y-77338095D01*
X214157142Y-77385714D01*
X214204761Y-77433333D01*
X214252380Y-77528571D01*
X214252380Y-77623809D01*
X214204761Y-77719047D01*
X214157142Y-77766666D01*
X214061904Y-77814285D01*
X213871428Y-77861904D01*
X213633333Y-77861904D01*
X213442857Y-77814285D01*
X213347619Y-77766666D01*
X213300000Y-77719047D01*
X213252380Y-77623809D01*
X214252380Y-76338095D02*
X214252380Y-76909523D01*
X214252380Y-76623809D02*
X213252380Y-76623809D01*
X213395238Y-76719047D01*
X213490476Y-76814285D01*
X213538095Y-76909523D01*
G04 #@! TO.C,R602*
X194652380Y-77119047D02*
X194176190Y-77452380D01*
X194652380Y-77690476D02*
X193652380Y-77690476D01*
X193652380Y-77309523D01*
X193700000Y-77214285D01*
X193747619Y-77166666D01*
X193842857Y-77119047D01*
X193985714Y-77119047D01*
X194080952Y-77166666D01*
X194128571Y-77214285D01*
X194176190Y-77309523D01*
X194176190Y-77690476D01*
X193652380Y-76261904D02*
X193652380Y-76452380D01*
X193700000Y-76547619D01*
X193747619Y-76595238D01*
X193890476Y-76690476D01*
X194080952Y-76738095D01*
X194461904Y-76738095D01*
X194557142Y-76690476D01*
X194604761Y-76642857D01*
X194652380Y-76547619D01*
X194652380Y-76357142D01*
X194604761Y-76261904D01*
X194557142Y-76214285D01*
X194461904Y-76166666D01*
X194223809Y-76166666D01*
X194128571Y-76214285D01*
X194080952Y-76261904D01*
X194033333Y-76357142D01*
X194033333Y-76547619D01*
X194080952Y-76642857D01*
X194128571Y-76690476D01*
X194223809Y-76738095D01*
X193652380Y-75547619D02*
X193652380Y-75452380D01*
X193700000Y-75357142D01*
X193747619Y-75309523D01*
X193842857Y-75261904D01*
X194033333Y-75214285D01*
X194271428Y-75214285D01*
X194461904Y-75261904D01*
X194557142Y-75309523D01*
X194604761Y-75357142D01*
X194652380Y-75452380D01*
X194652380Y-75547619D01*
X194604761Y-75642857D01*
X194557142Y-75690476D01*
X194461904Y-75738095D01*
X194271428Y-75785714D01*
X194033333Y-75785714D01*
X193842857Y-75738095D01*
X193747619Y-75690476D01*
X193700000Y-75642857D01*
X193652380Y-75547619D01*
X193747619Y-74833333D02*
X193700000Y-74785714D01*
X193652380Y-74690476D01*
X193652380Y-74452380D01*
X193700000Y-74357142D01*
X193747619Y-74309523D01*
X193842857Y-74261904D01*
X193938095Y-74261904D01*
X194080952Y-74309523D01*
X194652380Y-74880952D01*
X194652380Y-74261904D01*
G04 #@! TO.C,C601*
X211780952Y-82057142D02*
X211733333Y-82104761D01*
X211590476Y-82152380D01*
X211495238Y-82152380D01*
X211352380Y-82104761D01*
X211257142Y-82009523D01*
X211209523Y-81914285D01*
X211161904Y-81723809D01*
X211161904Y-81580952D01*
X211209523Y-81390476D01*
X211257142Y-81295238D01*
X211352380Y-81200000D01*
X211495238Y-81152380D01*
X211590476Y-81152380D01*
X211733333Y-81200000D01*
X211780952Y-81247619D01*
X212638095Y-81152380D02*
X212447619Y-81152380D01*
X212352380Y-81200000D01*
X212304761Y-81247619D01*
X212209523Y-81390476D01*
X212161904Y-81580952D01*
X212161904Y-81961904D01*
X212209523Y-82057142D01*
X212257142Y-82104761D01*
X212352380Y-82152380D01*
X212542857Y-82152380D01*
X212638095Y-82104761D01*
X212685714Y-82057142D01*
X212733333Y-81961904D01*
X212733333Y-81723809D01*
X212685714Y-81628571D01*
X212638095Y-81580952D01*
X212542857Y-81533333D01*
X212352380Y-81533333D01*
X212257142Y-81580952D01*
X212209523Y-81628571D01*
X212161904Y-81723809D01*
X213352380Y-81152380D02*
X213447619Y-81152380D01*
X213542857Y-81200000D01*
X213590476Y-81247619D01*
X213638095Y-81342857D01*
X213685714Y-81533333D01*
X213685714Y-81771428D01*
X213638095Y-81961904D01*
X213590476Y-82057142D01*
X213542857Y-82104761D01*
X213447619Y-82152380D01*
X213352380Y-82152380D01*
X213257142Y-82104761D01*
X213209523Y-82057142D01*
X213161904Y-81961904D01*
X213114285Y-81771428D01*
X213114285Y-81533333D01*
X213161904Y-81342857D01*
X213209523Y-81247619D01*
X213257142Y-81200000D01*
X213352380Y-81152380D01*
X214638095Y-82152380D02*
X214066666Y-82152380D01*
X214352380Y-82152380D02*
X214352380Y-81152380D01*
X214257142Y-81295238D01*
X214161904Y-81390476D01*
X214066666Y-81438095D01*
G04 #@! TO.C,D602*
X201252380Y-82790476D02*
X200252380Y-82790476D01*
X200252380Y-82552380D01*
X200300000Y-82409523D01*
X200395238Y-82314285D01*
X200490476Y-82266666D01*
X200680952Y-82219047D01*
X200823809Y-82219047D01*
X201014285Y-82266666D01*
X201109523Y-82314285D01*
X201204761Y-82409523D01*
X201252380Y-82552380D01*
X201252380Y-82790476D01*
X200252380Y-81361904D02*
X200252380Y-81552380D01*
X200300000Y-81647619D01*
X200347619Y-81695238D01*
X200490476Y-81790476D01*
X200680952Y-81838095D01*
X201061904Y-81838095D01*
X201157142Y-81790476D01*
X201204761Y-81742857D01*
X201252380Y-81647619D01*
X201252380Y-81457142D01*
X201204761Y-81361904D01*
X201157142Y-81314285D01*
X201061904Y-81266666D01*
X200823809Y-81266666D01*
X200728571Y-81314285D01*
X200680952Y-81361904D01*
X200633333Y-81457142D01*
X200633333Y-81647619D01*
X200680952Y-81742857D01*
X200728571Y-81790476D01*
X200823809Y-81838095D01*
X200252380Y-80647619D02*
X200252380Y-80552380D01*
X200300000Y-80457142D01*
X200347619Y-80409523D01*
X200442857Y-80361904D01*
X200633333Y-80314285D01*
X200871428Y-80314285D01*
X201061904Y-80361904D01*
X201157142Y-80409523D01*
X201204761Y-80457142D01*
X201252380Y-80552380D01*
X201252380Y-80647619D01*
X201204761Y-80742857D01*
X201157142Y-80790476D01*
X201061904Y-80838095D01*
X200871428Y-80885714D01*
X200633333Y-80885714D01*
X200442857Y-80838095D01*
X200347619Y-80790476D01*
X200300000Y-80742857D01*
X200252380Y-80647619D01*
X200347619Y-79933333D02*
X200300000Y-79885714D01*
X200252380Y-79790476D01*
X200252380Y-79552380D01*
X200300000Y-79457142D01*
X200347619Y-79409523D01*
X200442857Y-79361904D01*
X200538095Y-79361904D01*
X200680952Y-79409523D01*
X201252380Y-79980952D01*
X201252380Y-79361904D01*
G04 #@! TO.C,C601*
X187580952Y-49657142D02*
X187533333Y-49704761D01*
X187390476Y-49752380D01*
X187295238Y-49752380D01*
X187152380Y-49704761D01*
X187057142Y-49609523D01*
X187009523Y-49514285D01*
X186961904Y-49323809D01*
X186961904Y-49180952D01*
X187009523Y-48990476D01*
X187057142Y-48895238D01*
X187152380Y-48800000D01*
X187295238Y-48752380D01*
X187390476Y-48752380D01*
X187533333Y-48800000D01*
X187580952Y-48847619D01*
X188438095Y-48752380D02*
X188247619Y-48752380D01*
X188152380Y-48800000D01*
X188104761Y-48847619D01*
X188009523Y-48990476D01*
X187961904Y-49180952D01*
X187961904Y-49561904D01*
X188009523Y-49657142D01*
X188057142Y-49704761D01*
X188152380Y-49752380D01*
X188342857Y-49752380D01*
X188438095Y-49704761D01*
X188485714Y-49657142D01*
X188533333Y-49561904D01*
X188533333Y-49323809D01*
X188485714Y-49228571D01*
X188438095Y-49180952D01*
X188342857Y-49133333D01*
X188152380Y-49133333D01*
X188057142Y-49180952D01*
X188009523Y-49228571D01*
X187961904Y-49323809D01*
X189152380Y-48752380D02*
X189247619Y-48752380D01*
X189342857Y-48800000D01*
X189390476Y-48847619D01*
X189438095Y-48942857D01*
X189485714Y-49133333D01*
X189485714Y-49371428D01*
X189438095Y-49561904D01*
X189390476Y-49657142D01*
X189342857Y-49704761D01*
X189247619Y-49752380D01*
X189152380Y-49752380D01*
X189057142Y-49704761D01*
X189009523Y-49657142D01*
X188961904Y-49561904D01*
X188914285Y-49371428D01*
X188914285Y-49133333D01*
X188961904Y-48942857D01*
X189009523Y-48847619D01*
X189057142Y-48800000D01*
X189152380Y-48752380D01*
X190438095Y-49752380D02*
X189866666Y-49752380D01*
X190152380Y-49752380D02*
X190152380Y-48752380D01*
X190057142Y-48895238D01*
X189961904Y-48990476D01*
X189866666Y-49038095D01*
G04 #@! TO.C,U601*
X187252380Y-54614285D02*
X188061904Y-54614285D01*
X188157142Y-54566666D01*
X188204761Y-54519047D01*
X188252380Y-54423809D01*
X188252380Y-54233333D01*
X188204761Y-54138095D01*
X188157142Y-54090476D01*
X188061904Y-54042857D01*
X187252380Y-54042857D01*
X187252380Y-53138095D02*
X187252380Y-53328571D01*
X187300000Y-53423809D01*
X187347619Y-53471428D01*
X187490476Y-53566666D01*
X187680952Y-53614285D01*
X188061904Y-53614285D01*
X188157142Y-53566666D01*
X188204761Y-53519047D01*
X188252380Y-53423809D01*
X188252380Y-53233333D01*
X188204761Y-53138095D01*
X188157142Y-53090476D01*
X188061904Y-53042857D01*
X187823809Y-53042857D01*
X187728571Y-53090476D01*
X187680952Y-53138095D01*
X187633333Y-53233333D01*
X187633333Y-53423809D01*
X187680952Y-53519047D01*
X187728571Y-53566666D01*
X187823809Y-53614285D01*
X187252380Y-52423809D02*
X187252380Y-52328571D01*
X187300000Y-52233333D01*
X187347619Y-52185714D01*
X187442857Y-52138095D01*
X187633333Y-52090476D01*
X187871428Y-52090476D01*
X188061904Y-52138095D01*
X188157142Y-52185714D01*
X188204761Y-52233333D01*
X188252380Y-52328571D01*
X188252380Y-52423809D01*
X188204761Y-52519047D01*
X188157142Y-52566666D01*
X188061904Y-52614285D01*
X187871428Y-52661904D01*
X187633333Y-52661904D01*
X187442857Y-52614285D01*
X187347619Y-52566666D01*
X187300000Y-52519047D01*
X187252380Y-52423809D01*
X188252380Y-51138095D02*
X188252380Y-51709523D01*
X188252380Y-51423809D02*
X187252380Y-51423809D01*
X187395238Y-51519047D01*
X187490476Y-51614285D01*
X187538095Y-51709523D01*
G04 #@! TO.C,D602*
X201252380Y-51590476D02*
X200252380Y-51590476D01*
X200252380Y-51352380D01*
X200300000Y-51209523D01*
X200395238Y-51114285D01*
X200490476Y-51066666D01*
X200680952Y-51019047D01*
X200823809Y-51019047D01*
X201014285Y-51066666D01*
X201109523Y-51114285D01*
X201204761Y-51209523D01*
X201252380Y-51352380D01*
X201252380Y-51590476D01*
X200252380Y-50161904D02*
X200252380Y-50352380D01*
X200300000Y-50447619D01*
X200347619Y-50495238D01*
X200490476Y-50590476D01*
X200680952Y-50638095D01*
X201061904Y-50638095D01*
X201157142Y-50590476D01*
X201204761Y-50542857D01*
X201252380Y-50447619D01*
X201252380Y-50257142D01*
X201204761Y-50161904D01*
X201157142Y-50114285D01*
X201061904Y-50066666D01*
X200823809Y-50066666D01*
X200728571Y-50114285D01*
X200680952Y-50161904D01*
X200633333Y-50257142D01*
X200633333Y-50447619D01*
X200680952Y-50542857D01*
X200728571Y-50590476D01*
X200823809Y-50638095D01*
X200252380Y-49447619D02*
X200252380Y-49352380D01*
X200300000Y-49257142D01*
X200347619Y-49209523D01*
X200442857Y-49161904D01*
X200633333Y-49114285D01*
X200871428Y-49114285D01*
X201061904Y-49161904D01*
X201157142Y-49209523D01*
X201204761Y-49257142D01*
X201252380Y-49352380D01*
X201252380Y-49447619D01*
X201204761Y-49542857D01*
X201157142Y-49590476D01*
X201061904Y-49638095D01*
X200871428Y-49685714D01*
X200633333Y-49685714D01*
X200442857Y-49638095D01*
X200347619Y-49590476D01*
X200300000Y-49542857D01*
X200252380Y-49447619D01*
X200347619Y-48733333D02*
X200300000Y-48685714D01*
X200252380Y-48590476D01*
X200252380Y-48352380D01*
X200300000Y-48257142D01*
X200347619Y-48209523D01*
X200442857Y-48161904D01*
X200538095Y-48161904D01*
X200680952Y-48209523D01*
X201252380Y-48780952D01*
X201252380Y-48161904D01*
G04 #@! TO.C,R602*
X207852380Y-56119047D02*
X207376190Y-56452380D01*
X207852380Y-56690476D02*
X206852380Y-56690476D01*
X206852380Y-56309523D01*
X206900000Y-56214285D01*
X206947619Y-56166666D01*
X207042857Y-56119047D01*
X207185714Y-56119047D01*
X207280952Y-56166666D01*
X207328571Y-56214285D01*
X207376190Y-56309523D01*
X207376190Y-56690476D01*
X206852380Y-55261904D02*
X206852380Y-55452380D01*
X206900000Y-55547619D01*
X206947619Y-55595238D01*
X207090476Y-55690476D01*
X207280952Y-55738095D01*
X207661904Y-55738095D01*
X207757142Y-55690476D01*
X207804761Y-55642857D01*
X207852380Y-55547619D01*
X207852380Y-55357142D01*
X207804761Y-55261904D01*
X207757142Y-55214285D01*
X207661904Y-55166666D01*
X207423809Y-55166666D01*
X207328571Y-55214285D01*
X207280952Y-55261904D01*
X207233333Y-55357142D01*
X207233333Y-55547619D01*
X207280952Y-55642857D01*
X207328571Y-55690476D01*
X207423809Y-55738095D01*
X206852380Y-54547619D02*
X206852380Y-54452380D01*
X206900000Y-54357142D01*
X206947619Y-54309523D01*
X207042857Y-54261904D01*
X207233333Y-54214285D01*
X207471428Y-54214285D01*
X207661904Y-54261904D01*
X207757142Y-54309523D01*
X207804761Y-54357142D01*
X207852380Y-54452380D01*
X207852380Y-54547619D01*
X207804761Y-54642857D01*
X207757142Y-54690476D01*
X207661904Y-54738095D01*
X207471428Y-54785714D01*
X207233333Y-54785714D01*
X207042857Y-54738095D01*
X206947619Y-54690476D01*
X206900000Y-54642857D01*
X206852380Y-54547619D01*
X206947619Y-53833333D02*
X206900000Y-53785714D01*
X206852380Y-53690476D01*
X206852380Y-53452380D01*
X206900000Y-53357142D01*
X206947619Y-53309523D01*
X207042857Y-53261904D01*
X207138095Y-53261904D01*
X207280952Y-53309523D01*
X207852380Y-53880952D01*
X207852380Y-53261904D01*
G04 #@! TD*
M02*
